<svg xmlns="http://www.w3.org/2000/svg" fill="none" viewBox="0 0 292 41">
<g clip-path="url(#clip0_178_375)">
<g clip-path="url(#clip1_178_375)">
<path fill="#FF5543" d="m14.905 11.217 4.483 1.196L16.335 1l-5.17 1.392 1.84 6.92a2.68 2.68 0 0 0 1.9 1.905M7.326 34.462l9.78-9.76L20.666 38l5.17-1.392L20.684 17.3 1.375 12.153 0 17.352l13.287 3.552-9.74 9.746zM25.561 18.59l1.2 4.503a2.69 2.69 0 0 0 1.9 1.902l6.962 1.85 1.375-5.199zM29.672 4.535l-4.45 4.445a2.7 2.7 0 0 0-.79 1.84l-.072 2.82 2.607.09c-.033 0 .033 0 0 0 .714 0 1.385-.279 1.888-.783l4.595-4.6z"/>
</g>
</g>
<path fill="#ffffff" d="M63.083 18.472q-2.37-.995-5.927-1.66-2.428-.507-3.64-.897-1.214-.39-1.8-.995t-.587-1.658q0-1.25.684-1.932.685-.683 1.86-.957 1.173-.271 2.934-.272 2.114 0 4.208.508 2.092.51 4.519 1.6l.86-4.84a20 20 0 0 0-4.599-1.562 24 24 0 0 0-4.988-.508q-3.09 0-5.635.956-2.543.958-4.07 2.771-1.525 1.815-1.526 4.432 0 2.303 1.174 3.864t3.444 2.518q2.269.957 5.792 1.581c1.67.34 2.92.643 3.756.918q1.254.408 1.956 1.133.705.722.706 2.089-.001 1.249-.802 1.97-.802.724-2.114.977t-3.15.253q-2.543 0-5.574-.663-3.032-.663-5.224-1.795l-.51 4.802q2.112 1.212 5.068 1.834 2.952.625 6.318.624c2.244 0 4.094-.318 5.87-.957q2.659-.954 4.245-2.81 1.584-1.854 1.585-4.508 0-2.458-1.232-4.137-1.232-1.677-3.599-2.674zM87.441 12.655q-2.7-1.424-6.026-1.424c-2.217 0-4.292.475-6.065 1.424q-2.663 1.425-4.166 3.98-1.507 2.559-1.507 5.76c0 2.134.495 4.007 1.487 5.698q1.486 2.538 4.167 4.002t6.084 1.465c2.27 0 4.227-.489 6.026-1.465q2.7-1.463 4.208-4.021 1.507-2.556 1.507-5.718c0-2.108-.503-4.046-1.507-5.737q-1.506-2.538-4.208-3.961zm-.353 13.135a5.9 5.9 0 0 1-2.308 2.322q-1.49.84-3.326.839c-1.225 0-2.413-.28-3.404-.839a6.1 6.1 0 0 1-2.347-2.342q-.861-1.503-.86-3.455 0-1.953.86-3.395a6.16 6.16 0 0 1 2.347-2.265q1.487-.82 3.365-.82t3.364.82a5.8 5.8 0 0 1 2.31 2.303q.821 1.484.82 3.437c0 1.3-.272 2.407-.82 3.395M111.425 24.4q-.147.39-.333.765-.842 1.678-2.329 2.656-1.486.975-3.325.976-2.428 0-3.619-1.309-1.194-1.307-1.193-3.727V11.66h-5.202V24.54q-.001 2.733 1.096 4.762 1.094 2.031 3.053 3.122 1.956 1.093 4.5 1.094 3.834 0 6.065-1.951a9 9 0 0 0 1.292-1.4v2.922h5.202V11.66h-5.202V24.4zM131.028 11.27q-3.679 0-5.517 2.419-.435.575-.783 1.28v-3.31h-5.204V33.09h5.204V24.27q0-3.59 1.546-5.756 1.544-2.166 4.205-2.167h1.293q.39.04.705.039h.625l.587-4.84a13.7 13.7 0 0 0-2.661-.273zM142.16 16.597q1.506-.799 3.425-.8 1.564 0 2.934.468 1.369.468 2.778 1.522l2.152-3.864q-1.917-1.406-3.913-2.049-1.997-.643-4.381-.643-3.17 0-5.792 1.386a10.4 10.4 0 0 0-4.147 3.941q-1.526 2.56-1.527 5.837t1.488 5.797q1.486 2.52 4.128 3.903 2.642 1.385 5.811 1.386 2.424-.001 4.324-.605c1.265-.402 2.601-1.075 4.009-2.01l-2.075-3.785a12.3 12.3 0 0 1-2.838 1.424 9 9 0 0 1-2.915.49q-1.916 0-3.444-.782a5.8 5.8 0 0 1-2.406-2.284q-.881-1.502-.882-3.532c0-1.354.293-2.557.882-3.532a6.06 6.06 0 0 1 2.386-2.265zM170.274 12.498q-2.389-1.228-5.244-1.228-3.405 0-6.007 1.424t-4.011 3.96q-1.41 2.538-1.409 5.738c0 2.132.496 3.976 1.488 5.68q1.487 2.557 4.186 4.002t6.065 1.443q2.348 0 4.185-.49a11.6 11.6 0 0 0 3.522-1.619l-1.331-4.255q-1.252.899-2.896 1.386a11.3 11.3 0 0 1-3.207.489q-2.112 0-3.64-.761a5.36 5.36 0 0 1-2.348-2.246 6.3 6.3 0 0 1-.65-1.834h15.753q.273-.781.449-1.66a9.3 9.3 0 0 0 .177-1.853q0-2.654-1.351-4.802-1.349-2.148-3.736-3.376zm-10.741 6.345a5.2 5.2 0 0 1 2.113-2.285q1.389-.799 3.307-.8 1.72.002 2.973.682 1.253.684 1.838 2.09.343.82.404 1.874h-11.164a6.8 6.8 0 0 1 .529-1.561M195.12 14.588a8.04 8.04 0 0 0-3.249-2.518q-1.955-.84-4.618-.839-2.895 0-5.183 1.366-2.29 1.367-3.599 3.786-1.311 2.42-1.311 5.426c0 2.005.437 3.703 1.311 5.25a9.65 9.65 0 0 0 3.64 3.67q2.326 1.348 5.225 1.347 2.584.001 4.519-.82a7.6 7.6 0 0 0 3.188-2.498v1.015q0 2.888-1.86 4.566-1.859 1.678-5.145 1.68a13.8 13.8 0 0 1-4.185-.644q-2.036-.645-3.64-1.776l-2.034 3.67q2.112 1.443 4.753 2.204 2.642.763 5.693.762 5.479 0 8.57-2.928 3.09-2.927 3.091-8.159V11.66h-5.164v2.928zm-.882 10.52a5.67 5.67 0 0 1-2.289 2.185q-1.448.763-3.365.762-1.76-.001-3.188-.8a5.8 5.8 0 0 1-2.249-2.246q-.822-1.443-.821-3.2c0-1.171.273-2.323.821-3.299a5.94 5.94 0 0 1 2.249-2.284q1.428-.82 3.188-.82 1.918 0 3.365.762a5.7 5.7 0 0 1 2.289 2.205q.841 1.445.841 3.356c0 1.275-.28 2.427-.841 3.376zM209.245 13.689q-.435.575-.783 1.28v-3.31h-5.205v21.432h5.205v-8.822q0-3.59 1.546-5.756 1.544-2.166 4.205-2.167h1.292a7 7 0 0 0 .705.039h.626l.587-4.84a13.7 13.7 0 0 0-2.662-.273q-3.678 0-5.516 2.42zM235.166 13.592q-2.524-2.36-7.65-2.361-3.913 0-7.864 1.29l.626 4.565a15.2 15.2 0 0 1 3.169-.956 18.5 18.5 0 0 1 3.521-.333q2.74 0 4.128 1.053 1.388 1.056 1.389 3.123v.164q-1.276-.114-2.778-.205a65 65 0 0 0-3.835-.118q-4.227 0-6.261 1.913-2.035 1.914-2.034 4.918 0 1.99.901 3.552.9 1.562 2.602 2.438 1.701.88 3.932.88c1.488 0 2.765-.215 3.913-.644q1.721-.643 2.777-1.68c.3-.293.558-.592.783-.896v2.79h5.205V20.323q0-4.37-2.524-6.734zm-5.184 14.754q-1.29.723-3.248.723c-1.304 0-2.406-.227-3.15-.684q-1.116-.684-1.116-2.01-.001-1.406 1.136-2.147 1.133-.741 3.835-.742 1.486 0 2.7.058 1.191.057 2.346.21c-.02.98-.218 1.86-.604 2.638q-.605 1.23-1.899 1.952zM258.408 12.674q-2.407-1.442-5.263-1.443-2.231 0-4.147.761a9.5 9.5 0 0 0-3.326 2.205V11.66h-5.205v28.144h5.205V30.63a7.6 7.6 0 0 0 2.094 1.6q1.193.625 2.505.976 1.31.352 2.838.352 2.934 0 5.321-1.386q2.388-1.383 3.775-3.922 1.388-2.538 1.389-5.817c0-2.185-.464-4.053-1.389-5.759q-1.388-2.555-3.794-4.002zm-.782 13.096a5.8 5.8 0 0 1-2.23 2.285q-1.428.82-3.229.819-1.918 0-3.403-.78a5.4 5.4 0 0 1-2.29-2.266q-.802-1.481-.802-3.436c0-1.303.273-2.472.821-3.436a5.9 5.9 0 0 1 2.29-2.265q1.467-.82 3.384-.82 1.799 0 3.229.82a5.7 5.7 0 0 1 2.23 2.323q.8 1.503.801 3.414c0 1.275-.268 2.362-.801 3.337zM286.327 15.445q-1.096-2.026-3.053-3.123-1.957-1.092-4.5-1.093c-2.558 0-4.577.65-6.065 1.951a9 9 0 0 0-1.292 1.4V4.282h-5.205V33.09h5.205V20.35q.147-.39.333-.767.84-1.677 2.329-2.655 1.486-.975 3.325-.976 2.428 0 3.619 1.309t1.193 3.727v12.101h5.205V20.207q0-2.733-1.097-4.762z"/>
<defs>
<clipPath id="clip0_178_375"><path fill="#fff" d="M0 1h37v37H0z"/></clipPath>
<clipPath id="clip1_178_375"><path fill="#fff" d="M0 1h37v37H0z"/></clipPath>
</defs>
</svg>
