<svg width="36" height="36" viewBox="0 0 36 36" fill="none" xmlns="http://www.w3.org/2000/svg">
<rect width="36" height="36" rx="6.41961" fill="#EFF0F2"/>
<path d="M25.9989 26.0132H15.9854V10H25.9989C27.1042 10 27.9999 10.8958 27.9999 12.0011V24.0121C27.9999 25.1174 27.1042 26.0132 25.9989 26.0132Z" fill="#C4C4C4"/>
<path d="M10.0011 26.0132H15.996V10H10.0011C8.89577 10 8 10.8958 8 12.0011V24.0121C8 25.1174 8.89577 26.0132 10.0011 26.0132Z" fill="#65676E"/>
<path d="M10.5755 13.0758C10.8914 13.0758 11.1476 12.8197 11.1476 12.5037C11.1476 12.1878 10.8914 11.9316 10.5755 11.9316C10.2595 11.9316 10.0034 12.1878 10.0034 12.5037C10.0034 12.8197 10.2595 13.0758 10.5755 13.0758Z" fill="#C4C4C4"/>
<path d="M12.5483 16.0079H10.4978C10.2248 16.0079 10.0046 15.7866 10.0046 15.5147C10.0046 15.2416 10.2259 15.0215 10.4978 15.0215H12.5483C12.8214 15.0215 13.0415 15.2428 13.0415 15.5147C13.0415 15.7866 12.8202 16.0079 12.5483 16.0079Z" fill="#9B9D9F"/>
<path d="M12.5483 20.0159H10.4978C10.2248 20.0159 10.0046 19.7947 10.0046 19.5227C10.0046 19.2497 10.2259 19.0295 10.4978 19.0295H12.5483C12.8214 19.0295 13.0415 19.2508 13.0415 19.5227C13.0415 19.7947 12.8202 20.0159 12.5483 20.0159Z" fill="#9B9D9F"/>
<path d="M13.5453 18.0113H10.4978C10.2248 18.0113 10.0046 17.79 10.0046 17.5181C10.0046 17.245 10.2259 17.0249 10.4978 17.0249H13.5453C13.8184 17.0249 14.0385 17.2462 14.0385 17.5181C14.0385 17.7912 13.8172 18.0113 13.5453 18.0113Z" fill="#9B9D9F"/>
<path d="M11.496 24.0145H10.4978C10.2248 24.0145 10.0046 23.7932 10.0046 23.5213C10.0046 23.2482 10.2259 23.0281 10.4978 23.0281H11.496C11.7691 23.0281 11.9892 23.2494 11.9892 23.5213C11.9892 23.7932 11.7679 24.0145 11.496 24.0145Z" fill="#C4C4C4"/>
</svg>
