<svg
        
        width="250"
        height="213"
        viewBox="0 0 250 213"
        fill="none"
        xmlns="http://www.w3.org/2000/svg"
      >
        <path
          d="M260.206 -78.7287C293.773 -52.9949 325.412 -25.7904 329.935 9.50544C332.466 29.2926 329.544 46.0533 344.474 62.557C357.942 77.4279 376.743 90.5086 362.169 112.713C355.24 123.261 338.942 134.114 330.064 144.721C307.449 171.723 318.62 185.945 335.711 204.191"
          stroke="#1E212A"
          stroke-width="0.835938"
          stroke-miterlimit="10"
        />
        <path
          d="M242.946 -74.1172C278.357 -49.3805 311.663 -23.0608 317.87 11.5773C321.428 31.4117 319.995 48.07 335.695 64.6382C349.945 79.6604 371.419 93.624 354.611 116.698C346.896 127.276 329.122 137.893 318.98 148.464C292.806 175.724 302.912 189.987 318.454 208.815"
          stroke="#1E212A"
          stroke-width="0.835938"
          stroke-miterlimit="10"
        />
        <path
          d="M225.676 -69.5025C262.803 -45.8186 297.644 -20.4005 305.309 13.5505C309.793 33.4463 309.894 49.9385 326.367 66.5445C341.391 81.6819 365.621 96.6091 346.64 120.471C338.165 131.137 319.008 141.506 307.64 152.07C277.995 179.602 287.083 193.931 301.181 213.418"
          stroke="#1E212A"
          stroke-width="0.835938"
          stroke-miterlimit="10"
        />
        <path
          d="M208.41 -64.8771C246.917 -42.4013 283.957 -17.9076 292.081 15.4173C296.965 35.4382 298.958 51.6169 316.133 68.1896C331.911 83.4087 358.707 99.2862 337.82 123.878C328.632 134.696 308.273 144.871 295.794 155.463C262.947 183.337 271.102 197.813 283.909 218.019"
          stroke="#1E212A"
          stroke-width="0.835938"
          stroke-miterlimit="10"
        />
        <path
          d="M191.151 -60.2657C230.953 -38.9624 269.198 -15.475 278.042 17.1412C283.478 37.1559 286.867 52.9609 304.682 69.4651C321.207 84.7806 350.097 101.49 327.727 126.75C317.95 137.79 296.646 147.832 283.192 158.529C247.562 186.865 254.927 201.592 266.652 222.642"
          stroke="#1E212A"
          stroke-width="0.835938"
          stroke-miterlimit="10"
        />
        <path
          d="M173.881 -55.6506C213.598 -35.3303 252.576 -12.9679 262.56 18.4402C268.855 38.2248 273.621 53.983 291.508 70.4422C308.451 86.0324 338.215 103.268 315.661 128.977C305.706 140.324 283.855 150.628 269.867 161.597C233.213 190.324 238.887 205.374 249.386 227.269"
          stroke="#1E212A"
          stroke-width="0.835938"
          stroke-miterlimit="10"
        />
        <path
          d="M156.611 -51.0362C193.824 -31.5925 233.307 -11.0546 246.3 17.6516C254.845 36.5495 260.398 53.7217 276.523 70.4725C292.505 87.0811 320.581 105.002 299.827 130.873C290.446 142.568 268.97 153.804 255.29 165.258C221.155 193.864 223.429 209.374 232.113 231.872"
          stroke="#1E212A"
          stroke-width="0.835938"
          stroke-miterlimit="10"
        />
        <path
          d="M139.342 -46.4221C174.958 -27.8658 216.957 -9.29177 231.947 17.3836C242.798 36.6952 249.659 56.2121 264.439 74.497C280.272 94.0599 299.22 112.608 272.276 141.479C260.029 154.613 237.912 167.67 225.525 180.906C203.959 203.939 209.264 218.276 214.847 236.498"
          stroke="#1E212A"
          stroke-width="0.835938"
          stroke-miterlimit="10"
        />
        <path
          d="M122.062 -41.8046C155.154 -24.9447 198.931 -9.45189 216.534 13.7506C230.41 32.0583 234.35 54.1374 245.963 73.3225C258.88 94.6467 274.748 114.884 250.988 144.089C239.952 157.646 219.932 171.547 208.282 185.192C188.939 207.861 192.807 222.803 197.574 241.101"
          stroke="#1E212A"
          stroke-width="0.835938"
          stroke-miterlimit="10"
        />
        <path
          d="M104.797 -37.1775C135.448 -21.9721 180.884 -9.967 200.697 9.81896C217.998 27.0931 217.684 52.1432 226.015 72.3106C235.578 95.4364 248.013 117.806 227.749 147.26C201.105 185.994 172.301 211.082 180.308 245.728"
          stroke="#1E212A"
          stroke-width="0.835938"
          stroke-miterlimit="10"
        />
        <path
          d="M87.5273 -32.5636C115.933 -18.7165 162.309 -10.4195 183.916 6.22923C204.882 22.3924 199.439 50.9318 204.629 72.0182C210.76 96.9277 219.777 121.567 203.13 151.251C182.143 188.662 155.831 216.81 163.036 250.33"
          stroke="#1E212A"
          stroke-width="0.835938"
          stroke-miterlimit="10"
        />
        <path
          d="M70.258 -27.949C96.6311 -14.8984 142.729 -10.3698 165.736 3.69869C190.298 18.7305 179.481 51.2889 181.882 73.0843C184.795 99.4877 191.949 126.419 177.725 156.369C160.612 192.433 139.095 222.752 145.757 254.947"
          stroke="#1E212A"
          stroke-width="0.835938"
          stroke-miterlimit="10"
        />
        <path
          d="M52.9883 -23.335C77.3271 -10.3454 121.655 -9.30156 145.651 2.91587C173.338 17.0072 157.634 53.7637 157.836 76.0964C158.085 104.22 162.482 132.573 152.119 162.882C140.404 197.164 122.177 228.522 128.49 259.573"
          stroke="#1E212A"
          stroke-width="0.835938"
          stroke-miterlimit="10"
        />
        <path
          d="M35.7194 -18.7193C57.4502 -4.92777 98.7519 -6.63226 123.173 4.5558C153.138 18.2944 133.855 58.7052 132.529 81.6538C130.814 111.232 133.491 140.497 126.88 171.077C119.928 203.232 105.331 234.559 111.224 264.201"
          stroke="#1E212A"
          stroke-width="0.835938"
          stroke-miterlimit="10"
        />
        <path
          d="M18.443 -14.0913C36.173 1.39128 73.8545 -1.80624 97.8074 9.31372C128.831 23.7231 108.136 66.4337 106.021 90.3416C103.303 120.975 105.606 150.56 102.589 181.209C99.6818 210.784 88.7239 240.943 93.9546 268.814"
          stroke="#1E212A"
          stroke-width="0.835938"
          stroke-miterlimit="10"
        />
        <path
          d="M1.1735 -9.47667C12.9706 8.48543 46.8976 5.71358 69.0804 17.8753C99.3294 34.4653 80.4767 77.1851 78.3743 102.779C75.8246 133.922 79.0536 163.258 79.8269 193.575C80.4982 219.922 72.6031 247.816 76.6785 273.443"
          stroke="#1E212A"
          stroke-width="0.835938"
          stroke-miterlimit="10"
        />
      </svg>