<svg xmlns="http://www.w3.org/2000/svg" viewBox="0 0 183.7 40" width="184" height="40">

  <!-- Icon (scaled from 1221.0x1221.0 to 40.0x40) -->
  <g transform="scale(0.03276003276003276)">

<mask id="mask0" style="mask-type:alpha" maskUnits="userSpaceOnUse" x="0" y="0" width="1221" height="1221">
  <path d="M1221 610.5C1221 947.67 947.67 1221 610.5 1221C273.33 1221 0 947.67 0 610.5C0 273.33 273.33 0 610.5 0C947.67 0 1221 273.33 1221 610.5Z" fill="white"/>
</mask>
<g mask="url(#mask0)">
  <circle cx="610.5" cy="610.5" r="610.5" fill="#ffffff" fill-opacity="0.15"/>
  <path fill-rule="evenodd" clip-rule="evenodd" d="M606.465 152.279C595.896 163.864 580.676 171.134 563.759 171.134C533.531 171.134 508.724 147.926 506.184 118.356C457.616 131.753 412.936 150.149 372.121 172.726C336.465 192.45 303.713 215.391 273.86 241.024C301.668 248.558 329.216 259.216 355.606 272.868C373.837 282.3 391.55 293.176 408.45 305.462C415.77 300.087 424.806 296.911 434.583 296.911C453.577 296.911 469.773 308.894 476.021 325.713C482.747 323.967 489.448 322.337 496.121 320.821C609.823 294.983 715.431 302.09 808.87 326.088C763.35 260.527 705.313 209.335 642.454 171.945C630.606 164.898 618.592 158.344 606.465 152.279ZM621.54 112.374C621.545 112.697 621.548 113.02 621.548 113.345C621.548 123.611 618.871 133.252 614.177 141.608C625.95 147.549 637.606 153.936 649.099 160.772C717.474 201.443 780.264 258.086 828.044 331.294C842.431 335.411 856.512 339.917 870.272 344.748C977.773 382.499 1065.69 440.186 1126.7 488.374C1143.22 501.426 1157.78 513.789 1170.24 524.884C1173.81 520.86 1177.86 517.273 1182.31 514.215C1101.14 281.736 865.247 144.686 621.54 112.374ZM1154.76 581.528C1160.67 612.08 1187.56 635.15 1219.84 635.15C1256.45 635.15 1286.12 605.472 1286.12 568.863C1286.12 532.253 1256.45 502.575 1219.84 502.575C1210.62 502.575 1201.84 504.457 1193.86 507.857C1109.59 269.456 867.155 130.897 619.765 99.0434C619.613 98.4493 619.453 97.8588 619.283 97.2722C736.718 85.0938 872.434 99.1101 1026.67 147.587L1030.57 135.185C873.179 85.7172 734.328 71.6492 613.995 84.7598C604.047 67.316 585.277 55.5557 563.759 55.5557C536.274 55.5557 513.27 74.7437 507.413 100.455C407.948 73.1969 309.561 75.7944 237.418 107.033L242.583 118.963C308.265 90.5223 397.939 86.706 490.212 109.405C445.514 122.69 404.054 140.206 365.829 161.351C326.588 183.057 290.81 208.56 258.48 237.182C179.063 219.011 98.8711 226.406 38.6632 262.422L45.3368 273.578C99.8836 240.949 172.918 232.892 246.673 247.916C159.844 328.959 99.2349 433.101 64.5341 546.154C60.1067 545.222 55.5166 544.731 50.812 544.731C14.2024 544.731 -15.4755 574.409 -15.4755 611.019C-15.4755 620.147 -13.6303 628.845 -10.2926 636.759L-10.4125 638.223C-10.1504 638.245 -9.88775 638.266 -9.6246 638.288C0.772953 661.296 23.9228 677.306 50.812 677.306C59.4546 677.306 67.711 675.652 75.2817 672.644C108.068 757.672 163.318 874.403 257.198 973.925C195.665 986.274 135.45 986.17 88.9708 978.024L86.7267 990.829C136.663 999.58 201.789 999.365 267.856 984.977C313.233 1031 367.234 1072.85 431.527 1105.47C430.198 1109.93 429.484 1114.66 429.484 1119.55C429.484 1121.78 429.632 1123.97 429.918 1126.12C372.903 1131.27 310.061 1129.17 241.031 1118.08L238.97 1130.92C309.974 1142.32 374.674 1144.37 433.405 1138.85C440.914 1156.48 458.401 1168.84 478.775 1168.84C496.864 1168.84 512.676 1159.1 521.251 1144.58C530.888 1146.36 541.063 1147.98 551.674 1149.4C598.546 1155.71 654.807 1158.51 712.769 1156.32C770.722 1154.13 830.547 1146.94 884.5 1133.19C915.351 1125.33 944.438 1115.28 970.21 1102.7C982.37 1117.16 1000.6 1126.36 1020.97 1126.36C1057.58 1126.36 1087.26 1096.68 1087.26 1060.07C1087.26 1027.81 1064.22 1000.93 1033.69 995.001C1029.42 895.381 1015.78 821.898 995.114 764.419C978.433 718.016 957.235 682.2 932.929 651.59C938.501 646.911 943.089 641.098 946.338 634.506C1055.39 681.576 1146.32 753.337 1203.07 858.347L1214.51 852.166C1155.88 743.693 1062.15 670.147 950.597 622.19C951.339 618.669 951.73 615.019 951.73 611.277C951.73 610.82 951.724 610.365 951.712 609.911L1154.76 581.528ZM1162.57 535.462C1156.88 545.191 1153.6 556.5 1153.55 568.571L949.785 597.054C944.766 579.138 930.502 565.086 912.462 560.369C900.904 478.859 874.664 408.154 838.484 347.957C847.779 350.82 856.941 353.845 865.964 357.014C971.714 394.15 1058.38 450.974 1118.64 498.575C1135.39 511.8 1150.08 524.303 1162.57 535.462ZM899.078 558.661C886.705 474.894 858.461 402.963 819.787 342.469C724.593 315.921 616.162 306.874 499.002 333.498C492.263 335.029 485.495 336.679 478.697 338.45C478.749 339.328 478.775 340.212 478.775 341.103C478.775 343.219 478.626 345.3 478.339 347.337C546.051 359.525 629.973 384.32 705.871 421.626C777.372 456.77 842.776 503.528 880.194 562.165C886.055 559.906 892.422 558.666 899.078 558.661ZM868.701 568.336C833.151 513.147 770.714 467.983 700.137 433.293C624.823 396.275 541.397 371.759 474.602 359.874C473.975 361.208 473.284 362.504 472.532 363.761C515.002 412.124 546.479 472.817 558.955 544.907C585.678 545.815 612.388 547.387 638.94 549.701C712.072 556.075 784.195 568.1 852.183 587.463C856.067 579.824 861.761 573.26 868.701 568.336ZM847.773 599.714C781.114 580.8 710.165 568.958 637.811 562.652C612.312 560.43 586.662 558.898 560.991 557.986C562.002 565.285 562.82 572.697 563.438 580.22C568.355 640.063 563.456 692.215 550.994 737.449C559.875 745.044 566.114 755.639 568.144 767.663C627.988 764.631 694.321 746.336 751.876 721.536C788.47 705.768 821.229 687.49 846.243 669.112C853.832 663.537 860.622 658.014 866.555 652.612C854.339 642.977 846.498 628.043 846.498 611.277C846.498 607.305 846.938 603.435 847.773 599.714ZM878.177 659.563C871.058 666.301 862.897 673.008 853.94 679.589C827.964 698.673 794.303 717.41 757.021 733.474C698.774 758.573 630.985 777.447 569.092 780.631C649.947 815.278 732.537 856.636 813.329 905.643C866.333 827.133 894.78 739.6 902.763 663.769C901.557 663.851 900.34 663.893 899.114 663.893C891.673 663.893 884.593 662.349 878.177 659.563ZM916.097 661.092C908.509 739.724 879.408 830.813 824.432 912.432C874.827 943.506 924.457 977.585 972.459 1014.9C984.487 1001.99 1001.61 993.881 1020.62 993.783C1016.31 895.963 1002.86 824.388 982.88 768.816C966.567 723.436 945.846 688.568 921.962 658.687C920.068 659.601 918.11 660.406 916.097 661.092ZM964.568 1025.23C916.738 988.045 867.268 954.092 817.03 923.141C801.073 945.643 783.091 967.335 762.991 987.741C703.7 1047.94 626.114 1096.81 527.986 1122.38C527.793 1125.79 527.253 1129.11 526.402 1132.3C534.933 1133.83 543.954 1135.25 553.408 1136.52C599.487 1142.72 655.001 1145.5 712.278 1143.33C769.563 1141.17 828.44 1134.07 881.29 1120.6C910.912 1113.05 938.493 1103.53 962.787 1091.85C957.622 1082.42 954.685 1071.59 954.685 1060.07C954.685 1047.29 958.302 1035.35 964.568 1025.23ZM526.978 1109.21C621.861 1084.04 696.628 1036.59 753.729 978.619C773.112 958.94 790.476 938.032 805.909 916.347C726.52 868.24 645.377 827.558 565.888 793.404C561.748 804.968 553.549 814.602 543.007 820.587C574.295 935.435 546.974 1030.36 515.54 1086.72C521.138 1092.98 525.159 1100.69 526.978 1109.21ZM505.458 1078.1C534.7 1024.46 560.108 934.588 530.872 825.531C526.721 826.623 522.362 827.204 517.868 827.204C515.814 827.204 513.789 827.083 511.799 826.847C482.284 873.457 442.73 908.779 398.689 934.784C362.147 956.361 322.471 971.555 282.748 981.494C325.926 1024.26 376.829 1063.05 436.866 1093.6C445.559 1079.59 461.078 1070.26 478.775 1070.26C488.607 1070.26 497.767 1073.14 505.458 1078.1ZM471.299 755.414C468.458 761.766 466.878 768.805 466.878 776.214C466.878 797.538 479.967 815.804 498.549 823.417C470.522 866.341 433.459 899.156 392.079 923.589C354.388 945.846 313.167 961.113 272.088 970.695C176.077 871.231 120.006 752.746 86.9015 666.63C92.553 662.955 97.6093 658.442 101.894 653.267C202.088 670.868 331.817 703.181 471.299 755.414ZM539.526 730.039C532.952 726.95 525.612 725.224 517.868 725.224C501.864 725.224 487.583 732.596 478.234 744.13C339.602 692.035 210.413 659.495 109.715 641.455C114.434 632.34 117.099 621.991 117.099 611.019C117.099 605.602 116.45 600.337 115.224 595.297C240.691 570.941 394.218 553.374 547.802 557.571C548.925 565.344 549.822 573.248 550.482 581.284C555.142 638.004 550.761 687.314 539.526 730.039ZM110.859 582.903C236.782 558.335 391.053 540.518 545.682 544.511C533.484 476.916 503.947 419.784 464.163 373.935C456.331 380.996 445.959 385.294 434.583 385.294C419.027 385.294 405.348 377.256 397.473 365.107C301.638 403.109 200.991 466.462 97.7759 564.238C103.144 569.627 107.59 575.934 110.859 582.903ZM87.6647 555.911C192.139 456.7 294.365 392.105 392.085 353.259C390.982 349.397 390.392 345.319 390.392 341.103C390.392 331.225 393.633 322.104 399.109 314.745C383.266 303.359 366.69 293.239 349.633 284.415C321.308 269.762 291.747 258.723 262.101 251.394C173.58 331.57 111.906 436.052 76.9287 550.075C80.7006 551.693 84.2921 553.652 87.6647 555.911Z" fill="#ffffff"/>
</g>

  </g>

  <!-- Wordmark -->
  <text x="50.0" y="26.0" font-family="system-ui, -apple-system, BlinkMacSystemFont, 'Segoe UI', Roboto, 'Helvetica Neue', Arial, sans-serif" font-size="18" font-weight="600" fill="#ffffff">
    Platform Mesh
  </text>
</svg>