<?xml version="1.0" encoding="utf-8"?>
<svg viewBox="0 0 1205 925" width="1205px" height="925px" fill="none" xmlns="http://www.w3.org/2000/svg">
  <g>
    <path fill="#fff" d="M 0 0 L 1205 0 L 1205 925 L 0 925 L 0 0 Z"/>
  </g>
  <rect x="421.839" y="532.839" width="36" height="36" rx="6.42" fill="#EFF0F2"/>
  <path d="M 434.862 545.839 C 434.862 541.99 439.029 539.584 442.362 541.509 C 443.909 542.402 444.862 544.053 444.862 545.839 C 444.862 549.688 440.695 552.094 437.362 550.169 C 435.815 549.276 434.862 547.625 434.862 545.839 Z" fill="#65676E"/>
  <path d="M 431.304 554.309 C 432.241 553.372 433.511 552.846 434.836 552.846 L 444.863 552.846 C 447.621 552.847 449.857 555.083 449.858 557.841 L 449.858 558.837 C 449.858 559.943 448.962 560.839 447.856 560.839 L 431.843 560.839 C 430.737 560.839 429.841 559.943 429.841 558.837 L 429.841 557.841 C 429.841 556.517 430.367 555.246 431.304 554.309 Z" fill="#C4C4C4"/>
  <path d="M 427.979 592.469 L 431.286 592.469 C 433.157 592.469 434.075 591.515 434.075 590.242 C 434.075 589.006 433.197 588.28 432.327 588.236 L 432.327 588.156 C 433.125 587.968 433.755 587.41 433.755 586.416 C 433.755 585.2 432.878 584.298 431.106 584.298 L 427.979 584.298 L 427.979 592.469 Z M 429.459 591.232 L 429.459 588.838 L 431.09 588.838 C 432.004 588.838 432.571 589.397 432.571 590.127 C 432.571 590.777 432.124 591.232 431.051 591.232 L 429.459 591.232 Z M 429.459 587.773 L 429.459 585.519 L 430.955 585.519 C 431.825 585.519 432.275 585.978 432.275 586.608 C 432.275 587.326 431.693 587.773 430.923 587.773 L 429.459 587.773 Z M 438.011 592.588 C 439.439 592.588 440.421 591.89 440.676 590.825 L 439.328 590.673 C 439.132 591.192 438.653 591.463 438.031 591.463 C 437.098 591.463 436.479 590.849 436.467 589.8 L 440.736 589.8 L 440.736 589.357 C 440.736 587.206 439.443 586.261 437.935 586.261 C 436.18 586.261 435.035 587.55 435.035 589.441 C 435.035 591.363 436.164 592.588 438.011 592.588 Z M 436.471 588.826 C 436.515 588.044 437.094 587.386 437.955 587.386 C 438.785 587.386 439.344 587.992 439.352 588.826 L 436.471 588.826 Z M 445.018 586.341 L 443.809 586.341 L 443.809 584.873 L 442.365 584.873 L 442.365 586.341 L 441.495 586.341 L 441.495 587.458 L 442.365 587.458 L 442.365 590.865 C 442.357 592.018 443.195 592.584 444.28 592.552 C 444.691 592.54 444.974 592.461 445.129 592.409 L 444.886 591.28 C 444.806 591.3 444.643 591.335 444.463 591.335 C 444.1 591.335 443.809 591.208 443.809 590.625 L 443.809 587.458 L 445.018 587.458 L 445.018 586.341 Z M 447.801 588.878 C 447.801 587.992 448.352 587.482 449.126 587.482 C 449.884 587.482 450.331 587.964 450.331 588.79 L 450.331 592.469 L 451.775 592.469 L 451.775 588.567 C 451.775 587.087 450.937 586.261 449.664 586.261 C 448.723 586.261 448.124 586.688 447.841 587.382 L 447.769 587.382 L 447.769 584.298 L 446.357 584.298 L 446.357 592.469 L 447.801 592.469 L 447.801 588.878 Z" fill="#1E212A"/>
  <rect x="366" y="521" width="147.678" height="89.308" rx="15" stroke="#96989D" stroke-width="2" stroke-dasharray="5 5"/>
  <rect x="421.839" y="301.839" width="36" height="36" rx="6.42" fill="#EFF0F2"/>
  <path d="M 434.862 314.839 C 434.862 310.99 439.029 308.584 442.362 310.509 C 443.909 311.402 444.862 313.053 444.862 314.839 C 444.862 318.688 440.695 321.094 437.362 319.169 C 435.815 318.276 434.862 316.625 434.862 314.839 Z" fill="#65676E"/>
  <path d="M 431.304 323.309 C 432.241 322.372 433.511 321.846 434.836 321.846 L 444.863 321.846 C 447.621 321.847 449.857 324.083 449.858 326.841 L 449.858 327.837 C 449.858 328.943 448.962 329.839 447.856 329.839 L 431.843 329.839 C 430.737 329.839 429.841 328.943 429.841 327.837 L 429.841 326.841 C 429.841 325.517 430.367 324.246 431.304 323.309 Z" fill="#C4C4C4"/>
  <path d="M 426.689 356.055 C 426.438 354.24 425.041 353.186 423.23 353.186 C 421.096 353.186 419.488 354.742 419.488 357.383 C 419.488 360.02 421.076 361.58 423.23 361.58 C 425.173 361.58 426.462 360.324 426.689 358.764 L 425.197 358.756 C 425.01 359.713 424.228 360.252 423.25 360.252 C 421.926 360.252 420.976 359.258 420.976 357.383 C 420.976 355.54 421.918 354.515 423.254 354.515 C 424.248 354.515 425.026 355.077 425.197 356.055 L 426.689 356.055 Z M 429.425 357.878 C 429.425 356.992 429.975 356.482 430.749 356.482 C 431.507 356.482 431.954 356.964 431.954 357.79 L 431.954 361.469 L 433.398 361.469 L 433.398 357.567 C 433.398 356.087 432.561 355.261 431.288 355.261 C 430.346 355.261 429.748 355.688 429.465 356.382 L 429.393 356.382 L 429.393 353.298 L 427.981 353.298 L 427.981 361.469 L 429.425 361.469 L 429.425 357.878 Z M 436.634 361.592 C 437.595 361.592 438.17 361.141 438.433 360.627 L 438.481 360.627 L 438.481 361.469 L 439.869 361.469 L 439.869 357.367 C 439.869 355.748 438.549 355.261 437.38 355.261 C 436.091 355.261 435.102 355.835 434.783 356.952 L 436.131 357.144 C 436.275 356.725 436.682 356.366 437.388 356.366 C 438.058 356.366 438.425 356.709 438.425 357.311 L 438.425 357.335 C 438.425 357.75 437.99 357.77 436.909 357.886 C 435.72 358.014 434.583 358.369 434.583 359.749 C 434.583 360.954 435.465 361.592 436.634 361.592 Z M 437.009 360.531 C 436.406 360.531 435.976 360.256 435.976 359.725 C 435.976 359.171 436.458 358.939 437.105 358.847 C 437.484 358.796 438.242 358.7 438.429 358.548 L 438.429 359.27 C 438.429 359.953 437.879 360.531 437.009 360.531 Z M 441.321 361.469 L 442.766 361.469 L 442.766 357.866 C 442.766 357.088 443.352 356.538 444.146 356.538 C 444.389 356.538 444.693 356.581 444.816 356.621 L 444.816 355.293 C 444.645 355.267 444.471 355.253 444.298 355.253 C 443.595 355.253 443.009 355.652 442.786 356.362 L 442.722 356.362 L 442.722 355.341 L 441.321 355.341 L 441.321 361.469 Z M 447.22 353.298 L 445.776 353.298 L 445.776 361.469 L 447.22 361.469 L 447.22 353.298 Z M 451.418 361.588 C 452.846 361.588 453.827 360.89 454.083 359.825 L 452.734 359.673 C 452.539 360.192 452.06 360.463 451.438 360.463 C 450.504 360.463 449.886 359.849 449.874 358.8 L 454.143 358.8 L 454.143 358.357 C 454.143 356.206 452.85 355.261 451.342 355.261 C 449.587 355.261 448.442 356.55 448.442 358.441 C 448.442 360.363 449.571 361.588 451.418 361.588 Z M 449.878 357.826 C 449.922 357.044 450.5 356.386 451.362 356.386 C 452.192 356.386 452.75 356.992 452.758 357.826 L 449.878 357.826 Z M 460.208 356.96 C 460.008 355.923 459.178 355.261 457.742 355.261 C 456.266 355.261 455.261 355.987 455.265 357.12 C 455.261 358.014 455.811 358.604 456.988 358.847 L 458.033 359.067 C 458.596 359.191 458.859 359.418 458.859 359.765 C 458.859 360.184 458.404 360.499 457.718 360.499 C 457.056 360.499 456.625 360.212 456.501 359.661 L 455.093 359.797 C 455.273 360.922 456.218 361.588 457.722 361.588 C 459.254 361.588 460.335 360.794 460.339 359.633 C 460.335 358.76 459.773 358.225 458.616 357.974 L 457.571 357.75 C 456.948 357.611 456.701 357.395 456.705 357.04 C 456.701 356.625 457.16 356.338 457.762 356.338 C 458.428 356.338 458.779 356.701 458.891 357.104 L 460.208 356.96 Z" fill="#1E212A"/>
  <rect x="366" y="290" width="147.678" height="89.308" rx="15" stroke="#96989D" stroke-width="2" stroke-dasharray="5 5"/>
  <rect x="93.839" y="532.839" width="36" height="36" rx="6.42" fill="#EFF0F2"/>
  <path d="M 106.862 545.839 C 106.862 541.99 111.029 539.584 114.362 541.509 C 115.909 542.402 116.862 544.053 116.862 545.839 C 116.862 549.688 112.695 552.094 109.362 550.169 C 107.815 549.276 106.862 547.625 106.862 545.839 Z" fill="#65676E"/>
  <path d="M 103.304 554.309 C 104.241 553.372 105.511 552.846 106.836 552.846 L 116.863 552.846 C 119.621 552.847 121.857 555.083 121.858 557.841 L 121.858 558.837 C 121.858 559.943 120.962 560.839 119.856 560.839 L 103.843 560.839 C 102.737 560.839 101.841 559.943 101.841 558.837 L 101.841 557.841 C 101.841 556.517 102.367 555.246 103.304 554.309 Z" fill="#C4C4C4"/>
  <path d="M 99.454 592.469 L 100.128 590.454 L 103.2 590.454 L 103.878 592.469 L 105.458 592.469 L 102.577 584.298 L 100.75 584.298 L 97.874 592.469 L 99.454 592.469 Z M 100.527 589.265 L 101.632 585.974 L 101.696 585.974 L 102.801 589.265 L 100.527 589.265 Z M 107.914 588.878 C 107.914 587.992 108.449 587.482 109.211 587.482 C 109.957 587.482 110.404 587.972 110.404 588.79 L 110.404 592.469 L 111.848 592.469 L 111.848 588.567 C 111.852 587.099 111.014 586.261 109.749 586.261 C 108.832 586.261 108.201 586.7 107.922 587.382 L 107.85 587.382 L 107.85 586.341 L 106.47 586.341 L 106.47 592.469 L 107.914 592.469 L 107.914 588.878 Z M 114.76 588.878 C 114.76 587.992 115.295 587.482 116.057 587.482 C 116.803 587.482 117.25 587.972 117.25 588.79 L 117.25 592.469 L 118.694 592.469 L 118.694 588.567 C 118.698 587.099 117.86 586.261 116.595 586.261 C 115.678 586.261 115.047 586.7 114.768 587.382 L 114.696 587.382 L 114.696 586.341 L 113.316 586.341 L 113.316 592.469 L 114.76 592.469 L 114.76 588.878 Z M 122.875 592.588 C 124.303 592.588 125.284 591.89 125.54 590.825 L 124.191 590.673 C 123.996 591.192 123.517 591.463 122.895 591.463 C 121.961 591.463 121.343 590.849 121.331 589.8 L 125.6 589.8 L 125.6 589.357 C 125.6 587.206 124.307 586.261 122.799 586.261 C 121.044 586.261 119.899 587.55 119.899 589.441 C 119.899 591.363 121.028 592.588 122.875 592.588 Z M 121.335 588.826 C 121.379 588.044 121.957 587.386 122.819 587.386 C 123.649 587.386 124.207 587.992 124.215 588.826 L 121.335 588.826 Z" fill="#1E212A"/>
  <rect x="38" y="521" width="147.678" height="89.308" rx="15" stroke="#96989D" stroke-width="2" stroke-dasharray="5 5"/>
  <path d="M 766 625 L 767 625 L 766 625 Z M 505 681.113 L 505 680.113 L 505 681.113 Z M 726 681.113 L 726 682.113 L 726 681.113 Z M 767 621.5 L 767 622.375 L 765 622.375 L 765 621.5 L 767 621.5 Z M 767 624.125 L 767 625 L 765 625 L 765 624.125 L 767 624.125 Z M 767 625 L 767 627.014 L 765 627.014 L 765 625 L 767 625 Z M 767 631.042 L 767 635.071 L 765 635.071 L 765 631.042 L 767 631.042 Z M 767 639.099 L 767 641.113 L 765 641.113 L 765 639.099 L 767 639.099 Z M 767 641.113 C 767 642.015 766.971 642.909 766.914 643.796 L 764.918 643.667 C 764.973 642.817 765 641.965 765 641.113 L 767 641.113 Z M 766.22 649.114 C 765.872 650.87 765.409 652.602 764.834 654.297 L 762.94 653.654 C 763.487 652.042 763.927 650.396 764.258 648.726 L 766.22 649.114 Z M 762.779 659.252 C 761.987 660.856 761.09 662.407 760.094 663.894 L 758.432 662.782 C 759.379 661.367 760.232 659.892 760.986 658.366 L 762.779 659.252 Z M 756.826 668.147 C 755.645 669.492 754.379 670.758 753.034 671.939 L 751.714 670.436 C 752.994 669.313 754.199 668.107 755.323 666.828 L 756.826 668.147 Z M 748.781 675.207 C 747.294 676.203 745.743 677.1 744.138 677.893 L 743.252 676.1 C 744.778 675.346 746.253 674.492 747.668 673.545 L 748.781 675.207 Z M 739.184 679.947 C 737.489 680.523 735.757 680.986 734.001 681.333 L 733.612 679.371 C 735.282 679.041 736.929 678.601 738.541 678.053 L 739.184 679.947 Z M 728.683 682.027 C 727.796 682.084 726.901 682.113 726 682.113 L 726 680.113 C 726.858 680.113 727.71 680.086 728.554 680.031 L 728.683 682.027 Z M 726 682.113 L 723.489 682.113 L 723.489 680.113 L 726 680.113 L 726 682.113 Z M 718.466 682.113 L 713.443 682.113 L 713.443 680.113 L 718.466 680.113 L 718.466 682.113 Z M 708.42 682.113 L 703.398 682.113 L 703.398 680.113 L 708.42 680.113 L 708.42 682.113 Z M 698.375 682.113 L 693.352 682.113 L 693.352 680.113 L 698.375 680.113 L 698.375 682.113 Z M 688.33 682.113 L 683.307 682.113 L 683.307 680.113 L 688.33 680.113 L 688.33 682.113 Z M 678.284 682.113 L 673.261 682.113 L 673.261 680.113 L 678.284 680.113 L 678.284 682.113 Z M 668.239 682.113 L 663.216 682.113 L 663.216 680.113 L 668.239 680.113 L 668.239 682.113 Z M 658.193 682.113 L 653.17 682.113 L 653.17 680.113 L 658.193 680.113 L 658.193 682.113 Z M 648.148 682.113 L 643.125 682.113 L 643.125 680.113 L 648.148 680.113 L 648.148 682.113 Z M 638.102 682.113 L 633.079 682.113 L 633.079 680.113 L 638.102 680.113 L 638.102 682.113 Z M 628.057 682.113 L 623.034 682.113 L 623.034 680.113 L 628.057 680.113 L 628.057 682.113 Z M 618.011 682.113 L 612.989 682.113 L 612.989 680.113 L 618.011 680.113 L 618.011 682.113 Z M 607.966 682.113 L 602.943 682.113 L 602.943 680.113 L 607.966 680.113 L 607.966 682.113 Z M 597.92 682.113 L 592.898 682.113 L 592.898 680.113 L 597.92 680.113 L 597.92 682.113 Z M 587.875 682.113 L 582.852 682.113 L 582.852 680.113 L 587.875 680.113 L 587.875 682.113 Z M 577.83 682.113 L 572.807 682.113 L 572.807 680.113 L 577.83 680.113 L 577.83 682.113 Z M 567.784 682.113 L 562.761 682.113 L 562.761 680.113 L 567.784 680.113 L 567.784 682.113 Z M 557.739 682.113 L 552.716 682.113 L 552.716 680.113 L 557.739 680.113 L 557.739 682.113 Z M 547.693 682.113 L 542.67 682.113 L 542.67 680.113 L 547.693 680.113 L 547.693 682.113 Z M 537.648 682.113 L 532.625 682.113 L 532.625 680.113 L 537.648 680.113 L 537.648 682.113 Z M 527.602 682.113 L 522.58 682.113 L 522.58 680.113 L 527.602 680.113 L 527.602 682.113 Z M 517.557 682.113 L 512.534 682.113 L 512.534 680.113 L 517.557 680.113 L 517.557 682.113 Z M 507.511 682.113 L 505 682.113 L 505 680.113 L 507.511 680.113 L 507.511 682.113 Z M 505 682.113 C 504.142 682.113 503.29 682.141 502.446 682.196 L 502.317 680.2 C 503.21 680.142 504.105 680.113 505 680.113 L 505 682.113 Z M 497.388 682.856 C 495.703 683.189 494.058 683.631 492.459 684.173 L 491.816 682.279 C 493.511 681.704 495.243 681.241 496.999 680.894 L 497.388 682.856 Z M 487.748 686.127 C 486.222 686.881 484.746 687.735 483.332 688.682 L 482.219 687.02 C 483.706 686.024 485.257 685.127 486.862 684.334 L 487.748 686.127 Z M 479.286 691.791 C 478.006 692.914 476.8 694.119 475.677 695.399 L 474.174 694.08 C 475.354 692.735 476.621 691.468 477.966 690.288 L 479.286 691.791 Z M 472.568 699.445 C 471.621 700.86 470.768 702.335 470.014 703.861 L 468.22 702.975 C 469.013 701.37 469.91 699.819 470.906 698.332 L 472.568 699.445 Z M 468.06 708.572 C 467.513 710.184 467.073 711.831 466.742 713.501 L 464.78 713.113 C 465.127 711.357 465.59 709.625 466.166 707.93 L 468.06 708.572 Z M 466.082 718.559 C 466.027 719.409 466 720.261 466 721.113 L 464 721.113 C 464 720.212 464.029 719.317 464.086 718.43 L 466.082 718.559 Z M 466 721.113 L 466 723.349 L 464 723.349 L 464 721.113 L 466 721.113 Z M 466 727.821 L 466 732.292 L 464 732.292 L 464 727.821 L 466 727.821 Z M 466 736.764 L 466 739 L 464 739 L 464 736.764 L 466 736.764 Z M 466 739 L 466 739.625 L 464 739.625 L 464 739 L 466 739 Z M 466 740.875 L 466 741.5 L 464 741.5 L 464 740.875 L 466 740.875 Z" fill="#96989D"/>
  <path d="M 457 734 L 465.056 742.056 L 473.113 734" stroke="#96989D" stroke-width="2"/>
  <path d="M 574 674 C 574 668.477 578.477 664 584 664 L 636 664 C 641.523 664 646 668.477 646 674 L 646 690 C 646 695.523 641.523 700 636 700 L 584 700 C 578.477 700 574 695.523 574 690 L 574 674 Z" fill="#EFF0F2"/>
  <path d="M 591.809 687 L 592.76 684.322 L 596.582 684.322 L 597.533 687 L 598.734 687 L 595.262 677.545 L 594.08 677.545 L 590.609 687 L 591.809 687 Z M 593.12 683.307 L 594.634 679.041 L 594.708 679.041 L 596.222 683.307 L 593.12 683.307 Z M 602.886 687.148 C 604.253 687.148 604.714 686.298 604.954 685.911 L 605.083 685.911 L 605.083 687 L 606.136 687 L 606.136 677.545 L 605.047 677.545 L 605.047 681.036 L 604.954 681.036 C 604.714 680.666 604.289 679.817 602.905 679.817 C 601.113 679.817 599.876 681.239 599.876 683.473 C 599.876 685.726 601.113 687.148 602.886 687.148 Z M 603.034 686.169 C 601.667 686.169 600.966 684.969 600.966 683.455 C 600.966 681.959 601.649 680.795 603.034 680.795 C 604.363 680.795 605.065 681.866 605.065 683.455 C 605.065 685.061 604.345 686.169 603.034 686.169 Z M 608.433 687 L 609.522 687 L 609.522 682.568 C 609.522 681.529 610.279 680.795 611.129 680.795 C 611.955 680.795 612.532 681.336 612.532 682.143 L 612.532 687 L 613.64 687 L 613.64 682.384 C 613.64 681.469 614.213 680.795 615.21 680.795 C 615.985 680.795 616.65 681.206 616.65 682.254 L 616.65 687 L 617.74 687 L 617.74 682.254 C 617.74 680.588 616.844 679.817 615.579 679.817 C 614.563 679.817 613.82 680.283 613.455 681.017 L 613.382 681.017 C 613.031 680.26 612.412 679.817 611.48 679.817 C 610.556 679.817 609.873 680.26 609.578 681.017 L 609.485 681.017 L 609.485 679.909 L 608.433 679.909 L 608.433 687 Z M 619.882 687 L 620.971 687 L 620.971 679.909 L 619.882 679.909 L 619.882 687 Z M 620.436 678.727 C 620.86 678.727 621.211 678.395 621.211 677.989 C 621.211 677.582 620.86 677.25 620.436 677.25 C 620.011 677.25 619.66 677.582 619.66 677.989 C 619.66 678.395 620.011 678.727 620.436 678.727 Z M 624.206 682.734 C 624.206 681.497 624.972 680.795 626.016 680.795 C 627.027 680.795 627.641 681.456 627.641 682.568 L 627.641 687 L 628.73 687 L 628.73 682.494 C 628.73 680.685 627.765 679.817 626.33 679.817 C 625.259 679.817 624.594 680.297 624.261 681.017 L 624.169 681.017 L 624.169 679.909 L 623.116 679.909 L 623.116 687 L 624.206 687 L 624.206 682.734 Z" fill="#65676E"/>
  <path d="M 440 620 L 440 742" stroke="#96989D" stroke-width="2" stroke-miterlimit="16"/>
  <path d="M 405 651 C 405 645.477 409.477 641 415 641 L 465 641 C 470.523 641 475 645.477 475 651 L 475 667 C 475 672.523 470.523 677 465 677 L 415 677 C 409.477 677 405 672.523 405 667 L 405 651 Z" fill="#EFF0F2"/>
  <path d="M 424.054 664 L 425.235 664 L 427.322 656.466 L 427.396 656.466 L 429.483 664 L 430.664 664 L 433.25 654.545 L 432.086 654.545 L 430.11 662.246 L 430.018 662.246 L 428.005 654.545 L 426.713 654.545 L 424.7 662.246 L 424.608 662.246 L 422.632 654.545 L 421.468 654.545 L 424.054 664 Z M 434.234 664 L 435.324 664 L 435.324 659.513 C 435.324 658.553 436.081 657.851 437.115 657.851 C 437.406 657.851 437.706 657.906 437.78 657.925 L 437.78 656.817 C 437.589 656.806 437.398 656.799 437.207 656.798 C 436.358 656.798 435.619 657.278 435.36 657.98 L 435.287 657.98 L 435.287 656.909 L 434.234 656.909 L 434.234 664 Z M 439.221 664 L 440.31 664 L 440.31 656.909 L 439.221 656.909 L 439.221 664 Z M 439.775 655.727 C 440.2 655.727 440.551 655.395 440.551 654.989 C 440.551 654.582 440.2 654.25 439.775 654.25 C 439.35 654.25 438.999 654.582 438.999 654.989 C 438.999 655.395 439.35 655.727 439.775 655.727 Z M 445.54 656.909 L 444.026 656.909 L 444.026 655.21 L 442.936 655.21 L 442.936 656.909 L 441.865 656.909 L 441.865 657.832 L 442.936 657.832 L 442.936 662.264 C 442.936 663.501 443.933 664.092 444.857 664.092 C 445.263 664.092 445.521 664.018 445.669 663.963 L 445.447 662.984 C 445.355 663.003 445.207 663.04 444.967 663.04 C 444.487 663.04 444.026 662.892 444.026 661.969 L 444.026 657.832 L 445.54 657.832 L 445.54 656.909 Z M 450.225 664.148 C 451.666 664.148 452.718 663.428 453.051 662.357 L 451.998 662.061 C 451.721 662.8 451.079 663.169 450.225 663.169 C 448.947 663.169 448.065 662.343 448.014 660.824 L 453.162 660.824 L 453.162 660.362 C 453.162 657.722 451.592 656.817 450.115 656.817 C 448.194 656.817 446.92 658.331 446.92 660.51 C 446.92 662.689 448.176 664.148 450.225 664.148 Z M 448.014 659.882 C 448.088 658.779 448.868 657.795 450.115 657.795 C 451.296 657.795 452.054 658.682 452.054 659.882 L 448.014 659.882 Z M 454.969 664 L 456.058 664 L 456.058 659.513 C 456.058 658.553 456.815 657.851 457.85 657.851 C 458.14 657.851 458.44 657.906 458.514 657.925 L 458.514 656.817 C 458.324 656.806 458.133 656.799 457.942 656.798 C 457.092 656.798 456.354 657.278 456.095 657.98 L 456.021 657.98 L 456.021 656.909 L 454.969 656.909 L 454.969 664 Z" fill="#65676E"/>
  <path d="M 448 734 L 439.944 742.056 L 431.887 734" stroke="#96989D" stroke-width="2"/>
  <path d="M 109 624 L 108 624 L 109 624 Z M 149 681.113 L 370 681.113 L 370 679.113 L 149 679.113 L 149 681.113 Z M 409 720.113 L 409 738 L 411 738 L 411 720.113 L 409 720.113 Z M 110 640.113 L 110 624 L 108 624 L 108 640.113 L 110 640.113 Z M 409 738 L 409 740.5 L 411 740.5 L 411 738 L 409 738 Z M 110 624 L 110 620.5 L 108 620.5 L 108 624 L 110 624 Z M 370 681.113 C 391.539 681.113 409 698.574 409 720.113 L 411 720.113 C 411 697.47 392.644 679.113 370 679.113 L 370 681.113 Z M 149 679.113 C 127.461 679.113 110 661.652 110 640.113 L 108 640.113 C 108 662.757 126.356 681.113 149 681.113 L 149 679.113 Z" fill="#96989D"/>
  <path d="M 215.5 673 C 215.5 667.477 219.977 663 225.5 663 L 282.5 663 C 288.023 663 292.5 667.477 292.5 673 L 292.5 689 C 292.5 694.523 288.023 699 282.5 699 L 225.5 699 C 219.977 699 215.5 694.523 215.5 689 L 215.5 673 Z" fill="#EFF0F2"/>
  <path d="M 232.966 686 L 234.111 686 L 234.111 682.307 L 236.179 682.307 C 236.262 682.307 236.34 682.307 236.419 682.302 L 238.413 686 L 239.743 686 L 237.605 682.094 C 238.81 681.684 239.373 680.7 239.373 679.445 C 239.373 677.773 238.376 676.545 236.16 676.545 L 232.966 676.545 L 232.966 686 Z M 234.111 681.273 L 234.111 677.561 L 236.123 677.561 C 237.656 677.561 238.247 678.309 238.247 679.445 C 238.247 680.58 237.656 681.273 236.142 681.273 L 234.111 681.273 Z M 244.18 686.148 C 245.621 686.148 246.673 685.428 247.006 684.357 L 245.953 684.061 C 245.676 684.8 245.034 685.169 244.18 685.169 C 242.901 685.169 242.02 684.343 241.969 682.824 L 247.116 682.824 L 247.116 682.362 C 247.116 679.722 245.547 678.817 244.069 678.817 C 242.149 678.817 240.875 680.331 240.875 682.51 C 240.875 684.689 242.131 686.148 244.18 686.148 Z M 241.969 681.882 C 242.043 680.779 242.823 679.795 244.069 679.795 C 245.251 679.795 246.008 680.682 246.008 681.882 L 241.969 681.882 Z M 251.01 686.166 C 252.247 686.166 252.894 685.501 253.115 685.04 L 253.171 685.04 L 253.171 686 L 254.26 686 L 254.26 681.328 C 254.26 679.075 252.543 678.817 251.638 678.817 C 250.567 678.817 249.348 679.186 248.794 680.479 L 249.828 680.848 C 250.069 680.331 250.636 679.777 251.675 679.777 C 252.677 679.777 253.171 680.308 253.171 681.217 L 253.171 681.254 C 253.171 681.781 252.635 681.734 251.343 681.901 C 250.027 682.071 248.591 682.362 248.591 683.987 C 248.591 685.372 249.662 686.166 251.01 686.166 Z M 251.176 685.188 C 250.309 685.188 249.681 684.8 249.681 684.043 C 249.681 683.212 250.438 682.953 251.287 682.842 C 251.749 682.787 252.986 682.658 253.171 682.436 L 253.171 683.433 C 253.171 684.32 252.469 685.188 251.176 685.188 Z M 259.076 686.148 C 260.443 686.148 260.905 685.298 261.145 684.911 L 261.274 684.911 L 261.274 686 L 262.326 686 L 262.326 676.545 L 261.237 676.545 L 261.237 680.036 L 261.145 680.036 C 260.905 679.666 260.48 678.817 259.095 678.817 C 257.304 678.817 256.066 680.239 256.066 682.473 C 256.066 684.726 257.304 686.148 259.076 686.148 Z M 259.224 685.169 C 257.858 685.169 257.156 683.969 257.156 682.455 C 257.156 680.959 257.839 679.795 259.224 679.795 C 260.554 679.795 261.255 680.866 261.255 682.455 C 261.255 684.061 260.535 685.169 259.224 685.169 Z M 267.596 686.148 C 269.036 686.148 270.089 685.428 270.421 684.357 L 269.369 684.061 C 269.092 684.8 268.45 685.169 267.596 685.169 C 266.317 685.169 265.436 684.343 265.385 682.824 L 270.532 682.824 L 270.532 682.362 C 270.532 679.722 268.963 678.817 267.485 678.817 C 265.565 678.817 264.291 680.331 264.291 682.51 C 264.291 684.689 265.546 686.148 267.596 686.148 Z M 265.385 681.882 C 265.459 680.779 266.239 679.795 267.485 679.795 C 268.667 679.795 269.424 680.682 269.424 681.882 L 265.385 681.882 Z M 272.339 686 L 273.429 686 L 273.429 681.513 C 273.429 680.553 274.186 679.851 275.22 679.851 C 275.511 679.851 275.811 679.906 275.885 679.925 L 275.885 678.817 C 275.694 678.806 275.503 678.799 275.312 678.798 C 274.463 678.798 273.724 679.278 273.466 679.98 L 273.392 679.98 L 273.392 678.909 L 272.339 678.909 L 272.339 686 Z" fill="#65676E"/>
  <path d="M 402 734 L 410.056 742.056 L 418.113 734" stroke="#96989D" stroke-width="2"/>
  <path d="M 765 389 L 765 512" stroke="#96989D" stroke-width="2" stroke-miterlimit="16" stroke-dasharray="5 5"/>
  <path d="M 723 417 C 723 411.477 727.477 407 733 407 L 797 407 C 802.523 407 807 411.477 807 417 L 807 433 C 807 438.523 802.523 443 797 443 L 733 443 C 727.477 443 723 438.523 723 433 L 723 417 Z" fill="#EFF0F2"/>
  <path d="M 740.316 420.545 L 740.316 430 L 741.387 430 L 741.387 422.817 L 741.479 422.817 L 744.434 430 L 745.468 430 L 748.422 422.817 L 748.515 422.817 L 748.515 430 L 749.586 430 L 749.586 420.545 L 748.219 420.545 L 745.006 428.393 L 744.895 428.393 L 741.682 420.545 L 740.316 420.545 Z M 754.856 430.148 C 756.297 430.148 757.349 429.428 757.682 428.357 L 756.629 428.061 C 756.352 428.8 755.711 429.169 754.856 429.169 C 753.578 429.169 752.696 428.343 752.645 426.824 L 757.793 426.824 L 757.793 426.362 C 757.793 423.722 756.223 422.817 754.746 422.817 C 752.825 422.817 751.551 424.331 751.551 426.51 C 751.551 428.689 752.807 430.148 754.856 430.148 Z M 752.645 425.882 C 752.719 424.779 753.499 423.795 754.746 423.795 C 755.928 423.795 756.685 424.682 756.685 425.882 L 752.645 425.882 Z M 759.6 430 L 760.689 430 L 760.689 425.568 C 760.689 424.529 761.446 423.795 762.296 423.795 C 763.122 423.795 763.699 424.336 763.699 425.143 L 763.699 430 L 764.807 430 L 764.807 425.384 C 764.807 424.469 765.38 423.795 766.377 423.795 C 767.152 423.795 767.817 424.206 767.817 425.254 L 767.817 430 L 768.907 430 L 768.907 425.254 C 768.907 423.588 768.011 422.817 766.746 422.817 C 765.731 422.817 764.987 423.283 764.623 424.017 L 764.549 424.017 C 764.198 423.26 763.579 422.817 762.647 422.817 C 761.723 422.817 761.04 423.26 760.745 424.017 L 760.652 424.017 L 760.652 422.909 L 759.6 422.909 L 759.6 430 Z M 771.196 430 L 772.249 430 L 772.249 428.911 L 772.378 428.911 C 772.618 429.298 773.08 430.148 774.446 430.148 C 776.219 430.148 777.456 428.726 777.456 426.473 C 777.456 424.239 776.219 422.817 774.428 422.817 C 773.043 422.817 772.618 423.666 772.378 424.036 L 772.286 424.036 L 772.286 420.545 L 771.196 420.545 L 771.196 430 Z M 772.267 426.455 C 772.267 424.866 772.969 423.795 774.299 423.795 C 775.684 423.795 776.367 424.959 776.367 426.455 C 776.367 427.969 775.665 429.169 774.299 429.169 C 772.988 429.169 772.267 428.061 772.267 426.455 Z M 782.246 430.148 C 783.686 430.148 784.739 429.428 785.071 428.357 L 784.019 428.061 C 783.742 428.8 783.1 429.169 782.246 429.169 C 780.967 429.169 780.085 428.343 780.035 426.824 L 785.182 426.824 L 785.182 426.362 C 785.182 423.722 783.612 422.817 782.135 422.817 C 780.215 422.817 778.941 424.331 778.941 426.51 C 778.941 428.689 780.196 430.148 782.246 430.148 Z M 780.035 425.882 C 780.109 424.779 780.889 423.795 782.135 423.795 C 783.317 423.795 784.074 424.682 784.074 425.882 L 780.035 425.882 Z M 786.989 430 L 788.079 430 L 788.079 425.513 C 788.079 424.553 788.836 423.851 789.87 423.851 C 790.161 423.851 790.461 423.906 790.535 423.925 L 790.535 422.817 C 790.344 422.806 790.153 422.799 789.962 422.798 C 789.113 422.798 788.374 423.278 788.116 423.98 L 788.042 423.98 L 788.042 422.909 L 786.989 422.909 L 786.989 430 Z" fill="#65676E"/>
  <path d="M 773 504 L 764.944 512.056 L 756.887 504" stroke="#96989D" stroke-width="2"/>
  <path d="M 1094 389 L 1094 512" stroke="#96989D" stroke-width="2" stroke-miterlimit="16" stroke-dasharray="5 5"/>
  <path d="M 1052 417 C 1052 411.477 1056.48 407 1062 407 L 1126 407 C 1131.52 407 1136 411.477 1136 417 L 1136 433 C 1136 438.523 1131.52 443 1126 443 L 1062 443 C 1056.48 443 1052 438.523 1052 433 L 1052 417 Z" fill="#EFF0F2"/>
  <path d="M 1069.32 420.545 L 1069.32 430 L 1070.39 430 L 1070.39 422.817 L 1070.48 422.817 L 1073.43 430 L 1074.47 430 L 1077.42 422.817 L 1077.51 422.817 L 1077.51 430 L 1078.59 430 L 1078.59 420.545 L 1077.22 420.545 L 1074.01 428.393 L 1073.9 428.393 L 1070.68 420.545 L 1069.32 420.545 Z M 1083.86 430.148 C 1085.3 430.148 1086.35 429.428 1086.68 428.357 L 1085.63 428.061 C 1085.35 428.8 1084.71 429.169 1083.86 429.169 C 1082.58 429.169 1081.7 428.343 1081.65 426.824 L 1086.79 426.824 L 1086.79 426.362 C 1086.79 423.722 1085.22 422.817 1083.75 422.817 C 1081.83 422.817 1080.55 424.331 1080.55 426.51 C 1080.55 428.689 1081.81 430.148 1083.86 430.148 Z M 1081.65 425.882 C 1081.72 424.779 1082.5 423.795 1083.75 423.795 C 1084.93 423.795 1085.68 424.682 1085.68 425.882 L 1081.65 425.882 Z M 1088.6 430 L 1089.69 430 L 1089.69 425.568 C 1089.69 424.529 1090.45 423.795 1091.3 423.795 C 1092.12 423.795 1092.7 424.336 1092.7 425.143 L 1092.7 430 L 1093.81 430 L 1093.81 425.384 C 1093.81 424.469 1094.38 423.795 1095.38 423.795 C 1096.15 423.795 1096.82 424.206 1096.82 425.254 L 1096.82 430 L 1097.91 430 L 1097.91 425.254 C 1097.91 423.588 1097.01 422.817 1095.75 422.817 C 1094.73 422.817 1093.99 423.283 1093.62 424.017 L 1093.55 424.017 C 1093.2 423.26 1092.58 422.817 1091.65 422.817 C 1090.72 422.817 1090.04 423.26 1089.74 424.017 L 1089.65 424.017 L 1089.65 422.909 L 1088.6 422.909 L 1088.6 430 Z M 1100.2 430 L 1101.25 430 L 1101.25 428.911 L 1101.38 428.911 C 1101.62 429.298 1102.08 430.148 1103.45 430.148 C 1105.22 430.148 1106.46 428.726 1106.46 426.473 C 1106.46 424.239 1105.22 422.817 1103.43 422.817 C 1102.04 422.817 1101.62 423.666 1101.38 424.036 L 1101.29 424.036 L 1101.29 420.545 L 1100.2 420.545 L 1100.2 430 Z M 1101.27 426.455 C 1101.27 424.866 1101.97 423.795 1103.3 423.795 C 1104.68 423.795 1105.37 424.959 1105.37 426.455 C 1105.37 427.969 1104.67 429.169 1103.3 429.169 C 1101.99 429.169 1101.27 428.061 1101.27 426.455 Z M 1111.25 430.148 C 1112.69 430.148 1113.74 429.428 1114.07 428.357 L 1113.02 428.061 C 1112.74 428.8 1112.1 429.169 1111.25 429.169 C 1109.97 429.169 1109.09 428.343 1109.03 426.824 L 1114.18 426.824 L 1114.18 426.362 C 1114.18 423.722 1112.61 422.817 1111.14 422.817 C 1109.21 422.817 1107.94 424.331 1107.94 426.51 C 1107.94 428.689 1109.2 430.148 1111.25 430.148 Z M 1109.03 425.882 C 1109.11 424.779 1109.89 423.795 1111.14 423.795 C 1112.32 423.795 1113.07 424.682 1113.07 425.882 L 1109.03 425.882 Z M 1115.99 430 L 1117.08 430 L 1117.08 425.513 C 1117.08 424.553 1117.84 423.851 1118.87 423.851 C 1119.16 423.851 1119.46 423.906 1119.53 423.925 L 1119.53 422.817 C 1119.41 422.808 1119.12 422.798 1118.96 422.798 C 1118.11 422.798 1117.37 423.278 1117.12 423.98 L 1117.04 423.98 L 1117.04 422.909 L 1115.99 422.909 L 1115.99 430 Z" fill="#65676E"/>
  <path d="M 1102 504 L 1093.94 512.056 L 1085.89 504" stroke="#96989D" stroke-width="2"/>
  <rect x="692" y="521" width="147.678" height="89.308" rx="15" fill="#FFE5D7"/>
  <rect x="747.839" y="532.839" width="36" height="36" rx="6.42" fill="#FFB288"/>
  <path d="M 763.503 545.509 C 763.448 543.578 765.505 542.311 767.205 543.23 C 768.039 543.68 768.548 544.562 768.521 545.509 C 768.466 547.44 766.342 548.589 764.696 547.576 C 763.975 547.132 763.527 546.355 763.503 545.509 Z" fill="#AA562B"/>
  <path d="M 762.824 549.83 C 763.335 549.32 764.028 549.033 764.75 549.033 L 767.272 549.033 C 767.994 549.033 768.687 549.32 769.199 549.83 C 769.709 550.342 769.996 551.035 769.996 551.758 L 769.996 558 C 769.996 558.604 769.507 559.092 768.905 559.092 L 763.118 559.092 C 762.514 559.092 762.026 558.602 762.026 558 L 762.026 551.758 C 762.025 551.035 762.312 550.341 762.824 549.83 Z" fill="#FFE5D7"/>
  <path d="M 756.526 550.553 C 756.862 550.216 757.319 550.027 757.795 550.027 L 759.209 550.027 C 760.201 550.026 761.005 550.83 761.004 551.822 L 761.004 556.362 C 761.004 556.76 760.682 557.082 760.284 557.082 L 756.72 557.082 C 756.322 557.082 756 556.76 756 556.362 L 756 551.822 C 756 551.346 756.189 550.889 756.526 550.553 Z M 771.522 550.553 C 771.858 550.216 772.315 550.027 772.791 550.027 L 774.205 550.027 C 775.197 550.025 776.002 550.83 776 551.822 L 776 556.28 C 776 556.678 775.678 557 775.28 557 L 771.715 557 C 771.317 557 770.995 556.678 770.995 556.28 L 770.995 551.822 C 770.996 551.346 771.186 550.889 771.522 550.553 Z" fill="#FF7F38"/>
  <path d="M 771.499 546.978 C 771.464 545.439 773.109 544.439 774.459 545.179 C 775.114 545.537 775.515 546.231 775.498 546.977 C 775.464 548.516 773.776 549.441 772.46 548.642 C 771.877 548.288 771.514 547.66 771.499 546.978 Z M 756.502 546.978 C 756.468 545.439 758.112 544.44 759.463 545.179 C 760.117 545.538 760.518 546.232 760.501 546.978 C 760.535 548.517 758.891 549.516 757.54 548.777 C 756.886 548.418 756.485 547.724 756.502 546.978 Z" fill="#D56A32"/>
  <rect x="692" y="521" width="147.678" height="89.308" rx="15" stroke="#96989D" stroke-width="2" stroke-dasharray="5 5"/>
  <rect x="363" y="753" width="153.678" height="89.308" rx="15" fill="#FFE4FA"/>
  <rect x="421.839" y="764.839" width="36" height="36" rx="6.42" fill="#FF79E7"/>
  <path d="M 440 793.19 C 444.971 793.19 449 792.059 449 790.663 C 449 789.268 444.971 788.136 440 788.136 C 435.029 788.136 431 789.268 431 790.663 C 431 792.059 435.029 793.19 440 793.19 Z" fill="#C638A7"/>
  <path d="M 448.999 784.133 L 431 784.133 L 431 790.67 L 448.999 790.67 L 448.999 784.133 Z" fill="#C638A7"/>
  <path d="M 440 786.614 C 444.971 786.614 449 785.482 449 784.087 C 449 782.691 444.971 781.56 440 781.56 C 435.029 781.56 431 782.691 431 784.087 C 431 785.482 435.029 786.614 440 786.614 Z" fill="#FFE4FA"/>
  <path d="M 440 784.483 C 444.971 784.483 449 783.352 449 781.956 C 449 780.561 444.971 779.429 440 779.429 C 435.029 779.429 431 780.561 431 781.956 C 431 783.352 435.029 784.483 440 784.483 Z" fill="#C638A7"/>
  <path d="M 448.999 775.575 L 431 775.575 L 431 781.963 L 448.999 781.963 L 448.999 775.575 Z" fill="#C638A7"/>
  <path d="M 440 778.054 C 444.971 778.054 449 776.923 449 775.527 C 449 774.131 444.971 773 440 773 C 435.029 773 431 774.131 431 775.527 C 431 776.923 435.029 778.054 440 778.054 Z M 433.011 780.657 C 433.309 780.622 433.514 780.287 433.469 779.909 C 433.423 779.532 433.145 779.255 432.847 779.291 C 432.549 779.326 432.344 779.661 432.39 780.039 C 432.435 780.416 432.713 780.693 433.011 780.657 Z M 433.011 789.326 C 433.309 789.29 433.514 788.955 433.469 788.578 C 433.423 788.201 433.145 787.924 432.847 787.959 C 432.549 787.995 432.344 788.33 432.39 788.707 C 432.435 789.085 432.713 789.362 433.011 789.326 Z" fill="#FFE4FA"/>
  <rect x="363" y="753" width="153.678" height="89.308" rx="15" stroke="#96989D" stroke-width="2" stroke-dasharray="5 5"/>
  <path d="M 436 393 L 435 393 L 436 393 Z M 697 449.113 L 697 448.113 L 697 449.113 Z M 476 449.113 L 476 450.113 L 476 449.113 Z M 435 389.5 L 435 390.375 L 437 390.375 L 437 389.5 L 435 389.5 Z M 435 392.125 L 435 393 L 437 393 L 437 392.125 L 435 392.125 Z M 435 393 L 435 395.014 L 437 395.014 L 437 393 L 435 393 Z M 435 399.042 L 435 403.071 L 437 403.071 L 437 399.042 L 435 399.042 Z M 435 407.099 L 435 409.113 L 437 409.113 L 437 407.099 L 435 407.099 Z M 435 409.113 C 435 410.015 435.029 410.909 435.086 411.796 L 437.082 411.667 C 437.027 410.817 437 409.965 437 409.113 L 435 409.113 Z M 435.78 417.114 C 436.128 418.87 436.591 420.602 437.166 422.297 L 439.06 421.654 C 438.513 420.042 438.073 418.396 437.742 416.726 L 435.78 417.114 Z M 439.221 427.252 C 440.013 428.856 440.91 430.407 441.906 431.894 L 443.568 430.782 C 442.621 429.367 441.768 427.892 441.014 426.366 L 439.221 427.252 Z M 445.174 436.147 C 446.355 437.492 447.621 438.758 448.966 439.939 L 450.286 438.436 C 449.006 437.313 447.801 436.107 446.677 434.828 L 445.174 436.147 Z M 453.219 443.207 C 454.706 444.203 456.257 445.1 457.862 445.893 L 458.748 444.1 C 457.222 443.346 455.747 442.492 454.332 441.545 L 453.219 443.207 Z M 462.816 447.947 C 464.511 448.523 466.243 448.986 467.999 449.333 L 468.388 447.371 C 466.718 447.041 465.071 446.601 463.459 446.053 L 462.816 447.947 Z M 473.317 450.027 C 474.204 450.084 475.099 450.113 476 450.113 L 476 448.113 C 475.142 448.113 474.29 448.086 473.446 448.031 L 473.317 450.027 Z M 476 450.113 L 478.511 450.113 L 478.511 448.113 L 476 448.113 L 476 450.113 Z M 483.534 450.113 L 488.557 450.113 L 488.557 448.113 L 483.534 448.113 L 483.534 450.113 Z M 493.58 450.113 L 498.602 450.113 L 498.602 448.113 L 493.58 448.113 L 493.58 450.113 Z M 503.625 450.113 L 508.648 450.113 L 508.648 448.113 L 503.625 448.113 L 503.625 450.113 Z M 513.67 450.113 L 518.693 450.113 L 518.693 448.113 L 513.67 448.113 L 513.67 450.113 Z M 523.716 450.113 L 528.739 450.113 L 528.739 448.113 L 523.716 448.113 L 523.716 450.113 Z M 533.761 450.113 L 538.784 450.113 L 538.784 448.113 L 533.761 448.113 L 533.761 450.113 Z M 543.807 450.113 L 548.83 450.113 L 548.83 448.113 L 543.807 448.113 L 543.807 450.113 Z M 553.852 450.113 L 558.875 450.113 L 558.875 448.113 L 553.852 448.113 L 553.852 450.113 Z M 563.898 450.113 L 568.921 450.113 L 568.921 448.113 L 563.898 448.113 L 563.898 450.113 Z M 573.943 450.113 L 578.966 450.113 L 578.966 448.113 L 573.943 448.113 L 573.943 450.113 Z M 583.989 450.113 L 589.011 450.113 L 589.011 448.113 L 583.989 448.113 L 583.989 450.113 Z M 594.034 450.113 L 599.057 450.113 L 599.057 448.113 L 594.034 448.113 L 594.034 450.113 Z M 604.08 450.113 L 609.102 450.113 L 609.102 448.113 L 604.08 448.113 L 604.08 450.113 Z M 614.125 450.113 L 619.148 450.113 L 619.148 448.113 L 614.125 448.113 L 614.125 450.113 Z M 624.17 450.113 L 629.193 450.113 L 629.193 448.113 L 624.17 448.113 L 624.17 450.113 Z M 634.216 450.113 L 639.239 450.113 L 639.239 448.113 L 634.216 448.113 L 634.216 450.113 Z M 644.261 450.113 L 649.284 450.113 L 649.284 448.113 L 644.261 448.113 L 644.261 450.113 Z M 654.307 450.113 L 659.33 450.113 L 659.33 448.113 L 654.307 448.113 L 654.307 450.113 Z M 664.352 450.113 L 669.375 450.113 L 669.375 448.113 L 664.352 448.113 L 664.352 450.113 Z M 674.398 450.113 L 679.42 450.113 L 679.42 448.113 L 674.398 448.113 L 674.398 450.113 Z M 684.443 450.113 L 689.466 450.113 L 689.466 448.113 L 684.443 448.113 L 684.443 450.113 Z M 694.489 450.113 L 697 450.113 L 697 448.113 L 694.489 448.113 L 694.489 450.113 Z M 697 450.113 C 697.858 450.113 698.71 450.141 699.554 450.196 L 699.683 448.2 C 698.79 448.142 697.895 448.113 697 448.113 L 697 450.113 Z M 704.612 450.856 C 706.297 451.189 707.942 451.631 709.541 452.173 L 710.184 450.279 C 708.489 449.704 706.757 449.241 705.001 448.894 L 704.612 450.856 Z M 714.252 454.127 C 715.778 454.881 717.254 455.735 718.668 456.682 L 719.781 455.02 C 718.294 454.024 716.743 453.127 715.138 452.334 L 714.252 454.127 Z M 722.714 459.791 C 723.994 460.914 725.2 462.119 726.323 463.399 L 727.826 462.08 C 726.646 460.735 725.379 459.468 724.034 458.288 L 722.714 459.791 Z M 729.432 467.445 C 730.379 468.86 731.232 470.335 731.986 471.861 L 733.78 470.975 C 732.987 469.37 732.09 467.819 731.094 466.332 L 729.432 467.445 Z M 733.94 476.572 C 734.487 478.184 734.927 479.831 735.258 481.501 L 737.22 481.113 C 736.873 479.357 736.41 477.625 735.834 475.93 L 733.94 476.572 Z M 735.918 486.559 C 735.972 487.403 736 488.255 736 489.113 L 738 489.113 C 738 488.212 737.971 487.317 737.914 486.43 L 735.918 486.559 Z M 736 489.113 L 736 491.349 L 738 491.349 L 738 489.113 L 736 489.113 Z M 736 495.821 L 736 500.292 L 738 500.292 L 738 495.821 L 736 495.821 Z M 736 504.764 L 736 507 L 738 507 L 738 504.764 L 736 504.764 Z M 736 507 L 736 507.625 L 738 507.625 L 738 507 L 736 507 Z M 736 508.875 L 736 509.5 L 738 509.5 L 738 508.875 L 736 508.875 Z" fill="#96989D"/>
  <path d="M 745 502 L 736.944 510.056 L 728.887 502" stroke="#96989D" stroke-width="2"/>
  <path d="M 550 442 C 550 436.477 554.477 432 560 432 L 624 432 C 629.523 432 634 436.477 634 442 L 634 458 C 634 463.523 629.523 468 624 468 L 560 468 C 554.477 468 550 463.523 550 458 L 550 442 Z" fill="#EFF0F2"/>
  <path d="M 567.316 445.545 L 567.316 455 L 568.387 455 L 568.387 447.817 L 568.479 447.817 L 571.434 455 L 572.468 455 L 575.422 447.817 L 575.515 447.817 L 575.515 455 L 576.586 455 L 576.586 445.545 L 575.219 445.545 L 572.006 453.393 L 571.895 453.393 L 568.682 445.545 L 567.316 445.545 Z M 581.856 455.148 C 583.297 455.148 584.349 454.428 584.682 453.357 L 583.629 453.061 C 583.352 453.8 582.711 454.169 581.856 454.169 C 580.578 454.169 579.696 453.343 579.645 451.824 L 584.793 451.824 L 584.793 451.362 C 584.793 448.722 583.223 447.817 581.746 447.817 C 579.825 447.817 578.551 449.331 578.551 451.51 C 578.551 453.689 579.807 455.148 581.856 455.148 Z M 579.645 450.882 C 579.719 449.779 580.499 448.795 581.746 448.795 C 582.928 448.795 583.685 449.682 583.685 450.882 L 579.645 450.882 Z M 586.6 455 L 587.689 455 L 587.689 450.568 C 587.689 449.529 588.446 448.795 589.296 448.795 C 590.122 448.795 590.699 449.336 590.699 450.143 L 590.699 455 L 591.807 455 L 591.807 450.384 C 591.807 449.469 592.38 448.795 593.377 448.795 C 594.152 448.795 594.817 449.206 594.817 450.254 L 594.817 455 L 595.907 455 L 595.907 450.254 C 595.907 448.588 595.011 447.817 593.746 447.817 C 592.731 447.817 591.987 448.283 591.623 449.017 L 591.549 449.017 C 591.198 448.26 590.579 447.817 589.647 447.817 C 588.723 447.817 588.04 448.26 587.745 449.017 L 587.652 449.017 L 587.652 447.909 L 586.6 447.909 L 586.6 455 Z M 598.196 455 L 599.249 455 L 599.249 453.911 L 599.378 453.911 C 599.618 454.298 600.08 455.148 601.446 455.148 C 603.219 455.148 604.456 453.726 604.456 451.473 C 604.456 449.239 603.219 447.817 601.428 447.817 C 600.043 447.817 599.618 448.666 599.378 449.036 L 599.286 449.036 L 599.286 445.545 L 598.196 445.545 L 598.196 455 Z M 599.267 451.455 C 599.267 449.866 599.969 448.795 601.299 448.795 C 602.684 448.795 603.367 449.959 603.367 451.455 C 603.367 452.969 602.665 454.169 601.299 454.169 C 599.988 454.169 599.267 453.061 599.267 451.455 Z M 609.246 455.148 C 610.686 455.148 611.739 454.428 612.071 453.357 L 611.019 453.061 C 610.742 453.8 610.1 454.169 609.246 454.169 C 607.967 454.169 607.085 453.343 607.035 451.824 L 612.182 451.824 L 612.182 451.362 C 612.182 448.722 610.612 447.817 609.135 447.817 C 607.215 447.817 605.941 449.331 605.941 451.51 C 605.941 453.689 607.196 455.148 609.246 455.148 Z M 607.035 450.882 C 607.109 449.779 607.889 448.795 609.135 448.795 C 610.317 448.795 611.074 449.682 611.074 450.882 L 607.035 450.882 Z M 613.989 455 L 615.079 455 L 615.079 450.513 C 615.079 449.553 615.836 448.851 616.87 448.851 C 617.161 448.851 617.461 448.906 617.535 448.925 L 617.535 447.817 C 617.344 447.806 617.153 447.799 616.962 447.798 C 616.113 447.798 615.374 448.278 615.116 448.98 L 615.042 448.98 L 615.042 447.909 L 613.989 447.909 L 613.989 455 Z" fill="#65676E"/>
  <rect x="693" y="290" width="147.678" height="89.308" rx="15" fill="#FFE5D7"/>
  <rect x="748.839" y="301.839" width="36" height="36" rx="6.42" fill="#FFB288"/>
  <path d="M 764.503 314.509 C 764.448 312.578 766.505 311.311 768.205 312.23 C 769.039 312.68 769.548 313.562 769.521 314.509 C 769.466 316.44 767.342 317.589 765.696 316.576 C 764.975 316.132 764.527 315.355 764.503 314.509 Z" fill="#AA562B"/>
  <path d="M 763.824 318.83 C 764.335 318.32 765.028 318.033 765.75 318.033 L 768.272 318.033 C 768.994 318.033 769.687 318.32 770.199 318.83 C 770.709 319.342 770.996 320.035 770.996 320.758 L 770.996 327 C 770.996 327.604 770.507 328.092 769.905 328.092 L 764.118 328.092 C 763.514 328.092 763.026 327.602 763.026 327 L 763.026 320.758 C 763.025 320.035 763.312 319.341 763.824 318.83 Z" fill="#FFE5D7"/>
  <path d="M 757.526 319.553 C 757.862 319.216 758.319 319.027 758.795 319.027 L 760.209 319.027 C 761.201 319.026 762.005 319.83 762.004 320.822 L 762.004 325.362 C 762.004 325.76 761.682 326.082 761.284 326.082 L 757.72 326.082 C 757.322 326.082 757 325.76 757 325.362 L 757 320.822 C 757 320.346 757.189 319.889 757.526 319.553 Z M 772.522 319.553 C 772.858 319.216 773.315 319.027 773.791 319.027 L 775.205 319.027 C 776.197 319.025 777.002 319.83 777 320.822 L 777 325.28 C 777 325.678 776.678 326 776.28 326 L 772.715 326 C 772.317 326 771.995 325.678 771.995 325.28 L 771.995 320.822 C 771.996 320.346 772.186 319.889 772.522 319.553 Z" fill="#FF7F38"/>
  <path d="M 772.499 315.978 C 772.464 314.439 774.109 313.439 775.459 314.179 C 776.114 314.537 776.515 315.231 776.498 315.977 C 776.464 317.516 774.776 318.441 773.46 317.642 C 772.877 317.288 772.514 316.66 772.499 315.978 Z M 757.502 315.978 C 757.468 314.439 759.112 313.44 760.463 314.179 C 761.117 314.538 761.518 315.232 761.501 315.978 C 761.535 317.517 759.891 318.516 758.54 317.777 C 757.886 317.418 757.485 316.724 757.502 315.978 Z" fill="#D56A32"/>
  <rect x="693" y="290" width="147.678" height="89.308" rx="15" stroke="#96989D" stroke-width="2" stroke-dasharray="5 5"/>
  <rect x="743.839" y="95.839" width="36" height="36" rx="6.42" fill="#EFF0F2"/>
  <path d="M 756.862 108.839 C 756.862 104.99 761.029 102.584 764.362 104.509 C 765.909 105.402 766.862 107.053 766.862 108.839 C 766.862 112.688 762.695 115.094 759.362 113.169 C 757.815 112.276 756.862 110.625 756.862 108.839 Z" fill="#65676E"/>
  <path d="M 753.304 117.309 C 754.241 116.372 755.511 115.846 756.836 115.846 L 766.863 115.846 C 769.621 115.847 771.857 118.083 771.858 120.841 L 771.858 121.837 C 771.858 122.943 770.962 123.839 769.856 123.839 L 753.843 123.839 C 752.737 123.839 751.841 122.943 751.841 121.837 L 751.841 120.841 C 751.841 119.517 752.367 118.246 753.304 117.309 Z" fill="#C4C4C4"/>
  <path d="M 749.9 155.469 C 752.39 155.469 753.866 153.929 753.866 151.375 C 753.866 148.83 752.39 147.298 749.956 147.298 L 747.132 147.298 L 747.132 155.469 L 749.9 155.469 Z M 748.612 154.188 L 748.612 148.579 L 749.872 148.579 C 751.532 148.579 752.398 149.504 752.398 151.375 C 752.398 153.254 751.532 154.188 749.829 154.188 L 748.612 154.188 Z M 755.208 155.469 L 756.653 155.469 L 756.653 149.341 L 755.208 149.341 L 755.208 155.469 Z M 755.934 148.471 C 756.393 148.471 756.768 148.12 756.768 147.689 C 756.768 147.254 756.393 146.903 755.934 146.903 C 755.472 146.903 755.097 147.254 755.097 147.689 C 755.097 148.12 755.472 148.471 755.934 148.471 Z M 759.901 155.592 C 760.862 155.592 761.437 155.141 761.7 154.627 L 761.748 154.627 L 761.748 155.469 L 763.136 155.469 L 763.136 151.367 C 763.136 149.748 761.816 149.261 760.647 149.261 C 759.358 149.261 758.369 149.835 758.05 150.952 L 759.398 151.144 C 759.542 150.725 759.949 150.366 760.655 150.366 C 761.325 150.366 761.692 150.709 761.692 151.311 L 761.692 151.335 C 761.692 151.75 761.257 151.77 760.176 151.886 C 758.987 152.014 757.85 152.369 757.85 153.749 C 757.85 154.954 758.732 155.592 759.901 155.592 Z M 760.276 154.531 C 759.674 154.531 759.243 154.256 759.243 153.725 C 759.243 153.171 759.725 152.939 760.372 152.847 C 760.751 152.796 761.509 152.7 761.696 152.548 L 761.696 153.27 C 761.696 153.953 761.146 154.531 760.276 154.531 Z M 766.033 151.878 C 766.033 150.992 766.567 150.482 767.329 150.482 C 768.075 150.482 768.522 150.972 768.522 151.79 L 768.522 155.469 L 769.966 155.469 L 769.966 151.567 C 769.97 150.099 769.133 149.261 767.868 149.261 C 766.95 149.261 766.32 149.7 766.041 150.382 L 765.969 150.382 L 765.969 149.341 L 764.589 149.341 L 764.589 155.469 L 766.033 155.469 L 766.033 151.878 Z M 774.147 155.588 C 775.576 155.588 776.557 154.89 776.812 153.825 L 775.464 153.673 C 775.268 154.192 774.79 154.463 774.167 154.463 C 773.234 154.463 772.615 153.849 772.603 152.8 L 776.872 152.8 L 776.872 152.357 C 776.872 150.206 775.58 149.261 774.072 149.261 C 772.316 149.261 771.171 150.55 771.171 152.441 C 771.171 154.363 772.3 155.588 774.147 155.588 Z M 772.607 151.826 C 772.651 151.044 773.23 150.386 774.091 150.386 C 774.921 150.386 775.48 150.992 775.488 151.826 L 772.607 151.826 Z" fill="#1E212A"/>
  <rect x="688" y="84" width="147.678" height="89.308" rx="15" stroke="#96989D" stroke-width="2" stroke-dasharray="5 5"/>
  <rect x="1075.84" y="301.839" width="36" height="36" rx="6.42" fill="#EFF0F2"/>
  <path d="M 1088.86 314.839 C 1088.937 310.99 1093.152 308.668 1096.447 310.659 C 1097.915 311.546 1098.826 313.124 1098.86 314.839 C 1098.859 317.6 1096.621 319.839 1093.86 319.84 C 1091.1 319.839 1088.86 317.6 1088.86 314.839 Z" fill="#65676E"/>
  <path d="M 1085.3 323.309 C 1086.24 322.372 1087.513 321.846 1088.84 321.846 L 1098.86 321.846 C 1100.19 321.846 1101.46 322.372 1102.4 323.309 C 1103.333 324.248 1103.858 325.517 1103.86 326.841 L 1103.86 327.837 C 1103.86 328.943 1102.96 329.839 1101.86 329.839 L 1085.84 329.839 C 1084.74 329.839 1083.84 328.943 1083.84 327.837 L 1083.84 326.841 C 1083.84 325.517 1084.37 324.246 1085.3 323.309 Z" fill="#C4C4C4"/>
  <path d="M 1084.34 361.469 L 1089.69 361.469 L 1089.69 360.228 L 1085.82 360.228 L 1085.82 357.998 L 1089.38 357.998 L 1089.38 356.757 L 1085.82 356.757 L 1085.82 354.539 L 1089.66 354.539 L 1089.66 353.298 L 1084.34 353.298 L 1084.34 361.469 Z M 1091.1 361.469 L 1092.55 361.469 L 1092.55 357.866 C 1092.55 357.088 1093.13 356.538 1093.93 356.538 C 1094.17 356.538 1094.47 356.581 1094.6 356.621 L 1094.6 355.293 C 1094.47 355.269 1094.24 355.253 1094.08 355.253 C 1093.38 355.253 1092.79 355.652 1092.57 356.362 L 1092.5 356.362 L 1092.5 355.341 L 1091.1 355.341 L 1091.1 361.469 Z M 1095.56 361.469 L 1097 361.469 L 1097 355.341 L 1095.56 355.341 L 1095.56 361.469 Z M 1096.28 354.471 C 1096.74 354.471 1097.12 354.12 1097.12 353.689 C 1097.12 353.254 1096.74 352.903 1096.28 352.903 C 1095.82 352.903 1095.45 353.254 1095.45 353.689 C 1095.45 354.12 1095.82 354.471 1096.28 354.471 Z M 1098.49 361.469 L 1099.93 361.469 L 1099.93 359.41 L 1100.46 358.847 L 1102.33 361.469 L 1104.06 361.469 L 1101.55 357.986 L 1103.92 355.341 L 1102.23 355.341 L 1100.03 357.802 L 1099.93 357.802 L 1099.93 353.298 L 1098.49 353.298 L 1098.49 361.469 Z" fill="#1E212A"/>
  <rect x="1020" y="290" width="147.678" height="89.308" rx="15" stroke="#96989D" stroke-width="2" stroke-dasharray="5 5"/>
  <path d="M 765 182 L 765 281" stroke="#96989D" stroke-width="2" stroke-miterlimit="16" stroke-dasharray="5 5"/>
  <path d="M 723 223 C 723 217.477 727.477 213 733 213 L 797 213 C 802.523 213 807 217.477 807 223 L 807 239 C 807 244.523 802.523 249 797 249 L 733 249 C 727.477 249 723 244.523 723 239 L 723 223 Z" fill="#EFF0F2"/>
  <path d="M 740.316 226.545 L 740.316 236 L 741.387 236 L 741.387 228.817 L 741.479 228.817 L 744.434 236 L 745.468 236 L 748.422 228.817 L 748.515 228.817 L 748.515 236 L 749.586 236 L 749.586 226.545 L 748.219 226.545 L 745.006 234.393 L 744.895 234.393 L 741.682 226.545 L 740.316 226.545 Z M 754.856 236.148 C 756.297 236.148 757.349 235.428 757.682 234.357 L 756.629 234.061 C 756.352 234.8 755.711 235.169 754.856 235.169 C 753.578 235.169 752.696 234.343 752.645 232.824 L 757.793 232.824 L 757.793 232.362 C 757.793 229.722 756.223 228.817 754.746 228.817 C 752.825 228.817 751.551 230.331 751.551 232.51 C 751.551 234.689 752.807 236.148 754.856 236.148 Z M 752.645 231.882 C 752.719 230.779 753.499 229.795 754.746 229.795 C 755.928 229.795 756.685 230.682 756.685 231.882 L 752.645 231.882 Z M 759.6 236 L 760.689 236 L 760.689 231.568 C 760.689 230.529 761.446 229.795 762.296 229.795 C 763.122 229.795 763.699 230.336 763.699 231.143 L 763.699 236 L 764.807 236 L 764.807 231.384 C 764.807 230.469 765.38 229.795 766.377 229.795 C 767.152 229.795 767.817 230.206 767.817 231.254 L 767.817 236 L 768.907 236 L 768.907 231.254 C 768.907 229.588 768.011 228.817 766.746 228.817 C 765.731 228.817 764.987 229.283 764.623 230.017 L 764.549 230.017 C 764.198 229.26 763.579 228.817 762.647 228.817 C 761.723 228.817 761.04 229.26 760.745 230.017 L 760.652 230.017 L 760.652 228.909 L 759.6 228.909 L 759.6 236 Z M 771.196 236 L 772.249 236 L 772.249 234.911 L 772.378 234.911 C 772.618 235.298 773.08 236.148 774.446 236.148 C 776.219 236.148 777.456 234.726 777.456 232.473 C 777.456 230.239 776.219 228.817 774.428 228.817 C 773.043 228.817 772.618 229.666 772.378 230.036 L 772.286 230.036 L 772.286 226.545 L 771.196 226.545 L 771.196 236 Z M 772.267 232.455 C 772.267 230.866 772.969 229.795 774.299 229.795 C 775.684 229.795 776.367 230.959 776.367 232.455 C 776.367 233.969 775.665 235.169 774.299 235.169 C 772.988 235.169 772.267 234.061 772.267 232.455 Z M 782.246 236.148 C 783.686 236.148 784.739 235.428 785.071 234.357 L 784.019 234.061 C 783.742 234.8 783.1 235.169 782.246 235.169 C 780.967 235.169 780.085 234.343 780.035 232.824 L 785.182 232.824 L 785.182 232.362 C 785.182 229.722 783.612 228.817 782.135 228.817 C 780.215 228.817 778.941 230.331 778.941 232.51 C 778.941 234.689 780.196 236.148 782.246 236.148 Z M 780.035 231.882 C 780.109 230.779 780.889 229.795 782.135 229.795 C 783.317 229.795 784.074 230.682 784.074 231.882 L 780.035 231.882 Z M 786.989 236 L 788.079 236 L 788.079 231.513 C 788.079 230.553 788.836 229.851 789.87 229.851 C 790.161 229.851 790.461 229.906 790.535 229.925 L 790.535 228.817 C 790.344 228.806 790.153 228.799 789.962 228.798 C 789.113 228.798 788.374 229.278 788.116 229.98 L 788.042 229.98 L 788.042 228.909 L 786.989 228.909 L 786.989 236 Z" fill="#65676E"/>
  <path d="M 773 273 L 764.944 281.056 L 756.887 273" stroke="#96989D" stroke-width="2"/>
  <rect x="1020" y="521" width="147.678" height="89.308" rx="15" fill="#E9E8FF"/>
  <rect x="1075.84" y="532.839" width="36" height="36" rx="6.42" fill="#635DFF"/>
  <path d="M 1084.34 544.239 C 1084.34 543.19 1085.191 542.339 1086.24 542.339 L 1095.11 542.339 C 1096.15 542.339 1097.01 543.19 1097.01 544.239 L 1097.01 559.228 L 1086.24 559.228 C 1085.191 559.228 1084.34 558.377 1084.34 557.328 L 1084.34 544.239 Z" fill="#E9E8FF"/>
  <path d="M 1097.01 546.561 L 1101.44 546.561 C 1102.489 546.561 1103.34 547.412 1103.34 548.461 L 1103.34 557.328 C 1103.34 558.377 1102.489 559.228 1101.44 559.228 L 1097.01 559.228 L 1097.01 546.561 Z" fill="#908BFF"/>
  <rect x="1087.51" y="545.506" width="2.111" height="2.111" rx="1" fill="#635DFF"/>
  <rect x="1087.51" y="549.728" width="2.111" height="2.111" rx="1" fill="#635DFF"/>
  <rect x="1087.51" y="553.95" width="2.111" height="2.111" rx="1" fill="#635DFF"/>
  <rect x="1091.73" y="545.506" width="2.111" height="2.111" rx="1" fill="#635DFF"/>
  <rect x="1091.73" y="549.728" width="2.111" height="2.111" rx="1" fill="#635DFF"/>
  <rect x="1099.12" y="549.728" width="2.111" height="2.111" rx="1" fill="#E9E8FF"/>
  <rect x="1099.12" y="553.95" width="2.111" height="2.111" rx="1" fill="#E9E8FF"/>
  <rect x="1091.73" y="553.95" width="2.111" height="2.111" rx="1" fill="#635DFF"/>
  <rect x="1020" y="521" width="147.678" height="89.308" rx="15" stroke="#96989D" stroke-width="2" stroke-dasharray="5 5"/>
  <path d="M 1094 629.509 L 1095 629.509 L 1094 629.509 Z M 1054 798 L 1054 797 L 1054 798 Z M 1095 619 L 1095 621.627 L 1093 621.627 L 1093 619 L 1095 619 Z M 1095 626.882 L 1095 629.509 L 1093 629.509 L 1093 626.882 L 1095 626.882 Z M 1095 629.509 L 1095 631.98 L 1093 631.98 L 1093 629.509 L 1095 629.509 Z M 1095 636.922 L 1095 641.864 L 1093 641.864 L 1093 636.922 L 1095 636.922 Z M 1095 646.806 L 1095 651.748 L 1093 651.748 L 1093 646.806 L 1095 646.806 Z M 1095 656.69 L 1095 661.632 L 1093 661.632 L 1093 656.69 L 1095 656.69 Z M 1095 666.574 L 1095 671.516 L 1093 671.516 L 1093 666.574 L 1095 666.574 Z M 1095 676.458 L 1095 681.4 L 1093 681.4 L 1093 676.458 L 1095 676.458 Z M 1095 686.342 L 1095 691.284 L 1093 691.284 L 1093 686.342 L 1095 686.342 Z M 1095 696.226 L 1095 701.168 L 1093 701.168 L 1093 696.226 L 1095 696.226 Z M 1095 706.11 L 1095 711.051 L 1093 711.051 L 1093 706.11 L 1095 706.11 Z M 1095 715.993 L 1095 720.935 L 1093 720.935 L 1093 715.993 L 1095 715.993 Z M 1095 725.877 L 1095 730.819 L 1093 730.819 L 1093 725.877 L 1095 725.877 Z M 1095 735.761 L 1095 740.703 L 1093 740.703 L 1093 735.761 L 1095 735.761 Z M 1095 745.645 L 1095 750.587 L 1093 750.587 L 1093 745.645 L 1095 745.645 Z M 1095 755.529 L 1095 758 L 1093 758 L 1093 755.529 L 1095 755.529 Z M 1095 758 C 1095 758.901 1094.97 759.796 1094.91 760.683 L 1092.92 760.554 C 1092.97 759.71 1093 758.858 1093 758 L 1095 758 Z M 1094.22 766.001 C 1093.871 767.757 1093.407 769.489 1092.83 771.184 L 1090.94 770.541 C 1091.48 768.942 1091.92 767.297 1092.26 765.612 L 1094.22 766.001 Z M 1090.78 776.138 C 1089.987 777.744 1089.089 779.295 1088.09 780.781 L 1086.43 779.668 C 1087.38 778.258 1088.23 776.784 1088.99 775.252 L 1090.78 776.138 Z M 1084.83 785.034 C 1083.648 786.38 1082.378 787.647 1081.03 788.826 L 1079.71 787.322 C 1080.991 786.2 1082.197 784.995 1083.32 783.714 L 1084.83 785.034 Z M 1076.78 792.094 C 1075.294 793.09 1073.744 793.987 1072.14 794.779 L 1071.25 792.986 C 1072.777 792.232 1074.254 791.379 1075.67 790.432 L 1076.78 792.094 Z M 1067.18 796.834 C 1065.486 797.409 1063.755 797.872 1062 798.22 L 1061.61 796.258 C 1063.3 795.924 1064.94 795.483 1066.54 794.94 L 1067.18 796.834 Z M 1056.68 798.914 C 1055.8 798.971 1054.9 799 1054 799 L 1054 797 C 1054.86 797 1055.71 796.972 1056.55 796.918 L 1056.68 798.914 Z M 1054 799 L 1051.51 799 L 1051.51 797 L 1054 797 L 1054 799 Z M 1046.54 799 L 1041.57 799 L 1041.57 797 L 1046.54 797 L 1046.54 799 Z M 1036.6 799 L 1031.63 799 L 1031.63 797 L 1036.6 797 L 1036.6 799 Z M 1026.66 799 L 1021.68 799 L 1021.68 797 L 1026.66 797 L 1026.66 799 Z M 1016.71 799 L 1011.74 799 L 1011.74 797 L 1016.71 797 L 1016.71 799 Z M 1006.77 799 L 1001.8 799 L 1001.8 797 L 1006.77 797 L 1006.77 799 Z M 996.826 799 L 991.854 799 L 991.854 797 L 996.826 797 L 996.826 799 Z M 986.882 799 L 981.91 799 L 981.91 797 L 986.882 797 L 986.882 799 Z M 976.939 799 L 971.967 799 L 971.967 797 L 976.939 797 L 976.939 799 Z M 966.995 799 L 962.024 799 L 962.024 797 L 966.995 797 L 966.995 799 Z M 957.052 799 L 952.08 799 L 952.08 797 L 957.052 797 L 957.052 799 Z M 947.109 799 L 942.137 799 L 942.137 797 L 947.109 797 L 947.109 799 Z M 937.165 799 L 932.193 799 L 932.193 797 L 937.165 797 L 937.165 799 Z M 927.222 799 L 922.25 799 L 922.25 797 L 927.222 797 L 927.222 799 Z M 917.278 799 L 912.307 799 L 912.307 797 L 917.278 797 L 917.278 799 Z M 907.335 799 L 902.363 799 L 902.363 797 L 907.335 797 L 907.335 799 Z M 897.392 799 L 892.42 799 L 892.42 797 L 897.392 797 L 897.392 799 Z M 887.448 799 L 882.477 799 L 882.477 797 L 887.448 797 L 887.448 799 Z M 877.505 799 L 872.533 799 L 872.533 797 L 877.505 797 L 877.505 799 Z M 867.561 799 L 862.59 799 L 862.59 797 L 867.561 797 L 867.561 799 Z M 857.618 799 L 852.646 799 L 852.646 797 L 857.618 797 L 857.618 799 Z M 847.675 799 L 842.703 799 L 842.703 797 L 847.675 797 L 847.675 799 Z M 837.731 799 L 832.76 799 L 832.76 797 L 837.731 797 L 837.731 799 Z M 827.788 799 L 822.816 799 L 822.816 797 L 827.788 797 L 827.788 799 Z M 817.845 799 L 812.873 799 L 812.873 797 L 817.845 797 L 817.845 799 Z M 807.901 799 L 802.929 799 L 802.929 797 L 807.901 797 L 807.901 799 Z M 797.958 799 L 792.986 799 L 792.986 797 L 797.958 797 L 797.958 799 Z M 788.014 799 L 783.043 799 L 783.043 797 L 788.014 797 L 788.014 799 Z M 778.071 799 L 773.099 799 L 773.099 797 L 778.071 797 L 778.071 799 Z M 768.127 799 L 763.156 799 L 763.156 797 L 768.127 797 L 768.127 799 Z M 758.184 799 L 753.212 799 L 753.212 797 L 758.184 797 L 758.184 799 Z M 748.241 799 L 743.269 799 L 743.269 797 L 748.241 797 L 748.241 799 Z M 738.297 799 L 733.326 799 L 733.326 797 L 738.297 797 L 738.297 799 Z M 728.354 799 L 723.382 799 L 723.382 797 L 728.354 797 L 728.354 799 Z M 718.41 799 L 713.439 799 L 713.439 797 L 718.41 797 L 718.41 799 Z M 708.467 799 L 703.495 799 L 703.495 797 L 708.467 797 L 708.467 799 Z M 698.524 799 L 693.552 799 L 693.552 797 L 698.524 797 L 698.524 799 Z M 688.58 799 L 683.608 799 L 683.608 797 L 688.58 797 L 688.58 799 Z M 678.637 799 L 673.665 799 L 673.665 797 L 678.637 797 L 678.637 799 Z M 668.693 799 L 663.722 799 L 663.722 797 L 668.693 797 L 668.693 799 Z M 658.75 799 L 653.778 799 L 653.778 797 L 658.75 797 L 658.75 799 Z M 648.806 799 L 643.835 799 L 643.835 797 L 648.806 797 L 648.806 799 Z M 638.863 799 L 633.891 799 L 633.891 797 L 638.863 797 L 638.863 799 Z M 628.92 799 L 623.948 799 L 623.948 797 L 628.92 797 L 628.92 799 Z M 618.976 799 L 614.004 799 L 614.004 797 L 618.976 797 L 618.976 799 Z M 609.033 799 L 604.061 799 L 604.061 797 L 609.033 797 L 609.033 799 Z M 599.089 799 L 594.118 799 L 594.118 797 L 599.089 797 L 599.089 799 Z M 589.146 799 L 584.174 799 L 584.174 797 L 589.146 797 L 589.146 799 Z M 579.202 799 L 574.231 799 L 574.231 797 L 579.202 797 L 579.202 799 Z M 569.259 799 L 564.287 799 L 564.287 797 L 569.259 797 L 569.259 799 Z M 559.316 799 L 554.344 799 L 554.344 797 L 559.316 797 L 559.316 799 Z M 549.372 799 L 544.4 799 L 544.4 797 L 549.372 797 L 549.372 799 Z M 539.429 799 L 534.457 799 L 534.457 797 L 539.429 797 L 539.429 799 Z M 529.485 799 L 527 799 L 527 797 L 529.485 797 L 529.485 799 Z" fill="#96989D"/>
  <path d="M 534.057 806.113 L 526 798.057 L 534.057 790" stroke="#96989D" stroke-width="2"/>
  <path d="M 833 790 C 833 784.477 837.477 780 843 780 L 897 780 C 902.523 780 907 784.477 907 790 L 907 806 C 907 811.523 902.523 816 897 816 L 843 816 C 837.477 816 833 811.523 833 806 L 833 790 Z" fill="#EFF0F2"/>
  <path d="M 858.586 798.273 C 858.586 795.281 856.832 793.416 854.413 793.416 C 851.994 793.416 850.239 795.281 850.239 798.273 C 850.239 801.264 851.994 803.129 854.413 803.129 C 856.832 803.129 858.586 801.264 858.586 798.273 Z M 857.478 798.273 C 857.478 800.729 856.13 802.058 854.413 802.058 C 852.695 802.058 851.347 800.729 851.347 798.273 C 851.347 795.817 852.695 794.487 854.413 794.487 C 856.13 794.487 857.478 795.817 857.478 798.273 Z M 862.12 803 L 863.191 803 L 864.742 797.553 L 864.853 797.553 L 866.404 803 L 867.475 803 L 869.635 795.909 L 868.49 795.909 L 866.958 801.32 L 866.884 801.32 L 865.388 795.909 L 864.225 795.909 L 862.711 801.338 L 862.637 801.338 L 861.104 795.909 L 859.959 795.909 L 862.12 803 Z M 872.315 798.734 C 872.315 797.497 873.081 796.795 874.125 796.795 C 875.136 796.795 875.75 797.456 875.75 798.568 L 875.75 803 L 876.839 803 L 876.839 798.494 C 876.839 796.685 875.874 795.817 874.439 795.817 C 873.368 795.817 872.703 796.297 872.371 797.017 L 872.278 797.017 L 872.278 795.909 L 871.226 795.909 L 871.226 803 L 872.315 803 L 872.315 798.734 Z M 881.953 803.148 C 883.394 803.148 884.446 802.428 884.778 801.357 L 883.726 801.061 C 883.449 801.8 882.807 802.169 881.953 802.169 C 880.674 802.169 879.793 801.343 879.742 799.824 L 884.889 799.824 L 884.889 799.362 C 884.889 796.722 883.32 795.817 881.842 795.817 C 879.922 795.817 878.648 797.331 878.648 799.51 C 878.648 801.689 879.903 803.148 881.953 803.148 Z M 879.742 798.882 C 879.816 797.779 880.596 796.795 881.842 796.795 C 883.024 796.795 883.781 797.682 883.781 798.882 L 879.742 798.882 Z M 886.697 803 L 887.786 803 L 887.786 798.513 C 887.786 797.553 888.543 796.851 889.577 796.851 C 889.868 796.851 890.168 796.906 890.242 796.925 L 890.242 795.817 C 890.052 795.806 889.861 795.799 889.67 795.798 C 888.82 795.798 888.082 796.278 887.823 796.98 L 887.749 796.98 L 887.749 795.909 L 886.697 795.909 L 886.697 803 Z" fill="#65676E"/>
  <g transform="matrix(1, 0, 0, 1, -11.017883, 0.437933)">
    <text style="fill: rgb(51, 51, 51); font-family: Arial, sans-serif; font-size: 12px; text-anchor: middle; white-space: pre;" x="774.661" y="358.647">  team:contoso/protocols</text>
  </g>
  <text style="fill: rgb(51, 51, 51); font-family: Arial, sans-serif; font-size: 12px; white-space: pre;" x="699.287" y="590.063">team:contoso/engineering </text>
  <g>
    <text style="fill: rgb(51, 51, 51); font-family: Arial, sans-serif; font-size: 14px; white-space: pre;" x="374.959" y="818.613">repo:contoso/tooling</text>
  </g>
  <text style="fill: rgb(51, 51, 51); font-family: Arial, sans-serif; font-size: 12px; white-space: pre;" x="1056.837" y="590.063">  org:contoso</text>
</svg>