<?xml version="1.0" encoding="utf-8"?>
<svg width="940" height="357" viewBox="0 0 940 357" fill="none" xmlns="http://www.w3.org/2000/svg">
  <path fill="#fff" d="M 0 0 L 940 0 L 940 357 L 0 357 L 0 0 Z"/>
  <rect x="781.839" y="33.839" width="36" height="36" rx="6.42" fill="#EFF0F2"/>
  <path d="M 794.862 46.84 C 794.862 42.991 799.029 40.585 802.362 42.51 C 803.909 43.403 804.862 45.054 804.862 46.84 C 804.862 50.689 800.695 53.095 797.362 51.17 C 795.815 50.277 794.862 48.626 794.862 46.84 Z" fill="#65676E"/>
  <path d="M 791.304 55.309 C 792.241 54.372 793.511 53.846 794.836 53.846 L 804.863 53.846 C 807.622 53.847 809.857 56.083 809.858 58.842 L 809.858 59.837 C 809.858 60.943 808.962 61.839 807.856 61.839 L 791.843 61.839 C 790.737 61.839 789.841 60.943 789.841 59.837 L 789.841 58.841 C 789.841 57.517 790.367 56.246 791.304 55.309 Z" fill="#C4C4C4"/>
  <path d="M 787.979 93.469 L 791.286 93.469 C 793.157 93.469 794.075 92.515 794.075 91.243 C 794.075 90.006 793.197 89.28 792.327 89.236 L 792.327 89.156 C 793.125 88.968 793.755 88.41 793.755 87.416 C 793.755 86.2 792.878 85.298 791.106 85.298 L 787.979 85.298 L 787.979 93.468 L 787.979 93.469 Z M 789.459 92.232 L 789.459 89.838 L 791.09 89.838 C 792.004 89.838 792.571 90.397 792.571 91.127 C 792.571 91.777 792.124 92.232 791.051 92.232 L 789.459 92.232 Z M 789.459 88.773 L 789.459 86.519 L 790.955 86.519 C 791.825 86.519 792.275 86.978 792.275 87.609 C 792.275 88.326 791.693 88.773 790.923 88.773 L 789.459 88.773 Z M 798.011 93.588 C 799.439 93.588 800.421 92.89 800.676 91.825 L 799.328 91.673 C 799.132 92.192 798.653 92.463 798.031 92.463 C 797.098 92.463 796.479 91.849 796.467 90.8 L 800.736 90.8 L 800.736 90.357 C 800.736 88.207 799.443 87.261 797.935 87.261 C 796.18 87.261 795.035 88.55 795.035 90.441 C 795.035 92.363 796.164 93.588 798.011 93.588 Z M 796.471 89.826 C 796.515 89.044 797.094 88.386 797.955 88.386 C 798.785 88.386 799.344 88.993 799.352 89.826 L 796.471 89.826 Z M 805.018 87.341 L 803.809 87.341 L 803.809 85.873 L 802.365 85.873 L 802.365 87.341 L 801.495 87.341 L 801.495 88.458 L 802.365 88.458 L 802.365 91.865 C 802.357 93.018 803.195 93.585 804.28 93.552 C 804.691 93.54 804.974 93.461 805.129 93.409 L 804.886 92.279 C 804.806 92.299 804.643 92.336 804.463 92.336 C 804.1 92.336 803.809 92.208 803.809 91.626 L 803.809 88.458 L 805.018 88.458 L 805.018 87.34 L 805.018 87.341 Z M 807.801 89.878 C 807.801 88.993 808.352 88.482 809.126 88.482 C 809.884 88.482 810.331 88.965 810.331 89.79 L 810.331 93.469 L 811.775 93.469 L 811.775 89.567 C 811.775 88.087 810.937 87.261 809.664 87.261 C 808.723 87.261 808.124 87.688 807.841 88.382 L 807.769 88.382 L 807.769 85.298 L 806.357 85.298 L 806.357 93.468 L 807.801 93.468 L 807.801 89.878 Z" fill="#1E212A"/>
  <rect x="726" y="22" width="147.678" height="89.308" rx="15" stroke="#96989D" stroke-width="2" stroke-dasharray="5 5"/>
  <rect x="123.839" y="33.839" width="36" height="36" rx="6.42" fill="#EFF0F2"/>
  <path d="M 136.862 46.84 C 136.862 42.991 141.029 40.585 144.362 42.51 C 145.909 43.403 146.862 45.054 146.862 46.84 C 146.862 50.689 142.695 53.095 139.362 51.17 C 137.815 50.277 136.862 48.626 136.862 46.84 Z" fill="#65676E"/>
  <path d="M 133.304 55.309 C 134.241 54.372 135.511 53.846 136.836 53.846 L 146.863 53.846 C 149.622 53.847 151.857 56.083 151.858 58.842 L 151.858 59.837 C 151.858 60.943 150.962 61.839 149.856 61.839 L 133.843 61.839 C 132.737 61.839 131.841 60.943 131.841 59.837 L 131.841 58.841 C 131.841 57.517 132.367 56.246 133.304 55.309 Z" fill="#C4C4C4"/>
  <path d="M 129.454 93.469 L 130.128 91.454 L 133.2 91.454 L 133.878 93.469 L 135.458 93.469 L 132.577 85.299 L 130.75 85.299 L 127.874 93.469 L 129.454 93.469 Z M 130.527 90.265 L 131.632 86.974 L 131.696 86.974 L 132.801 90.265 L 130.527 90.265 Z M 137.914 89.878 C 137.914 88.993 138.449 88.482 139.211 88.482 C 139.957 88.482 140.404 88.972 140.404 89.79 L 140.404 93.469 L 141.848 93.469 L 141.848 89.567 C 141.852 88.099 141.014 87.261 139.749 87.261 C 138.832 87.261 138.201 87.7 137.922 88.382 L 137.85 88.382 L 137.85 87.341 L 136.47 87.341 L 136.47 93.469 L 137.914 93.469 L 137.914 89.879 L 137.914 89.878 Z M 144.76 89.878 C 144.76 88.993 145.295 88.482 146.057 88.482 C 146.803 88.482 147.25 88.972 147.25 89.79 L 147.25 93.469 L 148.694 93.469 L 148.694 89.567 C 148.698 88.099 147.86 87.261 146.595 87.261 C 145.678 87.261 145.047 87.7 144.768 88.382 L 144.696 88.382 L 144.696 87.341 L 143.316 87.341 L 143.316 93.469 L 144.76 93.469 L 144.76 89.879 L 144.76 89.878 Z M 152.875 93.588 C 154.303 93.588 155.284 92.89 155.54 91.825 L 154.191 91.673 C 153.996 92.192 153.517 92.463 152.895 92.463 C 151.961 92.463 151.343 91.849 151.331 90.8 L 155.6 90.8 L 155.6 90.357 C 155.6 88.207 154.307 87.261 152.799 87.261 C 151.044 87.261 149.899 88.55 149.899 90.441 C 149.899 92.363 151.028 93.588 152.875 93.588 Z M 151.335 89.826 C 151.379 89.044 151.957 88.386 152.819 88.386 C 153.649 88.386 154.207 88.993 154.215 89.826 L 151.335 89.826 Z" fill="#1E212A"/>
  <rect x="68" y="22" width="147.678" height="89.308" rx="15" stroke="#96989D" stroke-width="2" stroke-dasharray="5 5"/>
  <path d="M 796 126 L 797 126 L 796 126 Z M 756 183.113 L 535 183.113 L 535 181.113 L 756 181.113 L 756 183.113 Z M 496 222.113 L 496 240 L 494 240 L 494 222.113 L 496 222.113 Z M 795 142.113 L 795 126 L 797 126 L 797 142.113 L 795 142.113 Z M 496 240 L 496 242.5 L 494 242.5 L 494 240 L 496 240 Z M 795 126 L 795 122.5 L 797 122.5 L 797 126 L 795 126 Z M 535 183.113 C 513.461 183.113 496 200.574 496 222.113 L 494 222.113 C 494 199.47 512.356 181.113 535 181.113 L 535 183.113 Z M 756 181.113 C 777.539 181.113 795 163.653 795 142.113 L 797 142.113 C 797 164.757 778.644 183.113 756 183.113 L 756 181.113 Z" fill="#96989D"/>
  <path d="M 487 235 L 495.056 243.056 L 503.113 235" stroke="#96989D" stroke-width="2"/>
  <path d="M 605 175 C 605 169.477 609.477 165 615 165 L 665 165 C 670.523 165 675 169.477 675 175 L 675 191 C 675 196.523 670.523 201 665 201 L 615 201 C 609.477 201 605 196.523 605 191 L 605 175 Z" fill="#EFF0F2"/>
  <path d="M 624.054 188 L 625.235 188 L 627.322 180.466 L 627.396 180.466 L 629.483 188 L 630.664 188 L 633.25 178.545 L 632.086 178.545 L 630.11 186.246 L 630.018 186.246 L 628.005 178.545 L 626.713 178.545 L 624.7 186.246 L 624.608 186.246 L 622.632 178.545 L 621.468 178.545 L 624.054 188 Z M 634.234 188 L 635.324 188 L 635.324 183.513 C 635.324 182.553 636.081 181.851 637.115 181.851 C 637.406 181.851 637.706 181.906 637.78 181.925 L 637.78 180.817 C 637.589 180.806 637.398 180.799 637.207 180.798 C 636.358 180.798 635.619 181.278 635.36 181.98 L 635.287 181.98 L 635.287 180.909 L 634.234 180.909 L 634.234 188 Z M 639.221 188 L 640.31 188 L 640.31 180.909 L 639.221 180.909 L 639.221 188 Z M 639.775 179.727 C 640.2 179.727 640.551 179.395 640.551 178.989 C 640.551 178.582 640.2 178.25 639.775 178.25 C 639.35 178.25 638.999 178.582 638.999 178.989 C 638.999 179.395 639.35 179.727 639.775 179.727 Z M 645.54 180.909 L 644.026 180.909 L 644.026 179.21 L 642.936 179.21 L 642.936 180.909 L 641.865 180.909 L 641.865 181.832 L 642.936 181.832 L 642.936 186.264 C 642.936 187.501 643.933 188.092 644.857 188.092 C 645.263 188.092 645.521 188.018 645.669 187.963 L 645.447 186.984 C 645.355 187.003 645.207 187.04 644.967 187.04 C 644.487 187.04 644.026 186.892 644.026 185.969 L 644.026 181.832 L 645.54 181.832 L 645.54 180.909 Z M 650.225 188.148 C 651.666 188.148 652.718 187.428 653.051 186.357 L 651.998 186.061 C 651.721 186.8 651.079 187.169 650.225 187.169 C 648.947 187.169 648.065 186.343 648.014 184.824 L 653.162 184.824 L 653.162 184.362 C 653.162 181.722 651.592 180.817 650.115 180.817 C 648.194 180.817 646.92 182.331 646.92 184.51 C 646.92 186.689 648.176 188.148 650.225 188.148 Z M 648.014 183.882 C 648.088 182.779 648.868 181.795 650.115 181.795 C 651.296 181.795 652.054 182.682 652.054 183.882 L 648.014 183.882 Z M 654.969 188 L 656.058 188 L 656.058 183.513 C 656.058 182.553 656.815 181.851 657.85 181.851 C 658.14 181.851 658.44 181.906 658.514 181.925 L 658.514 180.817 C 658.324 180.806 658.133 180.799 657.942 180.798 C 657.092 180.798 656.354 181.278 656.095 181.98 L 656.021 181.98 L 656.021 180.909 L 654.969 180.909 L 654.969 188 Z" fill="#65676E"/>
  <rect x="393" y="254" width="153.678" height="89.308" rx="15" fill="#FFE4FA"/>
  <rect x="451.839" y="265.839" width="36" height="36" rx="6.42" fill="#FF79E7"/>
  <path d="M 470 294.19 C 474.971 294.19 479 293.059 479 291.663 C 479 290.268 474.971 289.136 470 289.136 C 465.029 289.136 461 290.268 461 291.663 C 461 293.059 465.029 294.19 470 294.19 Z" fill="#C638A7"/>
  <path d="M 478.999 285.133 L 461 285.133 L 461 291.67 L 478.999 291.67 L 478.999 285.133 Z" fill="#C638A7"/>
  <path d="M 470 287.614 C 474.971 287.614 479 286.482 479 285.087 C 479 283.691 474.971 282.56 470 282.56 C 465.029 282.56 461 283.691 461 285.087 C 461 286.482 465.029 287.614 470 287.614 Z" fill="#FFE4FA"/>
  <path d="M 470 285.483 C 474.971 285.483 479 284.352 479 282.956 C 479 281.561 474.971 280.429 470 280.429 C 465.029 280.429 461 281.561 461 282.956 C 461 284.352 465.029 285.483 470 285.483 Z" fill="#C638A7"/>
  <path d="M 478.999 276.575 L 461 276.575 L 461 282.963 L 478.999 282.963 L 478.999 276.575 Z" fill="#C638A7"/>
  <path d="M 470 279.054 C 474.971 279.054 479 277.923 479 276.527 C 479 275.131 474.971 274 470 274 C 465.029 274 461 275.131 461 276.527 C 461 277.923 465.029 279.054 470 279.054 Z M 463.011 281.657 C 463.309 281.622 463.514 281.287 463.469 280.909 C 463.423 280.532 463.145 280.255 462.847 280.291 C 462.549 280.326 462.344 280.661 462.39 281.039 C 462.435 281.416 462.713 281.693 463.011 281.657 Z M 463.011 290.326 C 463.309 290.29 463.514 289.955 463.469 289.578 C 463.423 289.201 463.145 288.924 462.847 288.959 C 462.549 288.995 462.344 289.33 462.39 289.707 C 462.435 290.085 462.713 290.362 463.011 290.326 Z" fill="#FFE4FA"/>
  <rect x="393" y="254" width="153.678" height="89.308" rx="15" stroke="#96989D" stroke-width="2" stroke-dasharray="5 5"/>
  <path d="M 139 126 L 138 126 L 139 126 Z M 179 183.113 L 400 183.113 L 400 181.113 L 179 181.113 L 179 183.113 Z M 439 222.113 L 439 240 L 441 240 L 441 222.113 L 439 222.113 Z M 140 142.113 L 140 126 L 138 126 L 138 142.113 L 140 142.113 Z M 439 240 L 439 242.5 L 441 242.5 L 441 240 L 439 240 Z M 140 126 L 140 122.5 L 138 122.5 L 138 126 L 140 126 Z M 400 183.113 C 421.539 183.113 439 200.574 439 222.113 L 441 222.113 C 441 199.47 422.644 181.113 400 181.113 L 400 183.113 Z M 179 181.113 C 157.461 181.113 140 163.653 140 142.113 L 138 142.113 C 138 164.757 156.356 183.113 179 183.113 L 179 181.113 Z" fill="#96989D"/>
  <path d="M 245.5 175 C 245.5 169.477 249.977 165 255.5 165 L 312.5 165 C 318.023 165 322.5 169.477 322.5 175 L 322.5 191 C 322.5 196.523 318.023 201 312.5 201 L 255.5 201 C 249.977 201 245.5 196.523 245.5 191 L 245.5 175 Z" fill="#EFF0F2"/>
  <path d="M 262.966 188 L 264.111 188 L 264.111 184.307 L 266.179 184.307 C 266.262 184.307 266.34 184.307 266.419 184.302 L 268.413 188 L 269.743 188 L 267.605 184.094 C 268.81 183.684 269.373 182.7 269.373 181.445 C 269.373 179.773 268.376 178.545 266.16 178.545 L 262.966 178.545 L 262.966 188 Z M 264.111 183.273 L 264.111 179.561 L 266.123 179.561 C 267.656 179.561 268.247 180.309 268.247 181.445 C 268.247 182.58 267.656 183.273 266.142 183.273 L 264.111 183.273 Z M 274.18 188.148 C 275.621 188.148 276.673 187.428 277.006 186.357 L 275.953 186.061 C 275.676 186.8 275.034 187.169 274.18 187.169 C 272.901 187.169 272.02 186.343 271.969 184.824 L 277.116 184.824 L 277.116 184.362 C 277.116 181.722 275.547 180.817 274.069 180.817 C 272.149 180.817 270.875 182.331 270.875 184.51 C 270.875 186.689 272.131 188.148 274.18 188.148 Z M 271.969 183.882 C 272.043 182.779 272.823 181.795 274.069 181.795 C 275.251 181.795 276.008 182.682 276.008 183.882 L 271.969 183.882 Z M 281.01 188.166 C 282.247 188.166 282.894 187.501 283.115 187.04 L 283.171 187.04 L 283.171 188 L 284.26 188 L 284.26 183.328 C 284.26 181.075 282.543 180.817 281.638 180.817 C 280.567 180.817 279.348 181.186 278.794 182.479 L 279.828 182.848 C 280.069 182.331 280.636 181.777 281.675 181.777 C 282.677 181.777 283.171 182.308 283.171 183.217 L 283.171 183.254 C 283.171 183.781 282.635 183.734 281.343 183.901 C 280.027 184.071 278.591 184.362 278.591 185.987 C 278.591 187.372 279.662 188.166 281.01 188.166 Z M 281.176 187.188 C 280.309 187.188 279.681 186.8 279.681 186.043 C 279.681 185.212 280.438 184.953 281.287 184.842 C 281.749 184.787 282.986 184.658 283.171 184.436 L 283.171 185.433 C 283.171 186.32 282.469 187.188 281.176 187.188 Z M 289.076 188.148 C 290.443 188.148 290.905 187.298 291.145 186.911 L 291.274 186.911 L 291.274 188 L 292.326 188 L 292.326 178.545 L 291.237 178.545 L 291.237 182.036 L 291.145 182.036 C 290.905 181.666 290.48 180.817 289.095 180.817 C 287.304 180.817 286.066 182.239 286.066 184.473 C 286.066 186.726 287.304 188.148 289.076 188.148 Z M 289.224 187.169 C 287.858 187.169 287.156 185.969 287.156 184.455 C 287.156 182.959 287.839 181.795 289.224 181.795 C 290.554 181.795 291.255 182.866 291.255 184.455 C 291.255 186.061 290.535 187.169 289.224 187.169 Z M 297.596 188.148 C 299.036 188.148 300.089 187.428 300.421 186.357 L 299.369 186.061 C 299.092 186.8 298.45 187.169 297.596 187.169 C 296.317 187.169 295.436 186.343 295.385 184.824 L 300.532 184.824 L 300.532 184.362 C 300.532 181.722 298.963 180.817 297.485 180.817 C 295.565 180.817 294.291 182.331 294.291 184.51 C 294.291 186.689 295.546 188.148 297.596 188.148 Z M 295.385 183.882 C 295.459 182.779 296.239 181.795 297.485 181.795 C 298.667 181.795 299.424 182.682 299.424 183.882 L 295.385 183.882 Z M 302.339 188 L 303.429 188 L 303.429 183.513 C 303.429 182.553 304.186 181.851 305.22 181.851 C 305.511 181.851 305.811 181.906 305.885 181.925 L 305.885 180.817 C 305.694 180.806 305.503 180.799 305.312 180.798 C 304.463 180.798 303.724 181.278 303.466 181.98 L 303.392 181.98 L 303.392 180.909 L 302.339 180.909 L 302.339 188 Z" fill="#65676E"/>
  <path d="M 432 235 L 440.056 243.056 L 448.113 235" stroke="#96989D" stroke-width="2"/>
  <text style="fill: rgb(51, 51, 51); font-family: Arial, sans-serif; white-space: pre; font-size: 15px;" x="399.715" y="328.265">repo:contoso/tooling</text>
</svg>