<?xml version="1.0" encoding="utf-8"?>
<svg viewBox="0 0 940 578" width="940px" height="578px" fill="none" xmlns="http://www.w3.org/2000/svg">
  <g>
    <path fill="#fff" d="M 0 0 L 940 0 L 940 578 L 0 578 L 0 0 Z"/>
  </g>
  <rect x="451.839" y="242.839" width="36" height="36" rx="6.42" fill="#EFF0F2"/>
  <path d="M464.862 255.84a5 5 0 1 1 10-.001 5 5 0 0 1-10 .001z" fill="#65676E"/>
  <path d="M461.304 264.309a4.992 4.992 0 0 1 3.532-1.463h10.027a4.996 4.996 0 0 1 4.995 4.995v.996a2.002 2.002 0 0 1-2.002 2.002h-16.013a2.002 2.002 0 0 1-2.002-2.002v-.996c0-1.324.526-2.595 1.463-3.532z" fill="#C4C4C4"/>
  <path d="M457.979 302.469h3.307c1.871 0 2.789-.954 2.789-2.226 0-1.237-.878-1.963-1.748-2.007v-.08c.798-.187 1.428-.746 1.428-1.739 0-1.217-.877-2.119-2.649-2.119h-3.127v8.171zm1.48-1.237v-2.394h1.631c.914 0 1.481.559 1.481 1.289 0 .65-.447 1.105-1.52 1.105h-1.592zm0-3.459v-2.254h1.496c.87 0 1.32.459 1.32 1.089 0 .718-.582 1.165-1.352 1.165h-1.464zm8.552 4.815c1.428 0 2.41-.698 2.665-1.763l-1.348-.152c-.196.519-.675.79-1.297.79-.933 0-1.552-.614-1.564-1.663h4.269v-.443c0-2.15-1.293-3.096-2.801-3.096-1.755 0-2.9 1.289-2.9 3.18 0 1.923 1.129 3.147 2.976 3.147zm-1.54-3.762c.044-.782.623-1.44 1.484-1.44.83 0 1.389.606 1.397 1.44h-2.881zm8.547-2.485h-1.209v-1.468h-1.444v1.468h-.87v1.117h.87v3.407c-.008 1.153.83 1.719 1.915 1.687.411-.012.694-.091.849-.143l-.243-1.129c-.08.02-.243.056-.423.056-.363 0-.654-.128-.654-.711v-3.167h1.209v-1.117zm2.783 2.537c0-.886.551-1.396 1.325-1.396.758 0 1.205.483 1.205 1.308v3.679h1.444v-3.902c0-1.48-.838-2.306-2.111-2.306-.941 0-1.54.427-1.823 1.121h-.072v-3.084h-1.412v8.171h1.444v-3.591z" fill="#1E212A"/>
  <rect x="396" y="231" width="147.678" height="89.308" rx="15" stroke="#96989D" stroke-width="2" stroke-dasharray="5 5"/>
  <rect x="773.839" y="36.839" width="36" height="36" rx="6.42" fill="#EFF0F2"/>
  <path d="M786.862 49.84a5 5 0 1 1 10 0 5 5 0 0 1-10 0z" fill="#65676E"/>
  <path d="M783.304 58.309a4.995 4.995 0 0 1 3.532-1.463h10.027a4.997 4.997 0 0 1 4.995 4.996v.995a2.002 2.002 0 0 1-2.002 2.002h-16.013a2.002 2.002 0 0 1-2.002-2.002v-.996c0-1.324.526-2.595 1.463-3.532z" fill="#C4C4C4"/>
  <path d="M778.689 91.055c-.251-1.815-1.648-2.869-3.459-2.869-2.134 0-3.742 1.556-3.742 4.197 0 2.638 1.588 4.197 3.742 4.197 1.943 0 3.232-1.256 3.459-2.816l-1.492-.008c-.187.957-.969 1.496-1.947 1.496-1.324 0-2.274-.993-2.274-2.869 0-1.843.942-2.868 2.278-2.868.994 0 1.772.563 1.943 1.54h1.492zm2.736 1.823c0-.885.55-1.396 1.324-1.396.758 0 1.205.483 1.205 1.308v3.679h1.444v-3.902c0-1.48-.837-2.306-2.11-2.306-.942 0-1.54.427-1.823 1.121h-.072v-3.084h-1.412v8.17h1.444v-3.59zm7.209 3.714c.961 0 1.536-.45 1.799-.965h.048v.842h1.388v-4.101c0-1.62-1.32-2.107-2.489-2.107-1.289 0-2.278.575-2.597 1.692l1.348.191c.144-.419.551-.778 1.257-.778.67 0 1.037.343 1.037.946v.023c0 .416-.435.435-1.516.551-1.189.128-2.326.483-2.326 1.863 0 1.205.882 1.843 2.051 1.843zm.375-1.06c-.603 0-1.033-.276-1.033-.807 0-.554.482-.786 1.129-.877.379-.052 1.137-.148 1.324-.3v.722c0 .683-.55 1.261-1.42 1.261zm4.312.937h1.445v-3.603c0-.778.586-1.328 1.38-1.328.243 0 .547.044.67.083v-1.328a3.463 3.463 0 0 0-.518-.04c-.703 0-1.289.399-1.512 1.11h-.064V90.34h-1.401v6.128zm5.899-8.17h-1.444v8.17h1.444v-8.17zm4.198 8.29c1.428 0 2.409-.699 2.665-1.764l-1.349-.152c-.195.519-.674.79-1.296.79-.934 0-1.552-.614-1.564-1.663h4.269v-.443c0-2.15-1.293-3.096-2.801-3.096-1.755 0-2.9 1.289-2.9 3.18 0 1.922 1.129 3.147 2.976 3.147zm-1.54-3.763c.044-.782.622-1.44 1.484-1.44.83 0 1.388.607 1.396 1.44h-2.88zm10.33-.865c-.2-1.038-1.03-1.7-2.466-1.7-1.476 0-2.481.726-2.477 1.86-.004.893.546 1.483 1.723 1.727l1.045.219c.563.124.826.351.826.698 0 .419-.455.734-1.141.734-.662 0-1.093-.287-1.217-.838l-1.408.136c.18 1.125 1.125 1.791 2.629 1.791 1.532 0 2.613-.794 2.617-1.954-.004-.874-.566-1.409-1.723-1.66l-1.045-.224c-.623-.14-.87-.355-.866-.71-.004-.415.455-.702 1.057-.702.666 0 1.017.363 1.129.766l1.317-.144z" fill="#1E212A"/>
  <rect x="718" y="25" width="147.678" height="89.308" rx="15" stroke="#96989D" stroke-width="2" stroke-dasharray="5 5"/>
  <rect x="123.839" y="242.839" width="36" height="36" rx="6.42" fill="#EFF0F2"/>
  <path d="M136.862 255.84a5 5 0 1 1 10-.001 5 5 0 0 1-10 .001z" fill="#65676E"/>
  <path d="M133.304 264.309a4.992 4.992 0 0 1 3.532-1.463h10.027a4.996 4.996 0 0 1 4.995 4.995v.996a2.002 2.002 0 0 1-2.002 2.002h-16.013a2.002 2.002 0 0 1-2.002-2.002v-.996c0-1.324.526-2.595 1.463-3.532z" fill="#C4C4C4"/>
  <path d="M129.454 302.469l.674-2.015h3.072l.678 2.015h1.58l-2.881-8.171h-1.827l-2.876 8.171h1.58zm1.073-3.204l1.105-3.291h.064l1.105 3.291h-2.274zm7.387-.387c0-.886.535-1.396 1.297-1.396.746 0 1.193.491 1.193 1.308v3.679h1.444v-3.902c.004-1.468-.834-2.306-2.099-2.306-.917 0-1.548.439-1.827 1.121h-.072v-1.041h-1.38v6.128h1.444v-3.591zm6.846 0c0-.886.535-1.396 1.297-1.396.746 0 1.193.491 1.193 1.308v3.679h1.444v-3.902c.004-1.468-.834-2.306-2.099-2.306-.917 0-1.548.439-1.827 1.121h-.072v-1.041h-1.38v6.128h1.444v-3.591zm8.115 3.71c1.428 0 2.409-.698 2.665-1.763l-1.349-.152c-.195.519-.674.79-1.296.79-.934 0-1.552-.614-1.564-1.663h4.269v-.443c0-2.15-1.293-3.096-2.801-3.096-1.755 0-2.9 1.289-2.9 3.18 0 1.923 1.129 3.147 2.976 3.147zm-1.54-3.762c.044-.782.622-1.44 1.484-1.44.83 0 1.388.606 1.396 1.44h-2.88z" fill="#1E212A"/>
  <rect x="68" y="231" width="147.678" height="89.308" rx="15" stroke="#96989D" stroke-width="2" stroke-dasharray="5 5"/>
  <path d="M796 335h1-1zm-261 56.113v-1 1zm221 0v1-1zm41-59.613v.875h-2v-.875h2zm0 2.625V335h-2v-.875h2zm0 .875v2.014h-2V335h2zm0 6.042v4.029h-2v-4.029h2zm0 8.057v2.014h-2v-2.014h2zm0 2.014c0 .902-.029 1.796-.086 2.684l-1.996-.129c.054-.845.082-1.696.082-2.555h2zm-.78 8.001a40.737 40.737 0 0 1-1.386 5.183l-1.894-.643a38.744 38.744 0 0 0 1.318-4.928l1.962.388zm-3.441 10.138a40.901 40.901 0 0 1-2.685 4.642l-1.662-1.112a39.037 39.037 0 0 0 2.554-4.416l1.793.886zm-5.953 8.895a41.375 41.375 0 0 1-3.792 3.792l-1.32-1.503a39.39 39.39 0 0 0 3.609-3.608l1.503 1.319zm-8.045 7.06a40.985 40.985 0 0 1-4.643 2.686l-.886-1.793a38.956 38.956 0 0 0 4.416-2.555l1.113 1.662zm-9.597 4.741a40.779 40.779 0 0 1-5.183 1.385l-.389-1.962a38.756 38.756 0 0 0 4.929-1.317l.643 1.894zm-10.501 2.079c-.887.057-1.782.086-2.683.086v-2c.858 0 1.71-.027 2.554-.082l.129 1.996zm-2.683.086h-2.511v-2H756v2zm-7.534 0h-5.023v-2h5.023v2zm-10.046 0h-5.022v-2h5.022v2zm-10.045 0h-5.023v-2h5.023v2zm-10.045 0h-5.023v-2h5.023v2zm-10.046 0h-5.023v-2h5.023v2zm-10.045 0h-5.023v-2h5.023v2zm-10.046 0h-5.023v-2h5.023v2zm-10.045 0h-5.023v-2h5.023v2zm-10.046 0h-5.023v-2h5.023v2zm-10.045 0h-5.023v-2h5.023v2zm-10.046 0h-5.022v-2h5.022v2zm-10.045 0h-5.023v-2h5.023v2zm-10.046 0h-5.022v-2h5.022v2zm-10.045 0h-5.023v-2h5.023v2zm-10.045 0h-5.023v-2h5.023v2zm-10.046 0h-5.023v-2h5.023v2zm-10.045 0h-5.023v-2h5.023v2zm-10.046 0h-5.023v-2h5.023v2zm-10.045 0h-5.023v-2h5.023v2zm-10.046 0h-5.022v-2h5.022v2zm-10.045 0h-5.023v-2h5.023v2zm-10.046 0H535v-2h2.511v2zm-2.511 0c-.858 0-1.71.028-2.554.083l-.129-1.996a41.84 41.84 0 0 1 2.683-.087v2zm-7.612.743c-1.685.333-3.33.775-4.929 1.317l-.643-1.894a40.779 40.779 0 0 1 5.183-1.385l.389 1.962zm-9.64 3.271a38.87 38.87 0 0 0-4.416 2.555l-1.113-1.662a40.985 40.985 0 0 1 4.643-2.686l.886 1.793zm-8.462 5.664a39.139 39.139 0 0 0-3.609 3.608l-1.503-1.319a41.25 41.25 0 0 1 3.792-3.792l1.32 1.503zm-6.718 7.654a38.886 38.886 0 0 0-2.554 4.416l-1.794-.886a40.972 40.972 0 0 1 2.686-4.642l1.662 1.112zm-4.508 9.128a38.744 38.744 0 0 0-1.318 4.928l-1.962-.388a40.737 40.737 0 0 1 1.386-5.183l1.894.643zm-1.978 9.986a40.028 40.028 0 0 0-.082 2.554h-2c0-.901.029-1.796.086-2.683l1.996.129zm-.082 2.554v2.236h-2v-2.236h2zm0 6.708v4.471h-2v-4.471h2zm0 8.943V449h-2v-2.236h2zm0 2.236v.625h-2V449h2zm0 1.875v.625h-2v-.625h2z" fill="#96989D"/>
  <path d="M487 444l8.056 8.056 8.057-8.056" stroke="#96989D" stroke-width="2"/>
  <path d="M604 384c0-5.523 4.477-10 10-10h52c5.523 0 10 4.477 10 10v16c0 5.523-4.477 10-10 10h-52c-5.523 0-10-4.477-10-10v-16z" fill="#EFF0F2"/>
  <path d="M621.809 397l.951-2.678h3.822l.951 2.678h1.201l-3.472-9.455h-1.182L620.609 397h1.2zm1.311-3.693l1.514-4.266h.074l1.514 4.266h-3.102zm9.766 3.841c1.367 0 1.828-.85 2.068-1.237h.129V397h1.053v-9.455h-1.089v3.491h-.093c-.24-.37-.665-1.219-2.049-1.219-1.792 0-3.029 1.422-3.029 3.656 0 2.253 1.237 3.675 3.01 3.675zm.148-.979c-1.367 0-2.068-1.2-2.068-2.714 0-1.496.683-2.66 2.068-2.66 1.329 0 2.031 1.071 2.031 2.66 0 1.606-.72 2.714-2.031 2.714zm5.399.831h1.089v-4.432c0-1.039.757-1.773 1.607-1.773.826 0 1.403.541 1.403 1.348V397h1.108v-4.616c0-.915.573-1.589 1.57-1.589.775 0 1.44.411 1.44 1.459V397h1.09v-4.746c0-1.666-.896-2.437-2.161-2.437-1.016 0-1.759.466-2.124 1.2h-.073c-.351-.757-.97-1.2-1.902-1.2-.924 0-1.607.443-1.902 1.2h-.093v-1.108h-1.052V397zm11.449 0h1.089v-7.091h-1.089V397zm.554-8.273c.424 0 .775-.332.775-.738 0-.407-.351-.739-.775-.739-.425 0-.776.332-.776.739 0 .406.351.738.776.738zm3.77 4.007c0-1.237.766-1.939 1.81-1.939 1.011 0 1.625.661 1.625 1.773V397h1.089v-4.506c0-1.809-.965-2.677-2.4-2.677-1.071 0-1.736.48-2.069 1.2h-.092v-1.108h-1.053V397h1.09v-4.266z" fill="#65676E"/>
  <path d="M470 330v122" stroke="#96989D" stroke-width="2" stroke-miterlimit="16"/>
  <path d="M435 361c0-5.523 4.477-10 10-10h50c5.523 0 10 4.477 10 10v16c0 5.523-4.477 10-10 10h-50c-5.523 0-10-4.477-10-10v-16z" fill="#EFF0F2"/>
  <path d="M454.054 374h1.181l2.087-7.534h.074l2.087 7.534h1.181l2.586-9.455h-1.164l-1.976 7.701h-.092l-2.013-7.701h-1.292l-2.013 7.701h-.092l-1.976-7.701h-1.164l2.586 9.455zm10.18 0h1.09v-4.487c0-.96.757-1.662 1.791-1.662.291 0 .591.055.665.074v-1.108a10.696 10.696 0 0 0-.573-.019c-.849 0-1.588.48-1.847 1.182h-.073v-1.071h-1.053V374zm4.987 0h1.089v-7.091h-1.089V374zm.554-8.273c.425 0 .776-.332.776-.738 0-.407-.351-.739-.776-.739-.425 0-.776.332-.776.739 0 .406.351.738.776.738zm5.765 1.182h-1.514v-1.699h-1.09v1.699h-1.071v.923h1.071v4.432c0 1.237.997 1.828 1.921 1.828.406 0 .664-.074.812-.129l-.222-.979c-.092.019-.24.056-.48.056-.48 0-.941-.148-.941-1.071v-4.137h1.514v-.923zm4.685 7.239c1.441 0 2.493-.72 2.826-1.791l-1.053-.296c-.277.739-.919 1.108-1.773 1.108-1.278 0-2.16-.826-2.211-2.345h5.148v-.462c0-2.64-1.57-3.545-3.047-3.545-1.921 0-3.195 1.514-3.195 3.693 0 2.179 1.256 3.638 3.305 3.638zm-2.211-4.266c.074-1.103.854-2.087 2.101-2.087 1.181 0 1.939.887 1.939 2.087h-4.04zm6.955 4.118h1.089v-4.487c0-.96.757-1.662 1.792-1.662.29 0 .59.055.664.074v-1.108a10.657 10.657 0 0 0-.572-.019c-.85 0-1.588.48-1.847 1.182h-.074v-1.071h-1.052V374z" fill="#65676E"/>
  <path d="M478 444l-8.056 8.057-8.057-8.057" stroke="#96989D" stroke-width="2"/>
  <path d="M139 334h-1 1zm40 57.113h221v-2H179v2zm260 39V448h2v-17.887h-2zm-299-80V334h-2v16.113h2zM439 448v2.5h2V448h-2zM140 334v-3.5h-2v3.5h2zm260 57.113c21.539 0 39 17.461 39 39h2c0-22.643-18.356-41-41-41v2zm-221-2c-21.539 0-39-17.46-39-39h-2c0 22.644 18.356 41 41 41v-2z" fill="#96989D"/>
  <path d="M245.5 383c0-5.523 4.477-10 10-10h57c5.523 0 10 4.477 10 10v16c0 5.523-4.477 10-10 10h-57c-5.523 0-10-4.477-10-10v-16z" fill="#EFF0F2"/>
  <path d="M262.966 396h1.145v-3.693h2.068c.083 0 .161 0 .24-.005l1.994 3.698h1.33l-2.138-3.906c1.205-.41 1.768-1.394 1.768-2.649 0-1.672-.997-2.9-3.213-2.9h-3.194V396zm1.145-4.727v-3.712h2.012c1.533 0 2.124.748 2.124 1.884 0 1.135-.591 1.828-2.105 1.828h-2.031zm10.069 4.875c1.441 0 2.493-.72 2.826-1.791l-1.053-.296c-.277.739-.919 1.108-1.773 1.108-1.279 0-2.16-.826-2.211-2.345h5.147v-.462c0-2.64-1.569-3.545-3.047-3.545-1.92 0-3.194 1.514-3.194 3.693 0 2.179 1.256 3.638 3.305 3.638zm-2.211-4.266c.074-1.103.854-2.087 2.1-2.087 1.182 0 1.939.887 1.939 2.087h-4.039zm9.041 4.284c1.237 0 1.884-.665 2.105-1.126h.056v.96h1.089v-4.672c0-2.253-1.717-2.511-2.622-2.511-1.071 0-2.29.369-2.844 1.662l1.034.369c.241-.517.808-1.071 1.847-1.071 1.002 0 1.496.531 1.496 1.44v.037c0 .527-.536.48-1.828.647-1.316.17-2.752.461-2.752 2.086 0 1.385 1.071 2.179 2.419 2.179zm.166-.978c-.867 0-1.495-.388-1.495-1.145 0-.831.757-1.09 1.606-1.201.462-.055 1.699-.184 1.884-.406v.997c0 .887-.702 1.755-1.995 1.755zm7.9.96c1.367 0 1.829-.85 2.069-1.237h.129V396h1.052v-9.455h-1.089v3.491h-.092c-.24-.37-.665-1.219-2.05-1.219-1.791 0-3.029 1.422-3.029 3.656 0 2.253 1.238 3.675 3.01 3.675zm.148-.979c-1.366 0-2.068-1.2-2.068-2.714 0-1.496.683-2.66 2.068-2.66 1.33 0 2.031 1.071 2.031 2.66 0 1.606-.72 2.714-2.031 2.714zm8.372.979c1.44 0 2.493-.72 2.825-1.791l-1.052-.296c-.277.739-.919 1.108-1.773 1.108-1.279 0-2.16-.826-2.211-2.345h5.147v-.462c0-2.64-1.569-3.545-3.047-3.545-1.92 0-3.194 1.514-3.194 3.693 0 2.179 1.255 3.638 3.305 3.638zm-2.211-4.266c.074-1.103.854-2.087 2.1-2.087 1.182 0 1.939.887 1.939 2.087h-4.039zm6.954 4.118h1.09v-4.487c0-.96.757-1.662 1.791-1.662.291 0 .591.055.665.074v-1.108a10.696 10.696 0 0 0-.573-.019c-.849 0-1.588.48-1.846 1.182h-.074v-1.071h-1.053V396z" fill="#65676E"/>
  <path d="M432 444l8.056 8.056 8.057-8.056" stroke="#96989D" stroke-width="2"/>
  <path d="M795 123v99" stroke="#96989D" stroke-width="2" stroke-miterlimit="16" stroke-dasharray="5 5"/>
  <path d="M753 164c0-5.523 4.477-10 10-10h64c5.523 0 10 4.477 10 10v16c0 5.523-4.477 10-10 10h-64c-5.523 0-10-4.477-10-10v-16z" fill="#EFF0F2"/>
  <path d="M770.316 167.545V177h1.071v-7.183h.092l2.955 7.183h1.034l2.954-7.183h.093V177h1.071v-9.455h-1.367l-3.213 7.848h-.111l-3.213-7.848h-1.366zm14.54 9.603c1.441 0 2.493-.72 2.826-1.791l-1.053-.296c-.277.739-.918 1.108-1.773 1.108-1.278 0-2.16-.826-2.211-2.345h5.148v-.462c0-2.64-1.57-3.545-3.047-3.545-1.921 0-3.195 1.514-3.195 3.693 0 2.179 1.256 3.638 3.305 3.638zm-2.211-4.266c.074-1.103.854-2.087 2.101-2.087 1.182 0 1.939.887 1.939 2.087h-4.04zM789.6 177h1.089v-4.432c0-1.039.757-1.773 1.607-1.773.826 0 1.403.541 1.403 1.348V177h1.108v-4.616c0-.915.573-1.589 1.57-1.589.775 0 1.44.411 1.44 1.459V177h1.09v-4.746c0-1.666-.896-2.437-2.161-2.437-1.015 0-1.759.466-2.123 1.2h-.074c-.351-.757-.97-1.2-1.902-1.2-.924 0-1.607.443-1.902 1.2h-.093v-1.108H789.6V177zm11.596 0h1.053v-1.089h.129c.24.387.702 1.237 2.068 1.237 1.773 0 3.01-1.422 3.01-3.675 0-2.234-1.237-3.656-3.028-3.656-1.385 0-1.81.849-2.05 1.219h-.092v-3.491h-1.09V177zm1.071-3.545c0-1.589.702-2.66 2.032-2.66 1.385 0 2.068 1.164 2.068 2.66 0 1.514-.702 2.714-2.068 2.714-1.311 0-2.032-1.108-2.032-2.714zm9.979 3.693c1.44 0 2.493-.72 2.825-1.791l-1.052-.296c-.277.739-.919 1.108-1.773 1.108-1.279 0-2.161-.826-2.211-2.345h5.147v-.462c0-2.64-1.57-3.545-3.047-3.545-1.92 0-3.194 1.514-3.194 3.693 0 2.179 1.255 3.638 3.305 3.638zm-2.211-4.266c.074-1.103.854-2.087 2.1-2.087 1.182 0 1.939.887 1.939 2.087h-4.039zm6.954 4.118h1.09v-4.487c0-.96.757-1.662 1.791-1.662.291 0 .591.055.665.074v-1.108a10.696 10.696 0 0 0-.573-.019c-.849 0-1.588.48-1.846 1.182h-.074v-1.071h-1.053V177z" fill="#65676E"/>
  <path d="M803 214l-8.056 8.057-8.057-8.057" stroke="#96989D" stroke-width="2"/>
  <rect x="722" y="231" width="147.678" height="89.308" rx="15" fill="#FFE5D7"/>
  <rect x="777.839" y="242.839" width="36" height="36" rx="6.42" fill="#FFB288"/>
  <path d="M793.503 255.509a2.51 2.51 0 1 1 5.018 0 2.51 2.51 0 0 1-5.018 0z" fill="#AA562B"/>
  <path d="M792.824 259.83a2.726 2.726 0 0 1 1.926-.797h2.522a2.73 2.73 0 0 1 1.927.797 2.73 2.73 0 0 1 .797 1.928V268c0 .604-.489 1.092-1.091 1.092h-5.787c-.604 0-1.092-.49-1.092-1.092v-6.242a2.72 2.72 0 0 1 .798-1.928z" fill="#FFE5D7"/>
  <path d="M786.526 260.553a1.792 1.792 0 0 1 1.269-.526h1.414a1.794 1.794 0 0 1 1.795 1.796v4.539a.72.72 0 0 1-.72.72h-3.564a.72.72 0 0 1-.72-.72v-4.539c0-.477.189-.934.526-1.27zm14.996 0a1.792 1.792 0 0 1 1.269-.526h1.414a1.792 1.792 0 0 1 1.795 1.796v4.457a.72.72 0 0 1-.72.72h-3.565a.72.72 0 0 1-.72-.72v-4.457c.001-.477.191-.934.527-1.27z" fill="#FF7F38"/>
  <path d="M801.499 256.978a2 2 0 1 1 3.999-.001 2 2 0 0 1-3.999.001zm-14.997 0a2 2 0 1 1 3.999 0 2 2 0 1 1-3.999 0z" fill="#D56A32"/>
  <rect x="722" y="231" width="147.678" height="89.308" rx="15" stroke="#96989D" stroke-width="2" stroke-dasharray="5 5"/>
  <rect x="393" y="463" width="153.678" height="89.308" rx="15" fill="#FFE4FA"/>
  <rect x="451.839" y="474.839" width="36" height="36" rx="6.42" fill="#FF79E7"/>
  <path d="M470 503.19c4.971 0 9-1.131 9-2.527 0-1.395-4.029-2.527-9-2.527s-9 1.132-9 2.527c0 1.396 4.029 2.527 9 2.527z" fill="#C638A7"/>
  <path d="M478.999 494.133H461v6.537h17.999v-6.537z" fill="#C638A7"/>
  <path d="M470 496.614c4.971 0 9-1.132 9-2.527 0-1.396-4.029-2.527-9-2.527s-9 1.131-9 2.527c0 1.395 4.029 2.527 9 2.527z" fill="#FFE4FA"/>
  <path d="M470 494.483c4.971 0 9-1.131 9-2.527 0-1.395-4.029-2.527-9-2.527s-9 1.132-9 2.527c0 1.396 4.029 2.527 9 2.527z" fill="#C638A7"/>
  <path d="M478.999 485.575H461v6.388h17.999v-6.388z" fill="#C638A7"/>
  <path d="M470 488.054c4.971 0 9-1.131 9-2.527 0-1.396-4.029-2.527-9-2.527s-9 1.131-9 2.527c0 1.396 4.029 2.527 9 2.527zm-6.989 2.603c.298-.035.503-.37.458-.748-.046-.377-.324-.654-.622-.618-.298.035-.503.37-.457.748.045.377.323.654.621.618zm0 8.669c.298-.036.503-.371.458-.748-.046-.377-.324-.654-.622-.619-.298.036-.503.371-.457.748.045.378.323.655.621.619z" fill="#FFE4FA"/>
  <rect x="393" y="463" width="153.678" height="89.308" rx="15" stroke="#96989D" stroke-width="2" stroke-dasharray="5 5"/>
  <text style="fill: rgb(51, 51, 51); font-family: Arial, sans-serif; font-size: 12px; white-space: pre;" x="728.261" y="300.063">team:contoso/engineering </text>
  <text style="fill: rgb(51, 51, 51); font-family: Arial, sans-serif; font-size: 14px; white-space: pre;" x="407.059" y="532.889">repo:contoso/tooling</text>
</svg>