<svg width="1205" height="461" viewBox="0 0 1205 461" fill="none" xmlns="http://www.w3.org/2000/svg"><path fill="#fff" d="M0 0h1205v461H0z"/><rect x="383.839" y="82.839" width="36" height="36" rx="6.42" fill="#EFF0F2"/><path d="M396.862 95.84a5 5 0 1 1 10 0 5 5 0 0 1-10 0z" fill="#65676E"/><path d="M393.304 104.309a4.996 4.996 0 0 1 3.532-1.463h10.027a5 5 0 0 1 3.533 1.463 5 5 0 0 1 1.462 3.533v.995a2.002 2.002 0 0 1-2.002 2.003h-16.013a2.002 2.002 0 0 1-2.002-2.003v-.995a5 5 0 0 1 1.463-3.533z" fill="#C4C4C4"/><path d="M389.979 142.469h3.307c1.871 0 2.789-.954 2.789-2.226 0-1.237-.878-1.963-1.748-2.007v-.08c.798-.187 1.428-.746 1.428-1.739 0-1.217-.877-2.119-2.649-2.119h-3.127v8.171zm1.48-1.237v-2.394h1.631c.914 0 1.481.559 1.481 1.289 0 .65-.447 1.105-1.52 1.105h-1.592zm0-3.459v-2.254h1.496c.87 0 1.32.459 1.32 1.089 0 .718-.582 1.165-1.352 1.165h-1.464zm8.552 4.815c1.428 0 2.41-.698 2.665-1.763l-1.348-.152c-.196.519-.675.79-1.297.79-.933 0-1.552-.614-1.564-1.663h4.269v-.443c0-2.15-1.293-3.096-2.801-3.096-1.755 0-2.9 1.289-2.9 3.18 0 1.923 1.129 3.147 2.976 3.147zm-1.54-3.762c.044-.782.623-1.44 1.484-1.44.83 0 1.389.607 1.397 1.44h-2.881zm8.547-2.485h-1.209v-1.468h-1.444v1.468h-.87v1.117h.87v3.407c-.008 1.153.83 1.719 1.915 1.688.411-.012.694-.092.849-.144l-.243-1.129c-.08.02-.243.056-.423.056-.363 0-.654-.128-.654-.71v-3.168h1.209v-1.117zm2.783 2.537c0-.885.551-1.396 1.325-1.396.758 0 1.205.483 1.205 1.308v3.679h1.444v-3.902c0-1.48-.838-2.306-2.111-2.306-.941 0-1.54.427-1.823 1.121h-.072v-3.084h-1.412v8.171h1.444v-3.591z" fill="#1E212A"/><rect x="328" y="71" width="147.678" height="89.308" rx="15" stroke="#96989D" stroke-width="2" stroke-dasharray="5 5"/><rect x="161.839" y="82.839" width="36" height="36" rx="6.42" fill="#EFF0F2"/><path d="M174.862 95.84a5 5 0 1 1 10 0 5 5 0 0 1-10 0z" fill="#65676E"/><path d="M171.304 104.309a4.996 4.996 0 0 1 3.532-1.463h10.027a5 5 0 0 1 3.533 1.463 5 5 0 0 1 1.462 3.533v.995a2.002 2.002 0 0 1-2.002 2.003h-16.013a2.002 2.002 0 0 1-2.002-2.003v-.995a5 5 0 0 1 1.463-3.533z" fill="#C4C4C4"/><path d="M167.454 142.469l.674-2.015h3.072l.678 2.015h1.58l-2.881-8.171h-1.827l-2.876 8.171h1.58zm1.073-3.204l1.105-3.291h.064l1.105 3.291h-2.274zm7.387-.387c0-.885.535-1.396 1.297-1.396.746 0 1.193.491 1.193 1.308v3.679h1.444v-3.902c.004-1.468-.834-2.306-2.099-2.306-.917 0-1.548.439-1.827 1.121h-.072v-1.041h-1.38v6.128h1.444v-3.591zm6.846 0c0-.885.535-1.396 1.297-1.396.746 0 1.193.491 1.193 1.308v3.679h1.444v-3.902c.004-1.468-.834-2.306-2.099-2.306-.917 0-1.548.439-1.827 1.121h-.072v-1.041h-1.38v6.128h1.444v-3.591zm8.115 3.71c1.428 0 2.409-.698 2.665-1.763l-1.349-.152c-.195.519-.674.79-1.296.79-.934 0-1.552-.614-1.564-1.663h4.269v-.443c0-2.15-1.293-3.096-2.801-3.096-1.755 0-2.9 1.289-2.9 3.18 0 1.923 1.129 3.147 2.976 3.147zm-1.54-3.762c.044-.782.622-1.44 1.484-1.44.83 0 1.388.607 1.396 1.44h-2.88z" fill="#1E212A"/><rect x="106" y="71" width="147.678" height="89.308" rx="15" stroke="#96989D" stroke-width="2" stroke-dasharray="5 5"/><rect x="606.839" y="82.839" width="36" height="36" rx="6.42" fill="#EFF0F2"/><path d="M619.862 95.84a5 5 0 1 1 10 0 5 5 0 0 1-10 0z" fill="#65676E"/><path d="M616.304 104.309a4.996 4.996 0 0 1 3.532-1.463h10.027a5 5 0 0 1 3.533 1.463 5 5 0 0 1 1.462 3.533v.995a2.002 2.002 0 0 1-2.002 2.003h-16.013a2.002 2.002 0 0 1-2.002-2.003v-.995a5 5 0 0 1 1.463-3.533z" fill="#C4C4C4"/><path d="M611.689 137.055c-.251-1.815-1.648-2.868-3.459-2.868-2.134 0-3.742 1.556-3.742 4.197 0 2.637 1.588 4.196 3.742 4.196 1.943 0 3.232-1.256 3.459-2.816l-1.492-.008c-.187.957-.969 1.496-1.947 1.496-1.324 0-2.274-.993-2.274-2.868 0-1.844.942-2.869 2.278-2.869.994 0 1.772.563 1.943 1.54h1.492zm2.736 1.823c0-.885.55-1.396 1.324-1.396.758 0 1.205.483 1.205 1.308v3.679h1.444v-3.902c0-1.48-.837-2.306-2.11-2.306-.942 0-1.54.427-1.823 1.121h-.072v-3.084h-1.412v8.171h1.444v-3.591zm7.209 3.714c.961 0 1.536-.45 1.799-.965h.048v.842h1.388v-4.101c0-1.62-1.32-2.107-2.489-2.107-1.289 0-2.278.575-2.597 1.692l1.348.191c.144-.419.551-.778 1.257-.778.67 0 1.037.343 1.037.946v.024c0 .415-.435.435-1.516.55-1.189.128-2.326.483-2.326 1.863 0 1.205.882 1.843 2.051 1.843zm.375-1.061c-.603 0-1.033-.275-1.033-.806 0-.554.482-.786 1.129-.877.379-.052 1.137-.148 1.324-.3v.723c0 .682-.55 1.26-1.42 1.26zm4.312.938h1.445v-3.603c0-.778.586-1.328 1.38-1.328.243 0 .547.044.67.084v-1.329a3.45 3.45 0 0 0-.518-.04c-.703 0-1.289.399-1.512 1.109h-.064v-1.021h-1.401v6.128zm5.899-8.171h-1.444v8.171h1.444v-8.171zm4.198 8.29c1.428 0 2.409-.698 2.665-1.763l-1.349-.152c-.195.519-.674.79-1.296.79-.934 0-1.552-.614-1.564-1.663h4.269v-.443c0-2.15-1.293-3.096-2.801-3.096-1.755 0-2.9 1.289-2.9 3.18 0 1.923 1.129 3.147 2.976 3.147zm-1.54-3.762c.044-.782.622-1.44 1.484-1.44.83 0 1.388.607 1.396 1.44h-2.88zm10.33-.865c-.2-1.038-1.03-1.7-2.466-1.7-1.476 0-2.481.726-2.477 1.859-.004.894.546 1.484 1.723 1.728l1.045.219c.563.124.826.351.826.698 0 .419-.455.734-1.141.734-.662 0-1.093-.287-1.217-.837l-1.408.135c.18 1.125 1.125 1.791 2.629 1.791 1.532 0 2.613-.793 2.617-1.954-.004-.874-.566-1.409-1.723-1.66l-1.045-.223c-.623-.14-.87-.355-.866-.711-.004-.414.455-.702 1.057-.702.666 0 1.017.363 1.129.766l1.317-.143z" fill="#1E212A"/><rect x="551" y="71" width="147.678" height="89.308" rx="15" stroke="#96989D" stroke-width="2" stroke-dasharray="5 5"/><rect x="1055.84" y="82.839" width="36" height="36" rx="6.42" fill="#EFF0F2"/><path d="M1068.86 95.84a5 5 0 1 1 9.999 0 5 5 0 0 1-9.999 0z" fill="#65676E"/><path d="M1065.3 104.309a5.013 5.013 0 0 1 3.54-1.463h10.02c1.33 0 2.6.527 3.54 1.463a5.023 5.023 0 0 1 1.46 3.533v.995c0 1.106-.9 2.003-2 2.003h-16.02c-1.1 0-2-.897-2-2.003v-.995c0-1.324.53-2.595 1.46-3.533z" fill="#C4C4C4"/><path d="M1061.9 142.469c2.49 0 3.97-1.54 3.97-4.093 0-2.546-1.48-4.078-3.91-4.078h-2.83v8.171h2.77zm-1.29-1.281v-5.609h1.26c1.66 0 2.53.926 2.53 2.797 0 1.879-.87 2.812-2.57 2.812h-1.22zm6.6 1.281h1.44v-6.128h-1.44v6.128zm.72-6.998c.46 0 .84-.351.84-.782 0-.435-.38-.786-.84-.786-.46 0-.83.351-.83.786 0 .431.37.782.83.782zm3.97 7.121c.96 0 1.54-.45 1.8-.965h.05v.842h1.39v-4.101c0-1.62-1.32-2.107-2.49-2.107-1.29 0-2.28.575-2.6 1.692l1.35.191c.14-.419.55-.778 1.25-.778.68 0 1.04.343 1.04.946v.024c0 .415-.43.435-1.51.55-1.19.128-2.33.483-2.33 1.863 0 1.205.88 1.843 2.05 1.843zm.38-1.061c-.61 0-1.04-.275-1.04-.806 0-.554.49-.786 1.13-.877.38-.052 1.14-.148 1.33-.3v.723c0 .682-.55 1.26-1.42 1.26zm5.75-2.653c0-.885.54-1.396 1.3-1.396.75 0 1.19.491 1.19 1.308v3.679h1.45v-3.902c0-1.468-.84-2.306-2.1-2.306-.92 0-1.55.439-1.83 1.121h-.07v-1.041h-1.38v6.128h1.44v-3.591zm8.12 3.71c1.43 0 2.41-.698 2.66-1.763l-1.35-.152c-.19.519-.67.79-1.29.79-.94 0-1.55-.614-1.57-1.663h4.27v-.443c0-2.15-1.29-3.096-2.8-3.096-1.75 0-2.9 1.289-2.9 3.18 0 1.923 1.13 3.147 2.98 3.147zm-1.54-3.762c.04-.782.62-1.44 1.48-1.44.83 0 1.39.607 1.4 1.44h-2.88z" fill="#1E212A"/><rect x="1000" y="71" width="147.678" height="89.308" rx="15" stroke="#96989D" stroke-width="2" stroke-dasharray="5 5"/><path d="M681 311h455c8.84 0 16 7.163 16 16v90c0 8.837-7.16 16-16 16H681V311z" fill="#C9CACE" opacity=".3"/><path d="M655 433c-5.523 0-10-4.477-10-10V321c0-5.523 4.477-10 10-10h26v122h-26z" fill="#676C74"/><path d="M668.148 414.115c0-1.367-.85-1.828-1.237-2.068v-.13H668v-1.052h-9.455v1.089h3.491v.093c-.37.24-1.219.664-1.219 2.049 0 1.791 1.422 3.029 3.656 3.029 2.253 0 3.675-1.238 3.675-3.01zm-.979-.148c0 1.366-1.2 2.068-2.714 2.068-1.496 0-2.66-.683-2.66-2.068 0-1.33 1.071-2.031 2.66-2.031 1.606 0 2.714.72 2.714 2.031zm.979-8.372c0-1.44-.72-2.493-1.791-2.825l-.296 1.052c.739.277 1.108.919 1.108 1.773 0 1.279-.826 2.161-2.345 2.211v-5.147h-.462c-2.64 0-3.545 1.57-3.545 3.047 0 1.92 1.514 3.194 3.693 3.194 2.179 0 3.638-1.255 3.638-3.305zm-4.266 2.211c-1.103-.074-2.087-.854-2.087-2.1 0-1.182.887-1.939 2.087-1.939v4.039zm-2.973-12.537v1.182l5.651 1.957v.074l-5.651 1.958v1.181l7.091-2.622v-1.108l-7.091-2.622zm7.091-1.588v-1.089h-7.091v1.089H668zm-8.273-.554c0-.425-.332-.775-.738-.775-.407 0-.739.35-.739.775 0 .425.332.776.739.776.406 0 .738-.351.738-.776zm8.421-5.561c0-1.57-.961-2.604-2.216-2.789v1.09c.775.203 1.237.849 1.237 1.699 0 1.292-1.071 2.123-2.714 2.123-1.607 0-2.66-.849-2.66-2.123 0-.961.591-1.533 1.238-1.699v-1.09c-1.33.185-2.216 1.311-2.216 2.807 0 1.92 1.514 3.195 3.674 3.195 2.124 0 3.657-1.219 3.657-3.213zm0-7.505c0-1.44-.72-2.492-1.791-2.825l-.296 1.053c.739.277 1.108.918 1.108 1.772 0 1.279-.826 2.161-2.345 2.212v-5.148h-.462c-2.64 0-3.545 1.57-3.545 3.047 0 1.921 1.514 3.195 3.693 3.195 2.179 0 3.638-1.256 3.638-3.306zm-4.266 2.212c-1.103-.074-2.087-.854-2.087-2.101 0-1.182.887-1.939 2.087-1.939v4.04zm6.925-13.623c0-1.699-.776-3.066-2.604-3.066h-7.294v1.053h1.127v.111c-.37.24-1.219.683-1.219 2.068 0 1.791 1.422 3.028 3.601 3.028 2.216 0 3.471-1.292 3.471-3.01 0-1.385-.812-1.828-1.2-2.068v-.092h1.44c1.182 0 1.718.831 1.718 1.976 0 1.288-.679 1.74-1.071 2.031l.609.868c.743-.443 1.422-1.316 1.422-2.899zm-3.896.037c0 1.366-1.035 2.068-2.512 2.068-1.44 0-2.604-.684-2.604-2.068 0-1.33 1.071-2.032 2.604-2.032 1.57 0 2.512.72 2.512 2.032zM668 363.44v-1.09h-4.487c-.96 0-1.662-.757-1.662-1.791 0-.291.055-.591.074-.665h-1.108c-.009.125-.019.411-.019.573 0 .849.48 1.588 1.182 1.847v.073h-1.071v1.053H668zm.148-7.652c0-1.92-1.459-3.213-3.657-3.213-2.215 0-3.674 1.293-3.674 3.213 0 1.921 1.459 3.213 3.674 3.213 2.198 0 3.657-1.292 3.657-3.213zm-.979 0c0 1.459-1.256 2.124-2.678 2.124-1.421 0-2.696-.665-2.696-2.124s1.275-2.123 2.696-2.123c1.422 0 2.678.664 2.678 2.123zm-2.068-9.495c1.329 0 1.939 1.016 1.939 1.828 0 .905-.665 1.552-1.699 1.552h-4.432v1.089h4.506c1.809 0 2.677-.96 2.677-2.29 0-1.071-.572-1.772-1.292-2.105v-.074h1.2v-1.089h-7.091v1.089h4.192zm5.558-3.235v-1.089h-3.748v-.093c.387-.24 1.237-.701 1.237-2.068 0-1.772-1.422-3.01-3.675-3.01-2.234 0-3.656 1.238-3.656 3.029 0 1.385.849 1.809 1.219 2.049v.13h-1.127v1.052h9.75zm-6.204-1.071c-1.589 0-2.66-.701-2.66-2.031 0-1.385 1.164-2.068 2.66-2.068 1.514 0 2.714.702 2.714 2.068 0 1.311-1.108 2.031-2.714 2.031zm3.619-7.795a.834.834 0 0 0-.831-.831.834.834 0 0 0-.831.831c0 .457.374.831.831.831a.834.834 0 0 0 .831-.831zm-5.263 0a.834.834 0 0 0-.831-.831.834.834 0 0 0-.831.831c0 .457.374.831.831.831a.834.834 0 0 0 .831-.831zm-4.266-6.241v1.145l1.57 2.363h1.163l-1.532-2.308v-.055H668v-1.145h-9.455z" fill="#fff"/><path d="M393 310l8.056 8.056 8.057-8.056M344 310l8.056 8.056 8.057-8.056M1066 293l8.06 8.056 8.05-8.056M783 293l8.056 8.056 8.057-8.056" stroke="#96989D" stroke-width="2"/><rect x="328" y="327" width="147.678" height="89.308" rx="15" fill="#DDEBFD"/><rect x="383.839" y="338.839" width="36" height="36" rx="6.42" fill="#1071F2"/><path d="M406.497 345.886h-9.316c-1.294 0-2.342.984-2.342 2.198v17.557c0 1.214 1.048 2.198 2.342 2.198h9.316c1.293 0 2.342-.984 2.342-2.198v-17.557c0-1.214-1.049-2.198-2.342-2.198z" fill="#DDEBFD"/><path d="M401.839 365.839a.997.997 0 1 1-.003-1.993.997.997 0 0 1 .003 1.993z" fill="#0550A4"/><rect x="401.841" y="351.839" width="9.998" height="6" rx="1.5" fill="#0550A4"/><path d="M401.839 359.341v-2.062a.7.7 0 0 1 .7-.7h2.061a.7.7 0 0 1 .495 1.195l-2.061 2.062a.7.7 0 0 1-1.195-.495z" fill="#0550A4"/><path d="M382.474 398.576c1.053 0 1.528-.626 1.755-1.073h.088v.966h1.42v-8.171h-1.448v3.056h-.06c-.219-.443-.67-1.093-1.751-1.093-1.416 0-2.529 1.109-2.529 3.152 0 2.018 1.081 3.163 2.525 3.163zm.403-1.184c-.954 0-1.456-.838-1.456-1.987 0-1.141.495-1.959 1.456-1.959.93 0 1.44.77 1.44 1.959s-.518 1.987-1.44 1.987zm7.112 1.196c1.428 0 2.41-.698 2.665-1.763l-1.348-.152c-.196.519-.675.79-1.297.79-.933 0-1.552-.614-1.564-1.663h4.269v-.443c0-2.15-1.293-3.096-2.801-3.096-1.755 0-2.9 1.289-2.9 3.18 0 1.923 1.129 3.147 2.976 3.147zm-1.54-3.762c.044-.782.623-1.44 1.484-1.44.83 0 1.389.607 1.397 1.44h-2.881zm10.785-2.485h-1.536l-1.412 4.552h-.064l-1.409-4.552h-1.54l2.183 6.128h1.596l2.182-6.128zm.999 6.128h1.444v-6.128h-1.444v6.128zm.726-6.998c.459 0 .834-.351.834-.782 0-.435-.375-.786-.834-.786-.463 0-.838.351-.838.786 0 .431.375.782.838.782zm4.876 7.117c1.54 0 2.522-.913 2.625-2.214h-1.38c-.124.659-.598 1.038-1.233 1.038-.901 0-1.484-.754-1.484-2.007 0-1.237.595-1.979 1.484-1.979.694 0 1.121.447 1.233 1.037h1.38c-.099-1.328-1.137-2.202-2.633-2.202-1.795 0-2.928 1.297-2.928 3.168 0 1.855 1.105 3.159 2.936 3.159zm6.524 0c1.428 0 2.41-.698 2.665-1.763l-1.348-.152c-.196.519-.675.79-1.297.79-.934 0-1.552-.614-1.564-1.663h4.269v-.443c0-2.15-1.293-3.096-2.801-3.096-1.755 0-2.9 1.289-2.9 3.18 0 1.923 1.129 3.147 2.976 3.147zm-1.54-3.762c.044-.782.622-1.44 1.484-1.44.83 0 1.389.607 1.397 1.44h-2.881zm6.376 3.731a.888.888 0 0 0 .878-.878.887.887 0 0 0-.878-.87.87.87 0 0 0-.877.87.873.873 0 0 0 .877.878zm0-4.377a.888.888 0 0 0 .878-.878.887.887 0 0 0-.878-.869.87.87 0 0 0-.877.869.873.873 0 0 0 .877.878zm5.676-3.882h-1.408l-2.031 1.305v1.356l1.911-1.22h.048v6.73h1.48v-8.171z" fill="#1E212A"/><rect x="328" y="327" width="147.678" height="89.308" rx="15" stroke="#96989D" stroke-width="2" stroke-dasharray="5 5"/><path d="M401 170v148m673-148v131" stroke="#96989D" stroke-width="2" stroke-miterlimit="16"/><path d="M359 232c0-5.523 4.477-10 10-10h65c5.523 0 10 4.477 10 10v16c0 5.523-4.477 10-10 10h-65c-5.523 0-10-4.477-10-10v-16z" fill="#DDEBFD"/><path d="M376.436 245h1.089v-7.091h-1.089V245zm.554-8.273c.424 0 .775-.332.775-.738 0-.407-.351-.739-.775-.739-.425 0-.776.332-.776.739 0 .406.351.738.776.738zm5.764 1.182h-1.514v-1.699h-1.089v1.699h-1.071v.923h1.071v4.432c0 1.237.997 1.828 1.92 1.828.406 0 .665-.074.813-.129l-.222-.979c-.092.019-.24.056-.48.056-.48 0-.942-.148-.942-1.071v-4.137h1.514v-.923zm6.683 7.091h-5.909v1.016h5.909V245zm3.221.166c1.237 0 1.883-.665 2.105-1.126h.055v.96h1.09v-4.672c0-2.253-1.718-2.511-2.622-2.511-1.071 0-2.29.369-2.844 1.662l1.034.369c.24-.517.808-1.071 1.847-1.071 1.001 0 1.495.531 1.495 1.44v.037c0 .527-.535.48-1.828.647-1.316.17-2.751.461-2.751 2.086 0 1.385 1.071 2.179 2.419 2.179zm.166-.978c-.868 0-1.496-.388-1.496-1.145 0-.831.757-1.09 1.607-1.201.461-.055 1.699-.184 1.883-.406v.997c0 .887-.701 1.755-1.994 1.755zm7.9.96c1.366 0 1.828-.85 2.068-1.237h.129V245h1.053v-9.455h-1.09v3.491h-.092c-.24-.37-.665-1.219-2.05-1.219-1.791 0-3.028 1.422-3.028 3.656 0 2.253 1.237 3.675 3.01 3.675zm.148-.979c-1.367 0-2.069-1.2-2.069-2.714 0-1.496.684-2.66 2.069-2.66 1.329 0 2.031 1.071 2.031 2.66 0 1.606-.72 2.714-2.031 2.714zm5.398.831h1.09v-4.432c0-1.039.757-1.773 1.607-1.773.826 0 1.403.541 1.403 1.348V245h1.108v-4.616c0-.915.572-1.589 1.569-1.589.776 0 1.441.411 1.441 1.459V245h1.089v-4.746c0-1.666-.895-2.437-2.16-2.437-1.016 0-1.759.466-2.124 1.2h-.074c-.35-.757-.969-1.2-1.902-1.2-.923 0-1.606.443-1.902 1.2h-.092v-1.108h-1.053V245zm11.449 0h1.09v-7.091h-1.09V245zm.554-8.273c.425 0 .776-.332.776-.738 0-.407-.351-.739-.776-.739-.424 0-.775.332-.775.739 0 .406.351.738.775.738zm3.771 4.007c0-1.237.766-1.939 1.809-1.939 1.011 0 1.625.661 1.625 1.773V245h1.09v-4.506c0-1.809-.965-2.677-2.401-2.677-1.071 0-1.735.48-2.068 1.2h-.092v-1.108h-1.053V245h1.09v-4.266z" fill="#65676E"/><path d="M1031.5 196c0-5.523 4.48-10 10-10h65c5.52 0 10 4.477 10 10v16c0 5.523-4.48 10-10 10h-65c-5.52 0-10-4.477-10-10v-16z" fill="#EFF0F2"/><path d="M1048.94 209h1.09v-7.091h-1.09V209zm.55-8.273c.42 0 .78-.332.78-.738 0-.407-.36-.739-.78-.739-.43 0-.78.332-.78.739 0 .406.35.738.78.738zm5.76 1.182h-1.51v-1.699h-1.09v1.699h-1.07v.923h1.07v4.432c0 1.237 1 1.828 1.92 1.828.41 0 .67-.074.81-.129l-.22-.979c-.09.019-.24.056-.48.056-.48 0-.94-.148-.94-1.071v-4.137h1.51v-.923zm6.69 7.091h-5.91v1.016h5.91V209zm3.22.166c1.23 0 1.88-.665 2.1-1.126h.06v.96h1.09v-4.672c0-2.253-1.72-2.511-2.62-2.511-1.08 0-2.29.369-2.85 1.662l1.04.369c.24-.517.8-1.071 1.84-1.071 1 0 1.5.531 1.5 1.44v.037c0 .527-.54.48-1.83.647-1.32.17-2.75.461-2.75 2.086 0 1.385 1.07 2.179 2.42 2.179zm.16-.978c-.86 0-1.49-.388-1.49-1.145 0-.831.76-1.09 1.6-1.201.47-.055 1.7-.184 1.89-.406v.997c0 .887-.7 1.755-2 1.755zm7.9.96c1.37 0 1.83-.85 2.07-1.237h.13V209h1.05v-9.455h-1.09v3.491h-.09c-.24-.37-.66-1.219-2.05-1.219-1.79 0-3.03 1.422-3.03 3.656 0 2.253 1.24 3.675 3.01 3.675zm.15-.979c-1.36 0-2.07-1.2-2.07-2.714 0-1.496.69-2.66 2.07-2.66 1.33 0 2.03 1.071 2.03 2.66 0 1.606-.72 2.714-2.03 2.714zm5.4.831h1.09v-4.432c0-1.039.76-1.773 1.61-1.773.82 0 1.4.541 1.4 1.348V209h1.11v-4.616c0-.915.57-1.589 1.57-1.589.77 0 1.44.411 1.44 1.459V209h1.09v-4.746c0-1.666-.9-2.437-2.16-2.437-1.02 0-1.76.466-2.13 1.2h-.07c-.35-.757-.97-1.2-1.9-1.2-.93 0-1.61.443-1.9 1.2h-.1v-1.108h-1.05V209zm11.45 0h1.09v-7.091h-1.09V209zm.55-8.273c.43 0 .78-.332.78-.738 0-.407-.35-.739-.78-.739-.42 0-.77.332-.77.739 0 .406.35.738.77.738zm3.77 4.007c0-1.237.77-1.939 1.81-1.939 1.01 0 1.63.661 1.63 1.773V209h1.09v-4.506c0-1.809-.97-2.677-2.4-2.677-1.07 0-1.74.48-2.07 1.2h-.09v-1.108h-1.06V209h1.09v-4.266z" fill="#65676E"/><path d="M352 315.437h1-1zM169 175.788h-1 1zM312 242.5v1-1zm40 40h-1 1zm-143-39h103v-2H209v2zm142 39v32.937h2V282.5h-2zm-181-80v-26.712h-2V202.5h2zm181 112.937v3.063h2v-3.063h-2zM170 175.788V171.5h-2v4.288h2zM312 243.5c21.539 0 39 17.461 39 39h2c0-22.644-18.356-41-41-41v2zm-103-2c-21.539 0-39-17.461-39-39h-2c0 22.644 18.356 41 41 41v-2z" fill="#96989D"/><path d="M193 232c0-5.523 4.477-10 10-10h104c5.523 0 10 4.477 10 10v16c0 5.523-4.477 10-10 10H203c-5.523 0-10-4.477-10-10v-16z" fill="#DDEBFD"/><path d="M215.338 239.497c-.341-1.006-1.108-1.68-2.511-1.68-1.496 0-2.604.849-2.604 2.049 0 .979.582 1.635 1.884 1.939l1.182.277c.715.167 1.052.508 1.052.998 0 .609-.646 1.107-1.662 1.107-.891 0-1.449-.383-1.643-1.144l-1.034.258c.254 1.205 1.246 1.847 2.696 1.847 1.648 0 2.77-.9 2.77-2.124 0-.988-.619-1.611-1.884-1.92l-1.052-.259c-.841-.208-1.219-.489-1.219-1.034 0-.609.646-1.052 1.514-1.052.951 0 1.343.526 1.533 1.015l.978-.277zm4.893 5.651c1.44 0 2.493-.72 2.825-1.791l-1.053-.296c-.277.739-.918 1.108-1.772 1.108-1.279 0-2.161-.826-2.212-2.345h5.148v-.462c0-2.64-1.57-3.545-3.047-3.545-1.921 0-3.195 1.514-3.195 3.693 0 2.179 1.256 3.638 3.306 3.638zm-2.212-4.266c.074-1.103.854-2.087 2.101-2.087 1.182 0 1.939.887 1.939 2.087h-4.04zm9.836 4.266c1.569 0 2.603-.961 2.788-2.216h-1.089c-.204.775-.85 1.237-1.699 1.237-1.293 0-2.124-1.071-2.124-2.714 0-1.607.85-2.66 2.124-2.66.96 0 1.532.591 1.699 1.238h1.089c-.185-1.33-1.311-2.216-2.807-2.216-1.92 0-3.194 1.514-3.194 3.674 0 2.124 1.218 3.657 3.213 3.657zm8.999-3.047c0 1.329-1.015 1.939-1.828 1.939-.904 0-1.551-.665-1.551-1.699v-4.432h-1.089v4.506c0 1.809.96 2.677 2.29 2.677 1.071 0 1.772-.572 2.105-1.292h.073v1.2h1.09v-7.091h-1.09v4.192zm3.235 2.899h1.09v-4.487c0-.96.757-1.662 1.791-1.662.291 0 .591.055.665.074v-1.108a10.696 10.696 0 0 0-.573-.019c-.849 0-1.588.48-1.846 1.182h-.074v-1.071h-1.053V245zm4.987 0h1.09v-7.091h-1.09V245zm.554-8.273c.425 0 .776-.332.776-.738 0-.407-.351-.739-.776-.739-.424 0-.775.332-.775.739 0 .406.351.738.775.738zm5.765 1.182h-1.514v-1.699h-1.09v1.699h-1.071v.923h1.071v4.432c0 1.237.998 1.828 1.921 1.828.406 0 .665-.074.812-.129l-.221-.979c-.093.019-.24.056-.48.056-.48 0-.942-.148-.942-1.071v-4.137h1.514v-.923zm2.491 9.732c.983 0 1.68-.522 2.086-1.607l3.02-8.106-1.192-.019-1.957 5.651h-.074l-1.957-5.651h-1.182l2.622 7.128-.203.554c-.388 1.062-.886 1.163-1.68.96l-.277.96c.11.056.424.13.794.13zM264.448 245h-5.909v1.016h5.909V245zm3.997 2.807c1.699 0 3.065-.776 3.065-2.604v-7.294h-1.052v1.127h-.111c-.24-.37-.683-1.219-2.068-1.219-1.792 0-3.029 1.422-3.029 3.601 0 2.216 1.293 3.471 3.01 3.471 1.385 0 1.828-.812 2.068-1.2h.093v1.44c0 1.182-.831 1.718-1.976 1.718-1.288 0-1.741-.679-2.031-1.071l-.868.609c.443.743 1.315 1.422 2.899 1.422zm-.037-3.896c-1.367 0-2.068-1.035-2.068-2.512 0-1.44.683-2.604 2.068-2.604 1.329 0 2.031 1.071 2.031 2.604 0 1.57-.72 2.512-2.031 2.512zm9.715-1.81c0 1.329-1.015 1.939-1.828 1.939-.905 0-1.551-.665-1.551-1.699v-4.432h-1.09v4.506c0 1.809.961 2.677 2.29 2.677 1.071 0 1.773-.572 2.105-1.292h.074v1.2h1.09v-7.091h-1.09v4.192zm5.322 3.065c1.237 0 1.883-.665 2.105-1.126h.055v.96h1.09v-4.672c0-2.253-1.717-2.511-2.622-2.511-1.071 0-2.29.369-2.844 1.662l1.034.369c.24-.517.808-1.071 1.847-1.071 1.001 0 1.495.531 1.495 1.44v.037c0 .527-.535.48-1.828.647-1.315.17-2.751.461-2.751 2.086 0 1.385 1.071 2.179 2.419 2.179zm.166-.979c-.868 0-1.496-.387-1.496-1.144 0-.831.757-1.09 1.607-1.201.461-.055 1.699-.184 1.883-.406v.997c0 .887-.701 1.754-1.994 1.754zm5.222.813h1.09v-4.487c0-.96.757-1.662 1.791-1.662.291 0 .591.055.665.074v-1.108a10.696 10.696 0 0 0-.573-.019c-.849 0-1.588.48-1.846 1.182h-.074v-1.071h-1.053V245zm7.449.148c1.367 0 1.828-.85 2.068-1.237h.129V245h1.053v-9.455h-1.089v3.491h-.093c-.24-.37-.665-1.219-2.049-1.219-1.792 0-3.029 1.422-3.029 3.656 0 2.253 1.237 3.675 3.01 3.675zm.148-.979c-1.367 0-2.068-1.2-2.068-2.714 0-1.496.683-2.66 2.068-2.66 1.329 0 2.031 1.071 2.031 2.66 0 1.606-.72 2.714-2.031 2.714z" fill="#65676E"/><path d="M791 298.792h1-1zm-155-123.5h-1 1zm115 67.997v1-1zm40 40h1-1zm-115-40v-1 1zm0 1h75v-2h-75v2zm114 39v15.503h2v-15.503h-2zm-153-80v-27.997h-2v27.997h2zm153 95.503v2.708h2v-2.708h-2zm-153-123.5V171.5h-2v3.792h2zm114 68.997c21.539 0 39 17.461 39 39h2c0-22.644-18.356-41-41-41v2zm-75-2c-21.539 0-39-17.461-39-39h-2c0 22.644 18.356 41 41 41v-2z" fill="#96989D"/><path d="M652 233c0-5.523 4.477-10 10-10h104c5.523 0 10 4.477 10 10v16c0 5.523-4.477 10-10 10H662c-5.523 0-10-4.477-10-10v-16z" fill="#EFF0F2"/><path d="M674.338 240.497c-.341-1.006-1.108-1.68-2.511-1.68-1.496 0-2.604.849-2.604 2.049 0 .979.582 1.635 1.884 1.939l1.182.277c.715.167 1.052.508 1.052.998 0 .609-.646 1.108-1.662 1.108-.891 0-1.449-.384-1.643-1.145l-1.034.258c.254 1.205 1.246 1.847 2.696 1.847 1.648 0 2.77-.9 2.77-2.124 0-.988-.619-1.611-1.884-1.92l-1.052-.259c-.841-.208-1.219-.489-1.219-1.034 0-.609.646-1.052 1.514-1.052.951 0 1.343.526 1.533 1.015l.978-.277zm4.893 5.651c1.44 0 2.493-.72 2.825-1.791l-1.053-.296c-.277.739-.918 1.108-1.772 1.108-1.279 0-2.161-.826-2.212-2.345h5.148v-.462c0-2.64-1.57-3.545-3.047-3.545-1.921 0-3.195 1.514-3.195 3.693 0 2.179 1.256 3.638 3.306 3.638zm-2.212-4.266c.074-1.103.854-2.087 2.101-2.087 1.182 0 1.939.887 1.939 2.087h-4.04zm9.836 4.266c1.569 0 2.603-.96 2.788-2.216h-1.089c-.204.775-.85 1.237-1.699 1.237-1.293 0-2.124-1.071-2.124-2.714 0-1.607.85-2.66 2.124-2.66.96 0 1.532.591 1.699 1.238h1.089c-.185-1.33-1.311-2.216-2.807-2.216-1.92 0-3.194 1.514-3.194 3.674 0 2.124 1.218 3.657 3.213 3.657zm8.999-3.047c0 1.329-1.015 1.939-1.828 1.939-.904 0-1.551-.665-1.551-1.699v-4.432h-1.089v4.506c0 1.809.96 2.677 2.29 2.677 1.071 0 1.772-.572 2.105-1.292h.073v1.2h1.09v-7.091h-1.09v4.192zm3.235 2.899h1.09v-4.487c0-.96.757-1.662 1.791-1.662.291 0 .591.055.665.074v-1.108a10.696 10.696 0 0 0-.573-.019c-.849 0-1.588.48-1.846 1.182h-.074v-1.071h-1.053V246zm4.987 0h1.09v-7.091h-1.09V246zm.554-8.273c.425 0 .776-.332.776-.738 0-.407-.351-.739-.776-.739-.424 0-.775.332-.775.739 0 .406.351.738.775.738zm5.765 1.182h-1.514v-1.699h-1.09v1.699h-1.071v.923h1.071v4.432c0 1.237.998 1.828 1.921 1.828.406 0 .665-.074.812-.129l-.221-.979c-.093.019-.24.056-.48.056-.48 0-.942-.148-.942-1.071v-4.137h1.514v-.923zm2.491 9.732c.983 0 1.68-.522 2.086-1.607l3.02-8.106-1.192-.019-1.957 5.651h-.074l-1.957-5.651h-1.182l2.622 7.128-.203.554c-.388 1.062-.886 1.163-1.68.96l-.277.96c.11.056.424.13.794.13zM723.448 246h-5.909v1.016h5.909V246zm3.997 2.807c1.699 0 3.065-.776 3.065-2.604v-7.294h-1.052v1.127h-.111c-.24-.37-.683-1.219-2.068-1.219-1.792 0-3.029 1.422-3.029 3.601 0 2.216 1.293 3.471 3.01 3.471 1.385 0 1.828-.812 2.068-1.2h.093v1.44c0 1.182-.831 1.718-1.976 1.718-1.288 0-1.741-.679-2.031-1.071l-.868.609c.443.743 1.315 1.422 2.899 1.422zm-.037-3.896c-1.367 0-2.068-1.035-2.068-2.512 0-1.44.683-2.604 2.068-2.604 1.329 0 2.031 1.071 2.031 2.604 0 1.57-.72 2.512-2.031 2.512zm9.715-1.81c0 1.329-1.015 1.939-1.828 1.939-.905 0-1.551-.665-1.551-1.699v-4.432h-1.09v4.506c0 1.809.961 2.677 2.29 2.677 1.071 0 1.773-.572 2.105-1.292h.074v1.2h1.09v-7.091h-1.09v4.192zm5.322 3.065c1.237 0 1.883-.665 2.105-1.126h.055v.96h1.09v-4.672c0-2.253-1.717-2.511-2.622-2.511-1.071 0-2.29.369-2.844 1.662l1.034.369c.24-.517.808-1.071 1.847-1.071 1.001 0 1.495.531 1.495 1.44v.037c0 .527-.535.48-1.828.647-1.315.17-2.751.461-2.751 2.086 0 1.385 1.071 2.179 2.419 2.179zm.166-.978c-.868 0-1.496-.388-1.496-1.145 0-.831.757-1.09 1.607-1.201.461-.055 1.699-.184 1.883-.406v.997c0 .887-.701 1.755-1.994 1.755zm5.222.812h1.09v-4.487c0-.96.757-1.662 1.791-1.662.291 0 .591.055.665.074v-1.108a10.696 10.696 0 0 0-.573-.019c-.849 0-1.588.48-1.846 1.182h-.074v-1.071h-1.053V246zm7.449.148c1.367 0 1.828-.85 2.068-1.237h.129V246h1.053v-9.455h-1.089v3.491h-.093c-.24-.37-.665-1.219-2.049-1.219-1.792 0-3.029 1.422-3.029 3.656 0 2.253 1.237 3.675 3.01 3.675zm.148-.979c-1.367 0-2.068-1.2-2.068-2.714 0-1.496.683-2.66 2.068-2.66 1.329 0 2.031 1.071 2.031 2.66 0 1.606-.72 2.714-2.031 2.714z" fill="#65676E"/><path d="M614 176.671h1-1zm-40 65.269h-79v-2h79v2zm-118 39v31.581h-2V280.94h2zm157-80v-24.269h2v24.269h-2zM456 312.521v2.979h-2v-2.979h2zm157-135.85V172.5h2v4.171h-2zM495 241.94c-21.539 0-39 17.46-39 39h-2c0-22.644 18.356-41 41-41v2zm79-2c21.539 0 39-17.461 39-39h2c0 22.643-18.356 41-41 41v-2z" fill="#96989D"/><path d="M447 308l8.056 8.056 8.057-8.056" stroke="#96989D" stroke-width="2"/><path d="M473 232c0-5.523 4.477-10 10-10h104c5.523 0 10 4.477 10 10v16c0 5.523-4.477 10-10 10H483c-5.523 0-10-4.477-10-10v-16z" fill="#DDEBFD"/><path d="M495.338 239.497c-.341-1.006-1.108-1.68-2.511-1.68-1.496 0-2.604.849-2.604 2.049 0 .979.582 1.635 1.884 1.939l1.182.277c.715.167 1.052.508 1.052.998 0 .609-.646 1.107-1.662 1.107-.891 0-1.449-.383-1.643-1.144l-1.034.258c.254 1.205 1.246 1.847 2.696 1.847 1.648 0 2.77-.9 2.77-2.124 0-.988-.619-1.611-1.884-1.92l-1.052-.259c-.841-.208-1.219-.489-1.219-1.034 0-.609.646-1.052 1.514-1.052.951 0 1.343.526 1.533 1.015l.978-.277zm4.893 5.651c1.44 0 2.493-.72 2.825-1.791l-1.053-.296c-.277.739-.918 1.108-1.772 1.108-1.279 0-2.161-.826-2.212-2.345h5.148v-.462c0-2.64-1.57-3.545-3.047-3.545-1.921 0-3.195 1.514-3.195 3.693 0 2.179 1.256 3.638 3.306 3.638zm-2.212-4.266c.074-1.103.854-2.087 2.101-2.087 1.182 0 1.939.887 1.939 2.087h-4.04zm9.836 4.266c1.569 0 2.603-.961 2.788-2.216h-1.089c-.204.775-.85 1.237-1.699 1.237-1.293 0-2.124-1.071-2.124-2.714 0-1.607.85-2.66 2.124-2.66.96 0 1.532.591 1.699 1.238h1.089c-.185-1.33-1.311-2.216-2.807-2.216-1.92 0-3.194 1.514-3.194 3.674 0 2.124 1.218 3.657 3.213 3.657zm8.999-3.047c0 1.329-1.015 1.939-1.828 1.939-.904 0-1.551-.665-1.551-1.699v-4.432h-1.089v4.506c0 1.809.96 2.677 2.29 2.677 1.071 0 1.772-.572 2.105-1.292h.073v1.2h1.09v-7.091h-1.09v4.192zm3.235 2.899h1.09v-4.487c0-.96.757-1.662 1.791-1.662.291 0 .591.055.665.074v-1.108a10.696 10.696 0 0 0-.573-.019c-.849 0-1.588.48-1.846 1.182h-.074v-1.071h-1.053V245zm4.987 0h1.09v-7.091h-1.09V245zm.554-8.273c.425 0 .776-.332.776-.738 0-.407-.351-.739-.776-.739-.424 0-.775.332-.775.739 0 .406.351.738.775.738zm5.765 1.182h-1.514v-1.699h-1.09v1.699h-1.071v.923h1.071v4.432c0 1.237.998 1.828 1.921 1.828.406 0 .665-.074.812-.129l-.221-.979c-.093.019-.24.056-.48.056-.48 0-.942-.148-.942-1.071v-4.137h1.514v-.923zm2.491 9.732c.983 0 1.68-.522 2.086-1.607l3.02-8.106-1.192-.019-1.957 5.651h-.074l-1.957-5.651h-1.182l2.622 7.128-.203.554c-.388 1.062-.886 1.163-1.68.96l-.277.96c.11.056.424.13.794.13zM544.448 245h-5.909v1.016h5.909V245zm3.997 2.807c1.699 0 3.065-.776 3.065-2.604v-7.294h-1.052v1.127h-.111c-.24-.37-.683-1.219-2.068-1.219-1.792 0-3.029 1.422-3.029 3.601 0 2.216 1.293 3.471 3.01 3.471 1.385 0 1.828-.812 2.068-1.2h.093v1.44c0 1.182-.831 1.718-1.976 1.718-1.288 0-1.741-.679-2.031-1.071l-.868.609c.443.743 1.315 1.422 2.899 1.422zm-.037-3.896c-1.367 0-2.068-1.035-2.068-2.512 0-1.44.683-2.604 2.068-2.604 1.329 0 2.031 1.071 2.031 2.604 0 1.57-.72 2.512-2.031 2.512zm9.715-1.81c0 1.329-1.015 1.939-1.828 1.939-.905 0-1.551-.665-1.551-1.699v-4.432h-1.09v4.506c0 1.809.961 2.677 2.29 2.677 1.071 0 1.773-.572 2.105-1.292h.074v1.2h1.09v-7.091h-1.09v4.192zm5.322 3.065c1.237 0 1.883-.665 2.105-1.126h.055v.96h1.09v-4.672c0-2.253-1.717-2.511-2.622-2.511-1.071 0-2.29.369-2.844 1.662l1.034.369c.24-.517.808-1.071 1.847-1.071 1.001 0 1.495.531 1.495 1.44v.037c0 .527-.535.48-1.828.647-1.315.17-2.751.461-2.751 2.086 0 1.385 1.071 2.179 2.419 2.179zm.166-.979c-.868 0-1.496-.387-1.496-1.144 0-.831.757-1.09 1.607-1.201.461-.055 1.699-.184 1.883-.406v.997c0 .887-.701 1.754-1.994 1.754zm5.222.813h1.09v-4.487c0-.96.757-1.662 1.791-1.662.291 0 .591.055.665.074v-1.108a10.696 10.696 0 0 0-.573-.019c-.849 0-1.588.48-1.846 1.182h-.074v-1.071h-1.053V245zm7.449.148c1.367 0 1.828-.85 2.068-1.237h.129V245h1.053v-9.455h-1.089v3.491h-.093c-.24-.37-.665-1.219-2.049-1.219-1.792 0-3.029 1.422-3.029 3.656 0 2.253 1.237 3.675 3.01 3.675zm.148-.979c-1.367 0-2.068-1.2-2.068-2.714 0-1.496.683-2.66 2.068-2.66 1.329 0 2.031 1.071 2.031 2.66 0 1.606-.72 2.714-2.031 2.714z" fill="#65676E"/><path d="M1024 176.688h1-1zM648 280.314v1-1zm336 1H648v-2h336v2zm-375 39V332.5h-2v-12.186h2zm414-80v-63.626h2v63.626h-2zM568 373.5h-84v-2h84v2zm455-196.812V171h2v5.688h-2zM609 332.5c0 22.644-18.356 41-41 41v-2c21.539 0 39-17.461 39-39h2zm39-51.186c-21.539 0-39 17.461-39 39h-2c0-22.644 18.356-41 41-41v2zm336-2c21.54 0 39-17.461 39-39h2c0 22.644-18.36 41-41 41v-2z" fill="#96989D"/><path d="M839 271c0-5.523 4.477-10 10-10h65c5.523 0 10 4.477 10 10v16c0 5.523-4.477 10-10 10h-65c-5.523 0-10-4.477-10-10v-16z" fill="#DDEBFD"/><path d="M856.436 284h1.089v-7.091h-1.089V284zm.554-8.273c.424 0 .775-.332.775-.738 0-.407-.351-.739-.775-.739-.425 0-.776.332-.776.739 0 .406.351.738.776.738zm5.764 1.182h-1.514v-1.699h-1.089v1.699h-1.071v.923h1.071v4.432c0 1.237.997 1.828 1.92 1.828.406 0 .665-.074.813-.129l-.222-.979c-.092.019-.24.056-.48.056-.48 0-.942-.148-.942-1.071v-4.137h1.514v-.923zm6.683 7.091h-5.909v1.016h5.909V284zm3.221.166c1.237 0 1.883-.665 2.105-1.126h.055v.96h1.09v-4.672c0-2.253-1.718-2.511-2.622-2.511-1.071 0-2.29.369-2.844 1.662l1.034.369c.24-.517.808-1.071 1.847-1.071 1.001 0 1.495.531 1.495 1.44v.037c0 .527-.535.48-1.828.647-1.316.17-2.751.461-2.751 2.086 0 1.385 1.071 2.179 2.419 2.179zm.166-.979c-.868 0-1.496-.387-1.496-1.144 0-.831.757-1.09 1.607-1.201.461-.055 1.699-.184 1.883-.406v.997c0 .887-.701 1.754-1.994 1.754zm7.9.961c1.366 0 1.828-.85 2.068-1.237h.129V284h1.053v-9.455h-1.09v3.491h-.092c-.24-.37-.665-1.219-2.05-1.219-1.791 0-3.028 1.422-3.028 3.656 0 2.253 1.237 3.675 3.01 3.675zm.148-.979c-1.367 0-2.069-1.2-2.069-2.714 0-1.496.684-2.66 2.069-2.66 1.329 0 2.031 1.071 2.031 2.66 0 1.606-.72 2.714-2.031 2.714zm5.398.831h1.09v-4.432c0-1.039.757-1.773 1.607-1.773.826 0 1.403.541 1.403 1.348V284h1.108v-4.616c0-.915.572-1.589 1.569-1.589.776 0 1.441.411 1.441 1.459V284h1.089v-4.746c0-1.666-.895-2.437-2.16-2.437-1.016 0-1.759.466-2.124 1.2h-.074c-.35-.757-.969-1.2-1.902-1.2-.923 0-1.606.443-1.902 1.2h-.092v-1.108h-1.053V284zm11.449 0h1.09v-7.091h-1.09V284zm.554-8.273c.425 0 .776-.332.776-.738 0-.407-.351-.739-.776-.739-.424 0-.775.332-.775.739 0 .406.351.738.775.738zm3.771 4.007c0-1.237.766-1.939 1.809-1.939 1.011 0 1.625.661 1.625 1.773V284h1.09v-4.506c0-1.809-.965-2.677-2.401-2.677-1.071 0-1.735.48-2.068 1.2h-.092v-1.108h-1.053V284h1.09v-4.266z" fill="#65676E"/><path d="M492.057 364L484 372.056l8.057 8.057" stroke="#96989D" stroke-width="2"/><rect x="703" y="328" width="147.678" height="89.308" rx="15" fill="#DDEBFD"/><rect x="758.839" y="339.839" width="36" height="36" rx="6.42" fill="#1071F2"/><path d="M781.497 346.886h-9.316c-1.294 0-2.342.984-2.342 2.198v17.557c0 1.214 1.048 2.198 2.342 2.198h9.316c1.293 0 2.342-.984 2.342-2.198v-17.557c0-1.214-1.049-2.198-2.342-2.198z" fill="#DDEBFD"/><path d="M776.839 366.839a.997.997 0 1 1-.003-1.993.997.997 0 0 1 .003 1.993z" fill="#0550A4"/><rect x="776.841" y="352.839" width="9.998" height="6" rx="1.5" fill="#0550A4"/><path d="M776.839 360.341v-2.062a.7.7 0 0 1 .7-.7h2.061a.7.7 0 0 1 .495 1.195l-2.061 2.062a.7.7 0 0 1-1.195-.495z" fill="#0550A4"/><path d="M756.684 399.576c1.053 0 1.528-.626 1.755-1.073h.088v.966h1.42v-8.171h-1.448v3.056h-.06c-.219-.443-.67-1.093-1.751-1.093-1.416 0-2.529 1.109-2.529 3.152 0 2.018 1.081 3.163 2.525 3.163zm.403-1.184c-.953 0-1.456-.838-1.456-1.987 0-1.141.495-1.959 1.456-1.959.93 0 1.44.77 1.44 1.959s-.518 1.987-1.44 1.987zm7.112 1.196c1.428 0 2.41-.698 2.665-1.763l-1.348-.152c-.196.519-.674.79-1.297.79-.933 0-1.552-.614-1.564-1.663h4.269v-.443c0-2.15-1.293-3.096-2.801-3.096-1.755 0-2.9 1.289-2.9 3.18 0 1.923 1.129 3.147 2.976 3.147zm-1.54-3.762c.044-.782.623-1.44 1.484-1.44.83 0 1.389.607 1.397 1.44h-2.881zm10.785-2.485h-1.536l-1.412 4.552h-.064l-1.408-4.552h-1.54l2.182 6.128h1.596l2.182-6.128zm.999 6.128h1.444v-6.128h-1.444v6.128zm.726-6.998c.459 0 .834-.351.834-.782 0-.435-.375-.786-.834-.786-.462 0-.838.351-.838.786 0 .431.376.782.838.782zm4.876 7.117c1.54 0 2.522-.913 2.625-2.214h-1.38c-.124.659-.598 1.038-1.233 1.038-.901 0-1.484-.754-1.484-2.007 0-1.237.595-1.979 1.484-1.979.695 0 1.121.447 1.233 1.037h1.38c-.099-1.328-1.137-2.202-2.633-2.202-1.795 0-2.928 1.297-2.928 3.168 0 1.855 1.105 3.159 2.936 3.159zm6.524 0c1.428 0 2.41-.698 2.665-1.763l-1.348-.152c-.196.519-.675.79-1.297.79-.933 0-1.552-.614-1.564-1.663h4.269v-.443c0-2.15-1.293-3.096-2.801-3.096-1.755 0-2.9 1.289-2.9 3.18 0 1.923 1.129 3.147 2.976 3.147zm-1.54-3.762c.044-.782.623-1.44 1.484-1.44.83 0 1.389.607 1.397 1.44h-2.881zm6.376 3.731a.888.888 0 0 0 .878-.878.887.887 0 0 0-.878-.87.87.87 0 0 0-.877.87.873.873 0 0 0 .877.878zm0-4.377a.888.888 0 0 0 .878-.878.887.887 0 0 0-.878-.869.87.87 0 0 0-.877.869.873.873 0 0 0 .877.878zm2.353 4.289h5.601v-1.237h-3.558v-.056l1.408-1.432c1.588-1.524 2.027-2.266 2.027-3.188 0-1.368-1.113-2.369-2.757-2.369-1.62 0-2.769 1.005-2.769 2.557h1.409c0-.834.526-1.357 1.34-1.357.778 0 1.356.475 1.356 1.245 0 .682-.414 1.169-1.22 1.987l-2.837 2.781v1.069z" fill="#1E212A"/><rect x="703" y="328" width="147.678" height="89.308" rx="15" stroke="#96989D" stroke-width="2" stroke-dasharray="5 5"/><rect x="982" y="328" width="147.678" height="89.308" rx="15" fill="#DDEBFD"/><rect x="1037.84" y="339.839" width="36" height="36" rx="6.42" fill="#1071F2"/><path d="M1060.5 346.886h-9.32c-1.29 0-2.34.984-2.34 2.198v17.557c0 1.214 1.05 2.198 2.34 2.198h9.32c1.29 0 2.34-.984 2.34-2.198v-17.557c0-1.214-1.05-2.198-2.34-2.198z" fill="#DDEBFD"/><path d="M1055.84 366.839a1 1 0 0 1-1-.997 1 1 0 0 1 2 0 1 1 0 0 1-1 .997z" fill="#0550A4"/><rect x="1055.84" y="352.839" width="9.998" height="6" rx="1.5" fill="#0550A4"/><path d="M1055.84 360.341v-2.062c0-.386.31-.7.7-.7h2.06c.62 0 .94.754.5 1.195l-2.07 2.062a.697.697 0 0 1-1.19-.495z" fill="#0550A4"/><path d="M1035.68 399.576c1.06 0 1.53-.626 1.76-1.073h.09v.966h1.42v-8.171h-1.45v3.056h-.06c-.22-.443-.67-1.093-1.75-1.093-1.42 0-2.53 1.109-2.53 3.152 0 2.018 1.08 3.163 2.52 3.163zm.41-1.184c-.96 0-1.46-.838-1.46-1.987 0-1.141.5-1.959 1.46-1.959.93 0 1.44.77 1.44 1.959s-.52 1.987-1.44 1.987zm7.11 1.196c1.43 0 2.41-.698 2.66-1.763l-1.34-.152c-.2.519-.68.79-1.3.79-.93 0-1.55-.614-1.56-1.663h4.26v-.443c0-2.15-1.29-3.096-2.8-3.096-1.75 0-2.9 1.289-2.9 3.18 0 1.923 1.13 3.147 2.98 3.147zm-1.54-3.762c.04-.782.62-1.44 1.48-1.44.83 0 1.39.607 1.4 1.44h-2.88zm10.78-2.485h-1.53l-1.41 4.552h-.07l-1.41-4.552h-1.54l2.19 6.128h1.59l2.18-6.128zm1 6.128h1.45v-6.128h-1.45v6.128zm.73-6.998c.46 0 .83-.351.83-.782 0-.435-.37-.786-.83-.786-.46 0-.84.351-.84.786 0 .431.38.782.84.782zm4.88 7.117c1.54 0 2.52-.913 2.62-2.214h-1.38c-.12.659-.6 1.038-1.23 1.038-.9 0-1.49-.754-1.49-2.007 0-1.237.6-1.979 1.49-1.979.69 0 1.12.447 1.23 1.037h1.38c-.1-1.328-1.14-2.202-2.63-2.202-1.8 0-2.93 1.297-2.93 3.168 0 1.855 1.1 3.159 2.94 3.159zm6.52 0c1.43 0 2.41-.698 2.66-1.763l-1.34-.152c-.2.519-.68.79-1.3.79-.93 0-1.55-.614-1.56-1.663h4.26v-.443c0-2.15-1.29-3.096-2.8-3.096-1.75 0-2.9 1.289-2.9 3.18 0 1.923 1.13 3.147 2.98 3.147zm-1.54-3.762c.04-.782.62-1.44 1.48-1.44.83 0 1.39.607 1.4 1.44h-2.88zm6.38 3.731a.88.88 0 0 0 .87-.878c0-.479-.4-.87-.87-.87-.49 0-.89.391-.88.87-.01.487.39.878.88.878zm0-4.377a.88.88 0 0 0 .87-.878c0-.478-.4-.869-.87-.869-.49 0-.89.391-.88.869-.01.487.39.878.88.878zm2.35 4.289h5.6v-1.237h-3.56v-.056l1.41-1.432c1.59-1.524 2.03-2.266 2.03-3.188 0-1.368-1.12-2.369-2.76-2.369-1.62 0-2.77 1.005-2.77 2.557h1.41c0-.834.53-1.357 1.34-1.357.78 0 1.36.475 1.36 1.245 0 .682-.42 1.169-1.23 1.987l-2.83 2.781v1.069z" fill="#1E212A"/><rect x="982" y="328" width="147.678" height="89.308" rx="15" stroke="#96989D" stroke-width="2" stroke-dasharray="5 5"/></svg>