<svg width="1205" height="461" viewBox="0 0 1205 461" fill="none" xmlns="http://www.w3.org/2000/svg"><path fill="#fff" d="M0 0h1205v461H0z"/><rect x="383.839" y="80.839" width="36" height="36" rx="6.42" fill="#EFF0F2"/><path d="M396.862 93.84a5 5 0 1 1 10 0 5 5 0 0 1-10 0z" fill="#65676E"/><path d="M393.304 102.309a4.996 4.996 0 0 1 3.532-1.463h10.027a5 5 0 0 1 3.533 1.463 5 5 0 0 1 1.462 3.533v.995a2.002 2.002 0 0 1-2.002 2.003h-16.013a2.002 2.002 0 0 1-2.002-2.003v-.995a5 5 0 0 1 1.463-3.533z" fill="#C4C4C4"/><path d="M391.456 140.469l.674-2.015h3.072l.678 2.015h1.58l-2.88-8.171h-1.828l-2.876 8.171h1.58zm1.073-3.204l1.105-3.291h.064l1.105 3.291h-2.274zm5.943 3.204h1.444v-3.726c0-.754.503-1.265 1.125-1.265.611 0 1.03.411 1.03 1.041v3.95h1.416v-3.822c0-.69.411-1.169 1.109-1.169.583 0 1.045.343 1.045 1.101v3.89h1.448v-4.113c0-1.369-.789-2.095-1.914-2.095-.89 0-1.568.439-1.84 1.121h-.063c-.236-.694-.83-1.121-1.656-1.121-.822 0-1.436.423-1.692 1.121h-.071v-1.041h-1.381v6.128zm10.761 2.286c1.125 0 1.775-.583 2.122-1.544l2.462-6.862-1.544-.008-1.416 4.628h-.064l-1.413-4.628h-1.532l2.223 6.255-.124.332c-.275.678-.69.73-1.321.55l-.335 1.121c.196.084.547.156.942.156z" fill="#1E212A"/><rect x="328" y="69" width="147.678" height="89.308" rx="15" stroke="#96989D" stroke-width="2" stroke-dasharray="5 5"/><rect x="161.839" y="80.839" width="36" height="36" rx="6.42" fill="#EFF0F2"/><path d="M174.862 93.84a5 5 0 1 1 10 0 5 5 0 0 1-10 0z" fill="#65676E"/><path d="M171.304 102.309a4.996 4.996 0 0 1 3.532-1.463h10.027a5 5 0 0 1 3.533 1.463 5 5 0 0 1 1.462 3.533v.995a2.002 2.002 0 0 1-2.002 2.003h-16.013a2.002 2.002 0 0 1-2.002-2.003v-.995a5 5 0 0 1 1.463-3.533z" fill="#C4C4C4"/><path d="M167.988 140.469c2.49 0 3.966-1.54 3.966-4.093 0-2.546-1.476-4.078-3.91-4.078h-2.825v8.171h2.769zm-1.288-1.281v-5.609h1.26c1.66 0 2.526.926 2.526 2.797 0 1.879-.866 2.812-2.57 2.812H166.7zm8.359 1.404c.962 0 1.536-.45 1.8-.965h.048v.842h1.388v-4.101c0-1.62-1.321-2.107-2.489-2.107-1.289 0-2.278.575-2.598 1.692l1.349.191c.143-.419.55-.778 1.257-.778.67 0 1.037.343 1.037.946v.024c0 .415-.435.435-1.516.55-1.189.128-2.326.483-2.326 1.863 0 1.205.882 1.843 2.05 1.843zm.376-1.061c-.603 0-1.034-.275-1.034-.806 0-.554.483-.786 1.129-.877.379-.052 1.137-.148 1.325-.3v.723c0 .682-.551 1.26-1.42 1.26zm9.566-5.19h-1.536l-1.412 4.552h-.064l-1.408-4.552h-1.54l2.182 6.128h1.596l2.182-6.128zm1 6.128h1.444v-6.128h-1.444v6.128zm.726-6.998c.458 0 .833-.351.833-.782 0-.435-.375-.786-.833-.786-.463 0-.838.351-.838.786 0 .431.375.782.838.782zm4.477 7.105c1.053 0 1.528-.626 1.755-1.073h.088v.966h1.42v-8.171h-1.448v3.056h-.06c-.219-.443-.67-1.093-1.751-1.093-1.416 0-2.529 1.109-2.529 3.152 0 2.018 1.081 3.163 2.525 3.163zm.403-1.184c-.954 0-1.456-.838-1.456-1.987 0-1.141.494-1.959 1.456-1.959.929 0 1.44.77 1.44 1.959s-.519 1.987-1.44 1.987z" fill="#1E212A"/><rect x="106" y="69" width="147.678" height="89.308" rx="15" stroke="#96989D" stroke-width="2" stroke-dasharray="5 5"/><rect x="606.839" y="80.839" width="36" height="36" rx="6.42" fill="#EFF0F2"/><path d="M619.862 93.84a5 5 0 1 1 10 0 5 5 0 0 1-10 0z" fill="#65676E"/><path d="M616.304 102.309a4.996 4.996 0 0 1 3.532-1.463h10.027a5 5 0 0 1 3.533 1.463 5 5 0 0 1 1.462 3.533v.995a2.002 2.002 0 0 1-2.002 2.003h-16.013a2.002 2.002 0 0 1-2.002-2.003v-.995a5 5 0 0 1 1.463-3.533z" fill="#C4C4C4"/><path d="M611.02 140.469h5.346v-1.241H612.5v-2.23h3.559v-1.241H612.5v-2.218h3.834v-1.241h-5.314v8.171zm6.761 0h1.444v-3.726c0-.754.502-1.265 1.125-1.265.61 0 1.029.411 1.029 1.041v3.95h1.416v-3.822c0-.69.411-1.169 1.109-1.169.583 0 1.046.343 1.046 1.101v3.89h1.448v-4.113c0-1.369-.79-2.095-1.915-2.095-.89 0-1.568.439-1.839 1.121h-.064c-.236-.694-.83-1.121-1.656-1.121-.822 0-1.436.423-1.691 1.121h-.072v-1.041h-1.38v6.128zm10.082 0h1.444v-6.128h-1.444v6.128zm.726-6.998c.459 0 .834-.351.834-.782 0-.435-.375-.786-.834-.786-.463 0-.838.351-.838.786 0 .431.375.782.838.782zm3.647-1.173h-1.444v8.171h1.444v-8.171zm2.383 10.457c1.125 0 1.775-.583 2.122-1.544l2.462-6.862-1.544-.008-1.416 4.628h-.064l-1.412-4.628h-1.532l2.222 6.255-.124.332c-.275.678-.69.73-1.32.55l-.335 1.121c.195.084.546.156.941.156z" fill="#1E212A"/><rect x="551" y="69" width="147.678" height="89.308" rx="15" stroke="#96989D" stroke-width="2" stroke-dasharray="5 5"/><rect x="827.839" y="80.839" width="36" height="36" rx="6.42" fill="#EFF0F2"/><path d="M840.862 93.84a5 5 0 1 1 10 0 5 5 0 0 1-10 0z" fill="#65676E"/><path d="M837.304 102.309a4.996 4.996 0 0 1 3.532-1.463h10.027a5 5 0 0 1 3.533 1.463 5 5 0 0 1 1.462 3.533v.995a2.002 2.002 0 0 1-2.002 2.003h-16.013a2.002 2.002 0 0 1-2.002-2.003v-.995a5 5 0 0 1 1.463-3.533z" fill="#C4C4C4"/><path d="M826.82 135.055c-.252-1.815-1.648-2.868-3.459-2.868-2.135 0-3.742 1.556-3.742 4.197 0 2.637 1.587 4.196 3.742 4.196 1.943 0 3.231-1.256 3.459-2.816l-1.492-.008c-.188.957-.97 1.496-1.947 1.496-1.325 0-2.274-.993-2.274-2.868 0-1.844.941-2.869 2.278-2.869.993 0 1.771.563 1.943 1.54h1.492zm3.055 5.537c.961 0 1.535-.45 1.799-.965h.048v.842h1.388v-4.101c0-1.62-1.321-2.107-2.489-2.107-1.289 0-2.278.575-2.598 1.692l1.349.191c.143-.419.55-.778 1.257-.778.67 0 1.037.343 1.037.946v.024c0 .415-.435.435-1.516.55-1.189.128-2.326.483-2.326 1.863 0 1.205.882 1.843 2.051 1.843zm.375-1.061c-.603 0-1.034-.275-1.034-.806 0-.554.483-.786 1.129-.877.379-.052 1.137-.148 1.325-.3v.723c0 .682-.551 1.26-1.42 1.26zm7.372-5.19h-1.209v-1.468h-1.444v1.468h-.87v1.117h.87v3.407c-.008 1.153.83 1.719 1.915 1.688a2.9 2.9 0 0 0 .85-.144l-.244-1.129c-.079.02-.243.056-.422.056-.364 0-.655-.128-.655-.71v-3.168h1.209v-1.117zm2.784 2.537c0-.885.55-1.396 1.324-1.396.758 0 1.205.483 1.205 1.308v3.679h1.444v-3.902c0-1.48-.838-2.306-2.11-2.306-.942 0-1.54.427-1.823 1.121h-.072v-3.084h-1.412v8.171h1.444v-3.591zm8.158 3.71c1.428 0 2.41-.698 2.665-1.763l-1.348-.152c-.196.519-.675.79-1.297.79-.933 0-1.552-.614-1.564-1.663h4.269v-.443c0-2.15-1.293-3.096-2.801-3.096-1.755 0-2.9 1.289-2.9 3.18 0 1.923 1.129 3.147 2.976 3.147zm-1.54-3.762c.044-.782.623-1.44 1.484-1.44.83 0 1.389.607 1.397 1.44h-2.881zm5.487 3.643h1.444v-3.603c0-.778.586-1.328 1.38-1.328.244 0 .547.044.671.084v-1.329a3.474 3.474 0 0 0-.519-.04c-.702 0-1.289.399-1.512 1.109h-.064v-1.021h-1.4v6.128zm4.454 0h1.444v-6.128h-1.444v6.128zm.726-6.998c.459 0 .834-.351.834-.782 0-.435-.375-.786-.834-.786-.463 0-.838.351-.838.786 0 .431.375.782.838.782zm3.647 3.407c0-.885.535-1.396 1.297-1.396.746 0 1.193.491 1.193 1.308v3.679h1.444v-3.902c.004-1.468-.834-2.306-2.098-2.306-.918 0-1.548.439-1.828 1.121h-.071v-1.041h-1.381v6.128h1.444v-3.591zm8.115 3.71c1.428 0 2.41-.698 2.665-1.763l-1.348-.152c-.196.519-.675.79-1.297.79-.934 0-1.552-.614-1.564-1.663h4.269v-.443c0-2.15-1.293-3.096-2.801-3.096-1.755 0-2.9 1.289-2.9 3.18 0 1.923 1.129 3.147 2.976 3.147zm-1.54-3.762c.044-.782.622-1.44 1.484-1.44.83 0 1.388.607 1.396 1.44h-2.88z" fill="#1E212A"/><rect x="772" y="69" width="147.678" height="89.308" rx="15" stroke="#96989D" stroke-width="2" stroke-dasharray="5 5"/><rect x="1055.84" y="80.839" width="36" height="36" rx="6.42" fill="#EFF0F2"/><path d="M1068.86 93.84a5 5 0 1 1 9.999 0 5 5 0 0 1-9.999 0z" fill="#65676E"/><path d="M1065.3 102.309a5.013 5.013 0 0 1 3.54-1.463h10.02c1.33 0 2.6.527 3.54 1.463a5.023 5.023 0 0 1 1.46 3.533v.995c0 1.106-.9 2.003-2 2.003h-16.02c-1.1 0-2-.897-2-2.003v-.995c0-1.324.53-2.595 1.46-3.533z" fill="#C4C4C4"/><path d="M1064 140.469h3.3c1.88 0 2.79-.954 2.79-2.226 0-1.237-.87-1.963-1.74-2.007v-.08c.79-.187 1.42-.746 1.42-1.739 0-1.217-.87-2.119-2.64-2.119H1064v8.171zm1.48-1.237v-2.394h1.63c.91 0 1.48.559 1.48 1.289 0 .65-.45 1.105-1.52 1.105h-1.59zm0-3.459v-2.254h1.49c.87 0 1.32.459 1.32 1.089 0 .718-.58 1.165-1.35 1.165h-1.46zm8.51 4.815c1.8 0 2.94-1.264 2.94-3.159 0-1.899-1.14-3.168-2.94-3.168s-2.94 1.269-2.94 3.168c0 1.895 1.14 3.159 2.94 3.159zm.01-1.157c-1 0-1.48-.885-1.48-2.006 0-1.121.48-2.019 1.48-2.019.98 0 1.46.898 1.46 2.019s-.48 2.006-1.46 2.006zm4.22 1.038h1.42v-.966h.08c.23.447.7 1.073 1.76 1.073 1.44 0 2.52-1.145 2.52-3.163 0-2.043-1.11-3.152-2.53-3.152-1.08 0-1.53.65-1.75 1.093h-.06v-3.056h-1.44v8.171zm1.41-3.064c0-1.189.51-1.959 1.44-1.959.96 0 1.46.818 1.46 1.959 0 1.149-.5 1.987-1.46 1.987-.92 0-1.44-.798-1.44-1.987z" fill="#1E212A"/><rect x="1000" y="69" width="147.678" height="89.308" rx="15" stroke="#96989D" stroke-width="2" stroke-dasharray="5 5"/><path d="M179 173.321h-1 1zm40 62.257h315v-2H219v2zm354 39v23.193h2v-23.193h-2zm-393-80v-21.257h-2v21.257h2zm393 103.193v2.729h2v-2.729h-2zm-393-124.45V169.5h-2v3.821h2zm354 62.257c21.539 0 39 17.461 39 39h2c0-22.644-18.356-41-41-41v2zm-315-2c-21.539 0-39-17.461-39-39h-2c0 22.644 18.356 41 41 41v-2z" fill="#96989D"/><path d="M336.5 228c0-5.523 4.477-10 10-10h49c5.523 0 10 4.477 10 10v16c0 5.523-4.477 10-10 10h-49c-5.523 0-10-4.477-10-10v-16z" fill="#FFEEED"/><path d="M355.462 241h1.071l1.551-5.447h.111l1.551 5.447h1.071l2.16-7.091h-1.145l-1.532 5.411h-.074l-1.496-5.411h-1.163l-1.514 5.429h-.074l-1.533-5.429h-1.145l2.161 7.091zm9.106 0h1.089v-4.487c0-.96.757-1.662 1.791-1.662.291 0 .591.055.665.074v-1.108a10.693 10.693 0 0 0-.572-.019c-.85 0-1.588.48-1.847 1.182h-.074v-1.071h-1.052V241zm4.986 0h1.09v-7.091h-1.09V241zm.554-8.273c.425 0 .776-.332.776-.738 0-.407-.351-.739-.776-.739-.424 0-.775.332-.775.739 0 .406.351.738.775.738zm5.765 1.182h-1.514v-1.699h-1.089v1.699h-1.071v.923h1.071v4.432c0 1.237.997 1.828 1.92 1.828.406 0 .665-.074.813-.129l-.222-.979c-.092.019-.24.056-.48.056-.48 0-.942-.148-.942-1.071v-4.137h1.514v-.923zm4.686 7.239c1.44 0 2.493-.72 2.825-1.791l-1.052-.296c-.277.739-.919 1.108-1.773 1.108-1.279 0-2.161-.826-2.211-2.345h5.147v-.462c0-2.64-1.57-3.545-3.047-3.545-1.92 0-3.194 1.514-3.194 3.693 0 2.179 1.255 3.638 3.305 3.638zm-2.211-4.266c.074-1.103.854-2.087 2.1-2.087 1.182 0 1.939.887 1.939 2.087h-4.039zm6.954 4.118h1.09v-4.487c0-.96.757-1.662 1.791-1.662.291 0 .591.055.665.074v-1.108a10.696 10.696 0 0 0-.573-.019c-.849 0-1.588.48-1.846 1.182h-.074v-1.071h-1.053V241z" fill="#65676E"/><path d="M442.257 208.578H551v-2H442.257v2zm147.743 39v50.193h2v-50.193h-2zm0 50.193v2.729h2v-2.729h-2zm-181-124.45V169.5h-2v3.821h2zm142 35.257c21.539 0 39 17.461 39 39h2c0-22.644-18.356-41-41-41v2zm-108.743-2c-18.367 0-33.257-14.89-33.257-33.257h-2c0 19.472 15.785 35.257 35.257 35.257v-2z" fill="#96989D"/><path d="M435.5 199c0-5.523 4.477-10 10-10h97c5.523 0 10 4.477 10 10v16c0 5.523-4.477 10-10 10h-97c-5.523 0-10-4.477-10-10v-16z" fill="#FFEEED"/><path d="M453.938 202.545h-1.089V212h1.089v-9.455zm5.119 9.603c1.44 0 2.493-.72 2.825-1.791l-1.052-.296c-.277.739-.919 1.108-1.773 1.108-1.279 0-2.161-.826-2.211-2.345h5.147v-.462c0-2.64-1.57-3.545-3.047-3.545-1.92 0-3.195 1.514-3.195 3.693 0 2.179 1.256 3.638 3.306 3.638zm-2.211-4.266c.073-1.103.854-2.087 2.1-2.087 1.182 0 1.939.887 1.939 2.087h-4.039zm9.816 6.925c1.699 0 3.066-.776 3.066-2.604v-7.294h-1.053v1.127h-.111c-.24-.37-.683-1.219-2.068-1.219-1.791 0-3.028 1.422-3.028 3.601 0 2.216 1.293 3.471 3.01 3.471 1.385 0 1.828-.812 2.068-1.2h.092v1.44c0 1.182-.831 1.718-1.976 1.718-1.287 0-1.74-.679-2.031-1.071l-.868.609c.444.743 1.316 1.422 2.899 1.422zm-.036-3.896c-1.367 0-2.069-1.035-2.069-2.512 0-1.44.684-2.604 2.069-2.604 1.329 0 2.031 1.071 2.031 2.604 0 1.57-.72 2.512-2.031 2.512zm7.333 1.255c1.237 0 1.883-.665 2.105-1.126h.055v.96h1.09v-4.672c0-2.253-1.718-2.511-2.622-2.511-1.071 0-2.29.369-2.844 1.662l1.034.369c.24-.517.808-1.071 1.847-1.071 1.001 0 1.495.531 1.495 1.44v.037c0 .527-.535.48-1.828.647-1.316.17-2.751.461-2.751 2.086 0 1.385 1.071 2.179 2.419 2.179zm.166-.979c-.868 0-1.496-.387-1.496-1.144 0-.831.757-1.09 1.607-1.201.461-.055 1.699-.184 1.883-.406v.997c0 .887-.701 1.754-1.994 1.754zm8.103.961c1.57 0 2.604-.961 2.788-2.216h-1.089c-.203.775-.85 1.237-1.699 1.237-1.293 0-2.124-1.071-2.124-2.714 0-1.607.85-2.66 2.124-2.66.96 0 1.533.591 1.699 1.238h1.089c-.184-1.33-1.311-2.216-2.806-2.216-1.921 0-3.195 1.514-3.195 3.674 0 2.124 1.219 3.657 3.213 3.657zm5.233 2.493c.983 0 1.68-.522 2.086-1.607l3.02-8.106-1.191-.019-1.958 5.651h-.074l-1.957-5.651h-1.182l2.622 7.128-.203.554c-.388 1.062-.886 1.163-1.68.96l-.277.96c.111.056.424.13.794.13zM498.023 212h-5.909v1.016h5.909V212zm3.221.166c1.238 0 1.884-.665 2.105-1.126h.056v.96h1.089v-4.672c0-2.253-1.717-2.511-2.622-2.511-1.071 0-2.29.369-2.844 1.662l1.035.369c.24-.517.807-1.071 1.846-1.071 1.002 0 1.496.531 1.496 1.44v.037c0 .527-.536.48-1.828.647-1.316.17-2.752.461-2.752 2.086 0 1.385 1.071 2.179 2.419 2.179zm.167-.979c-.868 0-1.496-.387-1.496-1.144 0-.831.757-1.09 1.606-1.201.462-.055 1.699-.184 1.884-.406v.997c0 .887-.702 1.754-1.994 1.754zm7.899.961c1.367 0 1.829-.85 2.069-1.237h.129V212h1.052v-9.455h-1.089v3.491h-.092c-.24-.37-.665-1.219-2.05-1.219-1.791 0-3.028 1.422-3.028 3.656 0 2.253 1.237 3.675 3.009 3.675zm.148-.979c-1.366 0-2.068-1.2-2.068-2.714 0-1.496.683-2.66 2.068-2.66 1.33 0 2.031 1.071 2.031 2.66 0 1.606-.72 2.714-2.031 2.714zm5.399.831h1.09v-4.432c0-1.039.757-1.773 1.606-1.773.826 0 1.404.541 1.404 1.348V212h1.108v-4.616c0-.915.572-1.589 1.569-1.589.776 0 1.44.411 1.44 1.459V212h1.09v-4.746c0-1.666-.896-2.437-2.161-2.437-1.015 0-1.758.466-2.123 1.2h-.074c-.351-.757-.969-1.2-1.902-1.2-.923 0-1.607.443-1.902 1.2h-.092v-1.108h-1.053V212zm11.449 0h1.089v-7.091h-1.089V212zm.554-8.273c.425 0 .775-.332.775-.738 0-.407-.35-.739-.775-.739-.425 0-.776.332-.776.739 0 .406.351.738.776.738zm3.77 4.007c0-1.237.767-1.939 1.81-1.939 1.011 0 1.625.661 1.625 1.773V212h1.09v-4.506c0-1.809-.965-2.677-2.401-2.677-1.071 0-1.736.48-2.068 1.2h-.093v-1.108h-1.052V212h1.089v-4.266z" fill="#65676E"/><path d="M442.257 208.578H551v-2H442.257v2zm147.743 39v50.193h2v-50.193h-2zm0 50.193v2.729h2v-2.729h-2zm-181-124.45V169.5h-2v3.821h2zm142 35.257c21.539 0 39 17.461 39 39h2c0-22.644-18.356-41-41-41v2zm-108.743-2c-18.367 0-33.257-14.89-33.257-33.257h-2c0 19.472 15.785 35.257 35.257 35.257v-2z" fill="#96989D"/><path d="M435.5 199c0-5.523 4.477-10 10-10h97c5.523 0 10 4.477 10 10v16c0 5.523-4.477 10-10 10h-97c-5.523 0-10-4.477-10-10v-16z" fill="#EFF0F2"/><path d="M453.938 202.545h-1.089V212h1.089v-9.455zm5.119 9.603c1.44 0 2.493-.72 2.825-1.791l-1.052-.296c-.277.739-.919 1.108-1.773 1.108-1.279 0-2.161-.826-2.211-2.345h5.147v-.462c0-2.64-1.57-3.545-3.047-3.545-1.92 0-3.195 1.514-3.195 3.693 0 2.179 1.256 3.638 3.306 3.638zm-2.211-4.266c.073-1.103.854-2.087 2.1-2.087 1.182 0 1.939.887 1.939 2.087h-4.039zm9.816 6.925c1.699 0 3.066-.776 3.066-2.604v-7.294h-1.053v1.127h-.111c-.24-.37-.683-1.219-2.068-1.219-1.791 0-3.028 1.422-3.028 3.601 0 2.216 1.293 3.471 3.01 3.471 1.385 0 1.828-.812 2.068-1.2h.092v1.44c0 1.182-.831 1.718-1.976 1.718-1.287 0-1.74-.679-2.031-1.071l-.868.609c.444.743 1.316 1.422 2.899 1.422zm-.036-3.896c-1.367 0-2.069-1.035-2.069-2.512 0-1.44.684-2.604 2.069-2.604 1.329 0 2.031 1.071 2.031 2.604 0 1.57-.72 2.512-2.031 2.512zm7.333 1.255c1.237 0 1.883-.665 2.105-1.126h.055v.96h1.09v-4.672c0-2.253-1.718-2.511-2.622-2.511-1.071 0-2.29.369-2.844 1.662l1.034.369c.24-.517.808-1.071 1.847-1.071 1.001 0 1.495.531 1.495 1.44v.037c0 .527-.535.48-1.828.647-1.316.17-2.751.461-2.751 2.086 0 1.385 1.071 2.179 2.419 2.179zm.166-.979c-.868 0-1.496-.387-1.496-1.144 0-.831.757-1.09 1.607-1.201.461-.055 1.699-.184 1.883-.406v.997c0 .887-.701 1.754-1.994 1.754zm8.103.961c1.57 0 2.604-.961 2.788-2.216h-1.089c-.203.775-.85 1.237-1.699 1.237-1.293 0-2.124-1.071-2.124-2.714 0-1.607.85-2.66 2.124-2.66.96 0 1.533.591 1.699 1.238h1.089c-.184-1.33-1.311-2.216-2.806-2.216-1.921 0-3.195 1.514-3.195 3.674 0 2.124 1.219 3.657 3.213 3.657zm5.233 2.493c.983 0 1.68-.522 2.086-1.607l3.02-8.106-1.191-.019-1.958 5.651h-.074l-1.957-5.651h-1.182l2.622 7.128-.203.554c-.388 1.062-.886 1.163-1.68.96l-.277.96c.111.056.424.13.794.13zM498.023 212h-5.909v1.016h5.909V212zm3.221.166c1.238 0 1.884-.665 2.105-1.126h.056v.96h1.089v-4.672c0-2.253-1.717-2.511-2.622-2.511-1.071 0-2.29.369-2.844 1.662l1.035.369c.24-.517.807-1.071 1.846-1.071 1.002 0 1.496.531 1.496 1.44v.037c0 .527-.536.48-1.828.647-1.316.17-2.752.461-2.752 2.086 0 1.385 1.071 2.179 2.419 2.179zm.167-.979c-.868 0-1.496-.387-1.496-1.144 0-.831.757-1.09 1.606-1.201.462-.055 1.699-.184 1.884-.406v.997c0 .887-.702 1.754-1.994 1.754zm7.899.961c1.367 0 1.829-.85 2.069-1.237h.129V212h1.052v-9.455h-1.089v3.491h-.092c-.24-.37-.665-1.219-2.05-1.219-1.791 0-3.028 1.422-3.028 3.656 0 2.253 1.237 3.675 3.009 3.675zm.148-.979c-1.366 0-2.068-1.2-2.068-2.714 0-1.496.683-2.66 2.068-2.66 1.33 0 2.031 1.071 2.031 2.66 0 1.606-.72 2.714-2.031 2.714zm5.399.831h1.09v-4.432c0-1.039.757-1.773 1.606-1.773.826 0 1.404.541 1.404 1.348V212h1.108v-4.616c0-.915.572-1.589 1.569-1.589.776 0 1.44.411 1.44 1.459V212h1.09v-4.746c0-1.666-.896-2.437-2.161-2.437-1.015 0-1.758.466-2.123 1.2h-.074c-.351-.757-.969-1.2-1.902-1.2-.923 0-1.607.443-1.902 1.2h-.092v-1.108h-1.053V212zm11.449 0h1.089v-7.091h-1.089V212zm.554-8.273c.425 0 .775-.332.775-.738 0-.407-.35-.739-.775-.739-.425 0-.776.332-.776.739 0 .406.351.738.776.738zm3.77 4.007c0-1.237.767-1.939 1.81-1.939 1.011 0 1.625.661 1.625 1.773V212h1.09v-4.506c0-1.809-.965-2.677-2.401-2.677-1.071 0-1.736.48-2.068 1.2h-.093v-1.108h-1.052V212h1.089v-4.266z" fill="#65676E"/><path d="M812.743 208.578H713v-2h99.743v2zm-138.743 39v50.193h-2v-50.193h2zm0 50.193v2.729h-2v-2.729h2zm172-124.45V169.5h2v3.821h-2zm-133 35.257c-21.539 0-39 17.461-39 39h-2c0-22.644 18.356-41 41-41v2zm99.743-2c18.367 0 33.257-14.89 33.257-33.257h2c0 19.472-15.785 35.257-35.257 35.257v-2z" fill="#96989D"/><path d="M723 198c0-5.523 4.477-10 10-10h64c5.523 0 10 4.477 10 10v16c0 5.523-4.477 10-10 10h-64c-5.523 0-10-4.477-10-10v-16z" fill="#EFF0F2"/><path d="M740.301 211h1.09v-4.432c0-1.039.757-1.773 1.606-1.773.827 0 1.404.541 1.404 1.348V211h1.108v-4.616c0-.915.572-1.589 1.569-1.589.776 0 1.441.411 1.441 1.459V211h1.089v-4.746c0-1.666-.895-2.437-2.16-2.437-1.016 0-1.759.466-2.124 1.2h-.074c-.351-.757-.969-1.2-1.902-1.2-.923 0-1.606.443-1.902 1.2h-.092v-1.108h-1.053V211zm14.422.148c1.441 0 2.493-.72 2.825-1.791l-1.052-.296c-.277.739-.919 1.108-1.773 1.108-1.279 0-2.16-.826-2.211-2.345h5.147v-.462c0-2.64-1.569-3.545-3.047-3.545-1.92 0-3.194 1.514-3.194 3.693 0 2.179 1.255 3.638 3.305 3.638zm-2.211-4.266c.074-1.103.854-2.087 2.1-2.087 1.182 0 1.939.887 1.939 2.087h-4.039zm6.955 4.118h1.089v-4.432c0-1.039.757-1.773 1.607-1.773.826 0 1.403.541 1.403 1.348V211h1.108v-4.616c0-.915.572-1.589 1.57-1.589.775 0 1.44.411 1.44 1.459V211h1.089v-4.746c0-1.666-.895-2.437-2.16-2.437-1.016 0-1.759.466-2.124 1.2h-.074c-.35-.757-.969-1.2-1.902-1.2-.923 0-1.606.443-1.902 1.2h-.092v-1.108h-1.052V211zm11.596 0h1.053v-1.089h.129c.24.387.702 1.237 2.068 1.237 1.773 0 3.01-1.422 3.01-3.675 0-2.234-1.237-3.656-3.028-3.656-1.385 0-1.81.849-2.05 1.219h-.092v-3.491h-1.09V211zm1.071-3.545c0-1.589.702-2.66 2.031-2.66 1.385 0 2.069 1.164 2.069 2.66 0 1.514-.702 2.714-2.069 2.714-1.311 0-2.031-1.108-2.031-2.714zm9.979 3.693c1.44 0 2.493-.72 2.825-1.791l-1.053-.296c-.277.739-.918 1.108-1.772 1.108-1.279 0-2.161-.826-2.212-2.345h5.148v-.462c0-2.64-1.57-3.545-3.047-3.545-1.921 0-3.195 1.514-3.195 3.693 0 2.179 1.256 3.638 3.306 3.638zm-2.212-4.266c.074-1.103.854-2.087 2.101-2.087 1.182 0 1.939.887 1.939 2.087h-4.04zm6.955 4.118h1.09v-4.487c0-.96.757-1.662 1.791-1.662.291 0 .591.055.665.074v-1.108a10.696 10.696 0 0 0-.573-.019c-.849 0-1.588.48-1.847 1.182h-.073v-1.071h-1.053V211z" fill="#65676E"/><path d="M676 173.321h-1 1zM1011.23 262v1-1zM716 262v1-1zm0 1h295.23v-2H716v2zm-39-41v-48.679h-2V222h2zm369 75.771v2.729h2v-2.729h-2zm-369-124.45V169.5h-2v3.821h2zM1011.23 263c19.2 0 34.77 15.567 34.77 34.771h2c0-20.308-16.46-36.771-36.77-36.771v2zM716 261c-21.539 0-39-17.461-39-39h-2c0 22.644 18.356 41 41 41v-2z" fill="#96989D"/><path d="M821.5 254c0-5.523 4.477-10 10-10h49c5.523 0 10 4.477 10 10v16c0 5.523-4.477 10-10 10h-49c-5.523 0-10-4.477-10-10v-16z" fill="#FCF7E4"/><path d="M840.462 267h1.071l1.551-5.447h.111l1.551 5.447h1.071l2.16-7.091h-1.145l-1.532 5.411h-.074l-1.496-5.411h-1.163l-1.514 5.429h-.074l-1.533-5.429h-1.145l2.161 7.091zm9.106 0h1.089v-4.487c0-.96.757-1.662 1.791-1.662.291 0 .591.055.665.074v-1.108a10.693 10.693 0 0 0-.572-.019c-.85 0-1.588.48-1.847 1.182h-.074v-1.071h-1.052V267zm4.986 0h1.09v-7.091h-1.09V267zm.554-8.273c.425 0 .776-.332.776-.738 0-.407-.351-.739-.776-.739-.424 0-.775.332-.775.739 0 .406.351.738.775.738zm5.765 1.182h-1.514v-1.699h-1.089v1.699h-1.071v.923h1.071v4.432c0 1.237.997 1.828 1.92 1.828.406 0 .665-.074.813-.129l-.222-.979c-.092.019-.24.056-.48.056-.48 0-.942-.148-.942-1.071v-4.137h1.514v-.923zm4.686 7.239c1.44 0 2.493-.72 2.825-1.791l-1.052-.296c-.277.739-.919 1.108-1.773 1.108-1.279 0-2.161-.826-2.211-2.345h5.147v-.462c0-2.64-1.57-3.545-3.047-3.545-1.92 0-3.194 1.514-3.194 3.693 0 2.179 1.255 3.638 3.305 3.638zm-2.211-4.266c.074-1.103.854-2.087 2.1-2.087 1.182 0 1.939.887 1.939 2.087h-4.039zm6.954 4.118h1.09v-4.487c0-.96.757-1.662 1.791-1.662.291 0 .591.055.665.074v-1.108a10.696 10.696 0 0 0-.573-.019c-.849 0-1.588.48-1.846 1.182h-.074v-1.071h-1.053V267z" fill="#65676E"/><path d="M1039 293l8.06 8.056 8.05-8.056" stroke="#96989D" stroke-width="2"/><path d="M360.943 209.378H221v-2h139.943v2zm-178.943 39v49.393h-2v-49.393h2zm0 49.393v2.729h-2v-2.729h2zm213-124.45V169.5h2v3.821h-2zm-174 36.057c-21.539 0-39 17.461-39 39h-2c0-22.644 18.356-41 41-41v2zm139.943-2c18.809 0 34.057-15.248 34.057-34.057h2c0 19.914-16.143 36.057-36.057 36.057v-2z" fill="#96989D"/><path d="M173 293l8.056 8.056 8.057-8.056" stroke="#96989D" stroke-width="2"/><path d="M248.5 203c0-5.523 4.477-10 10-10h49c5.523 0 10 4.477 10 10v16c0 5.523-4.477 10-10 10h-49c-5.523 0-10-4.477-10-10v-16z" fill="#D8F4FB"/><path d="M267.462 216h1.071l1.551-5.447h.111l1.551 5.447h1.071l2.16-7.091h-1.145l-1.532 5.411h-.074l-1.496-5.411h-1.163l-1.514 5.429h-.074l-1.533-5.429h-1.145l2.161 7.091zm9.106 0h1.089v-4.487c0-.96.757-1.662 1.791-1.662.291 0 .591.055.665.074v-1.108a10.693 10.693 0 0 0-.572-.019c-.85 0-1.588.48-1.847 1.182h-.074v-1.071h-1.052V216zm4.986 0h1.09v-7.091h-1.09V216zm.554-8.273c.425 0 .776-.332.776-.738 0-.407-.351-.739-.776-.739-.424 0-.775.332-.775.739 0 .406.351.738.775.738zm5.765 1.182h-1.514v-1.699h-1.089v1.699h-1.071v.923h1.071v4.432c0 1.237.997 1.828 1.92 1.828.406 0 .665-.074.813-.129l-.222-.979c-.092.019-.24.056-.48.056-.48 0-.942-.148-.942-1.071v-4.137h1.514v-.923zm4.686 7.239c1.44 0 2.493-.72 2.825-1.791l-1.052-.296c-.277.739-.919 1.108-1.773 1.108-1.279 0-2.161-.826-2.211-2.345h5.147v-.462c0-2.64-1.57-3.545-3.047-3.545-1.92 0-3.194 1.514-3.194 3.693 0 2.179 1.255 3.638 3.305 3.638zm-2.211-4.266c.074-1.103.854-2.087 2.1-2.087 1.182 0 1.939.887 1.939 2.087h-4.039zm6.954 4.118h1.09v-4.487c0-.96.757-1.662 1.791-1.662.291 0 .591.055.665.074v-1.108a10.696 10.696 0 0 0-.573-.019c-.849 0-1.588.48-1.846 1.182h-.074v-1.071h-1.053V216z" fill="#65676E"/><path d="M574 173.321h1-1zm-40 94.883H211.567v-2H534v2zm39-41v-53.883h2v53.883h-2zm-391 70.567v2.729h-2v-2.729h2zm391-124.45V169.5h2v3.821h-2zm-361.433 94.883c-16.33 0-29.567 13.238-29.567 29.567h-2c0-17.434 14.133-31.567 31.567-31.567v2zm322.433-2c21.539 0 39-17.461 39-39h2c0 22.644-18.356 41-41 41v-2z" fill="#96989D"/><path d="M173 293l8.056 8.056 8.057-8.056" stroke="#96989D" stroke-width="2"/><path d="M458 259c0-5.523 4.477-10 10-10h49c5.523 0 10 4.477 10 10v16c0 5.523-4.477 10-10 10h-49c-5.523 0-10-4.477-10-10v-16z" fill="#D8F4FB"/><path d="M476.962 272h1.071l1.551-5.447h.111l1.551 5.447h1.071l2.16-7.091h-1.145l-1.532 5.411h-.074l-1.496-5.411h-1.163l-1.514 5.429h-.074l-1.533-5.429h-1.145l2.161 7.091zm9.106 0h1.089v-4.487c0-.96.757-1.662 1.791-1.662.291 0 .591.055.665.074v-1.108a10.693 10.693 0 0 0-.572-.019c-.85 0-1.588.48-1.847 1.182h-.074v-1.071h-1.052V272zm4.986 0h1.09v-7.091h-1.09V272zm.554-8.273c.425 0 .776-.332.776-.738 0-.407-.351-.739-.776-.739-.424 0-.775.332-.775.739 0 .406.351.738.775.738zm5.765 1.182h-1.514v-1.699h-1.089v1.699h-1.071v.923h1.071v4.432c0 1.237.997 1.828 1.92 1.828.406 0 .665-.074.813-.129l-.222-.979c-.092.019-.24.056-.48.056-.48 0-.942-.148-.942-1.071v-4.137h1.514v-.923zm4.686 7.239c1.44 0 2.493-.72 2.825-1.791l-1.052-.296c-.277.739-.919 1.108-1.773 1.108-1.279 0-2.161-.826-2.211-2.345h5.147v-.462c0-2.64-1.57-3.545-3.047-3.545-1.92 0-3.194 1.514-3.194 3.693 0 2.179 1.255 3.638 3.305 3.638zm-2.211-4.266c.074-1.103.854-2.087 2.1-2.087 1.182 0 1.939.887 1.939 2.087h-4.039zm6.954 4.118h1.09v-4.487c0-.96.757-1.662 1.791-1.662.291 0 .591.055.665.074v-1.108a10.696 10.696 0 0 0-.573-.019c-.849 0-1.588.48-1.846 1.182h-.074v-1.071h-1.053V272z" fill="#65676E"/><path d="M566 293l8.056 8.056 8.057-8.056" stroke="#96989D" stroke-width="2"/><path d="M85 311h1076c8.84 0 16 7.163 16 16v90c0 8.837-7.16 16-16 16H85V311z" fill="#C9CACE" opacity=".3"/><path d="M49 433c-5.523 0-10-4.477-10-10V321c0-5.523 4.477-10 10-10h46v122H49z" fill="#676C74"/><path d="M62 405.288v-1.071l-5.447-1.551v-.111L62 401.004v-1.071l-7.09-2.161v1.145l5.41 1.533v.074l-5.41 1.496v1.163l5.428 1.514v.074l-5.429 1.533v1.145L62 405.288zm.148-11.745c0-1.921-1.46-3.213-3.657-3.213-2.215 0-3.674 1.292-3.674 3.213 0 1.92 1.459 3.213 3.675 3.213 2.197 0 3.656-1.293 3.656-3.213zm-.979 0c0 1.458-1.256 2.123-2.677 2.123-1.422 0-2.697-.665-2.697-2.123 0-1.459 1.275-2.124 2.697-2.124 1.421 0 2.677.665 2.677 2.124zm.831-5.026v-1.09h-4.487c-.96 0-1.662-.757-1.662-1.791 0-.291.055-.591.074-.665h-1.108c-.01.125-.019.411-.019.573 0 .849.48 1.588 1.182 1.846v.074h-1.07v1.053H62zm0-4.987v-1.09h-2.654l-.707-.762L62 379.024v-1.385l-4.063 3.218-3.028-2.996v1.348l3.158 3.102v.129h-5.522v1.09H62zm-5.503-12.244c-1.006.341-1.68 1.108-1.68 2.511 0 1.496.85 2.604 2.05 2.604.978 0 1.634-.582 1.938-1.884l.277-1.182c.167-.715.508-1.052.998-1.052.609 0 1.108.646 1.108 1.662 0 .891-.384 1.449-1.145 1.643l.258 1.034c1.205-.254 1.847-1.246 1.847-2.696 0-1.648-.9-2.77-2.124-2.77-.988 0-1.611.619-1.92 1.884l-.259 1.052c-.208.841-.49 1.219-1.034 1.219-.61 0-1.053-.646-1.053-1.514 0-.951.527-1.343 1.016-1.533l-.277-.978zm8.162-1.92v-1.089H60.91v-.093c.388-.24 1.238-.701 1.238-2.068 0-1.772-1.422-3.01-3.675-3.01-2.234 0-3.656 1.238-3.656 3.029 0 1.385.85 1.809 1.218 2.049v.13H54.91v1.052h9.75zm-6.205-1.071c-1.587 0-2.659-.701-2.659-2.031 0-1.385 1.164-2.068 2.66-2.068 1.514 0 2.714.702 2.714 2.068 0 1.311-1.108 2.031-2.714 2.031zm3.712-9.087c0-1.237-.665-1.884-1.126-2.105v-.056H62v-1.089h-4.672c-2.253 0-2.511 1.717-2.511 2.622 0 1.071.37 2.29 1.662 2.844l.369-1.034c-.517-.24-1.071-.808-1.071-1.847 0-1.002.53-1.496 1.44-1.496h.037c.527 0 .48.536.647 1.828.17 1.316.461 2.752 2.086 2.752 1.385 0 2.18-1.071 2.18-2.419zm-.978-.166c0 .867-.388 1.495-1.145 1.495-.831 0-1.09-.757-1.2-1.606-.056-.462-.185-1.699-.407-1.884h.997c.887 0 1.755.702 1.755 1.995zm.96-8.103c0-1.57-.96-2.604-2.216-2.789v1.09c.775.203 1.237.849 1.237 1.699 0 1.292-1.071 2.123-2.714 2.123-1.607 0-2.66-.849-2.66-2.123 0-.961.591-1.533 1.238-1.699v-1.09c-1.33.185-2.216 1.311-2.216 2.807 0 1.92 1.514 3.195 3.675 3.195 2.123 0 3.656-1.219 3.656-3.213zm0-7.504c0-1.441-.72-2.493-1.792-2.826l-.295 1.053c.739.277 1.108.918 1.108 1.773 0 1.278-.826 2.16-2.345 2.211v-5.148h-.462c-2.64 0-3.545 1.57-3.545 3.047 0 1.921 1.514 3.195 3.693 3.195 2.179 0 3.638-1.256 3.638-3.305zm-4.266 2.211c-1.103-.074-2.087-.854-2.087-2.101 0-1.182.887-1.939 2.087-1.939v4.04zm4.192-7.749a.834.834 0 0 0-.831-.831.834.834 0 0 0-.831.831c0 .457.374.831.83.831a.834.834 0 0 0 .832-.831zm-5.263 0a.834.834 0 0 0-.83-.831.834.834 0 0 0-.832.831c0 .457.374.831.831.831a.834.834 0 0 0 .831-.831zm19.686 62.109c-1.006.341-1.68 1.108-1.68 2.511 0 1.496.85 2.604 2.05 2.604.978 0 1.634-.582 1.938-1.884l.277-1.182c.167-.715.508-1.052.998-1.052.609 0 1.108.646 1.108 1.662 0 .891-.384 1.449-1.145 1.643l.258 1.034c1.205-.254 1.847-1.246 1.847-2.696 0-1.648-.9-2.77-2.124-2.77-.988 0-1.611.619-1.92 1.884l-.259 1.053c-.208.84-.49 1.218-1.034 1.218-.61 0-1.053-.646-1.053-1.514 0-.951.527-1.343 1.016-1.533l-.277-.978zm5.67-4.006c0-1.237-.666-1.884-1.127-2.105v-.056H82v-1.089h-4.672c-2.253 0-2.511 1.717-2.511 2.622 0 1.071.37 2.29 1.662 2.844l.369-1.034c-.517-.24-1.071-.808-1.071-1.847 0-1.002.53-1.496 1.44-1.496h.037c.526 0 .48.536.647 1.828.17 1.316.461 2.752 2.086 2.752 1.385 0 2.18-1.071 2.18-2.419zm-.98-.166c0 .867-.387 1.495-1.144 1.495-.831 0-1.09-.757-1.2-1.606-.056-.462-.185-1.699-.407-1.884h.997c.887 0 1.754.702 1.754 1.995zm-3.453-6.312c-1.237 0-1.938-.767-1.938-1.81 0-1.011.66-1.625 1.772-1.625H82v-1.089h-4.506c-1.81 0-2.677.964-2.677 2.4 0 1.071.48 1.736 1.2 2.068v.093h-1.108v1.052H82v-1.089h-4.266zm4.414-9.343c0-1.366-.85-1.828-1.237-2.068v-.129H82v-1.053h-9.454v1.09h3.49v.092c-.37.24-1.22.665-1.22 2.05 0 1.791 1.423 3.028 3.657 3.028 2.253 0 3.675-1.237 3.675-3.01zm-.979-.148c0 1.367-1.2 2.069-2.715 2.069-1.495 0-2.658-.684-2.658-2.069 0-1.329 1.07-2.031 2.658-2.031 1.607 0 2.715.72 2.715 2.031zm.979-8.279c0-1.57-.96-2.604-2.216-2.789v1.09c.775.203 1.237.849 1.237 1.699 0 1.292-1.071 2.123-2.715 2.123-1.606 0-2.658-.849-2.658-2.123 0-.96.59-1.533 1.237-1.699v-1.09c-1.33.185-2.216 1.312-2.216 2.807 0 1.921 1.514 3.195 3.675 3.195 2.123 0 3.656-1.219 3.656-3.213zm.018-6.618c0-1.237-.665-1.883-1.126-2.105v-.055H82v-1.09h-4.672c-2.253 0-2.511 1.717-2.511 2.622 0 1.071.37 2.29 1.662 2.844l.369-1.034c-.517-.24-1.071-.808-1.071-1.847 0-1.001.53-1.495 1.44-1.495h.037c.526 0 .48.535.647 1.828.17 1.315.461 2.751 2.086 2.751 1.385 0 2.18-1.071 2.18-2.419zm-.978-.166c0 .868-.388 1.496-1.145 1.496-.831 0-1.09-.757-1.2-1.607-.056-.461-.185-1.699-.407-1.883h.997c.887 0 1.754.701 1.754 1.994zm-4.69-10.245c-1.007.342-1.681 1.108-1.681 2.511 0 1.496.85 2.604 2.05 2.604.978 0 1.634-.582 1.938-1.884l.277-1.181c.167-.716.508-1.053.998-1.053.609 0 1.108.646 1.108 1.662 0 .891-.384 1.45-1.145 1.643l.258 1.035c1.205-.254 1.847-1.247 1.847-2.696 0-1.649-.9-2.77-2.124-2.77-.988 0-1.611.618-1.92 1.883l-.259 1.053c-.208.84-.49 1.218-1.034 1.218-.61 0-1.053-.646-1.053-1.514 0-.951.527-1.343 1.016-1.532l-.277-.979zm-1.589-5.003v1.514H73.21v1.09h1.7v1.071h.922v-1.071h4.432c1.237 0 1.828-.998 1.828-1.921a2.25 2.25 0 0 0-.129-.812l-.979.221c.019.092.056.24.056.48 0 .48-.148.942-1.071.942h-4.137v-1.514h-.923zm-2.364-3.031v1.09H82v-1.09h-9.454zm9.603-5.118c0-1.441-.72-2.493-1.791-2.826l-.296 1.053c.739.277 1.108.919 1.108 1.773 0 1.278-.826 2.16-2.345 2.211v-5.147h-.462c-2.64 0-3.545 1.569-3.545 3.046 0 1.921 1.514 3.195 3.693 3.195 2.179 0 3.638-1.256 3.638-3.305zm-4.266 2.211c-1.103-.074-2.087-.854-2.087-2.101 0-1.181.887-1.938 2.087-1.938v4.039z" fill="#fff"/><path d="M583 293l8.056 8.056 8.057-8.056M617 293l8.056 8.056 8.057-8.056M1066 293l8.06 8.056 8.05-8.056M665 293l8.056 8.056 8.057-8.056" stroke="#96989D" stroke-width="2"/><rect x="106" y="328" width="147.678" height="89.308" rx="15" fill="#D8F4FB"/><rect x="161.839" y="339.839" width="36" height="36" rx="6.42" fill="#3A3E44"/><path d="M171.839 354.839h16m-16 6h16m-10-12l-2 18m8-18l-2 18" stroke="#D8F4FB" stroke-width="1.5" stroke-linecap="round" stroke-linejoin="round"/><path d="M139.622 399.588c1.54 0 2.521-.913 2.625-2.214h-1.38c-.124.659-.599 1.038-1.233 1.038-.902 0-1.484-.754-1.484-2.007 0-1.237.594-1.979 1.484-1.979.694 0 1.121.447 1.233 1.037h1.38c-.1-1.328-1.137-2.202-2.633-2.202-1.795 0-2.928 1.297-2.928 3.168 0 1.855 1.105 3.159 2.936 3.159zm5.255-3.71c0-.885.551-1.396 1.325-1.396.758 0 1.205.483 1.205 1.308v3.679h1.444v-3.902c0-1.48-.838-2.306-2.111-2.306-.941 0-1.54.427-1.823 1.121h-.072v-3.084h-1.412v8.171h1.444v-3.591zm7.209 3.714c.962 0 1.536-.45 1.799-.965h.048v.842h1.389v-4.101c0-1.62-1.321-2.107-2.49-2.107-1.288 0-2.278.575-2.597 1.692l1.349.191c.143-.419.55-.778 1.256-.778.67 0 1.037.343 1.037.946v.024c0 .415-.434.435-1.516.55-1.188.128-2.325.483-2.325 1.863 0 1.205.881 1.843 2.05 1.843zm.375-1.061c-.602 0-1.033-.275-1.033-.806 0-.554.483-.786 1.129-.877.379-.052 1.137-.148 1.324-.3v.723c0 .682-.55 1.26-1.42 1.26zm5.757-2.653c0-.885.535-1.396 1.297-1.396.746 0 1.192.491 1.192 1.308v3.679h1.445v-3.902c.004-1.468-.834-2.306-2.099-2.306-.917 0-1.548.439-1.827 1.121h-.072v-1.041h-1.38v6.128h1.444v-3.591zm6.846 0c0-.885.534-1.396 1.296-1.396.747 0 1.193.491 1.193 1.308v3.679h1.445v-3.902c.003-1.468-.834-2.306-2.099-2.306-.918 0-1.548.439-1.827 1.121H165v-1.041h-1.38v6.128h1.444v-3.591zm8.114 3.71c1.429 0 2.41-.698 2.665-1.763l-1.348-.152c-.195.519-.674.79-1.297.79-.933 0-1.551-.614-1.563-1.663h4.268v-.443c0-2.15-1.292-3.096-2.8-3.096-1.756 0-2.901 1.289-2.901 3.18 0 1.923 1.129 3.147 2.976 3.147zm-1.539-3.762c.043-.782.622-1.44 1.484-1.44.829 0 1.388.607 1.396 1.44h-2.88zm6.93-4.528h-1.444v8.171h1.444v-8.171zm2.375 8.259a.888.888 0 0 0 .878-.878.887.887 0 0 0-.878-.87.871.871 0 0 0-.878.87.873.873 0 0 0 .878.878zm0-4.377a.888.888 0 0 0 .878-.878.887.887 0 0 0-.878-.869.87.87 0 0 0-.878.869.873.873 0 0 0 .878.878zm5.034 6.69c1.655 0 2.876-.758 2.876-2.302v-6.227h-1.424v1.013h-.08c-.219-.443-.678-1.093-1.759-1.093-1.417 0-2.53 1.109-2.53 3.124 0 1.999 1.113 2.996 2.526 2.996 1.049 0 1.54-.563 1.763-1.013h.072v1.161c0 .877-.599 1.248-1.42 1.248-.87 0-1.253-.411-1.429-.746l-1.3.315c.263.834 1.145 1.524 2.705 1.524zm.012-3.622c-.954 0-1.457-.742-1.457-1.871 0-1.113.495-1.931 1.457-1.931.929 0 1.44.77 1.44 1.931 0 1.169-.519 1.871-1.44 1.871zm7.057 1.34c1.428 0 2.41-.698 2.665-1.763l-1.349-.152c-.195.519-.674.79-1.296.79-.934 0-1.552-.614-1.564-1.663h4.269v-.443c0-2.15-1.293-3.096-2.801-3.096-1.755 0-2.9 1.289-2.9 3.18 0 1.923 1.129 3.147 2.976 3.147zm-1.54-3.762c.044-.782.622-1.44 1.484-1.44.83 0 1.388.607 1.396 1.44h-2.88zm6.931.052c0-.885.534-1.396 1.296-1.396.746 0 1.193.491 1.193 1.308v3.679h1.444v-3.902c.004-1.468-.833-2.306-2.098-2.306-.918 0-1.548.439-1.827 1.121h-.072v-1.041h-1.38v6.128h1.444v-3.591zm8.114 3.71c1.429 0 2.41-.698 2.665-1.763l-1.348-.152c-.196.519-.674.79-1.297.79-.933 0-1.552-.614-1.564-1.663h4.269v-.443c0-2.15-1.292-3.096-2.8-3.096-1.756 0-2.901 1.289-2.901 3.18 0 1.923 1.129 3.147 2.976 3.147zm-1.54-3.762c.044-.782.623-1.44 1.484-1.44.83 0 1.389.607 1.397 1.44h-2.881zm5.487 3.643h1.444v-3.603c0-.778.586-1.328 1.38-1.328.244 0 .547.044.671.084v-1.329a3.463 3.463 0 0 0-.519-.04c-.702 0-1.289.399-1.512 1.109h-.064v-1.021h-1.4v6.128zm6.097.123c.961 0 1.536-.45 1.799-.965h.048v.842h1.388v-4.101c0-1.62-1.32-2.107-2.489-2.107-1.289 0-2.278.575-2.597 1.692l1.348.191c.144-.419.551-.778 1.257-.778.67 0 1.037.343 1.037.946v.024c0 .415-.435.435-1.516.55-1.189.128-2.326.483-2.326 1.863 0 1.205.882 1.843 2.051 1.843zm.375-1.061c-.603 0-1.034-.275-1.034-.806 0-.554.483-.786 1.13-.877.379-.052 1.137-.148 1.324-.3v.723c0 .682-.551 1.26-1.42 1.26zm5.757-7.233h-1.445v8.171h1.445v-8.171z" fill="#1E212A"/><rect x="106" y="328" width="147.678" height="89.308" rx="15" stroke="#96989D" stroke-width="2" stroke-dasharray="5 5"/><rect x="518" y="328" width="212.678" height="89.308" rx="15" fill="#FFEEED"/><rect x="606.339" y="339.839" width="36" height="36" rx="6.42" fill="#3A3E44"/><path d="M616.339 354.839h16m-16 6h16m-10-12l-2 18m8-18l-2 18" stroke="#D8F4FB" stroke-width="1.5" stroke-linecap="round" stroke-linejoin="round"/><path d="M533.381 399.588c1.54 0 2.522-.913 2.625-2.214h-1.38c-.124.659-.599 1.038-1.233 1.038-.901 0-1.484-.754-1.484-2.007 0-1.237.594-1.979 1.484-1.979.694 0 1.121.447 1.233 1.037h1.38c-.1-1.328-1.137-2.202-2.633-2.202-1.795 0-2.928 1.297-2.928 3.168 0 1.855 1.105 3.159 2.936 3.159zm5.255-3.71c0-.885.551-1.396 1.325-1.396.758 0 1.205.483 1.205 1.308v3.679h1.444v-3.902c0-1.48-.838-2.306-2.111-2.306-.941 0-1.54.427-1.823 1.121h-.072v-3.084h-1.412v8.171h1.444v-3.591zm7.209 3.714c.962 0 1.536-.45 1.799-.965h.048v.842h1.389v-4.101c0-1.62-1.321-2.107-2.49-2.107-1.288 0-2.278.575-2.597 1.692l1.349.191c.143-.419.55-.778 1.256-.778.67 0 1.038.343 1.038.946v.024c0 .415-.435.435-1.516.55-1.189.128-2.326.483-2.326 1.863 0 1.205.881 1.843 2.05 1.843zm.375-1.061c-.602 0-1.033-.275-1.033-.806 0-.554.483-.786 1.129-.877.379-.052 1.137-.148 1.324-.3v.723c0 .682-.55 1.26-1.42 1.26zm5.757-2.653c0-.885.535-1.396 1.297-1.396.746 0 1.192.491 1.192 1.308v3.679h1.445v-3.902c.004-1.468-.834-2.306-2.099-2.306-.917 0-1.548.439-1.827 1.121h-.072v-1.041h-1.38v6.128h1.444v-3.591zm6.846 0c0-.885.535-1.396 1.297-1.396.746 0 1.192.491 1.192 1.308v3.679h1.445v-3.902c.004-1.468-.834-2.306-2.099-2.306-.917 0-1.548.439-1.827 1.121h-.072v-1.041h-1.38v6.128h1.444v-3.591zm8.115 3.71c1.428 0 2.409-.698 2.664-1.763l-1.348-.152c-.195.519-.674.79-1.297.79-.933 0-1.551-.614-1.563-1.663h4.268v-.443c0-2.15-1.292-3.096-2.8-3.096-1.756 0-2.901 1.289-2.901 3.18 0 1.923 1.129 3.147 2.977 3.147zm-1.54-3.762c.043-.782.622-1.44 1.484-1.44.829 0 1.388.607 1.396 1.44h-2.88zm6.93-4.528h-1.444v8.171h1.444v-8.171zm2.375 8.259a.888.888 0 0 0 .878-.878.887.887 0 0 0-.878-.87.871.871 0 0 0-.878.87.873.873 0 0 0 .878.878zm0-4.377a.888.888 0 0 0 .878-.878.887.887 0 0 0-.878-.869.87.87 0 0 0-.878.869.873.873 0 0 0 .878.878zm5.155 6.587h1.445v-3.264h.059c.228.447.703 1.073 1.756 1.073 1.444 0 2.525-1.145 2.525-3.163 0-2.043-1.113-3.152-2.529-3.152-1.081 0-1.532.65-1.752 1.093h-.083v-1.013h-1.421v8.426zm1.417-5.362c0-1.189.51-1.959 1.44-1.959.961 0 1.456.818 1.456 1.959 0 1.149-.503 1.987-1.456 1.987-.922 0-1.44-.798-1.44-1.987zm5.605 3.064h1.444v-3.603c0-.778.586-1.328 1.38-1.328.244 0 .547.044.671.084v-1.329a3.463 3.463 0 0 0-.519-.04c-.702 0-1.289.399-1.512 1.109h-.064v-1.021h-1.4v6.128zm6.875.119c1.795 0 2.936-1.264 2.936-3.159 0-1.899-1.141-3.168-2.936-3.168-1.796 0-2.937 1.269-2.937 3.168 0 1.895 1.141 3.159 2.937 3.159zm.008-1.157c-.994 0-1.48-.885-1.48-2.006 0-1.121.486-2.019 1.48-2.019.977 0 1.464.898 1.464 2.019s-.487 2.006-1.464 2.006zm4.154-5.09v6.447c0 .515-.22.79-.774.79-.072 0-.128-.004-.208-.008v1.177c.108.008.192.004.276.008 1.372.024 2.15-.623 2.15-1.947v-6.467h-1.444zm.718-.87c.459 0 .834-.351.834-.782 0-.435-.375-.786-.834-.786-.463 0-.838.351-.838.786 0 .431.375.782.838.782zm5.925 3h-3.678v1.189h3.678v-1.189zm1.519 3.998h1.444v-3.726c0-.754.503-1.265 1.125-1.265.611 0 1.03.411 1.03 1.041v3.95h1.416v-3.822c0-.69.411-1.169 1.109-1.169.582 0 1.045.343 1.045 1.101v3.89h1.448v-4.113c0-1.369-.79-2.095-1.915-2.095-.889 0-1.567.439-1.839 1.121h-.064c-.235-.694-.829-1.121-1.655-1.121-.822 0-1.436.423-1.692 1.121h-.072v-1.041h-1.38v6.128zm11.846.123c.961 0 1.536-.45 1.799-.965h.048v.842h1.388v-4.101c0-1.62-1.32-2.107-2.489-2.107-1.289 0-2.278.575-2.597 1.692l1.348.191c.144-.419.551-.778 1.257-.778.67 0 1.037.343 1.037.946v.024c0 .415-.435.435-1.516.55-1.189.128-2.326.483-2.326 1.863 0 1.205.882 1.843 2.051 1.843zm.375-1.061c-.603 0-1.033-.275-1.033-.806 0-.554.482-.786 1.129-.877.379-.052 1.137-.148 1.324-.3v.723c0 .682-.55 1.26-1.42 1.26zm4.312.938h1.445v-3.603c0-.778.586-1.328 1.38-1.328.243 0 .547.044.67.084v-1.329a3.45 3.45 0 0 0-.518-.04c-.703 0-1.289.399-1.512 1.109h-.064v-1.021h-1.401v6.128zm4.455 0h1.444v-2.059l.526-.562 1.876 2.621h1.727l-2.513-3.483 2.373-2.645h-1.687l-2.202 2.461h-.1v-4.504h-1.444v8.171zm8.856.119c1.428 0 2.41-.698 2.665-1.763l-1.348-.152c-.196.519-.674.79-1.297.79-.933 0-1.552-.614-1.564-1.663h4.269v-.443c0-2.15-1.293-3.096-2.801-3.096-1.755 0-2.9 1.289-2.9 3.18 0 1.923 1.129 3.147 2.976 3.147zm-1.54-3.762c.044-.782.623-1.44 1.484-1.44.83 0 1.389.607 1.397 1.44h-2.881zm8.547-2.485h-1.209v-1.468h-1.444v1.468h-.87v1.117h.87v3.407c-.008 1.153.83 1.719 1.915 1.688.411-.012.694-.092.849-.144l-.243-1.129c-.08.02-.243.056-.423.056-.363 0-.654-.128-.654-.71v-3.168h1.209v-1.117zm1.208 6.128h1.444v-6.128h-1.444v6.128zm.726-6.998c.458 0 .833-.351.833-.782 0-.435-.375-.786-.833-.786-.463 0-.838.351-.838.786 0 .431.375.782.838.782zm3.647 3.407c0-.885.535-1.396 1.297-1.396.746 0 1.192.491 1.192 1.308v3.679h1.445v-3.902c.004-1.468-.834-2.306-2.099-2.306-.917 0-1.548.439-1.827 1.121h-.072v-1.041h-1.38v6.128h1.444v-3.591zm8.067 5.992c1.655 0 2.876-.758 2.876-2.302v-6.227h-1.424v1.013h-.08c-.219-.443-.678-1.093-1.759-1.093-1.417 0-2.53 1.109-2.53 3.124 0 1.999 1.113 2.996 2.526 2.996 1.049 0 1.54-.563 1.763-1.013h.072v1.161c0 .877-.599 1.248-1.42 1.248-.87 0-1.253-.411-1.429-.746l-1.3.315c.263.834 1.145 1.524 2.705 1.524zm.012-3.622c-.954 0-1.456-.742-1.456-1.871 0-1.113.494-1.931 1.456-1.931.929 0 1.44.77 1.44 1.931 0 1.169-.519 1.871-1.44 1.871zm8.058-2.777h-3.678v1.189h3.678v-1.189zm4.192 4.117c1.54 0 2.522-.913 2.625-2.214h-1.38c-.124.659-.598 1.038-1.233 1.038-.901 0-1.484-.754-1.484-2.007 0-1.237.595-1.979 1.484-1.979.694 0 1.121.447 1.233 1.037h1.38c-.099-1.328-1.137-2.202-2.633-2.202-1.795 0-2.928 1.297-2.928 3.168 0 1.855 1.105 3.159 2.936 3.159zm5.575.004c.961 0 1.536-.45 1.799-.965h.048v.842h1.388v-4.101c0-1.62-1.32-2.107-2.489-2.107-1.289 0-2.278.575-2.598 1.692l1.349.191c.144-.419.55-.778 1.257-.778.67 0 1.037.343 1.037.946v.024c0 .415-.435.435-1.516.55-1.189.128-2.326.483-2.326 1.863 0 1.205.882 1.843 2.051 1.843zm.375-1.061c-.603 0-1.034-.275-1.034-.806 0-.554.483-.786 1.129-.877.379-.052 1.137-.148 1.325-.3v.723c0 .682-.551 1.26-1.42 1.26zm4.312.938h1.444v-3.726c0-.754.503-1.265 1.125-1.265.611 0 1.03.411 1.03 1.041v3.95h1.416v-3.822c0-.69.411-1.169 1.109-1.169.582 0 1.045.343 1.045 1.101v3.89h1.448v-4.113c0-1.369-.789-2.095-1.915-2.095-.889 0-1.567.439-1.839 1.121h-.063c-.236-.694-.83-1.121-1.656-1.121-.822 0-1.436.423-1.692 1.121h-.071v-1.041h-1.381v6.128zm10.083 2.298h1.444v-3.264h.06c.227.447.702 1.073 1.755 1.073 1.444 0 2.525-1.145 2.525-3.163 0-2.043-1.113-3.152-2.529-3.152-1.081 0-1.532.65-1.751 1.093h-.084v-1.013h-1.42v8.426zm1.416-5.362c0-1.189.51-1.959 1.44-1.959.961 0 1.456.818 1.456 1.959 0 1.149-.503 1.987-1.456 1.987-.922 0-1.44-.798-1.44-1.987zm7.368 3.187c.962 0 1.536-.45 1.8-.965h.047v.842h1.389v-4.101c0-1.62-1.321-2.107-2.49-2.107-1.288 0-2.278.575-2.597 1.692l1.349.191c.143-.419.55-.778 1.256-.778.671 0 1.038.343 1.038.946v.024c0 .415-.435.435-1.516.55-1.189.128-2.326.483-2.326 1.863 0 1.205.881 1.843 2.05 1.843zm.375-1.061c-.602 0-1.033-.275-1.033-.806 0-.554.483-.786 1.129-.877.379-.052 1.137-.148 1.325-.3v.723c0 .682-.551 1.26-1.421 1.26zm4.313.938h1.444v-6.128h-1.444v6.128zm.726-6.998c.459 0 .834-.351.834-.782 0-.435-.375-.786-.834-.786-.463 0-.838.351-.838.786 0 .431.375.782.838.782zm4.868 9.399c1.656 0 2.877-.758 2.877-2.302v-6.227h-1.425v1.013h-.079c-.22-.443-.679-1.093-1.76-1.093-1.416 0-2.529 1.109-2.529 3.124 0 1.999 1.113 2.996 2.525 2.996 1.049 0 1.54-.563 1.764-1.013h.071v1.161c0 .877-.598 1.248-1.42 1.248-.87 0-1.253-.411-1.428-.746l-1.301.315c.264.834 1.145 1.524 2.705 1.524zm.012-3.622c-.953 0-1.456-.742-1.456-1.871 0-1.113.495-1.931 1.456-1.931.93 0 1.44.77 1.44 1.931 0 1.169-.518 1.871-1.44 1.871zm5.789-2.37c0-.885.534-1.396 1.296-1.396.746 0 1.193.491 1.193 1.308v3.679h1.444v-3.902c.004-1.468-.833-2.306-2.098-2.306-.918 0-1.548.439-1.827 1.121h-.072v-1.041h-1.38v6.128h1.444v-3.591z" fill="#1E212A"/><rect x="518" y="328" width="212.678" height="89.308" rx="15" stroke="#96989D" stroke-width="2" stroke-dasharray="5 5"/><rect x="986" y="328" width="174.678" height="89.308" rx="15" fill="#FCF7E4"/><rect x="1055.34" y="339.839" width="36" height="36" rx="6.42" fill="#3A3E44"/><path d="M1065.34 354.839h16m-16 6h16m-10-12l-2 18m8-18l-2 18" stroke="#D8F4FB" stroke-width="1.5" stroke-linecap="round" stroke-linejoin="round"/><path d="M1001.48 399.588c1.54 0 2.52-.913 2.62-2.214h-1.38c-.12.659-.6 1.038-1.23 1.038-.9 0-1.49-.754-1.49-2.007 0-1.237.6-1.979 1.49-1.979.69 0 1.12.447 1.23 1.037h1.38c-.1-1.328-1.14-2.202-2.63-2.202-1.797 0-2.93 1.297-2.93 3.168 0 1.855 1.105 3.159 2.94 3.159zm5.25-3.71c0-.885.55-1.396 1.33-1.396.75 0 1.2.483 1.2 1.308v3.679h1.44v-3.902c0-1.48-.83-2.306-2.11-2.306-.94 0-1.54.427-1.82 1.121h-.07v-3.084h-1.41v8.171h1.44v-3.591zm7.21 3.714c.96 0 1.54-.45 1.8-.965h.05v.842h1.39v-4.101c0-1.62-1.32-2.107-2.49-2.107-1.29 0-2.28.575-2.6 1.692l1.35.191c.14-.419.55-.778 1.25-.778.67 0 1.04.343 1.04.946v.024c0 .415-.43.435-1.51.55-1.19.128-2.33.483-2.33 1.863 0 1.205.88 1.843 2.05 1.843zm.38-1.061c-.61 0-1.04-.275-1.04-.806 0-.554.48-.786 1.13-.877.38-.052 1.14-.148 1.33-.3v.723c0 .682-.55 1.26-1.42 1.26zm5.75-2.653c0-.885.54-1.396 1.3-1.396.74 0 1.19.491 1.19 1.308v3.679h1.45v-3.902c0-1.468-.84-2.306-2.1-2.306-.92 0-1.55.439-1.83 1.121h-.07v-1.041h-1.38v6.128h1.44v-3.591zm6.85 0c0-.885.53-1.396 1.29-1.396.75 0 1.2.491 1.2 1.308v3.679h1.44v-3.902c.01-1.468-.83-2.306-2.1-2.306-.91 0-1.54.439-1.82 1.121h-.08v-1.041h-1.38v6.128h1.45v-3.591zm8.11 3.71c1.43 0 2.41-.698 2.67-1.763l-1.35-.152c-.2.519-.68.79-1.3.79-.93 0-1.55-.614-1.56-1.663h4.27v-.443c0-2.15-1.3-3.096-2.8-3.096-1.76 0-2.9 1.289-2.9 3.18 0 1.923 1.13 3.147 2.97 3.147zm-1.54-3.762c.05-.782.62-1.44 1.49-1.44.83 0 1.39.607 1.39 1.44h-2.88zm6.93-4.528h-1.44v8.171h1.44v-8.171zm2.38 8.259c.47 0 .87-.391.88-.878a.893.893 0 0 0-.88-.87.873.873 0 1 0 0 1.748zm0-4.377c.47 0 .87-.391.88-.878a.893.893 0 0 0-.88-.869.873.873 0 1 0 0 1.747zm5.15 4.289h1.45v-3.726c0-.754.5-1.265 1.12-1.265.61 0 1.03.411 1.03 1.041v3.95h1.42v-3.822c0-.69.41-1.169 1.11-1.169.58 0 1.04.343 1.04 1.101v3.89h1.45v-4.113c0-1.369-.79-2.095-1.91-2.095-.89 0-1.57.439-1.84 1.121h-.07c-.23-.694-.83-1.121-1.65-1.121s-1.44.423-1.69 1.121h-.08v-1.041h-1.38v6.128zm11.85.123c.96 0 1.54-.45 1.8-.965h.05v.842h1.38v-4.101c0-1.62-1.32-2.107-2.48-2.107-1.29 0-2.28.575-2.6 1.692l1.35.191c.14-.419.55-.778 1.25-.778.67 0 1.04.343 1.04.946v.024c0 .415-.43.435-1.52.55-1.18.128-2.32.483-2.32 1.863 0 1.205.88 1.843 2.05 1.843zm.37-1.061c-.6 0-1.03-.275-1.03-.806 0-.554.48-.786 1.13-.877.38-.052 1.14-.148 1.32-.3v.723c0 .682-.55 1.26-1.42 1.26zm4.32.938h1.44v-3.603c0-.778.59-1.328 1.38-1.328.24 0 .55.044.67.084v-1.329c-.13-.024-.36-.04-.52-.04-.7 0-1.29.399-1.51 1.109h-.06v-1.021h-1.4v6.128zm4.45 0h1.45v-2.059l.52-.562 1.88 2.621h1.72l-2.51-3.483 2.37-2.645h-1.68l-2.21 2.461h-.09v-4.504h-1.45v8.171zm8.86.119c1.43 0 2.41-.698 2.66-1.763l-1.35-.152c-.19.519-.67.79-1.29.79-.94 0-1.55-.614-1.57-1.663h4.27v-.443c0-2.15-1.29-3.096-2.8-3.096-1.75 0-2.9 1.289-2.9 3.18 0 1.923 1.13 3.147 2.98 3.147zm-1.54-3.762c.04-.782.62-1.44 1.48-1.44.83 0 1.39.607 1.4 1.44h-2.88zm8.54-2.485h-1.2v-1.468h-1.45v1.468h-.87v1.117h.87v3.407c-.01 1.153.83 1.719 1.92 1.688.41-.012.69-.092.85-.144l-.25-1.129c-.08.02-.24.056-.42.056-.36 0-.65-.128-.65-.71v-3.168h1.2v-1.117zm1.21 6.128h1.45v-6.128h-1.45v6.128zm.73-6.998c.46 0 .83-.351.83-.782 0-.435-.37-.786-.83-.786-.46 0-.84.351-.84.786 0 .431.38.782.84.782zm3.65 3.407c0-.885.53-1.396 1.29-1.396.75 0 1.19.491 1.19 1.308v3.679h1.45v-3.902c0-1.468-.83-2.306-2.1-2.306-.92 0-1.55.439-1.83 1.121h-.07v-1.041h-1.38v6.128h1.45v-3.591zm8.06 5.992c1.66 0 2.88-.758 2.88-2.302v-6.227h-1.43v1.013h-.08c-.22-.443-.67-1.093-1.75-1.093-1.42 0-2.53 1.109-2.53 3.124 0 1.999 1.11 2.996 2.52 2.996 1.05 0 1.54-.563 1.76-1.013h.08v1.161c0 .877-.6 1.248-1.42 1.248-.87 0-1.26-.411-1.43-.746l-1.3.315c.26.834 1.14 1.524 2.7 1.524zm.01-3.622c-.95 0-1.45-.742-1.45-1.871 0-1.113.49-1.931 1.45-1.931.93 0 1.44.77 1.44 1.931 0 1.169-.51 1.871-1.44 1.871zm8.06-2.777h-3.68v1.189h3.68v-1.189zm1.52 3.998h1.45v-6.128h-1.45v6.128zm.73-6.998c.46 0 .83-.351.83-.782 0-.435-.37-.786-.83-.786-.47 0-.84.351-.84.786 0 .431.37.782.84.782zm3.65 3.407c0-.885.53-1.396 1.29-1.396.75 0 1.19.491 1.19 1.308v3.679h1.45v-3.902c0-1.468-.84-2.306-2.1-2.306-.92 0-1.55.439-1.83 1.121h-.07v-1.041h-1.38v6.128h1.45v-3.591zm8.46-2.537h-1.21v-1.468h-1.45v1.468h-.87v1.117h.87v3.407c0 1.153.83 1.719 1.92 1.688.41-.012.69-.092.85-.144l-.24-1.129c-.08.02-.25.056-.43.056-.36 0-.65-.128-.65-.71v-3.168h1.21v-1.117zm3.85 6.247c1.43 0 2.41-.698 2.67-1.763l-1.35-.152c-.2.519-.68.79-1.3.79-.93 0-1.55-.614-1.56-1.663h4.27v-.443c0-2.15-1.3-3.096-2.8-3.096-1.76 0-2.9 1.289-2.9 3.18 0 1.923 1.12 3.147 2.97 3.147zm-1.54-3.762c.05-.782.62-1.44 1.49-1.44.83 0 1.38.607 1.39 1.44h-2.88zm5.49 3.643h1.44v-3.603c0-.778.59-1.328 1.38-1.328.25 0 .55.044.67.084v-1.329c-.13-.024-.36-.04-.52-.04-.7 0-1.28.399-1.51 1.109h-.06v-1.021h-1.4v6.128zm5.9-3.591c0-.885.53-1.396 1.29-1.396.75 0 1.2.491 1.2 1.308v3.679h1.44v-3.902c0-1.468-.83-2.306-2.1-2.306-.92 0-1.55.439-1.83 1.121h-.07v-1.041h-1.38v6.128h1.45v-3.591zm7.16 3.714c.96 0 1.54-.45 1.8-.965h.05v.842h1.39v-4.101c0-1.62-1.32-2.107-2.49-2.107-1.29 0-2.28.575-2.6 1.692l1.35.191c.14-.419.55-.778 1.26-.778.67 0 1.03.343 1.03.946v.024c0 .415-.43.435-1.51.55-1.19.128-2.33.483-2.33 1.863 0 1.205.88 1.843 2.05 1.843zm.38-1.061c-.61 0-1.04-.275-1.04-.806 0-.554.49-.786 1.13-.877.38-.052 1.14-.148 1.33-.3v.723c0 .682-.55 1.26-1.42 1.26zm5.75-7.233h-1.44v8.171h1.44v-8.171z" fill="#1E212A"/><rect x="986" y="328" width="174.678" height="89.308" rx="15" stroke="#96989D" stroke-width="2" stroke-dasharray="5 5"/><path d="M625 170v131m449-131v131" stroke="#96989D" stroke-width="2" stroke-miterlimit="16"/><path d="M583 196c0-5.523 4.477-10 10-10h64c5.523 0 10 4.477 10 10v16c0 5.523-4.477 10-10 10h-64c-5.523 0-10-4.477-10-10v-16z" fill="#EFF0F2"/><path d="M600.316 199.545V209h1.071v-7.183h.092l2.955 7.183h1.034l2.954-7.183h.093V209h1.071v-9.455h-1.367l-3.213 7.848h-.111l-3.213-7.848h-1.366zm14.54 9.603c1.441 0 2.493-.72 2.826-1.791l-1.053-.296c-.277.739-.918 1.108-1.773 1.108-1.278 0-2.16-.826-2.211-2.345h5.148v-.462c0-2.64-1.57-3.545-3.047-3.545-1.921 0-3.195 1.514-3.195 3.693 0 2.179 1.256 3.638 3.305 3.638zm-2.211-4.266c.074-1.103.854-2.087 2.101-2.087 1.182 0 1.939.887 1.939 2.087h-4.04zM619.6 209h1.089v-4.432c0-1.039.757-1.773 1.607-1.773.826 0 1.403.541 1.403 1.348V209h1.108v-4.616c0-.915.573-1.589 1.57-1.589.775 0 1.44.411 1.44 1.459V209h1.09v-4.746c0-1.666-.896-2.437-2.161-2.437-1.015 0-1.759.466-2.123 1.2h-.074c-.351-.757-.97-1.2-1.902-1.2-.924 0-1.607.443-1.902 1.2h-.093v-1.108H619.6V209zm11.596 0h1.053v-1.089h.129c.24.387.702 1.237 2.068 1.237 1.773 0 3.01-1.422 3.01-3.675 0-2.234-1.237-3.656-3.028-3.656-1.385 0-1.81.849-2.05 1.219h-.092v-3.491h-1.09V209zm1.071-3.545c0-1.589.702-2.66 2.032-2.66 1.385 0 2.068 1.164 2.068 2.66 0 1.514-.702 2.714-2.068 2.714-1.311 0-2.032-1.108-2.032-2.714zm9.979 3.693c1.44 0 2.493-.72 2.825-1.791l-1.052-.296c-.277.739-.919 1.108-1.773 1.108-1.279 0-2.161-.826-2.211-2.345h5.147v-.462c0-2.64-1.57-3.545-3.047-3.545-1.92 0-3.194 1.514-3.194 3.693 0 2.179 1.255 3.638 3.305 3.638zm-2.211-4.266c.074-1.103.854-2.087 2.1-2.087 1.182 0 1.939.887 1.939 2.087h-4.039zm6.954 4.118h1.09v-4.487c0-.96.757-1.662 1.791-1.662.291 0 .591.055.665.074v-1.108a10.696 10.696 0 0 0-.573-.019c-.849 0-1.588.48-1.846 1.182h-.074v-1.071h-1.053V209z" fill="#65676E"/><path d="M1039.5 196c0-5.523 4.48-10 10-10h49c5.52 0 10 4.477 10 10v16c0 5.523-4.48 10-10 10h-49c-5.52 0-10-4.477-10-10v-16z" fill="#FCF7E4"/><path d="M1058.46 209h1.07l1.55-5.447h.11l1.56 5.447h1.07l2.16-7.091h-1.15l-1.53 5.411h-.07l-1.5-5.411h-1.16l-1.52 5.429h-.07l-1.53-5.429h-1.15l2.16 7.091zm9.11 0h1.09v-4.487c0-.96.75-1.662 1.79-1.662.29 0 .59.055.66.074v-1.108c-.12-.009-.41-.019-.57-.019-.85 0-1.59.48-1.85 1.182h-.07v-1.071h-1.05V209zm4.98 0h1.09v-7.091h-1.09V209zm.56-8.273c.42 0 .77-.332.77-.738 0-.407-.35-.739-.77-.739-.43 0-.78.332-.78.739 0 .406.35.738.78.738zm5.76 1.182h-1.51v-1.699h-1.09v1.699h-1.07v.923h1.07v4.432c0 1.237 1 1.828 1.92 1.828.41 0 .66-.074.81-.129l-.22-.979c-.09.019-.24.056-.48.056-.48 0-.94-.148-.94-1.071v-4.137h1.51v-.923zm4.69 7.239c1.44 0 2.49-.72 2.82-1.791l-1.05-.296c-.28.739-.92 1.108-1.77 1.108-1.28 0-2.16-.826-2.21-2.345h5.15v-.462c0-2.64-1.57-3.545-3.05-3.545-1.92 0-3.2 1.514-3.2 3.693 0 2.179 1.26 3.638 3.31 3.638zm-2.21-4.266c.07-1.103.85-2.087 2.1-2.087 1.18 0 1.94.887 1.94 2.087h-4.04zm6.95 4.118h1.09v-4.487c0-.96.76-1.662 1.79-1.662.29 0 .59.055.67.074v-1.108c-.13-.009-.41-.019-.57-.019-.85 0-1.59.48-1.85 1.182h-.08v-1.071h-1.05V209z" fill="#65676E"/><path d="M1037 175.263l1-.001v.001h-1zm-308 55.322v1-1zm268 0v-1 1zm0 1H729v-2h268v2zm-307 39v27.227h-2v-27.227h2zm346-80v-15.322h2v15.322h-2zM690 297.812v2.688h-2v-2.688h2zm346-122.549V171.5h2v3.762l-2 .001zm-307 56.322c-21.539 0-39 17.46-39 39h-2c0-22.644 18.356-41 41-41v2zm268-2c21.54 0 39-17.461 39-39h2c0 22.643-18.36 41-41 41v-2z" fill="#96989D"/><path d="M681 293l8.056 8.056 8.057-8.056" stroke="#96989D" stroke-width="2"/><path d="M897.5 223c0-5.523 4.477-10 10-10h113c5.52 0 10 4.477 10 10v16c0 5.523-4.48 10-10 10h-113c-5.523 0-10-4.477-10-10v-16z" fill="#EFF0F2"/><path d="M917.81 236.148c1.57 0 2.604-.961 2.788-2.216h-1.089c-.203.775-.849 1.237-1.699 1.237-1.293 0-2.124-1.071-2.124-2.714 0-1.607.85-2.66 2.124-2.66.96 0 1.533.591 1.699 1.238h1.089c-.184-1.33-1.311-2.216-2.806-2.216-1.921 0-3.195 1.514-3.195 3.674 0 2.124 1.219 3.657 3.213 3.657zm5.621-4.414c0-1.237.789-1.939 1.865-1.939 1.025 0 1.643.647 1.643 1.773V236h1.09v-4.506c0-1.823-.97-2.677-2.419-2.677-1.118 0-1.755.466-2.087 1.2h-.092v-3.472h-1.09V236h1.09v-4.266zm8.827 4.432c1.238 0 1.884-.665 2.106-1.126h.055v.96h1.089v-4.672c0-2.253-1.717-2.511-2.622-2.511-1.071 0-2.29.369-2.843 1.662l1.034.369c.24-.517.807-1.071 1.846-1.071 1.002 0 1.496.531 1.496 1.44v.037c0 .527-.536.48-1.828.647-1.316.17-2.752.461-2.752 2.086 0 1.385 1.071 2.179 2.419 2.179zm.167-.979c-.868 0-1.496-.387-1.496-1.144 0-.831.757-1.09 1.606-1.201.462-.055 1.699-.184 1.884-.406v.997c0 .887-.702 1.754-1.994 1.754zm6.311-3.453c0-1.237.767-1.939 1.81-1.939 1.011 0 1.625.661 1.625 1.773V236h1.09v-4.506c0-1.809-.965-2.677-2.401-2.677-1.071 0-1.736.48-2.068 1.2h-.092v-1.108h-1.053V236h1.089v-4.266zm7.755 0c0-1.237.766-1.939 1.81-1.939 1.011 0 1.625.661 1.625 1.773V236h1.089v-4.506c0-1.809-.965-2.677-2.4-2.677-1.071 0-1.736.48-2.069 1.2h-.092v-1.108h-1.053V236h1.09v-4.266zm9.638 4.414c1.44 0 2.493-.72 2.825-1.791l-1.052-.296c-.277.739-.919 1.108-1.773 1.108-1.279 0-2.161-.826-2.211-2.345h5.147v-.462c0-2.64-1.57-3.545-3.047-3.545-1.92 0-3.194 1.514-3.194 3.693 0 2.179 1.255 3.638 3.305 3.638zm-2.211-4.266c.074-1.103.854-2.087 2.1-2.087 1.182 0 1.939.887 1.939 2.087h-4.039zm8.044-5.337h-1.09V236h1.09v-9.455zm7.168 3.952c-.342-1.006-1.108-1.68-2.511-1.68-1.496 0-2.604.849-2.604 2.049 0 .979.582 1.635 1.884 1.939l1.181.277c.716.167 1.053.508 1.053.998 0 .609-.646 1.107-1.662 1.107-.891 0-1.45-.383-1.644-1.144l-1.034.258c.254 1.205 1.247 1.847 2.696 1.847 1.649 0 2.77-.9 2.77-2.124 0-.988-.618-1.611-1.883-1.92l-1.053-.259c-.84-.208-1.219-.489-1.219-1.034 0-.609.647-1.052 1.515-1.052.951 0 1.343.526 1.532 1.015l.979-.277zm6.813 5.503h-5.909v1.016h5.909V236zm3.221.166c1.237 0 1.883-.665 2.105-1.126h.055v.96h1.09v-4.672c0-2.253-1.717-2.511-2.622-2.511-1.071 0-2.29.369-2.844 1.662l1.034.369c.24-.517.808-1.071 1.847-1.071 1.001 0 1.495.531 1.495 1.44v.037c0 .527-.535.48-1.828.647-1.315.17-2.751.461-2.751 2.086 0 1.385 1.071 2.179 2.419 2.179zm.166-.979c-.868 0-1.496-.387-1.496-1.144 0-.831.757-1.09 1.607-1.201.462-.055 1.699-.184 1.883-.406v.997c0 .887-.701 1.754-1.994 1.754zm7.9.961c1.366 0 1.828-.85 2.068-1.237h.129V236h1.053v-9.455h-1.089v3.491h-.093c-.24-.37-.665-1.219-2.05-1.219-1.791 0-3.028 1.422-3.028 3.656 0 2.253 1.237 3.675 3.01 3.675zm.148-.979c-1.367 0-2.068-1.2-2.068-2.714 0-1.496.683-2.66 2.068-2.66 1.329 0 2.031 1.071 2.031 2.66 0 1.606-.72 2.714-2.031 2.714zm5.399.831h1.089v-4.432c0-1.039.757-1.773 1.607-1.773.826 0 1.403.541 1.403 1.348V236h1.108v-4.616c0-.915.572-1.589 1.57-1.589.776 0 1.436.411 1.436 1.459V236h1.09v-4.746c0-1.666-.89-2.437-2.157-2.437-1.016 0-1.759.466-2.124 1.2h-.073c-.351-.757-.97-1.2-1.902-1.2-.924 0-1.607.443-1.902 1.2h-.093v-1.108h-1.052V236zm11.453 0h1.08v-7.091h-1.08V236zm.55-8.273c.42 0 .78-.332.78-.738 0-.407-.36-.739-.78-.739-.43 0-.78.332-.78.739 0 .406.35.738.78.738zm3.77 4.007c0-1.237.77-1.939 1.81-1.939 1.01 0 1.62.661 1.62 1.773V236h1.09v-4.506c0-1.809-.96-2.677-2.4-2.677-1.07 0-1.73.48-2.06 1.2h-.1v-1.108h-1.05V236h1.09v-4.266z" fill="#65676E"/></svg>