<svg width="225" height="213" viewBox="0 0 225 213" fill="none" xmlns="http://www.w3.org/2000/svg">
<path d="M72.0346 126.387C72.0224 126.45 72.0145 126.568 72.0083 126.717C72.002 126.871 71.9973 127.073 71.9939 127.314C71.9872 127.796 71.9859 128.442 71.9886 129.192C71.9941 130.694 72.0155 132.622 72.0417 134.525C72.0679 136.427 72.0988 138.305 72.1232 139.707C72.1354 140.408 72.1459 140.99 72.1534 141.397L72.1622 141.869L72.1646 141.993L72.1652 142.025L72.1653 142.033L72.1654 142.035L72.1654 142.036C72.1654 142.036 72.1654 142.036 72.3325 142.033C72.4997 142.03 72.4997 142.03 72.4997 142.029L72.4997 142.029L72.4996 142.027L72.4995 142.019L72.4989 141.987L72.4965 141.863L72.4877 141.391C72.4802 140.984 72.4697 140.402 72.4575 139.701C72.4331 138.299 72.4022 136.422 72.3761 134.52C72.3499 132.618 72.3284 130.691 72.323 129.191C72.3203 128.441 72.3216 127.798 72.3283 127.319C72.3316 127.079 72.3363 126.881 72.3424 126.731C72.3488 126.576 72.3564 126.484 72.3631 126.449L72.0346 126.387ZM80.0693 179.668L79.9904 179.718V179.81V186.872C77.901 187.327 70.7833 188.188 57.8767 188.188C44.9842 188.188 38.1539 187.328 36.2087 186.875V171.284C38.587 160.482 43.6025 137.749 44.6712 133.075C45.1952 130.784 46.8389 128.6 48.702 126.794C50.5542 124.999 52.6048 123.595 53.9311 122.849L63.2169 120.177L76.873 128.635L77.7623 169.92L77.7647 170.03L77.8669 170.071C79.3492 170.67 81.5492 171.634 83.332 172.582C84.2246 173.057 85.0056 173.524 85.5393 173.936C85.807 174.143 86.0038 174.329 86.122 174.489C86.2445 174.655 86.2557 174.756 86.2374 174.811C86.2025 174.917 86.1171 175.058 85.9755 175.231C85.836 175.402 85.6507 175.593 85.4285 175.801C84.9841 176.216 84.4019 176.684 83.7672 177.158C82.4984 178.106 81.0321 179.071 80.0693 179.668Z" fill="white" stroke="#1E212A" stroke-width="0.334375"/>
<path d="M79.9716 181.196C86.9695 182.014 91.4218 183.237 91.4218 184.605C91.4218 187.069 76.9944 189.066 59.2029 189.066C41.4114 189.066 26.9839 187.069 26.9839 184.605C26.9839 183.444 30.177 182.392 35.4029 181.6" fill="white"/>
<path d="M79.9716 181.196C86.9695 182.014 91.4218 183.237 91.4218 184.605C91.4218 187.069 76.9944 189.066 59.2029 189.066C41.4114 189.066 26.9839 187.069 26.9839 184.605C26.9839 183.444 30.177 182.392 35.4029 181.6" stroke="#1E212A" stroke-width="0.334375" stroke-miterlimit="10"/>
<path d="M117.093 133.713H105.642C105.103 133.713 104.671 133.281 104.671 132.741V85.6361H98.0869V133.848C98.0869 137.41 100.974 140.297 104.536 140.297H117.093" fill="url(#paint0_linear_872_94624)"/>
<path d="M117.093 133.713H105.642C105.103 133.713 104.671 133.281 104.671 132.741V85.6361H98.0869V133.848C98.0869 137.41 100.974 140.297 104.536 140.297H117.093" stroke="#1E212A" stroke-width="0.334375" stroke-miterlimit="10"/>
<path d="M106.361 99.2734L106.361 93.7957L96.3952 93.7957L96.3952 99.2734L106.361 99.2734Z" fill="#0A0A0A" stroke="#1E212A" stroke-width="0.334375" stroke-miterlimit="10" stroke-linejoin="round"/>
<path d="M122.319 132.13H116.841V142.096H122.319V132.13Z" fill="#0A0A0A" stroke="#1E212A" stroke-width="0.334375" stroke-miterlimit="10" stroke-linejoin="round"/>
<path d="M62.9626 62.8165H58.9149C57.3499 62.9694 56.0996 65.47 56.0996 68.5372C56.0996 71.5953 57.3409 74.1049 58.9149 74.2578H62.9086" fill="#0A0A0A"/>
<path d="M62.9626 62.8165H58.9149C57.3499 62.9694 56.0996 65.47 56.0996 68.5372C56.0996 71.5953 57.3409 74.1049 58.9149 74.2578H62.9086" stroke="#1E212A" stroke-width="0.334375" stroke-miterlimit="10" stroke-linejoin="round"/>
<path d="M72.1372 102.195L72.2901 133.515V174.396V174.405C72.2901 175.673 76.7695 176.689 82.1213 176.68C87.4732 176.671 91.8176 175.628 91.8176 174.369V174.36L91.6647 102.168" fill="url(#paint1_linear_872_94624)"/>
<path d="M72.1372 102.195L72.2901 133.515V174.396V174.405C72.2901 175.673 76.7695 176.689 82.1213 176.68C87.4732 176.671 91.8176 175.628 91.8176 174.369V174.36L91.6647 102.168" stroke="#1E212A" stroke-width="0.334375" stroke-miterlimit="10" stroke-linejoin="round"/>
<path d="M72.1372 102.213C72.1372 103.481 76.5086 104.498 81.9055 104.489C87.2933 104.48 91.6647 103.437 91.6647 102.177C91.6647 100.909 87.2933 99.8926 81.8965 99.9016C76.4996 99.9016 72.1282 100.945 72.1372 102.213Z" fill="url(#paint2_linear_872_94624)" stroke="#1E212A" stroke-width="0.334375" stroke-miterlimit="10" stroke-linejoin="round"/>
<path d="M78.5146 101.853C78.5146 102.303 80.0438 102.492 81.9416 102.492C83.8305 102.492 85.3596 102.285 85.3596 101.835" fill="#BBC2CD"/>
<path d="M78.5146 101.853C78.5146 102.303 80.0438 102.492 81.9416 102.492C83.8305 102.492 85.3596 102.285 85.3596 101.835" stroke="#1E212A" stroke-width="0.334375" stroke-miterlimit="10"/>
<path d="M85.3595 101.862L85.3415 92.7688L78.4966 92.7778L78.5146 101.88" fill="#BDC4CF"/>
<path d="M85.3595 101.862L85.3415 92.7688L78.4966 92.7778L78.5146 101.88" stroke="#1E212A" stroke-width="0.334375" stroke-miterlimit="10"/>
<path d="M105.525 147.843C105.525 147.843 111.336 161.191 100.479 168.513C89.6226 175.844 84.4686 172.255 83.4522 165.401C82.8496 161.335 85.6289 158.475 85.6289 158.475" fill="white"/>
<path d="M105.525 147.843C105.525 147.843 111.336 161.191 100.479 168.513C89.6226 175.844 84.4686 172.255 83.4522 165.401C82.8496 161.335 85.6289 158.475 85.6289 158.475" stroke="#1E212A" stroke-width="0.334375" stroke-miterlimit="10"/>
<path d="M104.671 132.498C104.671 132.498 110.94 146.242 100.587 154.275C90.2435 162.307 82.1933 159.626 80.6822 152.853C79.7017 148.473 82.58 145.442 82.58 145.442" fill="white"/>
<path d="M104.671 132.498C104.671 132.498 110.94 146.242 100.587 154.275C90.2435 162.307 82.1933 159.626 80.6822 152.853C79.7017 148.473 82.58 145.442 82.58 145.442" stroke="#1E212A" stroke-width="0.334375" stroke-miterlimit="10"/>
<path d="M92.0151 112.926C92.0151 112.926 102.566 114.689 104.878 125.905C106.128 133.173 102.674 142.59 88.9389 145.954C76.8681 148.914 76.7331 132.768 85.8807 128.397L91.7003 125.491L91.6733 112.98L92.0151 112.926Z" fill="white" stroke="#1E212A" stroke-width="0.334375" stroke-miterlimit="10"/>
<path d="M94.2734 144.138C94.2734 144.138 92.9242 136.717 89.2183 137.266C85.0358 137.886 85.7824 142.743 86.412 146.341" stroke="#1E212A" stroke-width="0.334375" stroke-miterlimit="10"/>
<path d="M96.9627 156.685C96.9627 156.685 95.6224 149.453 91.9166 150.002C87.7341 150.623 88.5166 155.606 89.1463 159.204" stroke="#1E212A" stroke-width="0.334375" stroke-miterlimit="10"/>
<path d="M99.652 169.062C99.2832 168.261 96.9986 163.638 94.0663 164.618C90.4414 165.833 91.6377 169.161 92.7531 172.264" fill="white"/>
<path d="M99.652 169.062C99.2832 168.261 96.9986 163.638 94.0663 164.618C90.4414 165.833 91.6377 169.161 92.7531 172.264" stroke="#1E212A" stroke-width="0.334375" stroke-miterlimit="10"/>
<path d="M72.2541 136.051C72.2541 136.051 83.3985 131.716 91.152 123.225C96.108 117.414 94.7498 110.048 91.6287 107.781C89.5059 106.234 85.6202 105.011 80.6641 108.051C75.6541 111.127 70.77 115.148 60.1832 119.483C56.3785 121.039 53.0954 122.802 50.1812 124.736" fill="white"/>
<path d="M72.2541 136.051C72.2541 136.051 83.3985 131.716 91.152 123.225C96.108 117.414 94.7498 110.048 91.6287 107.781C89.5059 106.234 85.6202 105.011 80.6641 108.051C75.6541 111.127 70.77 115.148 60.1832 119.483C56.3785 121.039 53.0954 122.802 50.1812 124.736" stroke="#1E212A" stroke-width="0.334375" stroke-miterlimit="10"/>
<path d="M84.9003 106.324C85.8358 107.232 89.5866 111.874 86.4834 114.779C81.8152 119.159 75.1411 111.613 75.1411 111.613" stroke="#1E212A" stroke-width="0.334375" stroke-miterlimit="10"/>
<path d="M35.4028 187.582V184.479C35.034 167.11 37.6784 152.233 40.2689 142.509C42.2297 135.314 44.2535 131.176 45.135 129.917C46.6101 127.803 48.463 125.887 50.208 124.718" fill="white"/>
<path d="M35.4028 187.582V184.479C35.034 167.11 37.6784 152.233 40.2689 142.509C42.2297 135.314 44.2535 131.176 45.135 129.917C46.6101 127.803 48.463 125.887 50.208 124.718" stroke="#1E212A" stroke-width="0.334375" stroke-miterlimit="10"/>
<path d="M85.1704 176.581C83.9111 177.751 82.1752 179.028 79.9805 179.882V187.951" stroke="#1E212A" stroke-width="0.334375" stroke-miterlimit="10"/>
<mask id="path-32-inside-1_872_94624" fill="white">
<path d="M68.7731 151.702L63.9969 165.599L63.0795 166.75L63.3223 166.48L68.908 163.467L72.299 163.791L72.1731 174.414L43.6419 178.173L37.5615 169.089L39.2435 160.571L56.7652 141.484"/>
</mask>
<path d="M68.7731 151.702L63.9969 165.599L63.0795 166.75L63.3223 166.48L68.908 163.467L72.299 163.791L72.1731 174.414L43.6419 178.173L37.5615 169.089L39.2435 160.571L56.7652 141.484" fill="white"/>
<path d="M63.9969 165.599L64.2584 165.807L64.2944 165.762L64.3131 165.708L63.9969 165.599ZM63.0795 166.75L62.818 166.542L63.328 166.974L63.0795 166.75ZM63.3223 166.48L63.1636 166.186L63.1125 166.214L63.0738 166.257L63.3223 166.48ZM68.908 163.467L68.9398 163.134L68.8387 163.125L68.7493 163.173L68.908 163.467ZM72.299 163.791L72.6334 163.795L72.637 163.487L72.3308 163.458L72.299 163.791ZM72.1731 174.414L72.2168 174.745L72.504 174.707L72.5074 174.418L72.1731 174.414ZM43.6419 178.173L43.3641 178.359L43.4796 178.532L43.6856 178.505L43.6419 178.173ZM37.5615 169.089L37.2335 169.024L37.2067 169.16L37.2836 169.275L37.5615 169.089ZM39.2435 160.571L38.9972 160.345L38.9337 160.414L38.9155 160.506L39.2435 160.571ZM68.4569 151.593L63.6807 165.49L64.3131 165.708L69.0893 151.811L68.4569 151.593ZM63.7354 165.39L62.818 166.542L63.341 166.959L64.2584 165.807L63.7354 165.39ZM63.328 166.974L63.5708 166.704L63.0738 166.257L62.8309 166.526L63.328 166.974ZM63.4811 166.775L69.0668 163.761L68.7493 163.173L63.1636 166.186L63.4811 166.775ZM68.8762 163.8L72.2672 164.124L72.3308 163.458L68.9398 163.134L68.8762 163.8ZM71.9647 163.787L71.8387 174.41L72.5074 174.418L72.6334 163.795L71.9647 163.787ZM72.1294 174.082L43.5982 177.842L43.6856 178.505L72.2168 174.745L72.1294 174.082ZM43.9198 177.987L37.8394 168.903L37.2836 169.275L43.3641 178.359L43.9198 177.987ZM37.8896 169.154L39.5716 160.636L38.9155 160.506L37.2335 169.024L37.8896 169.154ZM39.4899 160.797L57.0115 141.71L56.5189 141.258L38.9972 160.345L39.4899 160.797Z" fill="#1E212A" mask="url(#path-32-inside-1_872_94624)"/>
<path d="M171.286 22.3044L124.36 43.1901H124.316H75.8162C68.5485 43.1901 62.6479 54.5324 62.6479 68.5281C62.6479 82.5239 68.5395 93.8662 75.8162 93.8662H123.938H124.289L171.232 114.734" fill="url(#paint3_linear_872_94624)"/>
<path d="M171.286 22.3044L124.36 43.1901H124.316H75.8162C68.5485 43.1901 62.6479 54.5324 62.6479 68.5281C62.6479 82.5239 68.5395 93.8662 75.8162 93.8662H123.938H124.289L171.232 114.734" stroke="#1E212A" stroke-width="0.334375" stroke-miterlimit="10" stroke-linejoin="round"/>
<path d="M124.324 93.8662C117.38 93.1826 111.867 82.1011 111.867 68.5282C111.867 54.9552 117.389 43.8737 124.324 43.1901" stroke="#1E212A" stroke-width="0.334375" stroke-miterlimit="10"/>
<path d="M173.022 115.157C180.294 115.157 186.19 94.2804 186.19 68.5282C186.19 42.776 180.294 21.8997 173.022 21.8997C165.749 21.8997 159.854 42.776 159.854 68.5282C159.854 94.2804 165.749 115.157 173.022 115.157Z" fill="url(#paint4_linear_872_94624)" stroke="#1E212A" stroke-width="0.334375" stroke-miterlimit="10" stroke-linejoin="round"/>
<path d="M160.609 84.044C161.392 84.1519 162.39 84.1969 163.2 84.1969C172.419 84.1969 179.255 77.1631 179.255 68.4922C179.255 59.8213 172.419 52.7875 163.2 52.7875C162.336 52.7875 161.482 52.8504 160.654 52.9674C160.654 52.9674 159.854 61.3954 159.854 68.5372C159.854 75.679 160.609 84.044 160.609 84.044Z" fill="url(#paint5_linear_872_94624)" stroke="#1E212A" stroke-width="0.334375" stroke-miterlimit="10"/>
<path d="M102.737 83.3784H75.1413C72.7308 83.3784 70.662 81.6424 70.2482 79.2678C69.7176 76.2276 72.0562 73.4482 75.1413 73.4482H102.737C105.148 73.4482 107.216 75.1842 107.63 77.5588C108.161 80.59 105.822 83.3784 102.737 83.3784Z" fill="url(#paint6_linear_872_94624)" stroke="#1E212A" stroke-width="0.334375" stroke-miterlimit="10" stroke-linejoin="round"/>
<path d="M101.028 48.38C100.506 50.215 98.5545 51.7081 96.6656 51.7081C94.7768 51.7081 93.6614 50.215 94.1831 48.38C94.7048 46.5451 96.6567 45.052 98.5455 45.052C100.434 45.052 101.55 46.5451 101.028 48.38Z" fill="url(#paint7_linear_872_94624)" stroke="#1E212A" stroke-width="0.334375" stroke-miterlimit="10"/>
<path d="M102.647 82.1731C104.758 82.1731 106.47 80.4736 106.47 78.3773C106.47 76.281 104.758 74.5815 102.647 74.5815C100.536 74.5815 98.8242 76.281 98.8242 78.3773C98.8242 80.4736 100.536 82.1731 102.647 82.1731Z" fill="url(#paint8_linear_872_94624)" stroke="#1E212A" stroke-width="0.334375" stroke-miterlimit="10" stroke-linejoin="round"/>
<path d="M72.29 136.051V174.414" stroke="#1E212A" stroke-width="0.334375" stroke-miterlimit="10"/>
<path d="M94.0664 49.0997V40.3838C94.0664 38.297 92.3664 36.606 90.2887 36.606H51.9263C49.8396 36.606 48.1486 38.306 48.1486 40.3838V61.2875C48.1486 63.3742 49.8486 65.0652 51.9263 65.0652H56.7115C56.7115 65.0652 55.2993 68.4742 56.7925 72.171H51.9353C45.9359 72.171 41.0518 67.2869 41.0518 61.2875V40.3838C41.0518 34.3844 45.9359 29.5002 51.9353 29.5002H90.2797C96.2791 29.5002 101.163 34.3844 101.163 40.3838V47.5616" fill="url(#paint9_linear_872_94624)"/>
<path d="M94.0664 49.0997V40.3838C94.0664 38.297 92.3664 36.606 90.2887 36.606H51.9263C49.8396 36.606 48.1486 38.306 48.1486 40.3838V61.2875C48.1486 63.3742 49.8486 65.0652 51.9263 65.0652H56.7115C56.7115 65.0652 55.2993 68.4742 56.7925 72.171H51.9353C45.9359 72.171 41.0518 67.2869 41.0518 61.2875V40.3838C41.0518 34.3844 45.9359 29.5002 51.9353 29.5002H90.2797C96.2791 29.5002 101.163 34.3844 101.163 40.3838V47.5616" stroke="#1E212A" stroke-width="0.334375" stroke-miterlimit="10"/>
<path d="M63.0347 166.714C72.3622 156.469 72.2902 142.033 72.2902 142.033V167.686" fill="white"/>
<path d="M63.0347 166.714C72.3622 156.469 72.2902 142.033 72.2902 142.033V167.686" stroke="#1E212A" stroke-width="0.334375" stroke-miterlimit="10"/>
<path d="M192.558 175.457H127.014C124.387 175.457 122.255 173.325 122.255 170.699V127.38C122.255 124.754 124.387 122.622 127.014 122.622H192.558C195.184 122.622 197.316 124.754 197.316 127.38V170.699C197.307 173.334 195.184 175.457 192.558 175.457Z" fill="url(#paint10_linear_872_94624)" stroke="#1E212A" stroke-width="0.334375" stroke-miterlimit="10" stroke-linejoin="round"/>
<path d="M171.51 157.773H133.229C131.718 157.773 130.485 158.997 130.485 160.517C130.485 162.028 131.709 163.26 133.229 163.26H171.51C173.021 163.26 174.254 162.037 174.254 160.517C174.254 158.997 173.03 157.773 171.51 157.773Z" fill="url(#paint11_linear_872_94624)" stroke="#1E212A" stroke-width="0.334375" stroke-miterlimit="10" stroke-linejoin="round"/>
<path d="M187.143 147.537H133.238C131.727 147.537 130.495 148.761 130.495 150.281C130.495 151.792 131.718 153.024 133.238 153.024H187.143C188.654 153.024 189.887 151.801 189.887 150.281C189.878 148.761 188.654 147.537 187.143 147.537Z" fill="url(#paint12_linear_872_94624)" stroke="#1E212A" stroke-width="0.334375" stroke-miterlimit="10" stroke-linejoin="round"/>
<path d="M187.143 137.562H133.238C131.727 137.562 130.495 138.786 130.495 140.306C130.495 141.817 131.718 143.049 133.238 143.049H187.143C188.654 143.049 189.887 141.826 189.887 140.306C189.878 138.795 188.654 137.562 187.143 137.562Z" fill="url(#paint13_linear_872_94624)" stroke="#1E212A" stroke-width="0.334375" stroke-miterlimit="10" stroke-linejoin="round"/>
<path d="M135.972 160.517C135.972 159.006 134.749 157.773 133.229 157.773C131.718 157.773 130.485 158.997 130.485 160.517C130.485 162.028 131.709 163.26 133.229 163.26C134.749 163.251 135.972 162.028 135.972 160.517Z" fill="white" stroke="#1E212A" stroke-width="0.334375" stroke-miterlimit="10"/>
<path d="M135.972 150.281C135.972 148.77 134.749 147.537 133.229 147.537C131.718 147.537 130.485 148.761 130.485 150.281C130.485 151.792 131.709 153.024 133.229 153.024C134.749 153.024 135.972 151.792 135.972 150.281Z" fill="white" stroke="#1E212A" stroke-width="0.334375" stroke-miterlimit="10"/>
<path d="M135.961 140.665C136.146 139.162 135.077 137.793 133.573 137.607C132.069 137.422 130.7 138.491 130.515 139.995C130.33 141.499 131.399 142.868 132.902 143.053C134.406 143.238 135.775 142.169 135.961 140.665Z" fill="white" stroke="#1E212A" stroke-width="0.334375" stroke-miterlimit="10"/>
<path d="M180.991 128.163C180.991 129.062 180.262 129.791 179.363 129.791C178.463 129.791 177.735 129.062 177.735 128.163C177.735 127.263 178.463 126.535 179.363 126.535C180.262 126.535 180.991 127.263 180.991 128.163Z" fill="white" stroke="#1E212A" stroke-width="0.334375" stroke-miterlimit="10"/>
<path d="M186.972 128.163C186.972 129.062 186.243 129.791 185.344 129.791C184.444 129.791 183.716 129.062 183.716 128.163C183.716 127.263 184.444 126.535 185.344 126.535C186.243 126.535 186.972 127.263 186.972 128.163Z" fill="white" stroke="#1E212A" stroke-width="0.334375" stroke-miterlimit="10"/>
<path d="M192.945 128.163C192.945 129.062 192.216 129.791 191.317 129.791C190.417 129.791 189.688 129.062 189.688 128.163C189.688 127.263 190.417 126.535 191.317 126.535C192.216 126.535 192.945 127.263 192.945 128.163Z" fill="white" stroke="#1E212A" stroke-width="0.334375" stroke-miterlimit="10"/>
<defs>
<linearGradient id="paint0_linear_872_94624" x1="107.585" y1="94.7243" x2="107.585" y2="148.715" gradientUnits="userSpaceOnUse">
<stop stop-color="#FF44DD"/>
<stop offset="1" stop-color="#EBCA40"/>
</linearGradient>
<linearGradient id="paint1_linear_872_94624" x1="72.1334" y1="139.429" x2="91.8121" y2="139.429" gradientUnits="userSpaceOnUse">
<stop stop-color="#1BC99F"/>
<stop offset="1" stop-color="#3EC6EB"/>
</linearGradient>
<linearGradient id="paint2_linear_872_94624" x1="72.1332" y1="102.189" x2="91.6585" y2="102.189" gradientUnits="userSpaceOnUse">
<stop stop-color="#3885FF"/>
<stop offset="1" stop-color="#635DFF"/>
</linearGradient>
<linearGradient id="paint3_linear_872_94624" x1="78.3545" y1="110.24" x2="176.921" y2="40.1541" gradientUnits="userSpaceOnUse">
<stop offset="0.0438" stop-color="#FF4F40"/>
<stop offset="1" stop-color="#FC44DD"/>
</linearGradient>
<linearGradient id="paint4_linear_872_94624" x1="147.793" y1="108.52" x2="205.39" y2="17.2342" gradientUnits="userSpaceOnUse">
<stop stop-color="#E9ECEE"/>
<stop offset="1" stop-color="white"/>
</linearGradient>
<linearGradient id="paint5_linear_872_94624" x1="159.859" y1="68.4848" x2="179.267" y2="68.4848" gradientUnits="userSpaceOnUse">
<stop stop-color="#E9ECEE"/>
<stop offset="1" stop-color="white"/>
</linearGradient>
<linearGradient id="paint6_linear_872_94624" x1="61.5971" y1="78.409" x2="101.203" y2="78.409" gradientUnits="userSpaceOnUse">
<stop stop-color="#BBC2CD"/>
<stop offset="0.9734" stop-color="white"/>
</linearGradient>
<linearGradient id="paint7_linear_872_94624" x1="52.8093" y1="78.1504" x2="109.646" y2="40.3832" gradientUnits="userSpaceOnUse">
<stop stop-color="#FC50D5"/>
<stop offset="1" stop-color="#EAC550"/>
</linearGradient>
<linearGradient id="paint8_linear_872_94624" x1="98.8285" y1="78.3735" x2="106.466" y2="78.3735" gradientUnits="userSpaceOnUse">
<stop stop-color="#2BC8A0"/>
<stop offset="1" stop-color="#47C7E9"/>
</linearGradient>
<linearGradient id="paint9_linear_872_94624" x1="41.316" y1="60.8537" x2="98.1526" y2="23.0864" gradientUnits="userSpaceOnUse">
<stop stop-color="#FF44DD"/>
<stop offset="1" stop-color="#EBCA40"/>
</linearGradient>
<linearGradient id="paint10_linear_872_94624" x1="132.054" y1="166.237" x2="197.401" y2="125.723" gradientUnits="userSpaceOnUse">
<stop stop-color="#3885FF"/>
<stop offset="1" stop-color="#635DFF"/>
</linearGradient>
<linearGradient id="paint11_linear_872_94624" x1="130.492" y1="160.512" x2="174.254" y2="160.512" gradientUnits="userSpaceOnUse">
<stop stop-color="#1BC99F"/>
<stop offset="1" stop-color="#3EC6EB"/>
</linearGradient>
<linearGradient id="paint12_linear_872_94624" x1="130.492" y1="150.278" x2="189.882" y2="150.278" gradientUnits="userSpaceOnUse">
<stop stop-color="#1BC99F"/>
<stop offset="1" stop-color="#3EC6EB"/>
</linearGradient>
<linearGradient id="paint13_linear_872_94624" x1="130.492" y1="140.309" x2="189.882" y2="140.309" gradientUnits="userSpaceOnUse">
<stop stop-color="#1BC99F"/>
<stop offset="1" stop-color="#3EC6EB"/>
</linearGradient>
</defs>
</svg>
