<svg xmlns="http://www.w3.org/2000/svg" viewBox="0 0 328.5 96">
<path fill="#FFFFFF" d="M45.8,96c-11.7,0-23.5-4.5-32.4-13.4c-17.9-17.9-17.9-47,0-64.8C22.7,8.5,35.6,3.6,48.7,4.4l2.9,0.2L49,6
	c-2.4,1.3-4.6,3-6.6,5c-1,1-2,2.1-2.8,3.2c-2.1,2.8-3.7,6-4.8,9.4c-0.9,3.1-1.4,6.3-1.3,9.6c0.1,3.1,0.7,6.2,1.7,9.2
	c1.5,4.2,3.8,7.9,7,11l0.2,0.2c3.2,3.1,6.9,5.5,11.1,7c3,1.1,6,1.6,9.2,1.7c3.3,0.1,6.5-0.3,9.6-1.2c3.4-1,6.6-2.6,9.4-4.8
	c1.1-0.8,2.2-1.7,3.2-2.8c2-2,3.6-4.2,5-6.6l1.4-2.6l0.2,2.9c0.8,13.1-4,26-13.3,35.3C69.3,91.5,57.6,96,45.8,96 M45.7,6.1
	c-11.6,0-22.8,4.6-31.1,12.9C6.3,27.3,1.7,38.4,1.7,50.2C1.7,62,6.3,73,14.6,81.4C23,89.7,34,94.3,45.8,94.3
	c11.8,0,22.9-4.6,31.2-12.9c8.3-8.3,12.9-19.5,12.9-31.1c-1.1,1.6-2.4,3.1-3.8,4.5c-1.1,1.1-2.2,2.1-3.4,2.9c-3,2.3-6.3,4-10,5
	c-3.3,1-6.7,1.4-10.1,1.3c-3.3-0.1-6.6-0.7-9.7-1.8c-4.4-1.6-8.3-4.1-11.7-7.4l-0.1-0.1c0,0-0.1-0.1-0.1-0.1
	c-3.3-3.3-5.8-7.3-7.3-11.6c-1.1-3.1-1.7-6.4-1.8-9.7c-0.1-3.4,0.3-6.8,1.3-10.1c1.1-3.6,2.8-7,5-10c0.9-1.2,1.8-2.3,2.9-3.4
	C42.6,8.4,44.1,7.2,45.7,6.1"/>
<path fill="#FFFFFF" d="M45.8,65c-3.8,0-7.7-1.5-10.5-4.4c-5-5-5.8-12.9-1.9-18.8l1.5-2.3l0.9,2.6c1.5,4.1,3.8,7.7,6.9,10.8l0.2,0.2
	c3.1,3.1,6.8,5.4,10.9,6.9l2.6,0.9l-2.3,1.5C51.6,64.2,48.7,65,45.8,65 M34.4,46c-1.6,4.3-0.6,9.4,2.8,12.8
	c3.4,3.4,8.4,4.4,12.8,2.8c-3.4-1.6-6.4-3.7-9.1-6.3l-0.1-0.1c-0.1-0.1-0.1-0.1-0.1-0.1C38.1,52.3,36,49.3,34.4,46"/>
<path fill="#FFFFFF" d="M45.8,72.8c-6,0-11.7-2.4-16-6.6c-8.8-8.8-8.8-23.2,0-32c0.7-0.7,1.4-1.3,2.2-1.9l1.9-1.5l0.1,2.4
	c0.1,3.1,0.7,6.2,1.7,9.1c1.5,4.1,3.8,7.8,6.9,10.9l0.2,0.2c3.1,3.1,6.8,5.4,10.9,6.9c2.9,1,6,1.6,9.1,1.7l2.4,0.1l-1.5,1.9
	c-0.6,0.8-1.2,1.5-1.9,2.2C57.5,70.4,51.9,72.8,45.8,72.8 M31.7,35.8c0,0-0.1,0.1-0.1,0.1c-7.8,7.8-7.8,20.6,0,28.5
	c3.8,3.8,8.8,5.9,14.2,5.9s10.4-2.1,14.2-5.9c0,0,0.1-0.1,0.1-0.1c-2.5-0.3-4.9-0.8-7.3-1.7c-4.5-1.6-8.4-4.1-11.8-7.5L41,55
	c0-0.1-0.1-0.1-0.1-0.1c-3.3-3.4-5.8-7.3-7.4-11.8C32.6,40.8,32,38.3,31.7,35.8"/>
<path fill="#FFFFFF" d="M45.8,80.5c-8.1,0-15.7-3.2-21.5-8.9c-11.8-11.8-11.8-31.1,0-42.9c2.7-2.7,5.8-4.8,9.3-6.4l2.2-1l-0.7,2.3
	c-0.9,3.1-1.3,6.3-1.2,9.5c0.1,3.1,0.7,6.2,1.7,9.1c1.5,4.1,3.8,7.8,6.9,10.9l0.2,0.2c3.1,3.1,6.8,5.4,11,6.9c2.9,1,6,1.6,9.1,1.7
	c3.2,0.1,6.4-0.3,9.5-1.2l2.3-0.7l-1,2.2c-1.5,3.5-3.7,6.6-6.3,9.3C61.6,77.4,53.9,80.5,45.8,80.5 M32.4,25.5
	c-2.4,1.3-4.5,2.9-6.5,4.8c-11,11-11,28.8,0,39.8c5.3,5.3,12.4,8.2,19.9,8.2c7.5,0,14.6-2.9,19.9-8.2c1.9-1.9,3.5-4.1,4.8-6.4
	c-2.6,0.6-5.2,0.8-7.8,0.7c-3.3-0.1-6.6-0.7-9.8-1.8c-4.5-1.6-8.4-4.1-11.8-7.4l-0.1-0.1c0,0-0.1-0.1-0.1-0.1
	c-3.3-3.4-5.8-7.3-7.4-11.7c-1.1-3.1-1.7-6.4-1.8-9.8C31.6,30.6,31.8,28,32.4,25.5"/>
<path fill="#FFFFFF" d="M45.8,88.3c-9.8,0-19.5-3.7-26.9-11.1C4,62.3,4,38.1,18.9,23.2c5.5-5.5,12.4-9.1,19.9-10.5l2.5-0.5l-1.5,2
	c-2.1,2.8-3.7,6-4.7,9.4c-0.9,3.1-1.3,6.3-1.2,9.5c0.1,3.1,0.7,6.2,1.7,9.2c1.5,4.1,3.8,7.8,6.9,11l0.2,0.2c3.1,3.1,6.8,5.5,11,6.9
	c2.9,1,6,1.6,9.1,1.7c3.2,0.1,6.4-0.3,9.5-1.2c3.4-1,6.6-2.6,9.4-4.8l2-1.5l-0.5,2.5c-1.4,7.6-5,14.5-10.5,19.9
	C65.3,84.5,55.6,88.3,45.8,88.3 M36.7,15.2c-6.2,1.6-11.9,4.8-16.5,9.4c-14.1,14.1-14.1,37,0,51.1c14.1,14.1,37,14.1,51.1,0
	c4.6-4.6,7.8-10.2,9.4-16.5c-2.4,1.6-5.1,2.8-7.9,3.6c-3.3,1-6.7,1.4-10.2,1.3c-3.3-0.1-6.6-0.7-9.8-1.8c-4.4-1.6-8.4-4.1-11.7-7.4
	l-0.1-0.1c0,0-0.1-0.1-0.1-0.1c-3.3-3.4-5.8-7.3-7.4-11.7c-1.1-3.1-1.7-6.4-1.8-9.8c-0.1-3.4,0.3-6.9,1.3-10.2
	C34,20.3,35.2,17.7,36.7,15.2"/>
<path fill="#FFFFFF" d="M42.9,53.2l-0.1-0.1c-1.6-1.7-1.6-4.3,0.1-5.9c0.8-0.8,1.9-1.2,3-1.2h0c1.1,0,2.2,0.4,3,1.2
	c1.7,1.7,1.7,4.3,0,6c-0.8,0.8-1.9,1.2-3,1.2C44.8,54.4,43.7,54,42.9,53.2 M38.8,48.2c-0.1-0.2-0.2-0.4-0.4-0.6
	c-0.2-0.3-0.3-0.5-0.5-0.8c-0.1-0.2-0.2-0.4-0.3-0.6c-0.1-0.3-0.3-0.5-0.4-0.8C37.1,45.2,37,45,37,44.8c-0.1-0.3-0.2-0.5-0.4-0.8
	c-0.1-0.2-0.2-0.4-0.3-0.6c-0.1-0.2-0.1-0.3-0.2-0.5c0.3-0.4,0.7-0.9,1.1-1.3c2.3-2.3,5.3-3.5,8.6-3.5c3.2,0,6.3,1.3,8.6,3.5
	c2.3,2.3,3.5,5.3,3.5,8.6s-1.3,6.3-3.5,8.6h0c-0.4,0.4-0.8,0.8-1.3,1.1c-0.2-0.1-0.3-0.1-0.5-0.2c-0.2-0.1-0.5-0.2-0.7-0.3
	c-0.3-0.1-0.5-0.2-0.8-0.4c-0.2-0.1-0.4-0.2-0.7-0.3c-0.3-0.1-0.5-0.3-0.8-0.4c-0.2-0.1-0.4-0.2-0.6-0.3c-0.3-0.1-0.5-0.3-0.7-0.4
	c-0.2-0.1-0.4-0.2-0.6-0.4c-0.1-0.1-0.2-0.2-0.3-0.2c1.2-0.3,2.4-0.9,3.3-1.8c2.7-2.7,2.7-7.2,0-9.9c-1.3-1.3-3.1-2.1-4.9-2.1h0
	c-1.9,0-3.6,0.7-5,2.1c-0.9,0.9-1.5,2.1-1.8,3.3C39,48.4,38.9,48.3,38.8,48.2 M34.8,38.3c0-0.1,0-0.2-0.1-0.3
	c-0.1-0.6-0.2-1.2-0.3-1.8c0-0.1,0-0.2,0-0.3c-0.1-0.6-0.1-1.2-0.2-1.9c0,0,0-0.1,0-0.1c7.9-5.6,18.8-4.8,25.7,2.1
	c6.9,6.9,7.8,17.9,2.1,25.7c0,0-0.1,0-0.1,0c-0.6,0-1.2-0.1-1.9-0.2c-0.1,0-0.2,0-0.3,0c-0.6-0.1-1.2-0.2-1.8-0.3
	c-0.1,0-0.2,0-0.3-0.1c-0.5-0.1-1-0.2-1.5-0.4c0.1-0.1,0.1-0.1,0.2-0.2c2.8-2.8,4.4-6.5,4.4-10.5s-1.5-7.7-4.4-10.5
	c-2.8-2.8-6.5-4.4-10.5-4.4c-4,0-7.7,1.5-10.5,4.4c-0.1,0.1-0.1,0.1-0.2,0.2C35,39.3,34.9,38.8,34.8,38.3 M34.2,30.4
	c0-0.2,0-0.5,0-0.7c0-0.2,0-0.3,0-0.5c0-0.2,0-0.4,0.1-0.7c0-0.2,0-0.3,0.1-0.5c0-0.2,0.1-0.4,0.1-0.6c0-0.2,0.1-0.3,0.1-0.5
	c0-0.2,0.1-0.4,0.1-0.6c0-0.2,0.1-0.4,0.1-0.5c0-0.2,0.1-0.4,0.1-0.6c0-0.2,0.1-0.4,0.1-0.5c0-0.1,0.1-0.2,0.1-0.3
	c10.4-4.3,22.3-1.9,30.3,6.1c8,8,10.4,19.8,6.1,30.3c-0.1,0-0.2,0.1-0.3,0.1c-0.1,0-0.3,0.1-0.4,0.1c-0.2,0.1-0.5,0.1-0.7,0.2
	c-0.1,0-0.3,0.1-0.4,0.1c-0.3,0.1-0.5,0.1-0.8,0.1c-0.1,0-0.2,0-0.4,0.1c-0.3,0-0.6,0.1-0.8,0.1c-0.1,0-0.2,0-0.3,0
	c-0.3,0-0.6,0.1-0.9,0.1c-0.1,0-0.2,0-0.3,0c-0.3,0-0.6,0-0.9,0.1c5.2-8.8,3.9-20.3-3.5-27.7c-7.4-7.4-18.9-8.7-27.7-3.5
	C34.2,30.6,34.2,30.5,34.2,30.4 M36.5,20.9c0.1-0.2,0.2-0.5,0.3-0.7c0.1-0.2,0.2-0.3,0.2-0.5c0.1-0.2,0.2-0.4,0.3-0.7
	c0.1-0.2,0.2-0.3,0.3-0.5c0.1-0.2,0.2-0.4,0.3-0.6c0.1-0.2,0.2-0.3,0.3-0.5c0.1-0.2,0.2-0.4,0.4-0.6c0.1-0.2,0.2-0.3,0.3-0.5
	c0.1-0.2,0.3-0.4,0.4-0.6c0.1-0.1,0.2-0.3,0.3-0.4c0.1-0.1,0.2-0.2,0.3-0.4c11.4-1.9,23.1,1.8,31.3,10c8.2,8.2,11.9,19.9,10,31.3
	c-0.1,0.1-0.2,0.2-0.3,0.2c-0.2,0.1-0.3,0.2-0.5,0.3c-0.2,0.1-0.4,0.3-0.6,0.4c-0.2,0.1-0.3,0.2-0.5,0.3c-0.2,0.1-0.4,0.2-0.6,0.4
	c-0.2,0.1-0.3,0.2-0.5,0.3c-0.2,0.1-0.4,0.2-0.6,0.3c-0.2,0.1-0.3,0.2-0.5,0.2c-0.2,0.1-0.5,0.2-0.7,0.3c-0.2,0.1-0.3,0.1-0.5,0.2
	c-0.2,0.1-0.5,0.2-0.7,0.3c0,0-0.1,0-0.1,0c3.6-10.9,0.8-22.8-7.5-31.1c-8.3-8.3-20.2-11-31.1-7.5C36.4,21,36.4,20.9,36.5,20.9
	 M42.8,11.4c0.5-0.5,1-0.9,1.5-1.4c0.2-0.1,0.3-0.3,0.5-0.4c0.3-0.3,0.7-0.6,1.1-0.9c0.2-0.2,0.4-0.3,0.6-0.4c0.3-0.2,0.7-0.5,1-0.7
	c0.2-0.2,0.5-0.3,0.7-0.4C48.4,7,48.7,6.8,49,6.7c10.4,0.8,20.3,5.2,27.7,12.7c7.4,7.4,11.9,17.2,12.7,27.7
	c-0.2,0.3-0.3,0.6-0.5,0.8c-0.1,0.2-0.3,0.5-0.4,0.7c-0.2,0.3-0.5,0.7-0.7,1c-0.1,0.2-0.3,0.4-0.4,0.6c-0.3,0.4-0.6,0.7-0.9,1
	c-0.1,0.2-0.3,0.3-0.4,0.5c-0.4,0.5-0.9,1-1.4,1.5c-0.2,0.2-0.3,0.3-0.5,0.4c1-11.3-3-22.6-11.1-30.7c-8.1-8.1-19.4-12.1-30.7-11.1
	C42.5,11.7,42.7,11.5,42.8,11.4 M78.6,17.4C71.8,10.6,63.1,6.1,53.7,4.5c3.2-1.2,6.6-1.7,10-1.7c7.7,0,15.3,3,20.9,8.6
	c8.2,8.2,10.7,20.3,6.9,30.9C89.9,32.9,85.4,24.2,78.6,17.4 M48.3,3.9L48.3,3.9L48,4.1c-2.6,1.4-5,3.2-7.1,5.4c-1,1-1.8,2-2.6,3l0,0
	l-0.3,0.4c-2.2,2.9-3.8,6.1-4.9,9.5l0,0L32.8,23c-0.9,3.1-1.4,6.3-1.4,9.6l0,0l0,0.7c0.1,3.1,0.6,6.2,1.6,9.2l0,0l0.2,0.7
	c0.2,0.6,0.4,1.1,0.6,1.6c0.1,0.1,0.1,0.3,0.2,0.4c0.2,0.4,0.4,0.8,0.6,1.2c0.1,0.2,0.2,0.3,0.3,0.5c0.2,0.4,0.4,0.7,0.6,1.1
	c0.1,0.2,0.2,0.4,0.3,0.6c0.2,0.3,0.4,0.6,0.6,0.9c0.1,0.2,0.3,0.4,0.4,0.6c0.2,0.3,0.4,0.6,0.6,0.9c0.2,0.2,0.3,0.4,0.5,0.6
	c0.2,0.3,0.4,0.5,0.6,0.8c0.2,0.2,0.4,0.4,0.6,0.7c0.2,0.2,0.4,0.5,0.6,0.7c0.2,0.2,0.4,0.5,0.7,0.7c0.2,0.2,0.3,0.4,0.5,0.6
	c0.1,0.1,0.1,0.1,0.1,0.2l0.4,0.4h0c0.2,0.2,0.3,0.3,0.5,0.5c0.2,0.2,0.4,0.4,0.6,0.6c0.2,0.2,0.5,0.4,0.7,0.6
	c0.2,0.2,0.4,0.3,0.6,0.5c0,0,0.1,0.1,0.1,0.1c0.2,0.2,0.4,0.3,0.6,0.5c0.2,0.2,0.4,0.3,0.6,0.5c0.2,0.1,0.4,0.3,0.6,0.4
	c0.1,0,0.1,0.1,0.2,0.1c0.2,0.1,0.4,0.3,0.6,0.4c0.3,0.2,0.6,0.4,0.9,0.5c0.2,0.1,0.4,0.2,0.6,0.4c0.3,0.2,0.6,0.3,1,0.5
	c0.2,0.1,0.4,0.2,0.6,0.3c0,0,0,0,0.1,0c0.3,0.2,0.7,0.3,1,0.5c0.2,0.1,0.3,0.2,0.5,0.2c0.5,0.2,1.1,0.4,1.6,0.6c0,0,0,0,0,0
	l0.6,0.2l0,0c3,1,6.1,1.5,9.2,1.6h0l0.7,0l0,0c0.1,0,0.2,0,0.3,0c3.1,0,6.3-0.5,9.3-1.4l0.6-0.2l0,0c0.4-0.1,0.8-0.3,1.1-0.4
	c3-1.1,5.8-2.6,8.4-4.5c0,0,0,0,0,0c0,0,0,0,0,0l0.4-0.3l0,0c1-0.8,2-1.7,3-2.6c2.1-2.1,3.9-4.5,5.4-7.1l0.2-0.4l0,0
	c6.8-12.5,4.5-28.1-5.6-38.2C80.4,3.2,72,0,63.7,0C58.4,0,53.1,1.3,48.3,3.9"/>
<polygon fill="#FFFFFF" points="106.6,30.1 124.4,30.1 124.4,35.1 112.2,35.1 112.2,42.3 123.4,42.3 123.4,47 112.2,47 112.2,54.6
	124.4,54.6 124.4,59.6 106.6,59.6 "/>
<path fill="#FFFFFF" d="M128.1,48.7c0-6.9,4.8-11.4,9.7-11.4c3.2,0,5.9,1.6,7.4,4.1l0.6-3.6h4.6v21.8h-4.6l-0.6-3.6
	c-1.5,2.5-4.2,4.1-7.4,4.1C132.8,60.1,128.1,55.6,128.1,48.7 M144.9,48.7c0-3.8-2.4-6.5-5.6-6.5c-3.3,0-5.7,2.7-5.7,6.5
	s2.5,6.5,5.7,6.5C142.5,55.2,144.9,52.5,144.9,48.7"/>
<path fill="#FFFFFF" d="M155,37.8h4.4l0.6,3.3h0.1c1.5-2.7,4.1-3.6,6-3.6c0.6,0,1.1,0,1.6,0.2v5.1c-0.6-0.1-1.1-0.2-1.7-0.2
	c-2.7,0-5.4,1.5-5.4,5.7v11.2H155V37.8z"/>
<path fill="#FFFFFF" d="M179,37.8h5.9v4.6H179v8.8c0,2.9,1.9,4.1,4.4,4.1c0.6,0,1.3-0.1,1.9-0.2v4.7c-0.7,0.2-1.7,0.3-3.1,0.3
	c-5.4,0-8.5-3.2-8.5-8.6v-9.1h-3.2v-4.6h3.2v-5.1h5.3V37.8z"/>
<path fill="#FFFFFF" d="M194.7,40.1L194.7,40.1c1.3-1.6,3.5-2.8,6-2.8c4.7,0,7.7,2.7,7.7,7.8v14.5H203V46.7c0-3-1.3-4.4-3.9-4.4
	c-2.4,0-4.4,1.4-4.4,4.2v13.1h-5.5V27.8h5.5V40.1z"/>
<path fill="#FFFFFF" d="M231,31.4v5.2c-2-1.4-4.8-2.3-7.2-2.3c-2.7,0-4.8,1.2-4.8,3.4c0,2,1.8,3,5.2,4.4c4.3,1.8,8.6,3.6,8.6,9
	c0,5.5-4.4,9-10.5,9c-3.6,0-6.8-1.3-8.8-2.7V52c2.1,1.9,5.2,3.3,8.3,3.3c3,0,5.3-1.5,5.3-3.9c0-2.2-2.1-3.3-5.6-4.8
	c-3.9-1.6-8-3.5-8-8.6c0-5.1,4.1-8.6,10.1-8.6C226.5,29.5,229.1,30.3,231,31.4"/>
<path fill="#FFFFFF" d="M248,55.2c1.7,0,3.8-0.4,5.6-1.7v5.1c-1.7,1-4,1.5-6.3,1.5c-6.4,0-11.3-4.8-11.3-11.5c0-6.6,4.9-11.4,11.3-11.4
	c2.2,0,4.5,0.4,6.3,1.5V44c-1.8-1.2-3.6-1.7-5.6-1.7c-3.4,0-6.5,2.5-6.5,6.5C241.5,52.7,244.5,55.2,248,55.2"/>
<path fill="#FFFFFF" d="M256.7,48.7c0-6.7,4.9-11.4,11.2-11.4c6.4,0,11.2,4.7,11.2,11.4c0,6.7-4.8,11.4-11.2,11.4
	C261.6,60.1,256.7,55.4,256.7,48.7 M273.7,48.7c0-4.1-2.8-6.5-5.7-6.5c-2.9,0-5.7,2.3-5.7,6.5c0,4.1,2.8,6.5,5.7,6.5
	C270.9,55.2,273.7,52.8,273.7,48.7"/>
<path fill="#FFFFFF" d="M282.7,37.8h4.6l0.6,3.6c1.5-2.5,4.2-4.1,7.3-4.1c5.1,0,9.8,4.4,9.8,11.4c0,7-4.6,11.4-9.7,11.4
	c-2.9,0-5.7-1.6-7.1-3.9v11.7h-5.5V37.8z M299.4,48.7c0-3.8-2.5-6.4-5.7-6.4c-3.2,0-5.7,2.7-5.7,6.5c0,3.8,2.5,6.5,5.6,6.5
	C297,55.2,299.4,52.5,299.4,48.7"/>
<path fill="#FFFFFF" d="M328.3,50.3h-15.3c0.8,3.5,3.6,5.4,7.2,5.4c2.4,0,4.8-0.9,6.9-2.4V58c-2.2,1.4-4.8,2.1-7.6,2.1
	c-7.4,0-11.8-4.7-11.8-11.4c0-7,4.9-11.5,10.8-11.5c5.4,0,9.9,3.8,9.9,11C328.5,49.1,328.4,49.7,328.3,50.3 M323.3,46.8
	c-0.1-3.4-2.1-5.1-4.7-5.1c-2.7,0-5,2-5.6,5.1H323.3z"/>
<path fill="#FFFFFF" d="M117.7,93.4c-6.4,0-12.3-5-12.3-13.1c0-8,5.9-13,12.3-13c2.9,0,5,0.8,6.6,1.7v2.5c-2-1.2-3.8-2-6.6-2
	c-4.8,0-9.9,3.9-9.9,10.8c0,6.8,5,10.8,9.9,10.8c2.7,0,4.6-0.8,6.6-2v2.6C122.7,92.6,120.6,93.4,117.7,93.4"/>
<path fill="#FFFFFF" d="M126.7,83.8c0-5.4,3.7-9.4,8.8-9.4c5.1,0,8.8,4.1,8.8,9.4s-3.7,9.4-8.8,9.4C130.4,93.3,126.7,89.2,126.7,83.8
	 M142.1,83.8c0-4.6-3.2-7.2-6.5-7.2c-3.4,0-6.6,2.6-6.6,7.2c0,4.6,3.2,7.2,6.6,7.2C138.9,91.1,142.1,88.4,142.1,83.8"/>
<path fill="#FFFFFF" d="M162.3,80.9v12H160v-11c0-3.5-1.6-5.2-4.7-5.2c-2.8,0-5,2.1-5,5v11.2H148V74.8h1.8l0.3,2.8h0.1
	c1-1.7,3-3.2,5.6-3.2C159.7,74.4,162.3,77,162.3,80.9"/>
<path fill="#FFFFFF" d="M178.1,76v2.5c-1.3-1.1-3.2-2-5.4-2c-2.5,0-3.9,1.1-3.9,2.8c0,1.9,1.7,2.5,4.3,3.3c2.7,0.8,5.9,1.7,5.9,5.3
	c0,3.2-2.5,5.3-6.4,5.3c-2.2,0-4.5-0.7-6.2-2.1v-2.7c1.4,1.5,3.5,2.7,6.1,2.7c2.7,0,4.2-1.3,4.2-3.1c0-2-1.9-2.7-4.6-3.5
	c-3-0.9-5.7-1.8-5.7-5c0-3,2.4-5.1,6.2-5.1C174.8,74.4,176.9,75,178.1,76"/>
<path fill="#FFFFFF" d="M181.5,83.8c0-5.4,3.7-9.4,8.8-9.4c5.1,0,8.8,4.1,8.8,9.4s-3.7,9.4-8.8,9.4C185.3,93.3,181.5,89.2,181.5,83.8
	 M196.9,83.8c0-4.6-3.2-7.2-6.5-7.2c-3.4,0-6.6,2.6-6.6,7.2c0,4.6,3.2,7.2,6.6,7.2C193.7,91.1,196.9,88.4,196.9,83.8"/>
<path fill="#FFFFFF" d="M202.2,74.8h1.8l0.3,2.9h0c1.2-2.4,3.6-3.1,5.3-3.1c0.4,0,0.8,0,1.1,0.1v2.2c-0.4-0.1-0.8-0.1-1.2-0.1
	c-2.5,0-5.1,1.7-5.1,5.3v10.8h-2.3V74.8z"/>
<path fill="#FFFFFF" d="M218.7,74.8h5.3v2.1h-5.3v9.9c0,3,1.7,4.3,4.1,4.3c0.5,0,1-0.1,1.6-0.2v2.1c-0.2,0-1,0.2-1.9,0.2
	c-3.6,0-6.1-2.2-6.1-6.2v-10h-2.7v-2.1h2.8v-4.3h2.2V74.8z"/>
<path fill="#FFFFFF" d="M228,68.5c0-0.9,0.6-1.5,1.6-1.5c0.9,0,1.6,0.6,1.6,1.5c0,0.9-0.6,1.6-1.6,1.6C228.6,70,228,69.4,228,68.5
	 M228.4,74.8h2.3v18.1h-2.3V74.8z"/>
<path fill="#FFFFFF" d="M236.3,86.1V74.8h2.3v11.4c0,3,1.8,4.9,4.8,4.9c3,0,4.9-1.9,4.9-4.9V74.8h2.3v11.3c0,4.3-2.8,7.2-7.2,7.2
	C238.9,93.3,236.3,90.3,236.3,86.1"/>
<path fill="#FFFFFF" d="M278.6,80.8v12.1h-2.3V81c0-2.8-1.2-4.4-3.8-4.4c-2.6,0-4.2,2.2-4.2,4.5v11.8H266V81c0-2.8-1.1-4.4-3.8-4.4
	c-2.7,0-4.2,2.3-4.2,4.6v11.6h-2.3V74.8h1.8l0.3,2.7h0.1c0.9-1.8,2.6-3.1,4.8-3.1c2.6,0,4.2,1.1,5,3.2c1-1.9,2.7-3.2,5.2-3.2
	C276.8,74.4,278.6,77.1,278.6,80.8"/>
</svg>
