<svg version="1.1" xmlns="http://www.w3.org/2000/svg" x="0px" y="0px" viewBox="0 0 192 40">
<path fill="#ffffff" d="M50.2,7.8h3.2v8.9c1.3-1.9,3.1-2.9,5.2-2.9c2.9,0,4.6,1.6,4.6,4.8v10.9h-3.2v-10c0-2.2-0.8-2.8-2.4-2.8
	c-1,0-1.9,0.6-2.8,1.7c-0.9,1.2-1.3,2.7-1.3,4.6v6.5h-3.2L50.2,7.8L50.2,7.8z"/>
<path fill="#ffffff" d="M79.2,22.6H68.3c0,2.4,1.4,4.3,3.8,4.3c1.7,0,3.3-1,4-2.6l2.7,1.1c-1.6,3-3.4,4.3-6.8,4.3c-5.1,0-7.2-4.3-7.2-8
	c0-3.7,2.1-8,7.2-8c4.9,0,7.1,4,7.1,7.5V22.6z M68.4,20h7.5c-0.3-1.9-1.6-3.4-3.7-3.4C70.1,16.6,68.8,18,68.4,20z"/>
<path fill="#ffffff" d="M104.2,13.8c0.8,0,1.5,0.2,2.4,0.6c0.8,0.4,1.4,0.8,1.8,1.3v-8h3.2v21.7h-3.2v-1.8c-0.6,1-2.3,2-4.2,2
	c-4.5,0-6.9-2.9-6.9-8C97.3,16.8,99.7,13.8,104.2,13.8z M100.6,21.7c0,1.6,0.4,2.8,1.1,3.8c0.7,0.9,1.7,1.4,2.8,1.4
	c1.2,0,2.1-0.5,2.8-1.4c0.7-0.9,1.1-2.2,1.1-3.8c0-1.6-0.4-2.8-1.1-3.7c-0.7-0.9-1.7-1.4-2.8-1.4c-1.2,0-2.1,0.5-2.8,1.4
	C101,18.9,100.6,20.2,100.6,21.7z"/>
<path fill="#ffffff" d="M123.7,16.2l-2,1.8c-0.7-0.9-1.6-1.4-2.7-1.4c-0.9,0-1.5,0.6-1.5,1.5c0,0.3,0.1,0.7,0.4,0.9
	c0.5,0.5,1,0.8,2.4,1.3c1.1,0.4,1.5,0.6,2.4,1.1c1.2,0.7,1.8,1.7,1.9,3.3c0,1.4-0.5,2.5-1.5,3.5c-1,0.9-2.3,1.4-3.9,1.4
	c-2.9,0-5-1.9-6-4.1l2.7-1.5c0.8,1.9,2,2.8,3.4,2.8c1.4,0,2.1-0.7,2.1-2c0-0.5-0.2-0.9-0.8-1.2c-0.3-0.2-0.5-0.3-0.8-0.4
	c-0.5-0.2-1.6-0.6-2.1-0.8c-2.2-0.9-3.3-2.3-3.3-4.2c0-1.2,0.5-2.3,1.3-3.1c0.9-0.9,2-1.3,3.4-1.3C121,13.8,122.7,14.7,123.7,16.2z"/>
<path fill="#ffffff" d="M133.9,29.7c-1.8,0-3.4-0.9-4.1-2v8h-3.2V14h3.2v1.8c0.6-1,2.3-2,4.2-2c4.5,0,6.9,2.9,6.9,8
	C140.8,26.6,138.4,29.7,133.9,29.7z M137.5,21.7c0-1.6-0.4-2.8-1.1-3.7c-0.7-0.9-1.7-1.4-2.8-1.4c-1.2,0-2.1,0.5-2.8,1.4
	c-0.7,0.9-1.1,2.2-1.1,3.7c0,1.6,0.4,2.8,1.1,3.8c0.7,0.9,1.7,1.4,2.8,1.4c1.2,0,2.1-0.5,2.8-1.4C137.1,24.6,137.5,23.3,137.5,21.7z"/>
<path fill="#ffffff" d="M172.3,25.4c-1.3,2.8-3.5,4.3-6.7,4.3c-2.3,0-4.1-0.8-5.4-2.3c-1.3-1.5-1.9-3.4-1.9-5.7c0-2.3,0.6-4.2,1.9-5.7
	c1.3-1.5,3.1-2.3,5.4-2.3c3.2,0,5.4,1.4,6.7,4.3l-2.8,1.2c-0.8-1.8-2.1-2.7-3.8-2.7c-2.6,0-3.9,2.1-3.9,5.1c0,3.1,1.3,5.1,3.9,5.1
	c1.7,0,3-0.9,3.8-2.7L172.3,25.4z"/>
<path fill="#ffffff" d="M187.7,22.6h-10.9c0,2.4,1.4,4.3,3.8,4.3c1.7,0,3.3-1,4-2.6l2.7,1.1c-1.6,3-3.4,4.3-6.8,4.3
	c-5.1,0-7.2-4.3-7.2-8c0-3.7,2.1-8,7.2-8c4.9,0,7.1,4,7.1,7.5V22.6z M176.9,20h7.5c-0.3-1.9-1.6-3.4-3.7-3.4
	C178.6,16.6,177.2,18,176.9,20z"/>
<path fill="#ffffff" d="M88,13.8c0.8,0,1.5,0.2,2.4,0.6c0.8,0.4,1.4,0.8,1.8,1.3V14h3.2v15.5h-2.7l-0.5-1.8c-0.6,1-2.3,2-4.2,2
	c-4.5,0-6.9-2.9-6.9-8C81,16.9,83.4,13.8,88,13.8z M84.4,21.8c0,1.6,0.4,2.8,1.1,3.8c0.7,0.9,1.7,1.4,2.8,1.4c1.2,0,2.1-0.5,2.8-1.4
	c0.7-0.9,1.1-2.2,1.1-3.8c0-1.6-0.4-2.8-1.1-3.7c-0.7-0.9-1.7-1.4-2.8-1.4c-1.2,0-2.1,0.5-2.8,1.4C84.8,18.9,84.4,20.2,84.4,21.8z"/>
<path fill="#ffffff" d="M149.3,13.8c0.8,0,1.5,0.2,2.4,0.6c0.8,0.4,1.4,0.8,1.8,1.3V14h3.2v15.5h-2.7l-0.5-1.8c-0.6,1-2.3,2-4.2,2
	c-4.5,0-6.9-2.9-6.9-8C142.3,16.9,144.7,13.8,149.3,13.8z M145.7,21.8c0,1.6,0.4,2.8,1.1,3.8c0.7,0.9,1.7,1.4,2.8,1.4
	c1.2,0,2.1-0.5,2.8-1.4c0.7-0.9,1.1-2.2,1.1-3.8c0-1.6-0.4-2.8-1.1-3.7c-0.7-0.9-1.7-1.4-2.8-1.4c-1.2,0-2.1,0.5-2.8,1.4
	C146,18.9,145.7,20.2,145.7,21.8z"/>
<path fill="#ffffff" d="M40.3,19.8c0.5,6.6-2.6,10.3-4.4,12.9c-2.8,3-6.5,7.1-15.6,7.3c-7.8,0.3-11.6-3.1-14.8-6.1
	C1.3,29.3,0.2,26.5,0,19.8c0-4.2,1.6-8.3,4.4-12C8.3,2.3,14.5,0.4,20.3,0c6-0.2,10.8,2.8,14.1,6.1C38.6,10.6,39.9,14.4,40.3,19.8z"/>
<path fill="#ffffff" d="M191,14.4c-0.1-0.1-0.2-0.2-0.3-0.3c-0.1-0.1-0.3-0.2-0.4-0.2c-0.4-0.1-0.9-0.1-1.3,0.2
	c-0.1,0.1-0.2,0.2-0.3,0.3c-0.1,0.1-0.1,0.3-0.2,0.4c-0.1,0.4-0.1,0.9,0.2,1.2c0.1,0.1,0.2,0.2,0.3,0.3c0.1,0.1,0.3,0.2,0.4,0.2
	c0.1,0,0.3,0.1,0.4,0.1c0.3,0,0.6-0.1,0.8-0.3c0.1-0.1,0.2-0.2,0.3-0.3c0.1-0.1,0.1-0.3,0.2-0.4C191.3,15.2,191.2,14.7,191,14.4z
	 M190.7,15.9c-0.1,0.1-0.2,0.2-0.2,0.3c-0.1,0.1-0.2,0.1-0.3,0.2c-0.4,0.1-0.7,0.1-1-0.2c-0.1-0.1-0.2-0.2-0.2-0.3
	c-0.1-0.1-0.1-0.2-0.2-0.3c0-0.1-0.1-0.2-0.1-0.4c0-0.2,0.1-0.5,0.2-0.7c0.1-0.1,0.2-0.2,0.3-0.3c0.1-0.1,0.2-0.1,0.3-0.2
	c0.4-0.1,0.7-0.1,1,0.2c0.1,0.1,0.2,0.2,0.2,0.3c0.1,0.1,0.1,0.2,0.2,0.3C191,15.2,190.9,15.6,190.7,15.9z"/>
<path fill="#ffffff" d="M190,15.3c0.1,0,0.2,0,0.3-0.1c0.2-0.2,0.2-0.5,0.1-0.6c-0.2-0.2-0.3-0.2-0.5-0.2h-0.6V16h0.2v-0.7h0.3l0.4,0.7
	h0.3L190,15.3z M189.8,15.1h-0.3v-0.5c0.2,0,0.4,0,0.6,0c0.1,0.1,0.1,0.2,0.1,0.3c0,0.1-0.1,0.1-0.2,0.1
	C189.9,15.1,189.9,15.1,189.8,15.1z"/>
</svg>
