<svg width="63" height="63" viewBox="0 0 63 63" fill="none" xmlns="http://www.w3.org/2000/svg">
<path d="M13.0873 40.1403C13.0873 43.7424 10.176 46.6537 6.57393 46.6537C2.97183 46.6537 0.0605469 43.7424 0.0605469 40.1403C0.0605469 36.5382 2.97183 33.627 6.57393 33.627H13.0873V40.1403Z" fill="#E01E5A"/>
<path d="M16.3438 40.1403C16.3438 36.5382 19.255 33.627 22.8571 33.627C26.4592 33.627 29.3705 36.5382 29.3705 40.1403V56.4238C29.3705 60.0259 26.4592 62.9372 22.8571 62.9372C19.255 62.9372 16.3438 60.0259 16.3438 56.4238V40.1403Z" fill="#E01E5A"/>
<path d="M22.8571 13.9897C19.255 13.9897 16.3438 11.0784 16.3438 7.47628C16.3438 3.87418 19.255 0.962891 22.8571 0.962891C26.4592 0.962891 29.3705 3.87418 29.3705 7.47628V13.9897H22.8571Z" fill="#36C5F0"/>
<path d="M22.8579 17.2949C26.46 17.2949 29.3713 20.2062 29.3713 23.8083C29.3713 27.4104 26.46 30.3217 22.8579 30.3217H6.5251C2.923 30.3217 0.0117188 27.4104 0.0117188 23.8083C0.0117188 20.2062 2.923 17.2949 6.5251 17.2949H22.8579Z" fill="#36C5F0"/>
<path d="M48.959 23.8083C48.959 20.2062 51.8703 17.2949 55.4724 17.2949C59.0745 17.2949 61.9858 20.2062 61.9858 23.8083C61.9858 27.4104 59.0745 30.3217 55.4724 30.3217H48.959V23.8083Z" fill="#2EB67D"/>
<path d="M45.7025 23.8091C45.7025 27.4112 42.7913 30.3225 39.1892 30.3225C35.5871 30.3225 32.6758 27.4112 32.6758 23.8091V7.47628C32.6758 3.87418 35.5871 0.962891 39.1892 0.962891C42.7913 0.962891 45.7025 3.87418 45.7025 7.47628V23.8091Z" fill="#2EB67D"/>
<path d="M39.1892 49.9102C42.7913 49.9102 45.7025 52.8214 45.7025 56.4235C45.7025 60.0256 42.7913 62.9369 39.1892 62.9369C35.5871 62.9369 32.6758 60.0256 32.6758 56.4235V49.9102H39.1892Z" fill="#ECB22E"/>
<path d="M39.1892 46.6537C35.5871 46.6537 32.6758 43.7424 32.6758 40.1403C32.6758 36.5382 35.5871 33.627 39.1892 33.627H55.522C59.1241 33.627 62.0354 36.5382 62.0354 40.1403C62.0354 43.7424 59.1241 46.6537 55.522 46.6537H39.1892Z" fill="#ECB22E"/>
</svg>
