<svg width="78" height="78" viewBox="0 0 78 78" fill="none" xmlns="http://www.w3.org/2000/svg">
<path fill-rule="evenodd" clip-rule="evenodd" d="M61.099 26.3313H63.8363C69.837 26.3313 74.7012 31.2347 74.7012 37.2803C74.7012 43.3259 69.837 48.2264 63.8363 48.2264H44.2785C43.6177 48.2269 42.9639 48.1898 42.3193 48.117C41.7611 48.1895 41.193 48.2266 40.6178 48.2262H26.0632C21.5975 48.2262 17.9777 44.648 17.9777 40.2338C17.9777 35.8195 21.5975 32.2393 26.0632 32.2393H26.9436C26.2033 23.859 31.564 15.9273 39.918 13.7526C49.2158 11.332 58.6965 16.9667 61.099 26.3313Z" fill="#D0CEFF"/>
<path fill-rule="evenodd" clip-rule="evenodd" d="M65.4297 37.8777C63.3006 36.1043 60.2088 36.1043 58.0798 37.8777C57.7999 38.1108 57.384 38.0729 57.1508 37.793C56.9177 37.5131 56.9556 37.0972 57.2355 36.8641C59.8537 34.6833 63.6557 34.6833 66.2739 36.8641C66.5538 37.0972 66.5917 37.5131 66.3586 37.793C66.1255 38.0729 65.7096 38.1108 65.4297 37.8777Z" fill="#635DFF"/>
<path fill-rule="evenodd" clip-rule="evenodd" d="M67.452 35.7991C64.1824 32.917 59.2794 32.917 56.0098 35.7991C55.7365 36.0399 55.3197 36.0137 55.0789 35.7404C54.838 35.4672 54.8642 35.0504 55.1375 34.8095C58.9056 31.488 64.5562 31.488 68.3243 34.8095C68.5976 35.0504 68.6238 35.4672 68.383 35.7404C68.1421 36.0137 67.7253 36.0399 67.452 35.7991Z" fill="#635DFF"/>
<path fill-rule="evenodd" clip-rule="evenodd" d="M63.3731 39.9792C62.3909 39.2814 61.0747 39.2814 60.0924 39.9792C59.7955 40.1902 59.3837 40.1205 59.1727 39.8236C58.9617 39.5266 59.0314 39.1148 59.3284 38.9039C60.7681 37.881 62.6974 37.881 64.1371 38.9039C64.4341 39.1148 64.5038 39.5266 64.2928 39.8236C64.0818 40.1205 63.6701 40.1902 63.3731 39.9792Z" fill="#635DFF"/>
<path d="M62.5565 41.998C62.5565 42.4801 62.1656 42.8709 61.6835 42.8709C61.2014 42.8709 60.8105 42.4801 60.8105 41.998C60.8105 41.5158 61.2014 41.125 61.6835 41.125C62.1656 41.125 62.5565 41.5158 62.5565 41.998Z" fill="#635DFF"/>
<path fill-rule="evenodd" clip-rule="evenodd" d="M61.6835 41.5518C61.4371 41.5518 61.2373 41.7515 61.2373 41.998C61.2373 42.2444 61.4371 42.4441 61.6835 42.4441C61.9299 42.4441 62.1297 42.2444 62.1297 41.998C62.1297 41.7515 61.9299 41.5518 61.6835 41.5518ZM61.6835 42.8709C62.1656 42.8709 62.5565 42.4801 62.5565 41.998C62.5565 41.5158 62.1656 41.125 61.6835 41.125C61.2014 41.125 60.8105 41.5158 60.8105 41.998C60.8105 42.4801 61.2014 42.8709 61.6835 42.8709Z" fill="#635DFF"/>
</svg>
