<svg width="62" height="62" viewBox="0 0 62 62" fill="none" xmlns="http://www.w3.org/2000/svg">
<rect width="62" height="62" fill="white"/>
<path fill-rule="evenodd" clip-rule="evenodd" d="M30.9971 0.886719C13.881 0.886719 0 14.7104 0 31.7641C0 45.4058 8.88161 56.9777 21.2002 61.0606C22.7512 61.3449 23.3164 60.3915 23.3164 59.5726C23.3164 58.841 23.2897 56.8981 23.2745 54.3221C14.6517 56.1873 12.8324 50.1824 12.8324 50.1824C11.4222 46.6151 9.38973 45.6655 9.38973 45.6655C6.57509 43.7511 9.60287 43.789 9.60287 43.789C12.7144 44.007 14.351 46.9715 14.351 46.9715C17.1162 51.6893 21.6074 50.3265 23.3735 49.5361C23.6551 47.542 24.4563 46.1811 25.3412 45.4096C18.4578 44.6306 11.2205 41.9807 11.2205 30.1491C11.2205 26.779 12.4289 24.021 14.4119 21.864C14.0922 21.083 13.0284 17.9422 14.7164 13.6926C14.7164 13.6926 17.3179 12.8624 23.2402 16.858C25.7123 16.1719 28.3652 15.8307 31.001 15.8174C33.6348 15.8307 36.2858 16.1719 38.7617 16.858C44.6802 12.8624 47.2779 13.6926 47.2779 13.6926C48.9697 17.9422 47.9059 21.083 47.5881 21.864C49.5749 24.021 50.7738 26.779 50.7738 30.1491C50.7738 42.011 43.525 44.6211 36.6207 45.385C37.7321 46.3384 38.7236 48.2225 38.7236 51.1036C38.7236 55.2301 38.6855 58.5604 38.6855 59.5726C38.6855 60.3991 39.245 61.3601 40.817 61.0587C53.126 56.9663 62 45.402 62 31.7641C62 14.7104 48.119 0.886719 30.9971 0.886719Z" fill="#161514"/>
</svg>
