<svg width="36" height="36" viewBox="0 0 36 36" fill="none" xmlns="http://www.w3.org/2000/svg">
<rect width="36" height="36" rx="6.41961" fill="#EFF0F2"/>
<path d="M8.5 11.4C8.5 10.3507 9.35066 9.5 10.4 9.5H19.2667C20.316 9.5 21.1667 10.3507 21.1667 11.4V26.3889H10.4C9.35066 26.3889 8.5 25.5382 8.5 24.4889V11.4Z" fill="#C4C4C4"/>
<path d="M21.1667 13.7222H25.6001C26.6494 13.7222 27.5001 14.5728 27.5001 15.6222V24.4888C27.5001 25.5382 26.6494 26.3888 25.6001 26.3888H21.1667V13.7222Z" fill="#65676E"/>
<rect x="11.6667" y="12.6667" width="2.11111" height="2.11111" rx="1" fill="#65676E"/>
<rect x="11.6667" y="16.8889" width="2.11111" height="2.11111" rx="1" fill="#65676E"/>
<rect x="11.6667" y="21.1111" width="2.11111" height="2.11111" rx="1" fill="#65676E"/>
<rect x="15.8889" y="12.6667" width="2.11111" height="2.11111" rx="1" fill="#65676E"/>
<rect x="15.8889" y="16.8889" width="2.11111" height="2.11111" rx="1" fill="#65676E"/>
<rect x="23.2778" y="16.8889" width="2.11111" height="2.11111" rx="1" fill="#C4C4C4"/>
<rect x="23.2778" y="21.1111" width="2.11111" height="2.11111" rx="1" fill="#C4C4C4"/>
<rect x="15.8889" y="21.1111" width="2.11111" height="2.11111" rx="1" fill="#65676E"/>
</svg>
