<svg width="1917" height="580" viewBox="0 0 1917 580" fill="none" xmlns="http://www.w3.org/2000/svg">
<rect x="40" y="40" width="500" height="500" rx="100" fill="url(#paint0_linear_1419_3143)"/>
<g clip-path="url(#clip0_1419_3143)">
<path fill-rule="evenodd" clip-rule="evenodd" d="M399.317 288.907C399.317 349.885 349.885 399.317 288.907 399.317C227.929 399.317 178.497 349.885 178.497 288.907C178.497 227.929 227.929 178.497 288.907 178.497C349.885 178.497 399.317 227.929 399.317 288.907ZM288.907 373.081C335.395 373.081 373.081 335.395 373.081 288.907C373.081 242.419 335.395 204.733 288.907 204.733C242.419 204.733 204.733 242.419 204.733 288.907C204.733 335.395 242.419 373.081 288.907 373.081Z" fill="white"/>
<path fill-rule="evenodd" clip-rule="evenodd" d="M253.252 301.182C253.792 300.986 254.389 301.266 254.6 301.801C260.011 315.474 273.349 325.115 288.907 325.115C304.465 325.115 317.803 315.474 323.213 301.801C323.425 301.266 324.021 300.986 324.562 301.182L347.264 309.426C347.805 309.623 348.084 310.222 347.879 310.759C338.817 334.476 315.849 351.351 288.907 351.351C261.965 351.351 238.997 334.476 229.935 310.759C229.729 310.222 230.009 309.623 230.55 309.426L253.252 301.182Z" fill="white"/>
<path fill-rule="evenodd" clip-rule="evenodd" d="M410.248 401.503V358.818C410.248 358.243 410.715 357.776 411.29 357.776H435.443C436.018 357.776 436.484 358.243 436.484 358.818V401.503C436.484 420.823 420.823 436.484 401.503 436.484H358.818C358.243 436.484 357.776 436.018 357.776 435.443V411.29C357.776 410.715 358.243 410.248 358.818 410.248H401.503C406.333 410.248 410.248 406.333 410.248 401.503Z" fill="white"/>
<path fill-rule="evenodd" clip-rule="evenodd" d="M169.752 178.497V221.182C169.752 221.757 169.285 222.224 168.71 222.224H144.557C143.982 222.224 143.516 221.757 143.516 221.182V178.497C143.516 159.177 159.177 143.516 178.497 143.516H221.182C221.757 143.516 222.224 143.982 222.224 144.557V168.71C222.224 169.285 221.757 169.752 221.182 169.752H178.497C173.667 169.752 169.752 173.667 169.752 178.497Z" fill="white"/>
</g>
<path d="M732.6 413L676.6 315.7H646.15V413H606.25V169.75H690.25C708.917 169.75 724.667 173.017 737.5 179.55C750.567 186.083 760.25 194.833 766.55 205.8C773.083 216.767 776.35 229.017 776.35 242.55C776.35 258.417 771.683 272.883 762.35 285.95C753.25 298.783 739.133 307.533 720 312.2L780.2 413H732.6ZM646.15 283.85H690.25C705.183 283.85 716.383 280.117 723.85 272.65C731.55 265.183 735.4 255.15 735.4 242.55C735.4 229.95 731.667 220.15 724.2 213.15C716.733 205.917 705.417 202.3 690.25 202.3H646.15V283.85ZM997.143 311.85C997.143 319.083 996.676 325.617 995.743 331.45H848.393C849.559 346.85 855.276 359.217 865.543 368.55C875.809 377.883 888.409 382.55 903.343 382.55C924.809 382.55 939.976 373.567 948.843 355.6H991.893C986.059 373.333 975.443 387.917 960.043 399.35C944.876 410.55 925.976 416.15 903.343 416.15C884.909 416.15 868.343 412.067 853.643 403.9C839.176 395.5 827.743 383.833 819.343 368.9C811.176 353.733 807.093 336.233 807.093 316.4C807.093 296.567 811.059 279.183 818.993 264.25C827.159 249.083 838.476 237.417 852.943 229.25C867.643 221.083 884.443 217 903.343 217C921.543 217 937.759 220.967 951.993 228.9C966.226 236.833 977.309 248.033 985.243 262.5C993.176 276.733 997.143 293.183 997.143 311.85ZM955.493 299.25C955.259 284.55 950.009 272.767 939.743 263.9C929.476 255.033 916.759 250.6 901.593 250.6C887.826 250.6 876.043 255.033 866.243 263.9C856.443 272.533 850.609 284.317 848.743 299.25H955.493ZM1016.11 315.7C1016.11 296.333 1020.07 279.183 1028.01 264.25C1036.17 249.317 1047.14 237.767 1060.91 229.6C1074.91 221.2 1090.31 217 1107.11 217C1122.27 217 1135.46 220.033 1146.66 226.1C1158.09 231.933 1167.19 239.283 1173.96 248.15V220.15H1214.21V413H1173.96V384.3C1167.19 393.4 1157.97 400.983 1146.31 407.05C1134.64 413.117 1121.34 416.15 1106.41 416.15C1089.84 416.15 1074.67 411.95 1060.91 403.55C1047.14 394.917 1036.17 383.017 1028.01 367.85C1020.07 352.45 1016.11 335.067 1016.11 315.7ZM1173.96 316.4C1173.96 303.1 1171.16 291.55 1165.56 281.75C1160.19 271.95 1153.07 264.483 1144.21 259.35C1135.34 254.217 1125.77 251.65 1115.51 251.65C1105.24 251.65 1095.67 254.217 1086.81 259.35C1077.94 264.25 1070.71 271.6 1065.11 281.4C1059.74 290.967 1057.06 302.4 1057.06 315.7C1057.06 329 1059.74 340.667 1065.11 350.7C1070.71 360.733 1077.94 368.433 1086.81 373.8C1095.91 378.933 1105.47 381.5 1115.51 381.5C1125.77 381.5 1135.34 378.933 1144.21 373.8C1153.07 368.667 1160.19 361.2 1165.56 351.4C1171.16 341.367 1173.96 329.7 1173.96 316.4ZM1246.32 315.7C1246.32 296.333 1250.28 279.183 1258.22 264.25C1266.38 249.317 1277.35 237.767 1291.12 229.6C1305.12 221.2 1320.63 217 1337.67 217C1350.27 217 1362.63 219.8 1374.77 225.4C1387.13 230.767 1396.93 238 1404.17 247.1V154H1444.42V413H1404.17V383.95C1397.63 393.283 1388.53 400.983 1376.87 407.05C1365.43 413.117 1352.25 416.15 1337.32 416.15C1320.52 416.15 1305.12 411.95 1291.12 403.55C1277.35 394.917 1266.38 383.017 1258.22 367.85C1250.28 352.45 1246.32 335.067 1246.32 315.7ZM1404.17 316.4C1404.17 303.1 1401.37 291.55 1395.77 281.75C1390.4 271.95 1383.28 264.483 1374.42 259.35C1365.55 254.217 1355.98 251.65 1345.72 251.65C1335.45 251.65 1325.88 254.217 1317.02 259.35C1308.15 264.25 1300.92 271.6 1295.32 281.4C1289.95 290.967 1287.27 302.4 1287.27 315.7C1287.27 329 1289.95 340.667 1295.32 350.7C1300.92 360.733 1308.15 368.433 1317.02 373.8C1326.12 378.933 1335.68 381.5 1345.72 381.5C1355.98 381.5 1365.55 378.933 1374.42 373.8C1383.28 368.667 1390.4 361.2 1395.77 351.4C1401.37 341.367 1404.17 329.7 1404.17 316.4ZM1720.39 363.3H1618.54L1601.04 413H1559.39L1646.54 169.4H1692.74L1779.89 413H1737.89L1720.39 363.3ZM1709.19 330.75L1669.64 217.7L1629.74 330.75H1709.19ZM1850.68 169.75V413H1810.78V169.75H1850.68Z" fill="#ffffff"/>
<defs>
<linearGradient id="paint0_linear_1419_3143" x1="166.582" y1="427.658" x2="464.051" y2="163.418" gradientUnits="userSpaceOnUse">
<stop stop-color="#4361EE"/>
<stop offset="1" stop-color="#7B61FF"/>
</linearGradient>
<clipPath id="clip0_1419_3143">
<rect width="292.969" height="292.969" fill="white" transform="translate(143.516 143.516)"/>
</clipPath>
</defs>
</svg>
