<svg width="911" height="208" viewBox="0 0 911 208" fill="none" xmlns="http://www.w3.org/2000/svg"><path fill="#fff" d="M55 0h856v208H55z"/><path fill="#fff" d="M55.4 31.938h48.148v48.147H55.4z"/><circle cx="79.474" cy="56.011" r="24.073" fill="#1E212A" stroke="#65676E" stroke-width="1.605"/><path fill-rule="evenodd" clip-rule="evenodd" d="M79.582 58.639h-8.697c-.869 0-1.335-1.023-.765-1.68l9.274-10.693c.647-.745 1.865-.195 1.736.782l-1.548 11.59z" fill="#fff"/><path fill-rule="evenodd" clip-rule="evenodd" d="M78.721 52.673h8.698c.87 0 1.336 1.022.766 1.679L78.91 65.047c-.646.745-1.864.195-1.735-.782l1.547-11.592z" fill="#fff"/><path d="M71.188 97.79h1.424c-.028-1.38-1.205-2.358-2.944-2.358-1.716 0-3.004.966-3 2.41 0 1.173.834 1.847 2.178 2.194l.93.24c.881.223 1.464.498 1.468 1.133-.004.698-.666 1.164-1.632 1.164-.925 0-1.643-.414-1.703-1.272h-1.457c.06 1.624 1.27 2.537 3.172 2.537 1.959 0 3.096-.977 3.1-2.417-.004-1.417-1.173-2.063-2.402-2.354l-.766-.192c-.67-.16-1.396-.443-1.388-1.125.004-.614.554-1.065 1.48-1.065.882 0 1.464.411 1.54 1.105zm5.852-.203h-1.21v-1.469h-1.444v1.469h-.87v1.117h.87v3.407c-.007 1.153.83 1.719 1.916 1.687a2.95 2.95 0 0 0 .85-.143l-.244-1.129c-.08.02-.243.055-.423.055-.363 0-.654-.127-.654-.71v-3.167h1.209v-1.117zm2.97 6.251c.962 0 1.537-.451 1.8-.965h.048v.841h1.388v-4.1c0-1.62-1.32-2.107-2.49-2.107-1.288 0-2.277.574-2.596 1.691l1.348.192c.144-.419.55-.778 1.257-.778.67 0 1.037.343 1.037.946v.023c0 .415-.435.435-1.516.551-1.189.128-2.326.483-2.326 1.863 0 1.205.882 1.843 2.05 1.843zm.376-1.061c-.603 0-1.034-.275-1.034-.806 0-.554.483-.786 1.13-.878.378-.051 1.136-.147 1.324-.299v.722c0 .682-.55 1.261-1.42 1.261zm4.312.937h1.445v-3.602c0-.778.586-1.328 1.38-1.328.243 0 .546.043.67.083V97.54a3.471 3.471 0 0 0-.519-.04c-.702 0-1.288.399-1.512 1.109H86.1v-1.021h-1.4v6.127zm7.844-6.127h-1.21v-1.469H89.89v1.469h-.87v1.117h.87v3.407c-.008 1.153.83 1.719 1.915 1.687a2.94 2.94 0 0 0 .85-.143l-.244-1.129c-.08.02-.243.055-.423.055-.363 0-.654-.127-.654-.71v-3.167h1.209v-1.117z" fill="#65676E"/><path d="M113.579 56.413h24.074m-6.42-6.42l6.465 6.465-6.465 6.465" stroke="#1E212A" stroke-width="1.605"/><path d="M147.282 16c0-8.837 7.163-16 16-16h91.577c8.837 0 16 7.163 16 16v80.826c0 8.836-7.163 16-16 16h-91.577c-8.837 0-16-7.164-16-16V16z" fill="#C9CACE"/><rect x="189.812" y="12.839" width="38.518" height="38.518" rx="6.42" fill="#000"/><path fill-rule="evenodd" clip-rule="evenodd" d="M209.071 40.123a8.024 8.024 0 0 0 8.024-8.025 8.025 8.025 0 1 0-8.024 8.024z" stroke="#fff" stroke-width="1.204" stroke-linecap="round" stroke-linejoin="round"/><path fill-rule="evenodd" clip-rule="evenodd" d="M209.071 36.913a4.815 4.815 0 1 0 0-9.63 4.815 4.815 0 0 0 0 9.63z" stroke="#fff" stroke-width="1.204" stroke-linecap="round" stroke-linejoin="round"/><path fill-rule="evenodd" clip-rule="evenodd" d="M209.071 33.703a1.605 1.605 0 1 0 0-3.21 1.605 1.605 0 0 0 0 3.21z" stroke="#fff" stroke-width="1.204" stroke-linecap="round" stroke-linejoin="round"/><path d="M172.921 74.986h1.48v-2.76h1.564c1.887 0 2.9-1.133 2.9-2.705 0-1.56-1.001-2.705-2.88-2.705h-3.064v8.17zm1.48-3.977v-2.956h1.356c1.109 0 1.6.598 1.6 1.468s-.491 1.488-1.592 1.488h-1.364zm5.686 3.977h1.444V68.86h-1.444v6.127zm.726-6.997c.459 0 .834-.351.834-.782 0-.435-.375-.786-.834-.786-.463 0-.838.351-.838.786 0 .43.375.782.838.782zm4.876 7.117c1.54 0 2.521-.914 2.625-2.214h-1.38c-.124.658-.599 1.037-1.233 1.037-.902 0-1.484-.754-1.484-2.007 0-1.236.594-1.978 1.484-1.978.694 0 1.121.447 1.233 1.037h1.38c-.1-1.329-1.137-2.202-2.633-2.202-1.795 0-2.928 1.296-2.928 3.167 0 1.856 1.105 3.16 2.936 3.16zm3.811-.12h1.444v-2.058l.527-.563 1.875 2.621h1.727l-2.513-3.483 2.373-2.644h-1.687l-2.202 2.461h-.1v-4.504H189.5v8.17zm12.242-6.127h-1.208V67.39h-1.444v1.469h-.87v1.117h.87v3.407c-.008 1.153.829 1.719 1.914 1.687.411-.012.695-.092.85-.143l-.243-1.13c-.08.02-.244.056-.423.056-.363 0-.654-.127-.654-.71v-3.167h1.208v-1.117zm2.784 2.537c0-.886.551-1.397 1.325-1.397.758 0 1.204.483 1.204 1.309v3.678h1.445v-3.901c0-1.48-.838-2.306-2.111-2.306-.941 0-1.54.427-1.823 1.12h-.072v-3.083h-1.412v8.17h1.444v-3.59zm8.159 3.71c1.428 0 2.409-.698 2.665-1.763l-1.349-.152c-.195.519-.674.79-1.296.79-.934 0-1.552-.614-1.564-1.664h4.268v-.442c0-2.15-1.292-3.096-2.8-3.096-1.756 0-2.901 1.288-2.901 3.18 0 1.922 1.129 3.147 2.977 3.147zm-1.54-3.762c.044-.782.622-1.44 1.484-1.44.83 0 1.388.606 1.396 1.44h-2.88zm8.273 3.642h1.444V71.26c0-.754.503-1.264 1.125-1.264.61 0 1.029.41 1.029 1.04v3.95h1.417v-3.822c0-.69.41-1.168 1.109-1.168.582 0 1.045.343 1.045 1.1v3.89h1.448v-4.113c0-1.368-.79-2.094-1.915-2.094-.89 0-1.568.439-1.839 1.12h-.064c-.235-.693-.83-1.12-1.656-1.12-.821 0-1.436.423-1.691 1.12h-.072v-1.04h-1.38v6.127zm12.755.12c1.795 0 2.936-1.265 2.936-3.16 0-1.899-1.141-3.167-2.936-3.167s-2.936 1.268-2.936 3.167c0 1.895 1.141 3.16 2.936 3.16zm.008-1.157c-.993 0-1.48-.886-1.48-2.007 0-1.12.487-2.018 1.48-2.018.977 0 1.464.897 1.464 2.018 0 1.121-.487 2.007-1.464 2.007zm8.997-3.47c-.199-1.038-1.029-1.7-2.465-1.7-1.476 0-2.482.726-2.478 1.859-.004.893.547 1.484 1.724 1.727l1.045.22c.563.123.826.35.826.698 0 .419-.455.734-1.141.734-.662 0-1.093-.287-1.217-.838l-1.408.136c.179 1.125 1.125 1.791 2.629 1.791 1.532 0 2.613-.794 2.617-1.955-.004-.873-.567-1.408-1.723-1.66l-1.046-.223c-.622-.14-.869-.355-.865-.71-.004-.415.454-.702 1.057-.702.666 0 1.017.363 1.129.766l1.316-.144zm4.383-1.62h-1.209V67.39h-1.444v1.469h-.87v1.117h.87v3.407c-.008 1.153.83 1.719 1.915 1.687.411-.012.694-.092.849-.143l-.243-1.13c-.08.02-.243.056-.423.056-.363 0-.654-.127-.654-.71v-3.167h1.209v-1.117zm-83.423 25.127h1.444V87.86h-1.444v6.127zm.726-6.997c.459 0 .834-.351.834-.782 0-.435-.375-.786-.834-.786-.463 0-.838.351-.838.786 0 .43.375.782.838.782zm2.203 6.997h1.445V90.26c0-.754.502-1.264 1.125-1.264.61 0 1.029.41 1.029 1.04v3.95h1.416v-3.822c0-.69.411-1.168 1.109-1.168.583 0 1.045.343 1.045 1.1v3.89h1.449v-4.113c0-1.368-.79-2.094-1.915-2.094-.89 0-1.568.439-1.839 1.12h-.064c-.236-.693-.83-1.12-1.656-1.12-.822 0-1.436.423-1.691 1.12h-.072v-1.04h-1.381v6.127zm10.083 2.298h1.444v-3.263h.06c.227.447.702 1.073 1.755 1.073 1.444 0 2.525-1.145 2.525-3.164 0-2.042-1.113-3.151-2.529-3.151-1.081 0-1.532.65-1.751 1.093h-.084v-1.013h-1.42v8.425zm1.416-5.362c0-1.188.511-1.958 1.44-1.958.962 0 1.456.817 1.456 1.958 0 1.15-.502 1.987-1.456 1.987-.921 0-1.44-.798-1.44-1.987zm8.278 3.184c1.795 0 2.936-1.265 2.936-3.16 0-1.899-1.141-3.167-2.936-3.167s-2.936 1.268-2.936 3.167c0 1.895 1.141 3.16 2.936 3.16zm.008-1.157c-.993 0-1.48-.886-1.48-2.007 0-1.12.487-2.018 1.48-2.018.978 0 1.464.897 1.464 2.018 0 1.121-.486 2.007-1.464 2.007zm4.154 1.037h1.444v-3.602c0-.778.587-1.329 1.381-1.329.243 0 .546.044.67.084v-1.328a3.477 3.477 0 0 0-.519-.04c-.702 0-1.288.399-1.512 1.109h-.064v-1.021h-1.4v6.127zm7.843-6.127h-1.208V86.39h-1.445v1.469h-.869v1.117h.869v3.407c-.008 1.153.83 1.719 1.915 1.687.411-.012.695-.092.85-.143l-.243-1.13c-.08.02-.244.056-.423.056-.363 0-.654-.127-.654-.71v-3.167h1.208v-1.117zm2.972 6.251c.961 0 1.536-.45 1.799-.965h.048v.841h1.388v-4.1c0-1.62-1.32-2.107-2.489-2.107-1.289 0-2.278.574-2.598 1.691l1.349.192c.144-.42.55-.778 1.257-.778.67 0 1.037.343 1.037.945v.024c0 .415-.435.435-1.516.55-1.189.128-2.326.483-2.326 1.864 0 1.205.882 1.843 2.051 1.843zm.375-1.061c-.603 0-1.034-.276-1.034-.806 0-.555.483-.786 1.129-.878.379-.052 1.137-.147 1.325-.299v.722c0 .682-.551 1.26-1.42 1.26zm5.756-2.653c0-.886.535-1.397 1.297-1.397.746 0 1.193.491 1.193 1.309v3.678h1.444v-3.901c.004-1.468-.834-2.306-2.098-2.306-.918 0-1.548.439-1.828 1.12h-.071v-1.04h-1.381v6.127h1.444v-3.59zm8.462-2.537h-1.209V86.39h-1.444v1.469h-.87v1.117h.87v3.407c-.008 1.153.83 1.719 1.915 1.687a2.91 2.91 0 0 0 .85-.143l-.244-1.13c-.079.02-.243.056-.423.056-.363 0-.654-.127-.654-.71v-3.167h1.209v-1.117zm7.098 0h-1.272v-.483c0-.479.199-.746.738-.746.227 0 .419.052.538.088l.291-1.118a3.596 3.596 0 0 0-1.097-.167c-1.065 0-1.915.61-1.915 1.847v.579h-.905v1.117h.905v5.01h1.445v-5.01h1.272v-1.117zm3.614 6.247c1.428 0 2.409-.698 2.665-1.763l-1.349-.152c-.195.519-.674.79-1.296.79-.934 0-1.552-.614-1.564-1.664h4.269v-.442c0-2.15-1.293-3.096-2.801-3.096-1.755 0-2.9 1.288-2.9 3.18 0 1.922 1.129 3.147 2.976 3.147zm-1.54-3.762c.044-.782.622-1.44 1.484-1.44.83 0 1.388.606 1.396 1.44h-2.88zm7.25 3.766c.961 0 1.536-.45 1.799-.965h.048v.841h1.388v-4.1c0-1.62-1.32-2.107-2.489-2.107-1.289 0-2.278.574-2.597 1.691l1.348.192c.144-.42.551-.778 1.257-.778.67 0 1.037.343 1.037.945v.024c0 .415-.435.435-1.516.55-1.189.128-2.326.483-2.326 1.864 0 1.205.882 1.843 2.051 1.843zm.375-1.061c-.603 0-1.034-.276-1.034-.806 0-.555.483-.786 1.129-.878.379-.052 1.137-.147 1.325-.299v.722c0 .682-.551 1.26-1.42 1.26zm7.372-5.19h-1.209V86.39h-1.444v1.469h-.87v1.117h.87v3.407c-.008 1.153.83 1.719 1.915 1.687a2.91 2.91 0 0 0 .85-.143l-.243-1.13c-.08.02-.244.056-.423.056-.363 0-.655-.127-.655-.71v-3.167h1.209v-1.117zm5.114 3.55c0 .934-.667 1.396-1.305 1.396-.694 0-1.157-.49-1.157-1.268v-3.678h-1.444v3.901c0 1.472.838 2.306 2.043 2.306.917 0 1.563-.483 1.843-1.169h.064v1.09h1.4v-6.128h-1.444v3.55zm2.929 2.577h1.444v-3.602c0-.778.587-1.329 1.38-1.329.244 0 .547.044.671.084v-1.328a3.477 3.477 0 0 0-.519-.04c-.702 0-1.289.399-1.512 1.109h-.064v-1.021h-1.4v6.127zm6.915.12c1.428 0 2.409-.698 2.665-1.763l-1.349-.152c-.195.519-.674.79-1.296.79-.934 0-1.552-.614-1.564-1.664h4.268v-.442c0-2.15-1.292-3.096-2.8-3.096-1.756 0-2.9 1.288-2.9 3.18 0 1.922 1.129 3.147 2.976 3.147zm-1.54-3.762c.044-.782.622-1.44 1.484-1.44.83 0 1.388.606 1.396 1.44h-2.88z" fill="#1E212A"/><path d="M280.489 56.413h24.073m-6.419-6.42l6.465 6.465-6.465 6.465" stroke="#1E212A" stroke-width="1.605"/><path d="M314.192 16c0-8.837 7.163-16 16-16h91.577c8.837 0 16 7.163 16 16v80.826c0 8.836-7.163 16-16 16h-91.577c-8.837 0-16-7.164-16-16V16z" fill="#C9CACE"/><rect x="356.722" y="12.839" width="38.518" height="38.518" rx="6.42" fill="#1E212A"/><path d="M372.771 27.283h10.432m-10.432 4.815h10.432m-10.432 4.815h10.432m-13.641-9.63h-.803m.803 4.815h-.803m.803 4.815h-.803" stroke="#fff" stroke-width="1.204" stroke-linecap="round" stroke-linejoin="round"/><path d="M338.037 74.986h5.079v-1.24h-3.599v-6.93h-1.48v8.17zm6.299 0h1.445V68.86h-1.445v6.127zm.726-6.997c.459 0 .834-.351.834-.782 0-.435-.375-.786-.834-.786-.462 0-.837.351-.837.786 0 .43.375.782.837.782zm7.047 2.49c-.2-1.038-1.029-1.7-2.466-1.7-1.476 0-2.481.726-2.477 1.859-.004.893.546 1.484 1.723 1.727l1.046.22c.562.123.825.35.825.698 0 .419-.454.734-1.141.734-.662 0-1.093-.287-1.216-.838l-1.409.136c.18 1.125 1.125 1.791 2.629 1.791 1.532 0 2.614-.794 2.618-1.955-.004-.873-.567-1.408-1.724-1.66l-1.045-.223c-.623-.14-.87-.355-.866-.71-.004-.415.455-.702 1.057-.702.667 0 1.018.363 1.129.766l1.317-.144zm4.382-1.62h-1.209V67.39h-1.444v1.469h-.869v1.117h.869v3.407c-.008 1.153.83 1.719 1.915 1.687a2.91 2.91 0 0 0 .85-.143l-.243-1.13c-.08.02-.244.056-.423.056-.363 0-.655-.127-.655-.71v-3.167h1.209v-1.117zm7.055 0h-1.209V67.39h-1.444v1.469h-.87v1.117h.87v3.407c-.008 1.153.829 1.719 1.915 1.687.411-.012.694-.092.849-.143l-.243-1.13c-.08.02-.243.056-.423.056-.363 0-.654-.127-.654-.71v-3.167h1.209v-1.117zm2.783 2.537c0-.886.551-1.397 1.325-1.397.758 0 1.205.483 1.205 1.309v3.678h1.444v-3.901c0-1.48-.838-2.306-2.111-2.306-.941 0-1.54.427-1.823 1.12h-.072v-3.083h-1.412v8.17h1.444v-3.59zm8.159 3.71c1.428 0 2.409-.698 2.665-1.763l-1.349-.152c-.195.519-.674.79-1.296.79-.934 0-1.552-.614-1.564-1.664h4.269v-.442c0-2.15-1.293-3.096-2.801-3.096-1.755 0-2.9 1.288-2.9 3.18 0 1.922 1.129 3.147 2.976 3.147zm-1.54-3.762c.044-.782.622-1.44 1.484-1.44.83 0 1.388.606 1.396 1.44h-2.88zm10.946 3.762c1.795 0 2.936-1.265 2.936-3.16 0-1.899-1.141-3.167-2.936-3.167s-2.936 1.268-2.936 3.167c0 1.895 1.141 3.16 2.936 3.16zm.008-1.157c-.994 0-1.48-.886-1.48-2.007 0-1.12.486-2.018 1.48-2.018.977 0 1.464.897 1.464 2.018 0 1.121-.487 2.007-1.464 2.007zm4.218 1.037h1.42v-.965h.084c.227.447.702 1.073 1.755 1.073 1.444 0 2.525-1.145 2.525-3.164 0-2.042-1.113-3.151-2.529-3.151-1.081 0-1.532.65-1.751 1.093h-.06v-3.056h-1.444v8.17zm1.416-3.064c0-1.188.511-1.958 1.44-1.958.962 0 1.456.817 1.456 1.958 0 1.15-.502 1.987-1.456 1.987-.921 0-1.44-.798-1.44-1.987zm5.596-3.063v6.447c0 .514-.219.79-.774.79-.072 0-.127-.005-.207-.009v1.177c.107.008.191.004.275.008 1.372.024 2.15-.622 2.15-1.947V68.86h-1.444zm.718-.87c.459 0 .834-.351.834-.782 0-.435-.375-.786-.834-.786-.462 0-.837.351-.837.786 0 .43.375.782.837.782zm4.924 7.117c1.429 0 2.41-.698 2.665-1.763l-1.348-.152c-.196.519-.674.79-1.297.79-.933 0-1.552-.614-1.564-1.664h4.269v-.442c0-2.15-1.292-3.096-2.801-3.096-1.755 0-2.9 1.288-2.9 3.18 0 1.922 1.129 3.147 2.976 3.147zm-1.54-3.762c.044-.782.623-1.44 1.484-1.44.83 0 1.389.606 1.397 1.44h-2.881zm8.16 3.762c1.54 0 2.521-.914 2.625-2.214h-1.38c-.124.658-.599 1.037-1.233 1.037-.902 0-1.484-.754-1.484-2.007 0-1.236.594-1.978 1.484-1.978.694 0 1.121.447 1.233 1.037h1.38c-.1-1.329-1.137-2.202-2.633-2.202-1.795 0-2.928 1.296-2.928 3.167 0 1.856 1.105 3.16 2.936 3.16zm6.871-6.247h-1.209V67.39h-1.444v1.469h-.87v1.117h.87v3.407c-.008 1.153.829 1.719 1.915 1.687.411-.012.694-.092.849-.143l-.243-1.13c-.08.02-.243.056-.423.056-.363 0-.654-.127-.654-.71v-3.167h1.209v-1.117zm-49.781 19h-1.209V86.39h-1.444v1.469h-.87v1.117h.87v3.407c-.008 1.153.829 1.719 1.915 1.687.411-.012.694-.092.849-.143l-.243-1.13c-.08.02-.243.056-.423.056-.363 0-.654-.127-.654-.71v-3.167h1.209v-1.117zm2.105 8.413c1.125 0 1.775-.582 2.122-1.544l2.462-6.861-1.544-.008-1.416 4.627h-.064l-1.412-4.627h-1.532l2.222 6.255-.124.331c-.275.678-.69.73-1.32.55l-.335 1.122c.195.084.546.155.941.155zm5.586.012h1.445v-3.263h.059c.228.447.703 1.073 1.756 1.073 1.444 0 2.525-1.145 2.525-3.164 0-2.042-1.113-3.151-2.529-3.151-1.081 0-1.532.65-1.752 1.093h-.083v-1.013h-1.421v8.425zm1.417-5.362c0-1.188.51-1.958 1.44-1.958.961 0 1.456.817 1.456 1.958 0 1.15-.503 1.987-1.456 1.987-.922 0-1.44-.798-1.44-1.987zm8.318 3.184c1.428 0 2.409-.698 2.665-1.763l-1.349-.152c-.195.519-.674.79-1.296.79-.934 0-1.552-.614-1.564-1.664h4.268v-.442c0-2.15-1.292-3.096-2.8-3.096-1.756 0-2.901 1.288-2.901 3.18 0 1.922 1.13 3.147 2.977 3.147zm-1.54-3.762c.044-.782.622-1.44 1.484-1.44.83 0 1.388.606 1.396 1.44h-2.88zm10.329-.866c-.199-1.037-1.029-1.7-2.465-1.7-1.476 0-2.482.727-2.478 1.86-.004.893.547 1.484 1.724 1.727l1.045.22c.563.123.826.35.826.698 0 .419-.455.734-1.141.734-.662 0-1.093-.287-1.217-.838l-1.408.136c.179 1.125 1.125 1.791 2.629 1.791 1.532 0 2.613-.794 2.617-1.955-.004-.873-.566-1.408-1.723-1.66l-1.046-.223c-.622-.14-.869-.355-.865-.71-.004-.415.454-.702 1.057-.702.666 0 1.017.363 1.129.766l1.316-.144z" fill="#1E212A"/><path d="M447.399 56.413h24.073m-6.419-6.42l6.465 6.465-6.465 6.465" stroke="#1E212A" stroke-width="1.605"/><path d="M481.102 16c0-8.837 7.163-16 16-16h91.577c8.837 0 16 7.163 16 16v80.826c0 8.836-7.163 16-16 16h-91.577c-8.837 0-16-7.164-16-16V16z" fill="#C9CACE"/><rect x="523.632" y="12.839" width="38.518" height="38.518" rx="6.42" fill="#1E212A"/><path d="M539.681 27.283h10.432m-10.432 4.815h10.432m-10.432 4.815h10.432m-13.642-9.63h-.802m.802 4.815h-.802m.802 4.815h-.802" stroke="#fff" stroke-width="1.204" stroke-linecap="round" stroke-linejoin="round"/><path d="M499.757 74.986h5.079v-1.24h-3.599v-6.93h-1.48v8.17zm6.3 0h1.444V68.86h-1.444v6.127zm.726-6.997c.459 0 .834-.351.834-.782 0-.435-.375-.786-.834-.786-.463 0-.838.351-.838.786 0 .43.375.782.838.782zm7.046 2.49c-.199-1.038-1.029-1.7-2.465-1.7-1.476 0-2.482.726-2.478 1.859-.004.893.547 1.484 1.724 1.727l1.045.22c.562.123.826.35.826.698 0 .419-.455.734-1.141.734-.662 0-1.093-.287-1.217-.838l-1.408.136c.179 1.125 1.125 1.791 2.629 1.791 1.532 0 2.613-.794 2.617-1.955-.004-.873-.567-1.408-1.724-1.66l-1.045-.223c-.622-.14-.87-.355-.866-.71-.004-.415.455-.702 1.058-.702.666 0 1.017.363 1.129.766l1.316-.144zm4.383-1.62h-1.209V67.39h-1.444v1.469h-.87v1.117h.87v3.407c-.008 1.153.829 1.719 1.915 1.687.411-.012.694-.092.849-.143l-.243-1.13c-.08.02-.243.056-.423.056-.363 0-.654-.127-.654-.71v-3.167h1.209v-1.117zm3.994 6.127h1.444v-3.602c0-.778.587-1.329 1.381-1.329.243 0 .546.044.67.084v-1.328a3.477 3.477 0 0 0-.519-.04c-.702 0-1.288.399-1.512 1.109h-.064v-1.021h-1.4v6.127zm6.915.12c1.428 0 2.409-.698 2.665-1.763l-1.349-.152c-.195.519-.674.79-1.296.79-.934 0-1.552-.614-1.564-1.664h4.269v-.442c0-2.15-1.293-3.096-2.801-3.096-1.755 0-2.9 1.288-2.9 3.18 0 1.922 1.129 3.147 2.976 3.147zm-1.54-3.762c.044-.782.622-1.44 1.484-1.44.83 0 1.388.606 1.396 1.44h-2.88zm6.931-4.528h-1.445v8.17h1.445v-8.17zm3.248 8.294c.961 0 1.536-.45 1.799-.965h.048v.841h1.388v-4.1c0-1.62-1.32-2.107-2.489-2.107-1.289 0-2.278.574-2.597 1.691l1.348.192c.144-.42.551-.778 1.257-.778.67 0 1.037.343 1.037.945v.024c0 .415-.435.435-1.516.55-1.189.128-2.326.483-2.326 1.864 0 1.205.882 1.843 2.051 1.843zm.375-1.061c-.602 0-1.033-.276-1.033-.806 0-.555.482-.786 1.129-.878.379-.052 1.137-.147 1.324-.299v.722c0 .682-.55 1.26-1.42 1.26zm7.373-5.19h-1.209V67.39h-1.444v1.469h-.87v1.117h.87v3.407c-.008 1.153.829 1.719 1.914 1.687.411-.012.695-.092.85-.143l-.243-1.13c-.08.02-.243.056-.423.056-.363 0-.654-.127-.654-.71v-3.167h1.209v-1.117zm1.207 6.127h1.445V68.86h-1.445v6.127zm.726-6.997c.459 0 .834-.351.834-.782 0-.435-.375-.786-.834-.786-.462 0-.837.351-.837.786 0 .43.375.782.837.782zm4.877 7.117c1.795 0 2.936-1.265 2.936-3.16 0-1.899-1.141-3.167-2.936-3.167-1.796 0-2.937 1.268-2.937 3.167 0 1.895 1.141 3.16 2.937 3.16zm.008-1.157c-.994 0-1.481-.886-1.481-2.007 0-1.12.487-2.018 1.481-2.018.977 0 1.464.897 1.464 2.018 0 1.121-.487 2.007-1.464 2.007zm5.598-2.553c0-.886.534-1.397 1.296-1.397.746 0 1.193.491 1.193 1.309v3.678h1.444v-3.901c.004-1.468-.833-2.306-2.098-2.306-.918 0-1.548.439-1.827 1.12h-.072v-1.04h-1.38v6.127h1.444v-3.59zm10.245-.918c-.2-1.037-1.03-1.7-2.466-1.7-1.476 0-2.481.727-2.477 1.86-.004.893.546 1.484 1.723 1.727l1.045.22c.563.123.826.35.826.698 0 .419-.455.734-1.141.734-.662 0-1.093-.287-1.217-.838l-1.408.136c.18 1.125 1.125 1.791 2.629 1.791 1.532 0 2.613-.794 2.617-1.955-.004-.873-.566-1.408-1.723-1.66l-1.045-.223c-.623-.14-.87-.355-.866-.71-.004-.415.455-.702 1.057-.702.666 0 1.017.363 1.129.766l1.317-.144zm7.213-1.62h-1.273v-.482c0-.479.199-.746.738-.746.227 0 .419.052.539.088l.291-1.118a3.608 3.608 0 0 0-1.097-.167c-1.065 0-1.915.61-1.915 1.847v.579h-.906v1.117h.906v5.01h1.444v-5.01h1.273v-1.117zm3.573 6.248c1.795 0 2.936-1.265 2.936-3.16 0-1.899-1.141-3.167-2.936-3.167s-2.936 1.268-2.936 3.167c0 1.895 1.141 3.16 2.936 3.16zm.008-1.157c-.993 0-1.48-.886-1.48-2.007 0-1.12.487-2.018 1.48-2.018.978 0 1.464.897 1.464 2.018 0 1.121-.486 2.007-1.464 2.007zm4.154 1.037h1.444v-3.602c0-.778.587-1.329 1.381-1.329.243 0 .546.044.67.084v-1.328a3.477 3.477 0 0 0-.519-.04c-.702 0-1.288.399-1.512 1.109h-.064v-1.021h-1.4v6.127zM514.525 87.86h-1.208v-1.47h-1.445v1.469h-.869v1.117h.869v3.407c-.008 1.153.83 1.719 1.915 1.687.411-.012.695-.092.85-.143l-.243-1.13c-.08.02-.244.056-.423.056-.363 0-.654-.127-.654-.71v-3.167h1.208v-1.117zm2.784 2.537c0-.886.551-1.397 1.325-1.397.758 0 1.204.483 1.204 1.309v3.678h1.445v-3.901c0-1.48-.838-2.306-2.111-2.306-.941 0-1.54.427-1.823 1.12h-.072v-3.083h-1.412v8.17h1.444v-3.59zm8.119 3.71c1.795 0 2.936-1.265 2.936-3.16 0-1.899-1.141-3.167-2.936-3.167-1.796 0-2.937 1.268-2.937 3.167 0 1.895 1.141 3.16 2.937 3.16zm.008-1.157c-.994 0-1.481-.886-1.481-2.007 0-1.12.487-2.018 1.481-2.018.977 0 1.464.897 1.464 2.018 0 1.121-.487 2.007-1.464 2.007zm8.997-3.47c-.2-1.038-1.029-1.7-2.466-1.7-1.476 0-2.481.726-2.477 1.859-.004.893.546 1.484 1.723 1.727l1.046.22c.562.123.825.35.825.698 0 .419-.454.734-1.141.734-.662 0-1.093-.287-1.216-.838l-1.409.136c.18 1.125 1.125 1.791 2.629 1.791 1.532 0 2.613-.794 2.617-1.955-.004-.873-.566-1.408-1.723-1.66l-1.045-.223c-.623-.14-.87-.355-.866-.71-.004-.415.455-.702 1.057-.702.667 0 1.018.363 1.129.766l1.317-.144zm4.035 4.627c1.428 0 2.41-.698 2.665-1.763l-1.348-.152c-.196.519-.675.79-1.297.79-.933 0-1.552-.614-1.564-1.664h4.269v-.442c0-2.15-1.293-3.096-2.801-3.096-1.755 0-2.9 1.288-2.9 3.18 0 1.922 1.129 3.147 2.976 3.147zm-1.54-3.762c.044-.782.623-1.44 1.484-1.44.83 0 1.389.606 1.397 1.44h-2.881zm11.333-2.485h-1.209v-1.47h-1.444v1.469h-.869v1.117h.869v3.407c-.008 1.153.83 1.719 1.915 1.687a2.91 2.91 0 0 0 .85-.143l-.243-1.13c-.08.02-.244.056-.423.056-.363 0-.655-.127-.655-.71v-3.167h1.209v-1.117zm2.106 8.413c1.125 0 1.775-.582 2.122-1.544l2.462-6.861-1.544-.008-1.417 4.627h-.063l-1.413-4.627h-1.532l2.222 6.255-.123.331c-.275.678-.69.73-1.321.55l-.335 1.122c.196.084.547.155.942.155zm5.586.012h1.444v-3.263h.06c.227.447.702 1.073 1.755 1.073 1.445 0 2.526-1.145 2.526-3.164 0-2.042-1.113-3.151-2.53-3.151-1.081 0-1.532.65-1.751 1.093h-.084V87.86h-1.42v8.425zm1.416-5.362c0-1.188.511-1.958 1.44-1.958.962 0 1.457.817 1.457 1.958 0 1.15-.503 1.987-1.457 1.987-.921 0-1.44-.798-1.44-1.987zm8.318 3.184c1.428 0 2.41-.698 2.665-1.763l-1.348-.152c-.196.519-.674.79-1.297.79-.933 0-1.552-.614-1.564-1.664h4.269v-.442c0-2.15-1.293-3.096-2.801-3.096-1.755 0-2.9 1.288-2.9 3.18 0 1.922 1.129 3.147 2.976 3.147zm-1.54-3.762c.044-.782.623-1.44 1.484-1.44.83 0 1.389.606 1.397 1.44h-2.881zm10.33-.866c-.199-1.037-1.029-1.7-2.465-1.7-1.477 0-2.482.727-2.478 1.86-.004.893.547 1.484 1.724 1.727l1.045.22c.562.123.826.35.826.698 0 .419-.455.734-1.141.734-.663 0-1.094-.287-1.217-.838l-1.408.136c.179 1.125 1.125 1.791 2.629 1.791 1.532 0 2.613-.794 2.617-1.955-.004-.873-.567-1.408-1.724-1.66l-1.045-.223c-.622-.14-.87-.355-.866-.71-.004-.415.455-.702 1.057-.702.667 0 1.018.363 1.129.766l1.317-.144z" fill="#1E212A"/><path d="M614.309 56.413h24.073m-6.42-6.42l6.465 6.465-6.465 6.465" stroke="#1E212A" stroke-width="1.605"/><path d="M648.012 16.241c0-8.836 7.163-16 16-16h91.577c8.837 0 16 7.164 16 16v80.343c0 8.837-7.163 16-16 16h-91.577c-8.837 0-16-7.163-16-16V16.241z" fill="#C9CACE"/><rect x="690.542" y="13.08" width="38.518" height="38.518" rx="6.42" fill="#1E212A"/><path d="M713.011 37.154l4.814-4.815-4.814-4.814m-6.42 0l-4.815 4.814 4.815 4.815" stroke="#fff" stroke-width="1.204" stroke-linecap="round" stroke-linejoin="round"/><path d="M670.605 75.228c2.489 0 3.965-1.54 3.965-4.094 0-2.545-1.476-4.077-3.909-4.077h-2.825v8.17h2.769zm-1.289-1.281v-5.61h1.261c1.659 0 2.525.926 2.525 2.797 0 1.88-.866 2.813-2.569 2.813h-1.217zm9.309 1.4c1.429 0 2.41-.698 2.665-1.763l-1.348-.152c-.195.519-.674.79-1.297.79-.933 0-1.551-.614-1.563-1.663h4.268v-.443c0-2.15-1.292-3.096-2.8-3.096-1.756 0-2.901 1.288-2.901 3.18 0 1.922 1.129 3.147 2.976 3.147zm-1.539-3.762c.043-.782.622-1.44 1.484-1.44.829 0 1.388.606 1.396 1.44h-2.88zm8.59-2.485h-1.273v-.483c0-.479.2-.746.738-.746.228 0 .419.052.539.088l.291-1.117a3.596 3.596 0 0 0-1.097-.168c-1.065 0-1.915.61-1.915 1.847v.579h-.906v1.117h.906v5.01h1.444v-5.01h1.273V69.1zm1.131 6.128h1.444V69.1h-1.444v6.128zm.726-6.998c.459 0 .834-.351.834-.782 0-.435-.375-.786-.834-.786-.463 0-.838.351-.838.786 0 .431.375.782.838.782zm3.647 3.407c0-.886.535-1.396 1.297-1.396.746 0 1.193.49 1.193 1.308v3.678h1.444v-3.901c.004-1.468-.834-2.306-2.099-2.306-.917 0-1.547.439-1.827 1.121h-.072V69.1h-1.38v6.128h1.444v-3.591zm8.115 3.71c1.428 0 2.41-.698 2.665-1.763l-1.349-.152c-.195.519-.674.79-1.296.79-.934 0-1.552-.614-1.564-1.663h4.269v-.443c0-2.15-1.293-3.096-2.801-3.096-1.755 0-2.9 1.288-2.9 3.18 0 1.922 1.129 3.147 2.976 3.147zm-1.54-3.762c.044-.782.622-1.44 1.484-1.44.83 0 1.388.606 1.396 1.44h-2.88zm8.273 3.643h1.444v-3.603c0-.778.587-1.328 1.381-1.328.243 0 .546.043.67.083v-1.328a3.464 3.464 0 0 0-.519-.04c-.702 0-1.288.399-1.512 1.109h-.064V69.1h-1.4v6.128zm6.915.12c1.428 0 2.409-.699 2.665-1.764l-1.349-.152c-.195.519-.674.79-1.296.79-.934 0-1.552-.614-1.564-1.663h4.269v-.443c0-2.15-1.293-3.096-2.801-3.096-1.755 0-2.9 1.288-2.9 3.18 0 1.922 1.129 3.147 2.976 3.147zm-1.54-3.763c.044-.782.622-1.44 1.484-1.44.83 0 1.388.606 1.396 1.44h-2.88zm6.931-4.528h-1.445v8.17h1.445v-8.17zm3.248 8.294c.961 0 1.536-.45 1.799-.965h.048v.842h1.388v-4.102c0-1.62-1.32-2.106-2.489-2.106-1.289 0-2.278.574-2.597 1.692l1.348.191c.144-.419.551-.778 1.257-.778.67 0 1.037.343 1.037.945v.025c0 .414-.435.434-1.516.55-1.189.128-2.326.483-2.326 1.863 0 1.205.882 1.843 2.051 1.843zm.375-1.061c-.602 0-1.033-.275-1.033-.806 0-.554.482-.786 1.129-.877.379-.052 1.137-.148 1.324-.3v.722c0 .683-.55 1.261-1.42 1.261zm7.373-5.19h-1.209v-1.468h-1.444V69.1h-.87v1.117h.87v3.407c-.008 1.153.829 1.72 1.914 1.687a2.9 2.9 0 0 0 .85-.143l-.243-1.13c-.08.02-.243.056-.423.056-.363 0-.654-.127-.654-.71v-3.167h1.209V69.1zm1.207 6.128h1.445V69.1h-1.445v6.128zm.726-6.998c.459 0 .834-.351.834-.782 0-.435-.375-.786-.834-.786-.462 0-.837.351-.837.786 0 .431.375.782.837.782zm4.877 7.117c1.795 0 2.936-1.264 2.936-3.16 0-1.898-1.141-3.167-2.936-3.167-1.796 0-2.937 1.269-2.937 3.168 0 1.895 1.141 3.16 2.937 3.16zm.008-1.157c-.994 0-1.481-.885-1.481-2.006 0-1.121.487-2.02 1.481-2.02.977 0 1.464.898 1.464 2.02 0 1.12-.487 2.006-1.464 2.006zm5.598-2.553c0-.886.534-1.396 1.296-1.396.746 0 1.193.49 1.193 1.308v3.678h1.444v-3.901c.004-1.468-.833-2.306-2.098-2.306-.918 0-1.548.439-1.827 1.121h-.072V69.1h-1.38v6.128h1.444v-3.591zm10.245-.918c-.2-1.037-1.03-1.7-2.466-1.7-1.476 0-2.481.727-2.477 1.86-.004.894.546 1.484 1.723 1.727l1.045.22c.563.124.826.351.826.698 0 .419-.455.734-1.141.734-.662 0-1.093-.287-1.217-.838l-1.408.136c.18 1.125 1.125 1.791 2.629 1.791 1.532 0 2.613-.794 2.617-1.955-.004-.873-.566-1.408-1.723-1.66l-1.045-.223c-.623-.14-.87-.355-.866-.71-.004-.415.455-.702 1.057-.702.666 0 1.017.363 1.129.766l1.317-.144z" fill="#1E212A"/><path d="M781.219 56.413h24.073m-6.419-6.42l6.464 6.465-6.464 6.465" stroke="#1E212A" stroke-width="1.605"/><path d="M814.921 16.241c0-8.836 7.164-16 16-16H895c8.836 0 16 7.164 16 16v80.343c0 8.837-7.164 16-16 16h-64.079c-8.836 0-16-7.163-16-16V16.241z" fill="#C9CACE"/><rect x="843.702" y="13.08" width="38.518" height="38.518" rx="6.42" fill="#1E212A"/><path fill-rule="evenodd" clip-rule="evenodd" d="M857.344 25.117l11.234 7.222-11.234 7.222V25.117z" stroke="#fff" stroke-width="1.204" stroke-linecap="round" stroke-linejoin="round"/><path d="M841.23 68.298h2.525v6.93h1.468v-6.93h2.525v-1.24h-6.518v1.24zm9.535 7.05c1.429 0 2.41-.699 2.665-1.764l-1.348-.152c-.196.519-.674.79-1.297.79-.933 0-1.551-.614-1.563-1.663h4.268v-.443c0-2.15-1.292-3.096-2.8-3.096-1.756 0-2.901 1.288-2.901 3.18 0 1.922 1.129 3.147 2.976 3.147zm-1.539-3.763c.043-.782.622-1.44 1.484-1.44.829 0 1.388.606 1.396 1.44h-2.88zm10.329-.866c-.199-1.037-1.029-1.7-2.465-1.7-1.476 0-2.482.727-2.478 1.86-.004.894.547 1.484 1.724 1.727l1.045.22c.562.124.826.351.826.698 0 .419-.455.734-1.141.734-.662 0-1.093-.287-1.217-.838l-1.408.136c.179 1.125 1.125 1.791 2.629 1.791 1.532 0 2.613-.794 2.617-1.955-.004-.873-.567-1.408-1.724-1.66l-1.045-.223c-.622-.14-.87-.355-.866-.71-.004-.415.455-.702 1.058-.702.666 0 1.017.363 1.129.766l1.316-.144zm4.383-1.62h-1.209v-1.467h-1.444V69.1h-.87v1.117h.87v3.407c-.008 1.153.829 1.72 1.915 1.687.411-.012.694-.091.849-.143l-.243-1.13c-.08.02-.243.056-.423.056-.363 0-.654-.127-.654-.71v-3.167h1.209V69.1zm7.054 0h-1.209v-1.467h-1.444V69.1h-.87v1.117h.87v3.407c-.008 1.153.83 1.72 1.915 1.687.411-.012.694-.091.85-.143l-.244-1.13c-.079.02-.243.056-.423.056-.363 0-.654-.127-.654-.71v-3.167h1.209V69.1zm2.784 2.538c0-.886.55-1.396 1.324-1.396.758 0 1.205.482 1.205 1.308v3.678h1.444v-3.901c0-1.48-.838-2.306-2.11-2.306-.942 0-1.54.427-1.823 1.121h-.072v-3.084h-1.413v8.17h1.445v-3.59zm8.158 3.71c1.428 0 2.41-.698 2.665-1.763l-1.348-.152c-.196.519-.675.79-1.297.79-.933 0-1.552-.614-1.564-1.663h4.269v-.443c0-2.15-1.293-3.096-2.801-3.096-1.755 0-2.9 1.288-2.9 3.18 0 1.922 1.129 3.147 2.976 3.147zm-1.54-3.762c.044-.782.623-1.44 1.484-1.44.83 0 1.389.606 1.397 1.44h-2.881zm-33.482 22.643h1.444V90.5c0-.754.502-1.264 1.125-1.264.61 0 1.029.41 1.029 1.041v3.95h1.416v-3.822c0-.69.411-1.17 1.109-1.17.583 0 1.046.344 1.046 1.102v3.89h1.448v-4.114c0-1.368-.79-2.094-1.915-2.094-.89 0-1.568.439-1.839 1.121h-.064c-.235-.694-.83-1.121-1.656-1.121-.821 0-1.436.423-1.691 1.121h-.072V88.1h-1.38v6.128zm12.755.12c1.795 0 2.936-1.265 2.936-3.16 0-1.9-1.141-3.168-2.936-3.168s-2.936 1.269-2.936 3.168c0 1.895 1.141 3.16 2.936 3.16zm.008-1.158c-.993 0-1.48-.885-1.48-2.006 0-1.121.487-2.02 1.48-2.02.977 0 1.464.898 1.464 2.02 0 1.12-.487 2.006-1.464 2.006zm6.428 1.145c1.053 0 1.528-.626 1.755-1.073h.088v.966h1.42v-8.17h-1.448v3.055h-.06c-.219-.443-.67-1.093-1.751-1.093-1.416 0-2.529 1.109-2.529 3.152 0 2.018 1.081 3.163 2.525 3.163zm.403-1.185c-.954 0-1.456-.837-1.456-1.986 0-1.141.494-1.96 1.456-1.96.929 0 1.44.77 1.44 1.96 0 1.189-.519 1.986-1.44 1.986zm7.112 1.197c1.428 0 2.41-.698 2.665-1.763l-1.348-.152c-.196.519-.675.79-1.297.79-.934 0-1.552-.614-1.564-1.663h4.269v-.443c0-2.15-1.293-3.096-2.801-3.096-1.755 0-2.9 1.288-2.9 3.18 0 1.922 1.129 3.147 2.976 3.147zm-1.54-3.762c.044-.782.623-1.44 1.484-1.44.83 0 1.389.606 1.397 1.44h-2.881zm6.931-4.528h-1.444v8.17h1.444v-8.17z" fill="#1E212A"/><path d="M866.921 130.467h1-1zM204.954 142h1-1zm641.967 20v-1 1zm21-33.5v.562h-2v-.562h2zm0 1.405v.562h-2v-.562h2zm0 .562v3.295h-2v-3.295h2zm0 8.238V142h-2v-3.295h2zm0 3.295c0 1.605-.18 3.17-.522 4.674l-1.951-.443c.309-1.36.473-2.776.473-4.231h2zm-3.217 11.175a21.107 21.107 0 0 1-6.608 6.608l-1.066-1.692a19.092 19.092 0 0 0 5.981-5.982l1.693 1.066zm-13.109 9.303a21.063 21.063 0 0 1-4.674.522v-2c1.455 0 2.871-.163 4.231-.473l.443 1.951zm-4.674.522h-4.039v-2h4.039v2zm-10.097 0h-8.078v-2h8.078v2zm-14.136 0h-8.077v-2h8.077v2zm-14.135 0h-8.078v-2h8.078v2zm-14.136 0h-8.077v-2h8.077v2zm-14.135 0h-8.078v-2h8.078v2zm-14.136 0h-8.078v-2h8.078v2zm-14.136 0h-8.077v-2h8.077v2zm-14.135 0h-8.078v-2h8.078v2zm-14.136 0h-8.077v-2h8.077v2zm-14.135 0h-8.078v-2h8.078v2zm-14.136 0h-8.078v-2h8.078v2zm-14.136 0h-8.077v-2h8.077v2zm-14.135 0h-8.078v-2h8.078v2zm-14.136 0h-8.077v-2h8.077v2zm-14.136 0h-8.077v-2h8.078l-.001 2zm-14.135 0h-8.078v-2h8.078v2zm-14.136 0h-8.077v-2h8.077v2zm-14.135 0h-8.078v-2h8.078v2zm-14.136 0h-8.077v-2h8.077v2zm-14.135 0h-8.078v-2h8.078v2zm-14.136 0h-8.078v-2h8.078v2zm-14.136 0h-8.077v-2h8.077v2zm-14.135 0h-8.078v-2h8.078v2zm-14.136 0h-8.077v-2h8.077v2zm-14.135 0h-8.078v-2h8.078v2zm-14.136 0h-8.078v-2h8.078v2zm-14.136 0h-8.077v-2h8.077v2zm-14.135 0h-8.078v-2h8.078v2zm-14.136 0h-8.077v-2h8.077v2zm-14.135 0h-8.078v-2h8.078v2zm-14.136 0h-8.077v-2h8.077v2zm-14.136 0h-8.077v-2h8.077v2zm-14.135 0h-8.078v-2h8.078v2zm-14.136 0h-8.077v-2h8.077v2zm-14.135 0h-8.078v-2h8.078v2zm-14.136 0h-8.077v-2h8.077v2zm-14.136 0h-8.077v-2h8.077v2zm-14.135 0h-8.078v-2h8.078v2zm-14.136 0h-8.077v-2h8.077v2zm-14.135 0h-8.078v-2h8.078v2zm-14.136 0h-8.078v-2h8.078v2zm-14.136 0h-8.077v-2h8.077v2zm-14.135 0h-8.078v-2h8.078v2zm-14.136 0h-4.039v-2h4.039v2zm-4.039 0c-1.605 0-3.17-.18-4.674-.522l.443-1.951c1.36.31 2.776.473 4.231.473v2zm-11.175-3.217a21.107 21.107 0 0 1-6.608-6.608l1.693-1.066a19.092 19.092 0 0 0 5.981 5.982l-1.066 1.692zm-9.303-13.109a21.116 21.116 0 0 1-.522-4.674h2c0 1.455.164 2.871.473 4.231l-1.951.443zm-.522-4.674v-3.696h2V142h-2zm0-9.241v-3.697h2v3.697h-2zm2-3.697v.401h-2v-.401h2zm0 1.003v.402h-2v-.402h2z" fill="#635DFF"/><circle r="5" transform="matrix(0 1 1 0 867 128)" fill="#E9E8FF" stroke="#635DFF" stroke-width="2"/><path d="M204.8 128l-4.8 8h9.6l-4.8-8z" fill="#635DFF" stroke="#635DFF" stroke-width="2"/><rect x="511" y="132" width="64.196" height="63" rx="16" fill="#E9E8FF"/><rect x="523.839" y="144.241" width="38.518" height="38.518" rx="6.42" fill="#635DFF"/><path d="M534.271 157.081v4.814h4.815m12.839 8.025v-4.815h-4.815" stroke="#fff" stroke-width="1.204" stroke-linecap="round" stroke-linejoin="round"/><path d="M549.343 161.294a.602.602 0 0 0 1.135-.402l-1.135.402zm-11.349-2.898l.412.439a.179.179 0 0 0 .014-.013l-.426-.426zm-4.135 3.061a.602.602 0 0 0 .824.877l-.824-.877zm18.478 4.087a.603.603 0 0 0-.824-.878l.824.878zm-4.135 3.06l-.413-.439-.013.013.426.426zm-11.349-2.897a.602.602 0 1 0-1.135.401l1.135-.401zm13.625-4.815a7.823 7.823 0 0 0-5.649-5.021l-.266 1.174a6.62 6.62 0 0 1 4.78 4.249l1.135-.402zm-5.649-5.021a7.823 7.823 0 0 0-7.26 2.1l.851.851a6.618 6.618 0 0 1 6.143-1.777l.266-1.174zm-7.247 2.087l-3.723 3.499.824.877 3.723-3.499-.824-.877zm13.931 6.708l-3.724 3.499.825.877 3.723-3.498-.824-.878zm-3.737 3.512a6.618 6.618 0 0 1-6.143 1.777l-.266 1.174c2.62.593 5.361-.2 7.26-2.1l-.851-.851zm-6.143 1.777a6.616 6.616 0 0 1-4.78-4.248l-1.135.401a7.823 7.823 0 0 0 5.649 5.021l.266-1.174z" fill="#fff"/></svg>