<svg width="97" height="29" viewBox="0 0 97 29" fill="none" xmlns="http://www.w3.org/2000/svg">
<g clip-path="url(#clip0_7883_98589)">
<path d="M90.3799 6.84082C94.0638 6.84082 96.8453 9.98164 96.8453 14.7848C96.8453 19.5879 94.0666 22.6382 90.2893 22.6382C88.1744 22.6382 86.2707 21.6425 85.275 19.95V27.9351H81.9531V7.20291H85.2448V9.86095C86.2406 7.98743 88.1744 6.84082 90.3799 6.84082ZM85.2448 14.7848C85.2448 18.1368 86.8468 20.2216 89.3539 20.2216C91.8611 20.2216 93.3726 18.1368 93.3726 14.8451C93.3726 11.5534 91.8008 9.31782 89.3238 9.31782C86.8468 9.31782 85.2448 11.4327 85.2448 14.7848Z" fill="#ffffff"/>
<path d="M69.8775 22.6382C66.1607 22.6382 63.4121 19.4974 63.4121 14.6943C63.4121 9.89112 66.1908 6.84082 69.9379 6.84082C72.0528 6.84082 73.9565 7.86673 74.9522 9.55921V7.20291H78.2741V22.2761H74.9824V19.5879C73.9867 21.4916 72.083 22.6382 69.8775 22.6382ZM66.8547 14.6641C66.8547 18.0463 68.4265 20.1612 70.9035 20.1612C73.3805 20.1612 74.9824 18.0765 74.9824 14.7244C74.9824 11.3724 73.3805 9.25747 70.8733 9.25747C68.3661 9.25747 66.8547 11.3724 66.8547 14.6641Z" fill="#ffffff"/>
<path d="M54.7496 22.6382C50.0672 22.6382 47.1074 19.5879 47.1074 14.7546C47.1074 9.9213 50.0974 6.84082 54.6893 6.84082C58.5872 6.84082 61.2151 9.1066 61.6073 12.2776H58.2553C57.9837 10.7963 56.8042 9.34799 54.692 9.34799C52.1547 9.34799 50.4924 11.4931 50.4924 14.7244C50.4924 17.9558 52.1245 20.131 54.7222 20.131C56.5957 20.131 57.9837 18.9542 58.258 17.1712H61.6101C61.248 20.4931 58.7106 22.6382 54.7524 22.6382H54.7496Z" fill="#ffffff"/>
<path d="M40.998 22.2773V7.2041H44.3199V22.2773H40.998Z" fill="#ffffff"/>
<path fill-rule="evenodd" clip-rule="evenodd" d="M44.3297 0.889648V4.32947H40.9941V2.1158L44.3297 0.889648Z" fill="#ffffff"/>
<path d="M30.2787 27.9269C26.5317 27.9269 23.5719 25.993 22.9986 22.6409H26.3506C26.6222 24.3033 28.194 25.48 30.1882 25.48C32.6652 25.48 34.1163 23.7272 34.1163 21.0088V19.1956C33.3921 20.8881 31.6695 22.0046 29.3132 22.0046C25.3247 22.0046 22.5762 18.9844 22.5762 14.4529C22.5762 9.9213 25.3247 6.84082 29.3735 6.84082C31.6695 6.84082 33.4223 7.83656 34.0258 9.40834V7.20291H37.3476V21.0088C37.3476 25.2688 34.6293 27.9269 30.2787 27.9269ZM26.0517 14.4529C26.0517 17.5032 27.6838 19.5577 30.1608 19.5577C32.6378 19.5577 34.1794 17.5937 34.1794 14.483C34.1794 11.3724 32.5774 9.34799 30.1306 9.34799C27.6838 9.34799 26.0517 11.4327 26.0517 14.4529Z" fill="#ffffff"/>
<path fill-rule="evenodd" clip-rule="evenodd" d="M7.71079 0.942871L0 21.9384H3.36576L10.4511 2.64084L13.2463 10.2501H16.6121L13.1942 0.942871H11.0765H7.71079Z" fill="#ffffff"/>
<path fill-rule="evenodd" clip-rule="evenodd" d="M9.32787 16.288H15.3654L17.5269 21.9387H20.9091L18.2703 15.0453C17.8287 13.8905 16.7205 13.1279 15.4833 13.1279H8.17578L9.32513 16.288H9.32787Z" fill="#ffffff"/>
</g>
<defs>
<clipPath id="clip0_7883_98589">
<rect width="96.8443" height="27.0467" fill="white" transform="translate(0 0.88916)"/>
</clipPath>
</defs>
</svg>
