<svg xmlns="http://www.w3.org/2000/svg" width="67" height="21" fill="none">
<path fill="#ffffff" d="M5.2.9c.5 0 1 0 1.6.2 1.3.4 2.4 1.3 3 2.5v.2a6.8 6.8 0 0 0-1.9 5 6.9 6.9 0 0 0-4.9 2 5.2 5.2 0 0 1-.9-9c1-.6 2-1 3.1-1ZM40.1 1.8H37v17.7H40V1.8ZM32 5H35V1.8H32c-2.6 0-4.6 2-4.6 4.6V8h-1.3v2.7h1.3v8.9h3.2v-8.9h4.2V8h-4.2V6.4c0-.8.6-1.4 1.4-1.4ZM66 7.9l-4 5.5 4.5 6H63l-2.8-3.7h-.1l-2.8 3.8h-3.5l4.6-6-4.2-5.6h3.5l2.4 3.3h.1l2.4-3.3H66Z"/>
<path fill="#ffffff" d="M50.7 16c-.6.8-1.4 1.3-2.6 1.3-1.7 0-2.9-1-3.2-2.6H54v-1.1a6 6 0 0 0-6-6.1 6 6 0 0 0-6.2 6.2 6 6 0 0 0 6.2 6.2c2.8 0 4.9-1.4 5.8-3.8h-3.1Zm-2.8-6a3 3 0 0 1 3 2.4h-6a3.1 3.1 0 0 1 3-2.3Z"/>
<path fill="#ffffff" d="M12.8 15.1a6.8 6.8 0 0 1-4.6-4.6 5.3 5.3 0 0 0-2.6.5A5.2 5.2 0 0 0 3 17.9a5.2 5.2 0 0 0 9.9-2.7h-.2ZM14.8 3.4a5.2 5.2 0 1 1 0 10.4 5.2 5.2 0 0 1 0-10.4Z"/>
</svg>
