<svg width="1022" height="254" viewBox="0 0 1022 254" fill="none" xmlns="http://www.w3.org/2000/svg">
<path fill-rule="evenodd" clip-rule="evenodd" d="M55.551 0H0.904785V69.1798H70.0846V14.5336C70.0846 6.50523 63.5794 0 55.551 0ZM124.731 69.1798H70.0847V138.36H15.4385C7.41011 138.36 0.904877 144.865 0.904877 152.893V207.54H124.731C132.759 207.54 139.265 201.034 139.265 193.006V83.7134C139.265 75.6851 132.759 69.1798 124.731 69.1798ZM239.264 141.659C239.264 190.137 276.845 211.909 317.921 211.909C366.863 211.909 391.333 186.944 391.333 154.722C391.333 121.049 362.784 108.277 327.534 95.504L313.842 90.5691C284.419 80.1189 271.018 73.152 271.018 54.2834C271.018 36.2857 287.915 23.2229 315.59 23.2229C340.935 23.2229 364.532 35.1246 364.532 68.5074H389.877C389.877 19.7394 357.54 0 315.882 0C271.892 0 245.674 22.9326 245.674 56.0251C245.674 87.0857 265.775 99.2777 303.355 112.631L317.921 117.856C348.801 129.467 364.532 137.305 364.532 155.883C364.532 174.462 349.383 188.686 319.086 188.686C294.615 188.686 264.609 177.365 264.609 141.659H239.264ZM433.811 2.90285V207.554H457.117V141.369H482.753L529.656 207.554H550.631V196.523L503.437 130.048L546.552 69.3783V58.3474H527.325L482.753 121.049H457.117V2.90285H433.811ZM609.293 254V245.291L625.898 207.554L569.673 69.3783V58.3474H591.522L637.26 176.203L682.123 58.3474H703.389V69.3783L628.811 254H609.293ZM734.235 58.3474V207.554H757.54V98.4069C769.193 84.4731 784.633 77.5063 804.443 77.5063H807.647V54.864H803.86C782.885 54.864 765.115 66.7657 754.919 78.0869L746.47 58.3474H734.235ZM877.972 211.038C851.461 211.038 828.447 197.104 828.447 167.785C828.447 137.305 849.422 120.178 890.498 120.178H928.079V105.374C928.079 87.9566 917.008 76.0549 893.411 76.0549C870.397 76.0549 859.036 87.9566 859.036 103.632H836.313C836.313 75.7646 854.666 54.864 893.411 54.864C932.448 54.864 951.384 75.7646 951.384 103.922V207.554H937.401L928.661 188.686C919.63 198.846 901.277 211.038 877.972 211.038ZM882.633 189.847C902.442 189.847 918.465 178.526 928.079 168.946V139.047H890.498C862.823 139.047 851.753 149.787 851.753 165.173C851.753 182.299 865.154 189.847 882.633 189.847ZM997.959 2.90285V207.554H1021.26V2.90285H997.959Z" fill="#ffffff"/>
</svg>
