<svg width="62" height="62" viewBox="0 0 62 62" fill="none" xmlns="http://www.w3.org/2000/svg">
<path d="M50.4531 19.4476C50.4531 13.7016 45.7925 9.04102 40.0465 9.04102C34.2975 9.04102 29.64 13.7016 29.64 19.4476C29.64 25.1936 34.3006 29.8542 40.0465 29.8542C45.7925 29.8542 50.4531 25.1966 50.4531 19.4476Z" fill="#635DFF"/>
<path d="M53.5354 36.8806C51.4224 34.7677 48.5586 33.582 45.5701 33.582H34.522C31.5335 33.582 28.6696 34.7677 26.5567 36.8806C24.4438 38.9936 23.2581 41.8574 23.2581 44.8459V47.0896C23.2581 49.5826 25.2798 51.6043 27.7728 51.6043H52.3193C54.8123 51.6043 56.834 49.5826 56.834 47.0896V44.8459C56.834 41.8605 55.6483 38.9936 53.5354 36.8806Z" fill="#D0CEFF"/>
<path d="M7.91368 39.0528C9.08342 40.2226 10.6949 40.9506 12.4738 40.9628H12.5622C14.3168 40.9323 15.9404 40.2256 17.1498 38.9736C18.3591 37.7216 19.008 36.0736 18.9775 34.3343C18.9227 31.2393 16.7538 28.6927 13.8385 28.0743V23.6847V17.2633C13.8385 17.2603 13.8385 17.2542 13.8385 17.2511V16.2855C13.8385 15.5757 13.2628 15.003 12.553 15C11.8433 15 11.2675 15.5757 11.2675 16.2855V17.9975H8.51682C7.80706 17.9975 7.23133 18.5732 7.23133 19.283V23.3801C7.23133 24.0899 7.80706 24.6626 8.51682 24.6656H11.2675V28.0499C8.28836 28.6318 6.02198 31.2515 6.00066 34.4013C5.98847 36.2138 6.72261 37.8618 7.91368 39.0528ZM14.6366 32.2781C15.1789 32.8203 15.517 33.5636 15.5292 34.3952C15.5596 36.0828 14.2102 37.481 12.5195 37.5114H12.4891C10.7984 37.4993 9.43678 36.1163 9.44592 34.4287C9.45201 33.6093 9.77491 32.8447 10.3567 32.2689C10.9294 31.7023 11.6849 31.3916 12.4891 31.3855C12.4982 31.3855 12.5074 31.3855 12.5195 31.3855C13.3512 31.3977 14.0975 31.7358 14.6366 32.2781Z" fill="#635DFF"/>
</svg>
