<?xml version="1.0" encoding="utf-8"?>
<svg viewBox="0 0 940 925" width="940px" height="925px" fill="none" xmlns="http://www.w3.org/2000/svg">
  <g>
    <g>
      <path fill="#fff" d="M 0 0 L 940 0 L 940 925 L 0 925 L 0 0 Z"/>
      <rect x="451.839" y="532.839" width="36" height="36" rx="6.42" fill="#EFF0F2"/>
      <path d="M 464.862 545.839 C 464.862 541.99 469.029 539.584 472.362 541.509 C 473.909 542.402 474.862 544.053 474.862 545.839 C 474.862 549.688 470.695 552.094 467.362 550.169 C 465.815 549.276 464.862 547.625 464.862 545.839 Z" fill="#65676E"/>
      <path d="M 461.304 554.309 C 462.241 553.372 463.511 552.846 464.836 552.846 L 474.863 552.846 C 477.621 552.847 479.857 555.083 479.858 557.841 L 479.858 558.837 C 479.858 559.943 478.962 560.839 477.856 560.839 L 461.843 560.839 C 460.737 560.839 459.841 559.943 459.841 558.837 L 459.841 557.841 C 459.841 556.517 460.367 555.246 461.304 554.309 Z" fill="#C4C4C4"/>
      <path d="M 457.979 592.469 L 461.286 592.469 C 463.157 592.469 464.075 591.515 464.075 590.242 C 464.075 589.006 463.197 588.28 462.327 588.236 L 462.327 588.156 C 463.125 587.968 463.755 587.41 463.755 586.416 C 463.755 585.2 462.878 584.298 461.106 584.298 L 457.979 584.298 L 457.979 592.469 Z M 459.459 591.232 L 459.459 588.838 L 461.09 588.838 C 462.004 588.838 462.571 589.397 462.571 590.127 C 462.571 590.777 462.124 591.232 461.051 591.232 L 459.459 591.232 Z M 459.459 587.773 L 459.459 585.519 L 460.955 585.519 C 461.825 585.519 462.275 585.978 462.275 586.608 C 462.275 587.326 461.693 587.773 460.923 587.773 L 459.459 587.773 Z M 468.011 592.588 C 469.439 592.588 470.421 591.89 470.676 590.825 L 469.328 590.673 C 469.132 591.192 468.653 591.463 468.031 591.463 C 467.098 591.463 466.479 590.849 466.467 589.8 L 470.736 589.8 L 470.736 589.357 C 470.736 587.206 469.443 586.261 467.935 586.261 C 466.18 586.261 465.035 587.55 465.035 589.441 C 465.035 591.363 466.164 592.588 468.011 592.588 Z M 466.471 588.826 C 466.515 588.044 467.094 587.386 467.955 587.386 C 468.785 587.386 469.344 587.992 469.352 588.826 L 466.471 588.826 Z M 475.018 586.341 L 473.809 586.341 L 473.809 584.873 L 472.365 584.873 L 472.365 586.341 L 471.495 586.341 L 471.495 587.458 L 472.365 587.458 L 472.365 590.865 C 472.357 592.018 473.195 592.584 474.28 592.552 C 474.691 592.54 474.974 592.461 475.129 592.409 L 474.886 591.28 C 474.806 591.3 474.643 591.335 474.463 591.335 C 474.1 591.335 473.809 591.208 473.809 590.625 L 473.809 587.458 L 475.018 587.458 L 475.018 586.341 Z M 477.801 588.878 C 477.801 587.992 478.352 587.482 479.126 587.482 C 479.884 587.482 480.331 587.964 480.331 588.79 L 480.331 592.469 L 481.775 592.469 L 481.775 588.567 C 481.775 587.087 480.937 586.261 479.664 586.261 C 478.723 586.261 478.124 586.688 477.841 587.382 L 477.769 587.382 L 477.769 584.298 L 476.357 584.298 L 476.357 592.469 L 477.801 592.469 L 477.801 588.878 Z" fill="#1E212A"/>
      <rect x="396" y="521" width="147.678" height="89.308" rx="15" stroke="#96989D" stroke-width="2" stroke-dasharray="5 5"/>
      <rect x="451.839" y="301.839" width="36" height="36" rx="6.42" fill="#EFF0F2"/>
      <path d="M 464.862 314.839 C 464.862 310.99 469.029 308.584 472.362 310.509 C 473.909 311.402 474.862 313.053 474.862 314.839 C 474.862 318.688 470.695 321.094 467.362 319.169 C 465.815 318.276 464.862 316.625 464.862 314.839 Z" fill="#65676E"/>
      <path d="M 461.304 323.309 C 462.241 322.372 463.511 321.846 464.836 321.846 L 474.863 321.846 C 477.621 321.847 479.857 324.083 479.858 326.841 L 479.858 327.837 C 479.858 328.943 478.962 329.839 477.856 329.839 L 461.843 329.839 C 460.737 329.839 459.841 328.943 459.841 327.837 L 459.841 326.841 C 459.841 325.517 460.367 324.246 461.304 323.309 Z" fill="#C4C4C4"/>
      <path d="M 456.689 356.055 C 456.438 354.24 455.041 353.186 453.23 353.186 C 451.096 353.186 449.488 354.742 449.488 357.383 C 449.488 360.02 451.076 361.58 453.23 361.58 C 455.173 361.58 456.462 360.324 456.689 358.764 L 455.197 358.756 C 455.01 359.713 454.228 360.252 453.25 360.252 C 451.926 360.252 450.976 359.258 450.976 357.383 C 450.976 355.54 451.918 354.515 453.254 354.515 C 454.248 354.515 455.026 355.077 455.197 356.055 L 456.689 356.055 Z M 459.425 357.878 C 459.425 356.992 459.975 356.482 460.749 356.482 C 461.507 356.482 461.954 356.964 461.954 357.79 L 461.954 361.469 L 463.398 361.469 L 463.398 357.567 C 463.398 356.087 462.561 355.261 461.288 355.261 C 460.346 355.261 459.748 355.688 459.465 356.382 L 459.393 356.382 L 459.393 353.298 L 457.981 353.298 L 457.981 361.469 L 459.425 361.469 L 459.425 357.878 Z M 466.634 361.592 C 467.595 361.592 468.17 361.141 468.433 360.627 L 468.481 360.627 L 468.481 361.469 L 469.869 361.469 L 469.869 357.367 C 469.869 355.748 468.549 355.261 467.38 355.261 C 466.091 355.261 465.102 355.835 464.783 356.952 L 466.131 357.144 C 466.275 356.725 466.682 356.366 467.388 356.366 C 468.058 356.366 468.425 356.709 468.425 357.311 L 468.425 357.335 C 468.425 357.75 467.99 357.77 466.909 357.886 C 465.72 358.014 464.583 358.369 464.583 359.749 C 464.583 360.954 465.465 361.592 466.634 361.592 Z M 467.009 360.531 C 466.406 360.531 465.976 360.256 465.976 359.725 C 465.976 359.171 466.458 358.939 467.105 358.847 C 467.484 358.796 468.242 358.7 468.429 358.548 L 468.429 359.27 C 468.429 359.953 467.879 360.531 467.009 360.531 Z M 471.321 361.469 L 472.766 361.469 L 472.766 357.866 C 472.766 357.088 473.352 356.538 474.146 356.538 C 474.389 356.538 474.693 356.581 474.816 356.621 L 474.816 355.293 C 474.645 355.267 474.471 355.253 474.298 355.253 C 473.595 355.253 473.009 355.652 472.786 356.362 L 472.722 356.362 L 472.722 355.341 L 471.321 355.341 L 471.321 361.469 Z M 477.22 353.298 L 475.776 353.298 L 475.776 361.469 L 477.22 361.469 L 477.22 353.298 Z M 481.418 361.588 C 482.846 361.588 483.827 360.89 484.083 359.825 L 482.734 359.673 C 482.539 360.192 482.06 360.463 481.438 360.463 C 480.504 360.463 479.886 359.849 479.874 358.8 L 484.143 358.8 L 484.143 358.357 C 484.143 356.206 482.85 355.261 481.342 355.261 C 479.587 355.261 478.442 356.55 478.442 358.441 C 478.442 360.363 479.571 361.588 481.418 361.588 Z M 479.878 357.826 C 479.922 357.044 480.5 356.386 481.362 356.386 C 482.192 356.386 482.75 356.992 482.758 357.826 L 479.878 357.826 Z M 490.208 356.96 C 490.008 355.923 489.178 355.261 487.742 355.261 C 486.266 355.261 485.261 355.987 485.265 357.12 C 485.261 358.014 485.811 358.604 486.988 358.847 L 488.033 359.067 C 488.596 359.191 488.859 359.418 488.859 359.765 C 488.859 360.184 488.404 360.499 487.718 360.499 C 487.056 360.499 486.625 360.212 486.501 359.661 L 485.093 359.797 C 485.273 360.922 486.218 361.588 487.722 361.588 C 489.254 361.588 490.335 360.794 490.339 359.633 C 490.335 358.76 489.773 358.225 488.616 357.974 L 487.571 357.75 C 486.948 357.611 486.701 357.395 486.705 357.04 C 486.701 356.625 487.16 356.338 487.762 356.338 C 488.428 356.338 488.779 356.701 488.891 357.104 L 490.208 356.96 Z" fill="#1E212A"/>
      <rect x="396" y="290" width="147.678" height="89.308" rx="15" stroke="#96989D" stroke-width="2" stroke-dasharray="5 5"/>
      <rect x="123.839" y="532.839" width="36" height="36" rx="6.42" fill="#EFF0F2"/>
      <path d="M 136.862 545.839 C 136.862 541.99 141.029 539.584 144.362 541.509 C 145.909 542.402 146.862 544.053 146.862 545.839 C 146.862 549.688 142.695 552.094 139.362 550.169 C 137.815 549.276 136.862 547.625 136.862 545.839 Z" fill="#65676E"/>
      <path d="M 133.304 554.309 C 134.241 553.372 135.511 552.846 136.836 552.846 L 146.863 552.846 C 149.621 552.847 151.857 555.083 151.858 557.841 L 151.858 558.837 C 151.858 559.943 150.962 560.839 149.856 560.839 L 133.843 560.839 C 132.737 560.839 131.841 559.943 131.841 558.837 L 131.841 557.841 C 131.841 556.517 132.367 555.246 133.304 554.309 Z" fill="#C4C4C4"/>
      <path d="M 129.454 592.469 L 130.128 590.454 L 133.2 590.454 L 133.878 592.469 L 135.458 592.469 L 132.577 584.298 L 130.75 584.298 L 127.874 592.469 L 129.454 592.469 Z M 130.527 589.265 L 131.632 585.974 L 131.696 585.974 L 132.801 589.265 L 130.527 589.265 Z M 137.914 588.878 C 137.914 587.992 138.449 587.482 139.211 587.482 C 139.957 587.482 140.404 587.972 140.404 588.79 L 140.404 592.469 L 141.848 592.469 L 141.848 588.567 C 141.852 587.099 141.014 586.261 139.749 586.261 C 138.832 586.261 138.201 586.7 137.922 587.382 L 137.85 587.382 L 137.85 586.341 L 136.47 586.341 L 136.47 592.469 L 137.914 592.469 L 137.914 588.878 Z M 144.76 588.878 C 144.76 587.992 145.295 587.482 146.057 587.482 C 146.803 587.482 147.25 587.972 147.25 588.79 L 147.25 592.469 L 148.694 592.469 L 148.694 588.567 C 148.698 587.099 147.86 586.261 146.595 586.261 C 145.678 586.261 145.047 586.7 144.768 587.382 L 144.696 587.382 L 144.696 586.341 L 143.316 586.341 L 143.316 592.469 L 144.76 592.469 L 144.76 588.878 Z M 152.875 592.588 C 154.303 592.588 155.284 591.89 155.54 590.825 L 154.191 590.673 C 153.996 591.192 153.517 591.463 152.895 591.463 C 151.961 591.463 151.343 590.849 151.331 589.8 L 155.6 589.8 L 155.6 589.357 C 155.6 587.206 154.307 586.261 152.799 586.261 C 151.044 586.261 149.899 587.55 149.899 589.441 C 149.899 591.363 151.028 592.588 152.875 592.588 Z M 151.335 588.826 C 151.379 588.044 151.957 587.386 152.819 587.386 C 153.649 587.386 154.207 587.992 154.215 588.826 L 151.335 588.826 Z" fill="#1E212A"/>
      <rect x="68" y="521" width="147.678" height="89.308" rx="15" stroke="#96989D" stroke-width="2" stroke-dasharray="5 5"/>
      <path d="M 796 625 L 797 625 L 796 625 Z M 535 681.113 L 535 680.113 L 535 681.113 Z M 756 681.113 L 756 682.113 L 756 681.113 Z M 797 621.5 L 797 622.375 L 795 622.375 L 795 621.5 L 797 621.5 Z M 797 624.125 L 797 625 L 795 625 L 795 624.125 L 797 624.125 Z M 797 625 L 797 627.014 L 795 627.014 L 795 625 L 797 625 Z M 797 631.042 L 797 635.071 L 795 635.071 L 795 631.042 L 797 631.042 Z M 797 639.099 L 797 641.113 L 795 641.113 L 795 639.099 L 797 639.099 Z M 797 641.113 C 797 642.015 796.971 642.909 796.914 643.796 L 794.918 643.667 C 794.973 642.817 795 641.965 795 641.113 L 797 641.113 Z M 796.22 649.114 C 795.872 650.87 795.409 652.602 794.834 654.297 L 792.94 653.654 C 793.487 652.042 793.927 650.396 794.258 648.726 L 796.22 649.114 Z M 792.779 659.252 C 791.987 660.856 791.09 662.407 790.094 663.894 L 788.432 662.782 C 789.379 661.367 790.232 659.892 790.986 658.366 L 792.779 659.252 Z M 786.826 668.147 C 785.645 669.492 784.379 670.758 783.034 671.939 L 781.714 670.436 C 782.994 669.313 784.199 668.107 785.323 666.828 L 786.826 668.147 Z M 778.781 675.207 C 777.294 676.203 775.743 677.1 774.138 677.893 L 773.252 676.1 C 774.778 675.346 776.253 674.492 777.668 673.545 L 778.781 675.207 Z M 769.184 679.947 C 767.489 680.523 765.757 680.986 764.001 681.333 L 763.612 679.371 C 765.282 679.041 766.929 678.601 768.541 678.053 L 769.184 679.947 Z M 758.683 682.027 C 757.796 682.084 756.901 682.113 756 682.113 L 756 680.113 C 756.858 680.113 757.71 680.086 758.554 680.031 L 758.683 682.027 Z M 756 682.113 L 753.489 682.113 L 753.489 680.113 L 756 680.113 L 756 682.113 Z M 748.466 682.113 L 743.443 682.113 L 743.443 680.113 L 748.466 680.113 L 748.466 682.113 Z M 738.42 682.113 L 733.398 682.113 L 733.398 680.113 L 738.42 680.113 L 738.42 682.113 Z M 728.375 682.113 L 723.352 682.113 L 723.352 680.113 L 728.375 680.113 L 728.375 682.113 Z M 718.33 682.113 L 713.307 682.113 L 713.307 680.113 L 718.33 680.113 L 718.33 682.113 Z M 708.284 682.113 L 703.261 682.113 L 703.261 680.113 L 708.284 680.113 L 708.284 682.113 Z M 698.239 682.113 L 693.216 682.113 L 693.216 680.113 L 698.239 680.113 L 698.239 682.113 Z M 688.193 682.113 L 683.17 682.113 L 683.17 680.113 L 688.193 680.113 L 688.193 682.113 Z M 678.148 682.113 L 673.125 682.113 L 673.125 680.113 L 678.148 680.113 L 678.148 682.113 Z M 668.102 682.113 L 663.079 682.113 L 663.079 680.113 L 668.102 680.113 L 668.102 682.113 Z M 658.057 682.113 L 653.034 682.113 L 653.034 680.113 L 658.057 680.113 L 658.057 682.113 Z M 648.011 682.113 L 642.989 682.113 L 642.989 680.113 L 648.011 680.113 L 648.011 682.113 Z M 637.966 682.113 L 632.943 682.113 L 632.943 680.113 L 637.966 680.113 L 637.966 682.113 Z M 627.92 682.113 L 622.898 682.113 L 622.898 680.113 L 627.92 680.113 L 627.92 682.113 Z M 617.875 682.113 L 612.852 682.113 L 612.852 680.113 L 617.875 680.113 L 617.875 682.113 Z M 607.83 682.113 L 602.807 682.113 L 602.807 680.113 L 607.83 680.113 L 607.83 682.113 Z M 597.784 682.113 L 592.761 682.113 L 592.761 680.113 L 597.784 680.113 L 597.784 682.113 Z M 587.739 682.113 L 582.716 682.113 L 582.716 680.113 L 587.739 680.113 L 587.739 682.113 Z M 577.693 682.113 L 572.67 682.113 L 572.67 680.113 L 577.693 680.113 L 577.693 682.113 Z M 567.648 682.113 L 562.625 682.113 L 562.625 680.113 L 567.648 680.113 L 567.648 682.113 Z M 557.602 682.113 L 552.58 682.113 L 552.58 680.113 L 557.602 680.113 L 557.602 682.113 Z M 547.557 682.113 L 542.534 682.113 L 542.534 680.113 L 547.557 680.113 L 547.557 682.113 Z M 537.511 682.113 L 535 682.113 L 535 680.113 L 537.511 680.113 L 537.511 682.113 Z M 535 682.113 C 534.142 682.113 533.29 682.141 532.446 682.196 L 532.317 680.2 C 533.21 680.142 534.105 680.113 535 680.113 L 535 682.113 Z M 527.388 682.856 C 525.703 683.189 524.058 683.631 522.459 684.173 L 521.816 682.279 C 523.511 681.704 525.243 681.241 526.999 680.894 L 527.388 682.856 Z M 517.748 686.127 C 516.222 686.881 514.746 687.735 513.332 688.682 L 512.219 687.02 C 513.706 686.024 515.257 685.127 516.862 684.334 L 517.748 686.127 Z M 509.286 691.791 C 508.006 692.914 506.8 694.119 505.677 695.399 L 504.174 694.08 C 505.354 692.735 506.621 691.468 507.966 690.288 L 509.286 691.791 Z M 502.568 699.445 C 501.621 700.86 500.768 702.335 500.014 703.861 L 498.22 702.975 C 499.013 701.37 499.91 699.819 500.906 698.332 L 502.568 699.445 Z M 498.06 708.572 C 497.513 710.184 497.073 711.831 496.742 713.501 L 494.78 713.113 C 495.127 711.357 495.59 709.625 496.166 707.93 L 498.06 708.572 Z M 496.082 718.559 C 496.027 719.409 496 720.261 496 721.113 L 494 721.113 C 494 720.212 494.029 719.317 494.086 718.43 L 496.082 718.559 Z M 496 721.113 L 496 723.349 L 494 723.349 L 494 721.113 L 496 721.113 Z M 496 727.821 L 496 732.292 L 494 732.292 L 494 727.821 L 496 727.821 Z M 496 736.764 L 496 739 L 494 739 L 494 736.764 L 496 736.764 Z M 496 739 L 496 739.625 L 494 739.625 L 494 739 L 496 739 Z M 496 740.875 L 496 741.5 L 494 741.5 L 494 740.875 L 496 740.875 Z" fill="#96989D"/>
      <path d="M 487 734 L 495.056 742.056 L 503.113 734" stroke="#96989D" stroke-width="2"/>
      <path d="M 604 674 C 604 668.477 608.477 664 614 664 L 666 664 C 671.523 664 676 668.477 676 674 L 676 690 C 676 695.523 671.523 700 666 700 L 614 700 C 608.477 700 604 695.523 604 690 L 604 674 Z" fill="#EFF0F2"/>
      <path d="M 621.809 687 L 622.76 684.322 L 626.582 684.322 L 627.533 687 L 628.734 687 L 625.262 677.545 L 624.08 677.545 L 620.609 687 L 621.809 687 Z M 623.12 683.307 L 624.634 679.041 L 624.708 679.041 L 626.222 683.307 L 623.12 683.307 Z M 632.886 687.148 C 634.253 687.148 634.714 686.298 634.954 685.911 L 635.083 685.911 L 635.083 687 L 636.136 687 L 636.136 677.545 L 635.047 677.545 L 635.047 681.036 L 634.954 681.036 C 634.714 680.666 634.289 679.817 632.905 679.817 C 631.113 679.817 629.876 681.239 629.876 683.473 C 629.876 685.726 631.113 687.148 632.886 687.148 Z M 633.034 686.169 C 631.667 686.169 630.966 684.969 630.966 683.455 C 630.966 681.959 631.649 680.795 633.034 680.795 C 634.363 680.795 635.065 681.866 635.065 683.455 C 635.065 685.061 634.345 686.169 633.034 686.169 Z M 638.433 687 L 639.522 687 L 639.522 682.568 C 639.522 681.529 640.279 680.795 641.129 680.795 C 641.955 680.795 642.532 681.336 642.532 682.143 L 642.532 687 L 643.64 687 L 643.64 682.384 C 643.64 681.469 644.213 680.795 645.21 680.795 C 645.985 680.795 646.65 681.206 646.65 682.254 L 646.65 687 L 647.74 687 L 647.74 682.254 C 647.74 680.588 646.844 679.817 645.579 679.817 C 644.563 679.817 643.82 680.283 643.455 681.017 L 643.382 681.017 C 643.031 680.26 642.412 679.817 641.48 679.817 C 640.556 679.817 639.873 680.26 639.578 681.017 L 639.485 681.017 L 639.485 679.909 L 638.433 679.909 L 638.433 687 Z M 649.882 687 L 650.971 687 L 650.971 679.909 L 649.882 679.909 L 649.882 687 Z M 650.436 678.727 C 650.86 678.727 651.211 678.395 651.211 677.989 C 651.211 677.582 650.86 677.25 650.436 677.25 C 650.011 677.25 649.66 677.582 649.66 677.989 C 649.66 678.395 650.011 678.727 650.436 678.727 Z M 654.206 682.734 C 654.206 681.497 654.972 680.795 656.016 680.795 C 657.027 680.795 657.641 681.456 657.641 682.568 L 657.641 687 L 658.73 687 L 658.73 682.494 C 658.73 680.685 657.765 679.817 656.33 679.817 C 655.259 679.817 654.594 680.297 654.261 681.017 L 654.169 681.017 L 654.169 679.909 L 653.116 679.909 L 653.116 687 L 654.206 687 L 654.206 682.734 Z" fill="#65676E"/>
      <path d="M 470 620 L 470 742" stroke="#96989D" stroke-width="2" stroke-miterlimit="16"/>
      <path d="M 435 651 C 435 645.477 439.477 641 445 641 L 495 641 C 500.523 641 505 645.477 505 651 L 505 667 C 505 672.523 500.523 677 495 677 L 445 677 C 439.477 677 435 672.523 435 667 L 435 651 Z" fill="#EFF0F2"/>
      <path d="M 454.054 664 L 455.235 664 L 457.322 656.466 L 457.396 656.466 L 459.483 664 L 460.664 664 L 463.25 654.545 L 462.086 654.545 L 460.11 662.246 L 460.018 662.246 L 458.005 654.545 L 456.713 654.545 L 454.7 662.246 L 454.608 662.246 L 452.632 654.545 L 451.468 654.545 L 454.054 664 Z M 464.234 664 L 465.324 664 L 465.324 659.513 C 465.324 658.553 466.081 657.851 467.115 657.851 C 467.406 657.851 467.706 657.906 467.78 657.925 L 467.78 656.817 C 467.589 656.806 467.398 656.799 467.207 656.798 C 466.358 656.798 465.619 657.278 465.36 657.98 L 465.287 657.98 L 465.287 656.909 L 464.234 656.909 L 464.234 664 Z M 469.221 664 L 470.31 664 L 470.31 656.909 L 469.221 656.909 L 469.221 664 Z M 469.775 655.727 C 470.2 655.727 470.551 655.395 470.551 654.989 C 470.551 654.582 470.2 654.25 469.775 654.25 C 469.35 654.25 468.999 654.582 468.999 654.989 C 468.999 655.395 469.35 655.727 469.775 655.727 Z M 475.54 656.909 L 474.026 656.909 L 474.026 655.21 L 472.936 655.21 L 472.936 656.909 L 471.865 656.909 L 471.865 657.832 L 472.936 657.832 L 472.936 662.264 C 472.936 663.501 473.933 664.092 474.857 664.092 C 475.263 664.092 475.521 664.018 475.669 663.963 L 475.447 662.984 C 475.355 663.003 475.207 663.04 474.967 663.04 C 474.487 663.04 474.026 662.892 474.026 661.969 L 474.026 657.832 L 475.54 657.832 L 475.54 656.909 Z M 480.225 664.148 C 481.666 664.148 482.718 663.428 483.051 662.357 L 481.998 662.061 C 481.721 662.8 481.079 663.169 480.225 663.169 C 478.947 663.169 478.065 662.343 478.014 660.824 L 483.162 660.824 L 483.162 660.362 C 483.162 657.722 481.592 656.817 480.115 656.817 C 478.194 656.817 476.92 658.331 476.92 660.51 C 476.92 662.689 478.176 664.148 480.225 664.148 Z M 478.014 659.882 C 478.088 658.779 478.868 657.795 480.115 657.795 C 481.296 657.795 482.054 658.682 482.054 659.882 L 478.014 659.882 Z M 484.969 664 L 486.058 664 L 486.058 659.513 C 486.058 658.553 486.815 657.851 487.85 657.851 C 488.14 657.851 488.44 657.906 488.514 657.925 L 488.514 656.817 C 488.324 656.806 488.133 656.799 487.942 656.798 C 487.092 656.798 486.354 657.278 486.095 657.98 L 486.021 657.98 L 486.021 656.909 L 484.969 656.909 L 484.969 664 Z" fill="#65676E"/>
      <path d="M 478 734 L 469.944 742.056 L 461.887 734" stroke="#96989D" stroke-width="2"/>
      <path d="M 139 624 L 138 624 L 139 624 Z M 179 681.113 L 400 681.113 L 400 679.113 L 179 679.113 L 179 681.113 Z M 439 720.113 L 439 738 L 441 738 L 441 720.113 L 439 720.113 Z M 140 640.113 L 140 624 L 138 624 L 138 640.113 L 140 640.113 Z M 439 738 L 439 740.5 L 441 740.5 L 441 738 L 439 738 Z M 140 624 L 140 620.5 L 138 620.5 L 138 624 L 140 624 Z M 400 681.113 C 421.539 681.113 439 698.574 439 720.113 L 441 720.113 C 441 697.47 422.644 679.113 400 679.113 L 400 681.113 Z M 179 679.113 C 157.461 679.113 140 661.652 140 640.113 L 138 640.113 C 138 662.757 156.356 681.113 179 681.113 L 179 679.113 Z" fill="#96989D"/>
      <path d="M 245.5 673 C 245.5 667.477 249.977 663 255.5 663 L 312.5 663 C 318.023 663 322.5 667.477 322.5 673 L 322.5 689 C 322.5 694.523 318.023 699 312.5 699 L 255.5 699 C 249.977 699 245.5 694.523 245.5 689 L 245.5 673 Z" fill="#EFF0F2"/>
      <path d="M 262.966 686 L 264.111 686 L 264.111 682.307 L 266.179 682.307 C 266.262 682.307 266.34 682.307 266.419 682.302 L 268.413 686 L 269.743 686 L 267.605 682.094 C 268.81 681.684 269.373 680.7 269.373 679.445 C 269.373 677.773 268.376 676.545 266.16 676.545 L 262.966 676.545 L 262.966 686 Z M 264.111 681.273 L 264.111 677.561 L 266.123 677.561 C 267.656 677.561 268.247 678.309 268.247 679.445 C 268.247 680.58 267.656 681.273 266.142 681.273 L 264.111 681.273 Z M 274.18 686.148 C 275.621 686.148 276.673 685.428 277.006 684.357 L 275.953 684.061 C 275.676 684.8 275.034 685.169 274.18 685.169 C 272.901 685.169 272.02 684.343 271.969 682.824 L 277.116 682.824 L 277.116 682.362 C 277.116 679.722 275.547 678.817 274.069 678.817 C 272.149 678.817 270.875 680.331 270.875 682.51 C 270.875 684.689 272.131 686.148 274.18 686.148 Z M 271.969 681.882 C 272.043 680.779 272.823 679.795 274.069 679.795 C 275.251 679.795 276.008 680.682 276.008 681.882 L 271.969 681.882 Z M 281.01 686.166 C 282.247 686.166 282.894 685.501 283.115 685.04 L 283.171 685.04 L 283.171 686 L 284.26 686 L 284.26 681.328 C 284.26 679.075 282.543 678.817 281.638 678.817 C 280.567 678.817 279.348 679.186 278.794 680.479 L 279.828 680.848 C 280.069 680.331 280.636 679.777 281.675 679.777 C 282.677 679.777 283.171 680.308 283.171 681.217 L 283.171 681.254 C 283.171 681.781 282.635 681.734 281.343 681.901 C 280.027 682.071 278.591 682.362 278.591 683.987 C 278.591 685.372 279.662 686.166 281.01 686.166 Z M 281.176 685.188 C 280.309 685.188 279.681 684.8 279.681 684.043 C 279.681 683.212 280.438 682.953 281.287 682.842 C 281.749 682.787 282.986 682.658 283.171 682.436 L 283.171 683.433 C 283.171 684.32 282.469 685.188 281.176 685.188 Z M 289.076 686.148 C 290.443 686.148 290.905 685.298 291.145 684.911 L 291.274 684.911 L 291.274 686 L 292.326 686 L 292.326 676.545 L 291.237 676.545 L 291.237 680.036 L 291.145 680.036 C 290.905 679.666 290.48 678.817 289.095 678.817 C 287.304 678.817 286.066 680.239 286.066 682.473 C 286.066 684.726 287.304 686.148 289.076 686.148 Z M 289.224 685.169 C 287.858 685.169 287.156 683.969 287.156 682.455 C 287.156 680.959 287.839 679.795 289.224 679.795 C 290.554 679.795 291.255 680.866 291.255 682.455 C 291.255 684.061 290.535 685.169 289.224 685.169 Z M 297.596 686.148 C 299.036 686.148 300.089 685.428 300.421 684.357 L 299.369 684.061 C 299.092 684.8 298.45 685.169 297.596 685.169 C 296.317 685.169 295.436 684.343 295.385 682.824 L 300.532 682.824 L 300.532 682.362 C 300.532 679.722 298.963 678.817 297.485 678.817 C 295.565 678.817 294.291 680.331 294.291 682.51 C 294.291 684.689 295.546 686.148 297.596 686.148 Z M 295.385 681.882 C 295.459 680.779 296.239 679.795 297.485 679.795 C 298.667 679.795 299.424 680.682 299.424 681.882 L 295.385 681.882 Z M 302.339 686 L 303.429 686 L 303.429 681.513 C 303.429 680.553 304.186 679.851 305.22 679.851 C 305.511 679.851 305.811 679.906 305.885 679.925 L 305.885 678.817 C 305.694 678.806 305.503 678.799 305.312 678.798 C 304.463 678.798 303.724 679.278 303.466 679.98 L 303.392 679.98 L 303.392 678.909 L 302.339 678.909 L 302.339 686 Z" fill="#65676E"/>
      <path d="M 432 734 L 440.056 742.056 L 448.113 734" stroke="#96989D" stroke-width="2"/>
      <path d="M 795 389 L 795 512" stroke="#96989D" stroke-width="2" stroke-miterlimit="16" stroke-dasharray="5 5"/>
      <path d="M 753 417 C 753 411.477 757.477 407 763 407 L 827 407 C 832.523 407 837 411.477 837 417 L 837 433 C 837 438.523 832.523 443 827 443 L 763 443 C 757.477 443 753 438.523 753 433 L 753 417 Z" fill="#EFF0F2"/>
      <path d="M 770.316 420.545 L 770.316 430 L 771.387 430 L 771.387 422.817 L 771.479 422.817 L 774.434 430 L 775.468 430 L 778.422 422.817 L 778.515 422.817 L 778.515 430 L 779.586 430 L 779.586 420.545 L 778.219 420.545 L 775.006 428.393 L 774.895 428.393 L 771.682 420.545 L 770.316 420.545 Z M 784.856 430.148 C 786.297 430.148 787.349 429.428 787.682 428.357 L 786.629 428.061 C 786.352 428.8 785.711 429.169 784.856 429.169 C 783.578 429.169 782.696 428.343 782.645 426.824 L 787.793 426.824 L 787.793 426.362 C 787.793 423.722 786.223 422.817 784.746 422.817 C 782.825 422.817 781.551 424.331 781.551 426.51 C 781.551 428.689 782.807 430.148 784.856 430.148 Z M 782.645 425.882 C 782.719 424.779 783.499 423.795 784.746 423.795 C 785.928 423.795 786.685 424.682 786.685 425.882 L 782.645 425.882 Z M 789.6 430 L 790.689 430 L 790.689 425.568 C 790.689 424.529 791.446 423.795 792.296 423.795 C 793.122 423.795 793.699 424.336 793.699 425.143 L 793.699 430 L 794.807 430 L 794.807 425.384 C 794.807 424.469 795.38 423.795 796.377 423.795 C 797.152 423.795 797.817 424.206 797.817 425.254 L 797.817 430 L 798.907 430 L 798.907 425.254 C 798.907 423.588 798.011 422.817 796.746 422.817 C 795.731 422.817 794.987 423.283 794.623 424.017 L 794.549 424.017 C 794.198 423.26 793.579 422.817 792.647 422.817 C 791.723 422.817 791.04 423.26 790.745 424.017 L 790.652 424.017 L 790.652 422.909 L 789.6 422.909 L 789.6 430 Z M 801.196 430 L 802.249 430 L 802.249 428.911 L 802.378 428.911 C 802.618 429.298 803.08 430.148 804.446 430.148 C 806.219 430.148 807.456 428.726 807.456 426.473 C 807.456 424.239 806.219 422.817 804.428 422.817 C 803.043 422.817 802.618 423.666 802.378 424.036 L 802.286 424.036 L 802.286 420.545 L 801.196 420.545 L 801.196 430 Z M 802.267 426.455 C 802.267 424.866 802.969 423.795 804.299 423.795 C 805.684 423.795 806.367 424.959 806.367 426.455 C 806.367 427.969 805.665 429.169 804.299 429.169 C 802.988 429.169 802.267 428.061 802.267 426.455 Z M 812.246 430.148 C 813.686 430.148 814.739 429.428 815.071 428.357 L 814.019 428.061 C 813.742 428.8 813.1 429.169 812.246 429.169 C 810.967 429.169 810.085 428.343 810.035 426.824 L 815.182 426.824 L 815.182 426.362 C 815.182 423.722 813.612 422.817 812.135 422.817 C 810.215 422.817 808.941 424.331 808.941 426.51 C 808.941 428.689 810.196 430.148 812.246 430.148 Z M 810.035 425.882 C 810.109 424.779 810.889 423.795 812.135 423.795 C 813.317 423.795 814.074 424.682 814.074 425.882 L 810.035 425.882 Z M 816.989 430 L 818.079 430 L 818.079 425.513 C 818.079 424.553 818.836 423.851 819.87 423.851 C 820.161 423.851 820.461 423.906 820.535 423.925 L 820.535 422.817 C 820.344 422.806 820.153 422.799 819.962 422.798 C 819.113 422.798 818.374 423.278 818.116 423.98 L 818.042 423.98 L 818.042 422.909 L 816.989 422.909 L 816.989 430 Z" fill="#65676E"/>
      <path d="M 803 504 L 794.944 512.056 L 786.887 504" stroke="#96989D" stroke-width="2"/>
      <rect x="722" y="521" width="147.678" height="89.308" rx="15" fill="#FFE5D7"/>
      <rect x="777.839" y="532.839" width="36" height="36" rx="6.42" fill="#FFB288"/>
      <path d="M 793.503 545.509 C 793.448 543.578 795.505 542.311 797.205 543.23 C 798.039 543.68 798.548 544.562 798.521 545.509 C 798.466 547.44 796.342 548.589 794.696 547.576 C 793.975 547.132 793.527 546.355 793.503 545.509 Z" fill="#AA562B"/>
      <path d="M 792.824 549.83 C 793.335 549.32 794.028 549.033 794.75 549.033 L 797.272 549.033 C 797.994 549.033 798.687 549.32 799.199 549.83 C 799.709 550.342 799.996 551.035 799.996 551.758 L 799.996 558 C 799.996 558.604 799.507 559.092 798.905 559.092 L 793.118 559.092 C 792.514 559.092 792.026 558.602 792.026 558 L 792.026 551.758 C 792.025 551.035 792.312 550.341 792.824 549.83 Z" fill="#FFE5D7"/>
      <path d="M 786.526 550.553 C 786.862 550.216 787.319 550.027 787.795 550.027 L 789.209 550.027 C 790.201 550.026 791.005 550.83 791.004 551.822 L 791.004 556.362 C 791.004 556.76 790.682 557.082 790.284 557.082 L 786.72 557.082 C 786.322 557.082 786 556.76 786 556.362 L 786 551.822 C 786 551.346 786.189 550.889 786.526 550.553 Z M 801.522 550.553 C 801.858 550.216 802.315 550.027 802.791 550.027 L 804.205 550.027 C 805.197 550.025 806.002 550.83 806 551.822 L 806 556.28 C 806 556.678 805.678 557 805.28 557 L 801.715 557 C 801.317 557 800.995 556.678 800.995 556.28 L 800.995 551.822 C 800.996 551.346 801.186 550.889 801.522 550.553 Z" fill="#FF7F38"/>
      <path d="M 801.499 546.978 C 801.464 545.439 803.109 544.439 804.459 545.179 C 805.114 545.537 805.515 546.231 805.498 546.977 C 805.464 548.516 803.776 549.441 802.46 548.642 C 801.877 548.288 801.514 547.66 801.499 546.978 Z M 786.502 546.978 C 786.468 545.439 788.112 544.44 789.463 545.179 C 790.117 545.538 790.518 546.232 790.501 546.978 C 790.535 548.517 788.891 549.516 787.54 548.777 C 786.886 548.418 786.485 547.724 786.502 546.978 Z" fill="#D56A32"/>
      <rect x="722" y="521" width="147.678" height="89.308" rx="15" stroke="#96989D" stroke-width="2" stroke-dasharray="5 5"/>
      <rect x="393" y="753" width="153.678" height="89.308" rx="15" fill="#FFE4FA"/>
      <rect x="451.839" y="764.839" width="36" height="36" rx="6.42" fill="#FF79E7"/>
      <path d="M 470 793.19 C 474.971 793.19 479 792.059 479 790.663 C 479 789.268 474.971 788.136 470 788.136 C 465.029 788.136 461 789.268 461 790.663 C 461 792.059 465.029 793.19 470 793.19 Z" fill="#C638A7"/>
      <path d="M 478.999 784.133 L 461 784.133 L 461 790.67 L 478.999 790.67 L 478.999 784.133 Z" fill="#C638A7"/>
      <path d="M 470 786.614 C 474.971 786.614 479 785.482 479 784.087 C 479 782.691 474.971 781.56 470 781.56 C 465.029 781.56 461 782.691 461 784.087 C 461 785.482 465.029 786.614 470 786.614 Z" fill="#FFE4FA"/>
      <path d="M 470 784.483 C 474.971 784.483 479 783.352 479 781.956 C 479 780.561 474.971 779.429 470 779.429 C 465.029 779.429 461 780.561 461 781.956 C 461 783.352 465.029 784.483 470 784.483 Z" fill="#C638A7"/>
      <path d="M 478.999 775.575 L 461 775.575 L 461 781.963 L 478.999 781.963 L 478.999 775.575 Z" fill="#C638A7"/>
      <path d="M 470 778.054 C 474.971 778.054 479 776.923 479 775.527 C 479 774.131 474.971 773 470 773 C 465.029 773 461 774.131 461 775.527 C 461 776.923 465.029 778.054 470 778.054 Z M 463.011 780.657 C 463.309 780.622 463.514 780.287 463.469 779.909 C 463.423 779.532 463.145 779.255 462.847 779.291 C 462.549 779.326 462.344 779.661 462.39 780.039 C 462.435 780.416 462.713 780.693 463.011 780.657 Z M 463.011 789.326 C 463.309 789.29 463.514 788.955 463.469 788.578 C 463.423 788.201 463.145 787.924 462.847 787.959 C 462.549 787.995 462.344 788.33 462.39 788.707 C 462.435 789.085 462.713 789.362 463.011 789.326 Z" fill="#FFE4FA"/>
      <rect x="393" y="753" width="153.678" height="89.308" rx="15" stroke="#96989D" stroke-width="2" stroke-dasharray="5 5"/>
      <path d="M 466 393 L 465 393 L 466 393 Z M 727 449.113 L 727 448.113 L 727 449.113 Z M 506 449.113 L 506 450.113 L 506 449.113 Z M 465 389.5 L 465 390.375 L 467 390.375 L 467 389.5 L 465 389.5 Z M 465 392.125 L 465 393 L 467 393 L 467 392.125 L 465 392.125 Z M 465 393 L 465 395.014 L 467 395.014 L 467 393 L 465 393 Z M 465 399.042 L 465 403.071 L 467 403.071 L 467 399.042 L 465 399.042 Z M 465 407.099 L 465 409.113 L 467 409.113 L 467 407.099 L 465 407.099 Z M 465 409.113 C 465 410.015 465.029 410.909 465.086 411.796 L 467.082 411.667 C 467.027 410.817 467 409.965 467 409.113 L 465 409.113 Z M 465.78 417.114 C 466.128 418.87 466.591 420.602 467.166 422.297 L 469.06 421.654 C 468.513 420.042 468.073 418.396 467.742 416.726 L 465.78 417.114 Z M 469.221 427.252 C 470.013 428.856 470.91 430.407 471.906 431.894 L 473.568 430.782 C 472.621 429.367 471.768 427.892 471.014 426.366 L 469.221 427.252 Z M 475.174 436.147 C 476.355 437.492 477.621 438.758 478.966 439.939 L 480.286 438.436 C 479.006 437.313 477.801 436.107 476.677 434.828 L 475.174 436.147 Z M 483.219 443.207 C 484.706 444.203 486.257 445.1 487.862 445.893 L 488.748 444.1 C 487.222 443.346 485.747 442.492 484.332 441.545 L 483.219 443.207 Z M 492.816 447.947 C 494.511 448.523 496.243 448.986 497.999 449.333 L 498.388 447.371 C 496.718 447.041 495.071 446.601 493.459 446.053 L 492.816 447.947 Z M 503.317 450.027 C 504.204 450.084 505.099 450.113 506 450.113 L 506 448.113 C 505.142 448.113 504.29 448.086 503.446 448.031 L 503.317 450.027 Z M 506 450.113 L 508.511 450.113 L 508.511 448.113 L 506 448.113 L 506 450.113 Z M 513.534 450.113 L 518.557 450.113 L 518.557 448.113 L 513.534 448.113 L 513.534 450.113 Z M 523.58 450.113 L 528.602 450.113 L 528.602 448.113 L 523.58 448.113 L 523.58 450.113 Z M 533.625 450.113 L 538.648 450.113 L 538.648 448.113 L 533.625 448.113 L 533.625 450.113 Z M 543.67 450.113 L 548.693 450.113 L 548.693 448.113 L 543.67 448.113 L 543.67 450.113 Z M 553.716 450.113 L 558.739 450.113 L 558.739 448.113 L 553.716 448.113 L 553.716 450.113 Z M 563.761 450.113 L 568.784 450.113 L 568.784 448.113 L 563.761 448.113 L 563.761 450.113 Z M 573.807 450.113 L 578.83 450.113 L 578.83 448.113 L 573.807 448.113 L 573.807 450.113 Z M 583.852 450.113 L 588.875 450.113 L 588.875 448.113 L 583.852 448.113 L 583.852 450.113 Z M 593.898 450.113 L 598.921 450.113 L 598.921 448.113 L 593.898 448.113 L 593.898 450.113 Z M 603.943 450.113 L 608.966 450.113 L 608.966 448.113 L 603.943 448.113 L 603.943 450.113 Z M 613.989 450.113 L 619.011 450.113 L 619.011 448.113 L 613.989 448.113 L 613.989 450.113 Z M 624.034 450.113 L 629.057 450.113 L 629.057 448.113 L 624.034 448.113 L 624.034 450.113 Z M 634.08 450.113 L 639.102 450.113 L 639.102 448.113 L 634.08 448.113 L 634.08 450.113 Z M 644.125 450.113 L 649.148 450.113 L 649.148 448.113 L 644.125 448.113 L 644.125 450.113 Z M 654.17 450.113 L 659.193 450.113 L 659.193 448.113 L 654.17 448.113 L 654.17 450.113 Z M 664.216 450.113 L 669.239 450.113 L 669.239 448.113 L 664.216 448.113 L 664.216 450.113 Z M 674.261 450.113 L 679.284 450.113 L 679.284 448.113 L 674.261 448.113 L 674.261 450.113 Z M 684.307 450.113 L 689.33 450.113 L 689.33 448.113 L 684.307 448.113 L 684.307 450.113 Z M 694.352 450.113 L 699.375 450.113 L 699.375 448.113 L 694.352 448.113 L 694.352 450.113 Z M 704.398 450.113 L 709.42 450.113 L 709.42 448.113 L 704.398 448.113 L 704.398 450.113 Z M 714.443 450.113 L 719.466 450.113 L 719.466 448.113 L 714.443 448.113 L 714.443 450.113 Z M 724.489 450.113 L 727 450.113 L 727 448.113 L 724.489 448.113 L 724.489 450.113 Z M 727 450.113 C 727.858 450.113 728.71 450.141 729.554 450.196 L 729.683 448.2 C 728.79 448.142 727.895 448.113 727 448.113 L 727 450.113 Z M 734.612 450.856 C 736.297 451.189 737.942 451.631 739.541 452.173 L 740.184 450.279 C 738.489 449.704 736.757 449.241 735.001 448.894 L 734.612 450.856 Z M 744.252 454.127 C 745.778 454.881 747.254 455.735 748.668 456.682 L 749.781 455.02 C 748.294 454.024 746.743 453.127 745.138 452.334 L 744.252 454.127 Z M 752.714 459.791 C 753.994 460.914 755.2 462.119 756.323 463.399 L 757.826 462.08 C 756.646 460.735 755.379 459.468 754.034 458.288 L 752.714 459.791 Z M 759.432 467.445 C 760.379 468.86 761.232 470.335 761.986 471.861 L 763.78 470.975 C 762.987 469.37 762.09 467.819 761.094 466.332 L 759.432 467.445 Z M 763.94 476.572 C 764.487 478.184 764.927 479.831 765.258 481.501 L 767.22 481.113 C 766.873 479.357 766.41 477.625 765.834 475.93 L 763.94 476.572 Z M 765.918 486.559 C 765.972 487.403 766 488.255 766 489.113 L 768 489.113 C 768 488.212 767.971 487.317 767.914 486.43 L 765.918 486.559 Z M 766 489.113 L 766 491.349 L 768 491.349 L 768 489.113 L 766 489.113 Z M 766 495.821 L 766 500.292 L 768 500.292 L 768 495.821 L 766 495.821 Z M 766 504.764 L 766 507 L 768 507 L 768 504.764 L 766 504.764 Z M 766 507 L 766 507.625 L 768 507.625 L 768 507 L 766 507 Z M 766 508.875 L 766 509.5 L 768 509.5 L 768 508.875 L 766 508.875 Z" fill="#96989D"/>
      <path d="M 775 502 L 766.944 510.056 L 758.887 502" stroke="#96989D" stroke-width="2"/>
      <path d="M 580 442 C 580 436.477 584.477 432 590 432 L 654 432 C 659.523 432 664 436.477 664 442 L 664 458 C 664 463.523 659.523 468 654 468 L 590 468 C 584.477 468 580 463.523 580 458 L 580 442 Z" fill="#EFF0F2"/>
      <path d="M 597.316 445.545 L 597.316 455 L 598.387 455 L 598.387 447.817 L 598.479 447.817 L 601.434 455 L 602.468 455 L 605.422 447.817 L 605.515 447.817 L 605.515 455 L 606.586 455 L 606.586 445.545 L 605.219 445.545 L 602.006 453.393 L 601.895 453.393 L 598.682 445.545 L 597.316 445.545 Z M 611.856 455.148 C 613.297 455.148 614.349 454.428 614.682 453.357 L 613.629 453.061 C 613.352 453.8 612.711 454.169 611.856 454.169 C 610.578 454.169 609.696 453.343 609.645 451.824 L 614.793 451.824 L 614.793 451.362 C 614.793 448.722 613.223 447.817 611.746 447.817 C 609.825 447.817 608.551 449.331 608.551 451.51 C 608.551 453.689 609.807 455.148 611.856 455.148 Z M 609.645 450.882 C 609.719 449.779 610.499 448.795 611.746 448.795 C 612.928 448.795 613.685 449.682 613.685 450.882 L 609.645 450.882 Z M 616.6 455 L 617.689 455 L 617.689 450.568 C 617.689 449.529 618.446 448.795 619.296 448.795 C 620.122 448.795 620.699 449.336 620.699 450.143 L 620.699 455 L 621.807 455 L 621.807 450.384 C 621.807 449.469 622.38 448.795 623.377 448.795 C 624.152 448.795 624.817 449.206 624.817 450.254 L 624.817 455 L 625.907 455 L 625.907 450.254 C 625.907 448.588 625.011 447.817 623.746 447.817 C 622.731 447.817 621.987 448.283 621.623 449.017 L 621.549 449.017 C 621.198 448.26 620.579 447.817 619.647 447.817 C 618.723 447.817 618.04 448.26 617.745 449.017 L 617.652 449.017 L 617.652 447.909 L 616.6 447.909 L 616.6 455 Z M 628.196 455 L 629.249 455 L 629.249 453.911 L 629.378 453.911 C 629.618 454.298 630.08 455.148 631.446 455.148 C 633.219 455.148 634.456 453.726 634.456 451.473 C 634.456 449.239 633.219 447.817 631.428 447.817 C 630.043 447.817 629.618 448.666 629.378 449.036 L 629.286 449.036 L 629.286 445.545 L 628.196 445.545 L 628.196 455 Z M 629.267 451.455 C 629.267 449.866 629.969 448.795 631.299 448.795 C 632.684 448.795 633.367 449.959 633.367 451.455 C 633.367 452.969 632.665 454.169 631.299 454.169 C 629.988 454.169 629.267 453.061 629.267 451.455 Z M 639.246 455.148 C 640.686 455.148 641.739 454.428 642.071 453.357 L 641.019 453.061 C 640.742 453.8 640.1 454.169 639.246 454.169 C 637.967 454.169 637.085 453.343 637.035 451.824 L 642.182 451.824 L 642.182 451.362 C 642.182 448.722 640.612 447.817 639.135 447.817 C 637.215 447.817 635.941 449.331 635.941 451.51 C 635.941 453.689 637.196 455.148 639.246 455.148 Z M 637.035 450.882 C 637.109 449.779 637.889 448.795 639.135 448.795 C 640.317 448.795 641.074 449.682 641.074 450.882 L 637.035 450.882 Z M 643.989 455 L 645.079 455 L 645.079 450.513 C 645.079 449.553 645.836 448.851 646.87 448.851 C 647.161 448.851 647.461 448.906 647.535 448.925 L 647.535 447.817 C 647.344 447.806 647.153 447.799 646.962 447.798 C 646.113 447.798 645.374 448.278 645.116 448.98 L 645.042 448.98 L 645.042 447.909 L 643.989 447.909 L 643.989 455 Z" fill="#65676E"/>
      <rect x="723" y="290" width="147.678" height="89.308" rx="15" fill="#FFE5D7"/>
      <rect x="778.839" y="301.839" width="36" height="36" rx="6.42" fill="#FFB288"/>
      <path d="M 794.503 314.509 C 794.448 312.578 796.505 311.311 798.205 312.23 C 799.039 312.68 799.548 313.562 799.521 314.509 C 799.466 316.44 797.342 317.589 795.696 316.576 C 794.975 316.132 794.527 315.355 794.503 314.509 Z" fill="#AA562B"/>
      <path d="M 793.824 318.83 C 794.335 318.32 795.028 318.033 795.75 318.033 L 798.272 318.033 C 798.994 318.033 799.687 318.32 800.199 318.83 C 800.709 319.342 800.996 320.035 800.996 320.758 L 800.996 327 C 800.996 327.604 800.507 328.092 799.905 328.092 L 794.118 328.092 C 793.514 328.092 793.026 327.602 793.026 327 L 793.026 320.758 C 793.025 320.035 793.312 319.341 793.824 318.83 Z" fill="#FFE5D7"/>
      <path d="M 787.526 319.553 C 787.862 319.216 788.319 319.027 788.795 319.027 L 790.209 319.027 C 791.201 319.026 792.005 319.83 792.004 320.822 L 792.004 325.362 C 792.004 325.76 791.682 326.082 791.284 326.082 L 787.72 326.082 C 787.322 326.082 787 325.76 787 325.362 L 787 320.822 C 787 320.346 787.189 319.889 787.526 319.553 Z M 802.522 319.553 C 802.858 319.216 803.315 319.027 803.791 319.027 L 805.205 319.027 C 806.197 319.025 807.002 319.83 807 320.822 L 807 325.28 C 807 325.678 806.678 326 806.28 326 L 802.715 326 C 802.317 326 801.995 325.678 801.995 325.28 L 801.995 320.822 C 801.996 320.346 802.186 319.889 802.522 319.553 Z" fill="#FF7F38"/>
      <path d="M 802.499 315.978 C 802.464 314.439 804.109 313.439 805.459 314.179 C 806.114 314.537 806.515 315.231 806.498 315.977 C 806.464 317.516 804.776 318.441 803.46 317.642 C 802.877 317.288 802.514 316.66 802.499 315.978 Z M 787.502 315.978 C 787.468 314.439 789.112 313.44 790.463 314.179 C 791.117 314.538 791.518 315.232 791.501 315.978 C 791.535 317.517 789.891 318.516 788.54 317.777 C 787.886 317.418 787.485 316.724 787.502 315.978 Z" fill="#D56A32"/>
      <rect x="723" y="290" width="147.678" height="89.308" rx="15" stroke="#96989D" stroke-width="2" stroke-dasharray="5 5"/>
      <rect x="773.839" y="95.839" width="36" height="36" rx="6.42" fill="#EFF0F2"/>
      <path d="M 786.862 108.839 C 786.862 104.99 791.029 102.584 794.362 104.509 C 795.909 105.402 796.862 107.053 796.862 108.839 C 796.862 112.688 792.695 115.094 789.362 113.169 C 787.815 112.276 786.862 110.625 786.862 108.839 Z" fill="#65676E"/>
      <path d="M 783.304 117.309 C 784.241 116.372 785.511 115.846 786.836 115.846 L 796.863 115.846 C 799.621 115.847 801.857 118.083 801.858 120.841 L 801.858 121.837 C 801.858 122.943 800.962 123.839 799.856 123.839 L 783.843 123.839 C 782.737 123.839 781.841 122.943 781.841 121.837 L 781.841 120.841 C 781.841 119.517 782.367 118.246 783.304 117.309 Z" fill="#C4C4C4"/>
      <path d="M 779.9 155.469 C 782.39 155.469 783.866 153.929 783.866 151.375 C 783.866 148.83 782.39 147.298 779.956 147.298 L 777.132 147.298 L 777.132 155.469 L 779.9 155.469 Z M 778.612 154.188 L 778.612 148.579 L 779.872 148.579 C 781.532 148.579 782.398 149.504 782.398 151.375 C 782.398 153.254 781.532 154.188 779.829 154.188 L 778.612 154.188 Z M 785.208 155.469 L 786.653 155.469 L 786.653 149.341 L 785.208 149.341 L 785.208 155.469 Z M 785.934 148.471 C 786.393 148.471 786.768 148.12 786.768 147.689 C 786.768 147.254 786.393 146.903 785.934 146.903 C 785.472 146.903 785.097 147.254 785.097 147.689 C 785.097 148.12 785.472 148.471 785.934 148.471 Z M 789.901 155.592 C 790.862 155.592 791.437 155.141 791.7 154.627 L 791.748 154.627 L 791.748 155.469 L 793.136 155.469 L 793.136 151.367 C 793.136 149.748 791.816 149.261 790.647 149.261 C 789.358 149.261 788.369 149.835 788.05 150.952 L 789.398 151.144 C 789.542 150.725 789.949 150.366 790.655 150.366 C 791.325 150.366 791.692 150.709 791.692 151.311 L 791.692 151.335 C 791.692 151.75 791.257 151.77 790.176 151.886 C 788.987 152.014 787.85 152.369 787.85 153.749 C 787.85 154.954 788.732 155.592 789.901 155.592 Z M 790.276 154.531 C 789.674 154.531 789.243 154.256 789.243 153.725 C 789.243 153.171 789.725 152.939 790.372 152.847 C 790.751 152.796 791.509 152.7 791.696 152.548 L 791.696 153.27 C 791.696 153.953 791.146 154.531 790.276 154.531 Z M 796.033 151.878 C 796.033 150.992 796.567 150.482 797.329 150.482 C 798.075 150.482 798.522 150.972 798.522 151.79 L 798.522 155.469 L 799.966 155.469 L 799.966 151.567 C 799.97 150.099 799.133 149.261 797.868 149.261 C 796.95 149.261 796.32 149.7 796.041 150.382 L 795.969 150.382 L 795.969 149.341 L 794.589 149.341 L 794.589 155.469 L 796.033 155.469 L 796.033 151.878 Z M 804.147 155.588 C 805.576 155.588 806.557 154.89 806.812 153.825 L 805.464 153.673 C 805.268 154.192 804.79 154.463 804.167 154.463 C 803.234 154.463 802.615 153.849 802.603 152.8 L 806.872 152.8 L 806.872 152.357 C 806.872 150.206 805.58 149.261 804.072 149.261 C 802.316 149.261 801.171 150.55 801.171 152.441 C 801.171 154.363 802.3 155.588 804.147 155.588 Z M 802.607 151.826 C 802.651 151.044 803.23 150.386 804.091 150.386 C 804.921 150.386 805.48 150.992 805.488 151.826 L 802.607 151.826 Z" fill="#1E212A"/>
      <rect x="718" y="84" width="147.678" height="89.308" rx="15" stroke="#96989D" stroke-width="2" stroke-dasharray="5 5"/>
      <path d="M 795 182 L 795 281" stroke="#96989D" stroke-width="2" stroke-miterlimit="16" stroke-dasharray="5 5"/>
      <path d="M 753 223 C 753 217.477 757.477 213 763 213 L 827 213 C 832.523 213 837 217.477 837 223 L 837 239 C 837 244.523 832.523 249 827 249 L 763 249 C 757.477 249 753 244.523 753 239 L 753 223 Z" fill="#EFF0F2"/>
      <path d="M 770.316 226.545 L 770.316 236 L 771.387 236 L 771.387 228.817 L 771.479 228.817 L 774.434 236 L 775.468 236 L 778.422 228.817 L 778.515 228.817 L 778.515 236 L 779.586 236 L 779.586 226.545 L 778.219 226.545 L 775.006 234.393 L 774.895 234.393 L 771.682 226.545 L 770.316 226.545 Z M 784.856 236.148 C 786.297 236.148 787.349 235.428 787.682 234.357 L 786.629 234.061 C 786.352 234.8 785.711 235.169 784.856 235.169 C 783.578 235.169 782.696 234.343 782.645 232.824 L 787.793 232.824 L 787.793 232.362 C 787.793 229.722 786.223 228.817 784.746 228.817 C 782.825 228.817 781.551 230.331 781.551 232.51 C 781.551 234.689 782.807 236.148 784.856 236.148 Z M 782.645 231.882 C 782.719 230.779 783.499 229.795 784.746 229.795 C 785.928 229.795 786.685 230.682 786.685 231.882 L 782.645 231.882 Z M 789.6 236 L 790.689 236 L 790.689 231.568 C 790.689 230.529 791.446 229.795 792.296 229.795 C 793.122 229.795 793.699 230.336 793.699 231.143 L 793.699 236 L 794.807 236 L 794.807 231.384 C 794.807 230.469 795.38 229.795 796.377 229.795 C 797.152 229.795 797.817 230.206 797.817 231.254 L 797.817 236 L 798.907 236 L 798.907 231.254 C 798.907 229.588 798.011 228.817 796.746 228.817 C 795.731 228.817 794.987 229.283 794.623 230.017 L 794.549 230.017 C 794.198 229.26 793.579 228.817 792.647 228.817 C 791.723 228.817 791.04 229.26 790.745 230.017 L 790.652 230.017 L 790.652 228.909 L 789.6 228.909 L 789.6 236 Z M 801.196 236 L 802.249 236 L 802.249 234.911 L 802.378 234.911 C 802.618 235.298 803.08 236.148 804.446 236.148 C 806.219 236.148 807.456 234.726 807.456 232.473 C 807.456 230.239 806.219 228.817 804.428 228.817 C 803.043 228.817 802.618 229.666 802.378 230.036 L 802.286 230.036 L 802.286 226.545 L 801.196 226.545 L 801.196 236 Z M 802.267 232.455 C 802.267 230.866 802.969 229.795 804.299 229.795 C 805.684 229.795 806.367 230.959 806.367 232.455 C 806.367 233.969 805.665 235.169 804.299 235.169 C 802.988 235.169 802.267 234.061 802.267 232.455 Z M 812.246 236.148 C 813.686 236.148 814.739 235.428 815.071 234.357 L 814.019 234.061 C 813.742 234.8 813.1 235.169 812.246 235.169 C 810.967 235.169 810.085 234.343 810.035 232.824 L 815.182 232.824 L 815.182 232.362 C 815.182 229.722 813.612 228.817 812.135 228.817 C 810.215 228.817 808.941 230.331 808.941 232.51 C 808.941 234.689 810.196 236.148 812.246 236.148 Z M 810.035 231.882 C 810.109 230.779 810.889 229.795 812.135 229.795 C 813.317 229.795 814.074 230.682 814.074 231.882 L 810.035 231.882 Z M 816.989 236 L 818.079 236 L 818.079 231.513 C 818.079 230.553 818.836 229.851 819.87 229.851 C 820.161 229.851 820.461 229.906 820.535 229.925 L 820.535 228.817 C 820.344 228.806 820.153 228.799 819.962 228.798 C 819.113 228.798 818.374 229.278 818.116 229.98 L 818.042 229.98 L 818.042 228.909 L 816.989 228.909 L 816.989 236 Z" fill="#65676E"/>
      <path d="M 803 273 L 794.944 281.056 L 786.887 273" stroke="#96989D" stroke-width="2"/>
      <text style="fill: rgb(51, 51, 51); font-family: Arial, sans-serif; white-space: pre; font-size: 15px;" x="396" y="824.258"> repo:contoso/tooling</text>
      <text style="fill: rgb(51, 51, 51); font-family: Arial, sans-serif; font-size: 12px; white-space: pre;" x="727.624" y="590.063">team:contoso/engineering</text>
      <g transform="matrix(1, 0, 0, 1, 11.434059, 1.276923)">
        <text style="fill: rgb(51, 51, 51); font-family: Arial, sans-serif; font-size: 12px; white-space: pre;" x="723.096" y="357.931"> team:contoso/protocols </text>
      </g>
    </g>
  </g>
</svg>