<svg width="106" height="106" viewBox="0 0 106 106" fill="none" xmlns="http://www.w3.org/2000/svg">
<rect y="0.026001" width="105.948" height="105.948" rx="20.252" fill="#BEC4CE"/>
<path d="M64.0129 73.9042C56.1813 73.9042 49.8325 67.5554 49.8325 59.7238C49.8325 51.8921 56.1813 45.5433 64.0129 45.5433C71.8446 45.5433 78.1934 51.8921 78.1934 59.7238C78.1934 67.5554 71.8446 73.9042 64.0129 73.9042Z" fill="#2D2D37"/>
<path d="M31.1944 12.7576L75.8814 12.7576C83.6935 12.7576 90.0264 19.1052 90.0264 26.9353L90.0264 26.9407C90.0264 34.7708 83.6935 41.1185 75.8814 41.1185L31.1944 41.1185C23.3824 41.1185 17.0495 34.7709 17.0495 26.9407L17.0495 26.9354C17.0495 19.1052 23.3824 12.7576 31.1944 12.7576Z" fill="url(#paint0_linear_103_112412)"/>
<path d="M45.4082 26.9027L45.4082 79.0687C45.4082 86.8807 39.0606 93.2136 31.2304 93.2136L31.2251 93.2136C23.3949 93.2136 17.0473 86.8807 17.0473 79.0687L17.0473 26.9027C17.0473 19.0906 23.3949 12.7577 31.2251 12.7577L31.2304 12.7577C39.0606 12.7577 45.4082 19.0906 45.4082 26.9027Z" fill="url(#paint1_linear_103_112412)"/>
<path d="M31.2278 93.2425C23.3961 93.2425 17.0473 86.8937 17.0473 79.062C17.0473 71.2304 23.3961 64.8816 31.2278 64.8816C39.0594 64.8816 45.4082 71.2304 45.4082 79.062C45.4082 86.8937 39.0594 93.2425 31.2278 93.2425Z" fill="white"/>
<path d="M64.03 73.9375C71.8617 73.9375 78.2105 67.5887 78.2105 59.7571C78.2105 51.9255 71.8617 45.5767 64.03 45.5767C56.1984 45.5767 49.8496 51.9255 49.8496 59.7571C49.8496 67.5887 56.1984 73.9375 64.03 73.9375Z" fill="black"/>
<defs>
<linearGradient id="paint0_linear_103_112412" x1="90.016" y1="26.9375" x2="17.04" y2="26.9375" gradientUnits="userSpaceOnUse">
<stop stop-color="#635DFF"/>
<stop offset="1" stop-color="#3885FF"/>
</linearGradient>
<linearGradient id="paint1_linear_103_112412" x1="31.2283" y1="93.2174" x2="31.2283" y2="12.7625" gradientUnits="userSpaceOnUse">
<stop stop-color="#FF4F40"/>
<stop offset="1" stop-color="#FF44DD"/>
</linearGradient>
</defs>
</svg>
