<svg width="940" height="357" viewBox="0 0 940 357" fill="none" xmlns="http://www.w3.org/2000/svg"><path fill="#fff" d="M0 0h940v357H0z"/><rect x="396" y="254" width="147.678" height="89.308" rx="15" fill="#DEF7F1"/><rect x="451.839" y="265.839" width="36" height="36" rx="6.42" fill="#31CEA8"/><path d="M476.816 278.926v12.913a1.996 1.996 0 0 1-1.996 1.996h-9.985a1.995 1.995 0 0 1-1.996-1.996v-15.991c0-1.102.893-1.996 1.996-1.996h6.993l4.988 5.074z" fill="#DEF7F1"/><path d="M476.825 278.894h-3.376c-.912 0-1.65-.738-1.65-1.649v-3.406l5.026 5.055z" fill="#13A688"/><path d="M472.832 282.839h-5.986c-.555 0-1.007.447-1.007 1 0 .552.45 1 1.007 1h5.986c.555 0 1.007-.447 1.007-1 0-.553-.451-1-1.007-1zm-1.943 3h-4.1c-.524 0-.95.447-.95 1 0 .552.425 1 .95 1h4.1c.524 0 .95-.447.95-1 0-.553-.426-1-.95-1z" fill="#31CEA8"/><path d="M408.175 325.576c1.053 0 1.528-.626 1.756-1.073h.087v.966h1.421v-8.171h-1.449v3.056h-.059c-.22-.443-.671-1.093-1.752-1.093-1.416 0-2.529 1.109-2.529 3.152 0 2.018 1.081 3.163 2.525 3.163zm.403-1.185c-.953 0-1.456-.837-1.456-1.986 0-1.141.495-1.959 1.456-1.959.93 0 1.44.77 1.44 1.959s-.518 1.986-1.44 1.986zm7.073 1.197c1.795 0 2.936-1.264 2.936-3.159 0-1.899-1.141-3.168-2.936-3.168-1.796 0-2.937 1.269-2.937 3.168 0 1.895 1.141 3.159 2.937 3.159zm.008-1.157c-.994 0-1.481-.885-1.481-2.006 0-1.121.487-2.019 1.481-2.019.977 0 1.464.898 1.464 2.019s-.487 2.006-1.464 2.006zm6.826 1.157c1.54 0 2.522-.913 2.626-2.214h-1.381c-.123.658-.598 1.037-1.233 1.037-.901 0-1.484-.754-1.484-2.006 0-1.237.595-1.979 1.484-1.979.695 0 1.121.447 1.233 1.037h1.381c-.1-1.328-1.137-2.202-2.634-2.202-1.795 0-2.928 1.297-2.928 3.168 0 1.855 1.105 3.159 2.936 3.159zm7.717-2.697c0 .934-.666 1.397-1.304 1.397-.695 0-1.157-.491-1.157-1.269v-3.678h-1.445v3.902c0 1.472.838 2.305 2.043 2.305.918 0 1.564-.482 1.843-1.168h.064v1.089h1.4v-6.128h-1.444v3.55zm2.929 2.578h1.445v-3.727c0-.754.502-1.264 1.125-1.264.61 0 1.029.411 1.029 1.041v3.95h1.416v-3.822c0-.69.411-1.169 1.109-1.169.583 0 1.045.343 1.045 1.101v3.89h1.449v-4.114c0-1.368-.79-2.094-1.915-2.094-.89 0-1.568.439-1.84 1.121h-.063c-.236-.694-.83-1.121-1.656-1.121-.822 0-1.436.423-1.691 1.121h-.072v-1.041h-1.381v6.128zm12.796.119c1.428 0 2.409-.698 2.665-1.763l-1.349-.152c-.195.519-.674.79-1.297.79-.933 0-1.551-.614-1.563-1.663h4.268v-.443c0-2.15-1.292-3.096-2.8-3.096-1.756 0-2.901 1.289-2.901 3.18 0 1.923 1.129 3.147 2.977 3.147zm-1.54-3.762c.043-.782.622-1.44 1.484-1.44.829 0 1.388.606 1.396 1.44h-2.88zm6.93.052c0-.886.535-1.396 1.297-1.396.746 0 1.193.491 1.193 1.308v3.679h1.444v-3.902c.004-1.468-.834-2.306-2.099-2.306-.917 0-1.547.439-1.827 1.121h-.072v-1.041h-1.38v6.128h1.444v-3.591zm8.462-2.537h-1.209v-1.468h-1.444v1.468h-.87v1.117h.87v3.407c-.008 1.153.83 1.719 1.915 1.687.411-.012.694-.091.85-.143l-.244-1.129c-.079.02-.243.056-.423.056-.363 0-.654-.128-.654-.711v-3.167h1.209v-1.117zm2.097 6.215a.888.888 0 0 0 .878-.877.887.887 0 0 0-.878-.87.87.87 0 0 0-.877.87.872.872 0 0 0 .877.877zm0-4.376a.888.888 0 0 0 .878-.878.887.887 0 0 0-.878-.869.87.87 0 0 0-.877.869.873.873 0 0 0 .877.878zm2.353 4.289h5.601v-1.237h-3.558v-.056l1.408-1.432c1.588-1.524 2.027-2.266 2.027-3.188 0-1.368-1.113-2.369-2.757-2.369-1.62 0-2.769 1.005-2.769 2.557h1.409c0-.834.526-1.357 1.34-1.357.778 0 1.356.475 1.356 1.245 0 .682-.414 1.169-1.22 1.987l-2.837 2.78v1.07zm9.998.155c1.971.004 3.147-1.552 3.147-4.233 0-2.665-1.184-4.204-3.147-4.204-1.963 0-3.144 1.535-3.148 4.204 0 2.677 1.177 4.233 3.148 4.233zm0-1.248c-1.018 0-1.656-1.022-1.652-2.985.004-1.946.638-2.972 1.652-2.972 1.017 0 1.651 1.026 1.655 2.972 0 1.963-.634 2.985-1.655 2.985zm4.473 1.093h5.601v-1.237h-3.558v-.056l1.408-1.432c1.588-1.524 2.026-2.266 2.026-3.188 0-1.368-1.113-2.369-2.756-2.369-1.62 0-2.769 1.005-2.769 2.557h1.408c0-.834.527-1.357 1.341-1.357.778 0 1.356.475 1.356 1.245 0 .682-.415 1.169-1.221 1.987l-2.836 2.78v1.07zm10.301-8.171h-1.409l-2.03 1.305v1.356l1.911-1.221h.048v6.731h1.48v-8.171zm5.804 4.173h-3.678v1.189h3.678v-1.189zm1.583 3.998h1.42v-.966h.084c.228.447.702 1.073 1.756 1.073 1.444 0 2.525-1.145 2.525-3.163 0-2.043-1.113-3.152-2.529-3.152-1.082 0-1.532.65-1.752 1.093h-.06v-3.056h-1.444v8.171zm1.416-3.064c0-1.189.511-1.959 1.441-1.959.961 0 1.456.818 1.456 1.959 0 1.149-.503 1.986-1.456 1.986-.922 0-1.441-.797-1.441-1.986zm9.502.486c0 .934-.666 1.397-1.304 1.397-.694 0-1.157-.491-1.157-1.269v-3.678h-1.444v3.902c0 1.472.837 2.305 2.042 2.305.918 0 1.564-.482 1.843-1.168h.064v1.089h1.401v-6.128h-1.445v3.55zm5.204 2.685c1.053 0 1.528-.626 1.755-1.073h.088v.966h1.42v-8.171h-1.448v3.056h-.06c-.219-.443-.67-1.093-1.751-1.093-1.417 0-2.53 1.109-2.53 3.152 0 2.018 1.081 3.163 2.526 3.163zm.403-1.185c-.954 0-1.457-.837-1.457-1.986 0-1.141.495-1.959 1.457-1.959.929 0 1.44.77 1.44 1.959s-.519 1.986-1.44 1.986zm7.064 3.479c1.656 0 2.876-.758 2.876-2.302v-6.227h-1.424v1.013h-.08c-.219-.443-.678-1.093-1.759-1.093-1.416 0-2.529 1.109-2.529 3.124 0 1.998 1.113 2.996 2.525 2.996 1.049 0 1.54-.563 1.763-1.013h.072v1.16c0 .878-.598 1.249-1.42 1.249-.87 0-1.253-.411-1.428-.746l-1.301.315c.263.834 1.145 1.524 2.705 1.524zm.012-3.622c-.954 0-1.456-.742-1.456-1.871 0-1.113.494-1.931 1.456-1.931.929 0 1.44.77 1.44 1.931 0 1.169-.519 1.871-1.44 1.871zm7.057 1.34c1.428 0 2.41-.698 2.665-1.763l-1.348-.152c-.196.519-.674.79-1.297.79-.933 0-1.552-.614-1.564-1.663h4.269v-.443c0-2.15-1.293-3.096-2.801-3.096-1.755 0-2.9 1.289-2.9 3.18 0 1.923 1.129 3.147 2.976 3.147zm-1.54-3.762c.044-.782.623-1.44 1.484-1.44.83 0 1.389.606 1.397 1.44h-2.881zm8.547-2.485h-1.209v-1.468H531.4v1.468h-.87v1.117h.87v3.407c-.008 1.153.83 1.719 1.915 1.687.411-.012.694-.091.849-.143l-.243-1.129c-.08.02-.243.056-.423.056-.363 0-.654-.128-.654-.711v-3.167h1.209v-1.117z" fill="#1E212A"/><rect x="396" y="254" width="147.678" height="89.308" rx="15" stroke="#96989D" stroke-width="2" stroke-dasharray="5 5"/><rect x="781.839" y="33.839" width="36" height="36" rx="6.42" fill="#EFF0F2"/><path d="M794.862 46.84a5 5 0 1 1 10 0 5 5 0 0 1-10 0z" fill="#65676E"/><path d="M791.304 55.309a4.995 4.995 0 0 1 3.532-1.463h10.027a4.997 4.997 0 0 1 4.995 4.996v.995a2.002 2.002 0 0 1-2.002 2.002h-16.013a2.002 2.002 0 0 1-2.002-2.002v-.996c0-1.324.526-2.595 1.463-3.532z" fill="#C4C4C4"/><path d="M787.979 93.469h3.307c1.871 0 2.789-.954 2.789-2.226 0-1.237-.878-1.963-1.748-2.007v-.08c.798-.188 1.428-.746 1.428-1.74 0-1.216-.877-2.118-2.649-2.118h-3.127v8.17zm1.48-1.237v-2.394h1.631c.914 0 1.481.559 1.481 1.289 0 .65-.447 1.105-1.52 1.105h-1.592zm0-3.459v-2.254h1.496c.87 0 1.32.459 1.32 1.09 0 .717-.582 1.164-1.352 1.164h-1.464zm8.552 4.815c1.428 0 2.41-.698 2.665-1.763l-1.348-.152c-.196.519-.675.79-1.297.79-.933 0-1.552-.614-1.564-1.663h4.269v-.443c0-2.15-1.293-3.096-2.801-3.096-1.755 0-2.9 1.289-2.9 3.18 0 1.922 1.129 3.147 2.976 3.147zm-1.54-3.762c.044-.782.623-1.44 1.484-1.44.83 0 1.389.607 1.397 1.44h-2.881zm8.547-2.485h-1.209v-1.468h-1.444v1.468h-.87v1.117h.87v3.407c-.008 1.153.83 1.72 1.915 1.687.411-.012.694-.091.849-.143l-.243-1.13c-.08.02-.243.057-.423.057-.363 0-.654-.128-.654-.71v-3.168h1.209V87.34zm2.783 2.537c0-.885.551-1.396 1.325-1.396.758 0 1.205.483 1.205 1.308v3.679h1.444v-3.902c0-1.48-.838-2.306-2.111-2.306-.941 0-1.54.427-1.823 1.121h-.072v-3.084h-1.412v8.17h1.444v-3.59z" fill="#1E212A"/><rect x="726" y="22" width="147.678" height="89.308" rx="15" stroke="#96989D" stroke-width="2" stroke-dasharray="5 5"/><rect x="123.839" y="33.839" width="36" height="36" rx="6.42" fill="#EFF0F2"/><path d="M136.862 46.84a5 5 0 1 1 10 0 5 5 0 0 1-10 0z" fill="#65676E"/><path d="M133.304 55.309a4.995 4.995 0 0 1 3.532-1.463h10.027a4.997 4.997 0 0 1 4.995 4.996v.995a2.002 2.002 0 0 1-2.002 2.002h-16.013a2.002 2.002 0 0 1-2.002-2.002v-.996c0-1.324.526-2.595 1.463-3.532z" fill="#C4C4C4"/><path d="M129.454 93.469l.674-2.015h3.072l.678 2.015h1.58l-2.881-8.17h-1.827l-2.876 8.17h1.58zm1.073-3.204l1.105-3.291h.064l1.105 3.291h-2.274zm7.387-.387c0-.885.535-1.396 1.297-1.396.746 0 1.193.49 1.193 1.308v3.679h1.444v-3.902c.004-1.468-.834-2.306-2.099-2.306-.917 0-1.548.439-1.827 1.121h-.072v-1.041h-1.38v6.128h1.444v-3.59zm6.846 0c0-.885.535-1.396 1.297-1.396.746 0 1.193.49 1.193 1.308v3.679h1.444v-3.902c.004-1.468-.834-2.306-2.099-2.306-.917 0-1.548.439-1.827 1.121h-.072v-1.041h-1.38v6.128h1.444v-3.59zm8.115 3.71c1.428 0 2.409-.698 2.665-1.763l-1.349-.152c-.195.519-.674.79-1.296.79-.934 0-1.552-.614-1.564-1.663h4.269v-.443c0-2.15-1.293-3.096-2.801-3.096-1.755 0-2.9 1.289-2.9 3.18 0 1.922 1.129 3.147 2.976 3.147zm-1.54-3.762c.044-.782.622-1.44 1.484-1.44.83 0 1.388.607 1.396 1.44h-2.88z" fill="#1E212A"/><rect x="68" y="22" width="147.678" height="89.308" rx="15" stroke="#96989D" stroke-width="2" stroke-dasharray="5 5"/><path d="M796 126h1-1zm-40 57.113H535v-2h221v2zm-260 39V240h-2v-17.887h2zm299-80V126h2v16.113h-2zM496 240v2.5h-2V240h2zm299-114v-3.5h2v3.5h-2zm-260 57.113c-21.539 0-39 17.461-39 39h-2c0-22.643 18.356-41 41-41v2zm221-2c21.539 0 39-17.46 39-39h2c0 22.644-18.356 41-41 41v-2z" fill="#96989D"/><path d="M487 235l8.056 8.056 8.057-8.056" stroke="#96989D" stroke-width="2"/><path d="M587 175c0-5.523 4.477-10 10-10h86c5.523 0 10 4.477 10 10v16c0 5.523-4.477 10-10 10h-86c-5.523 0-10-4.477-10-10v-16z" fill="#EFF0F2"/><path d="M612.136 181.5c-.351-1.939-1.902-3.084-3.804-3.084-2.419 0-4.173 1.865-4.173 4.857 0 2.991 1.754 4.856 4.173 4.856 1.902 0 3.453-1.145 3.804-3.084h-1.145c-.277 1.312-1.403 2.013-2.659 2.013-1.717 0-3.065-1.329-3.065-3.785 0-2.456 1.348-3.786 3.065-3.786 1.256 0 2.382.702 2.659 2.013h1.145zm4.733 6.648c1.921 0 3.213-1.459 3.213-3.657 0-2.215-1.292-3.674-3.213-3.674-1.92 0-3.213 1.459-3.213 3.674 0 2.198 1.293 3.657 3.213 3.657zm0-.979c-1.459 0-2.123-1.256-2.123-2.678 0-1.421.664-2.696 2.123-2.696s2.124 1.275 2.124 2.696c0 1.422-.665 2.678-2.124 2.678zm5.026.831h1.09v-4.432c0-1.039.757-1.773 1.606-1.773.827 0 1.404.541 1.404 1.348V188h1.108v-4.616c0-.915.572-1.589 1.569-1.589.776 0 1.441.411 1.441 1.459V188h1.089v-4.746c0-1.666-.895-2.437-2.16-2.437-1.016 0-1.759.466-2.124 1.2h-.074c-.351-.757-.969-1.2-1.902-1.2-.923 0-1.606.443-1.902 1.2h-.092v-1.108h-1.053V188zm11.449 0h1.09v-4.432c0-1.039.757-1.773 1.606-1.773.827 0 1.404.541 1.404 1.348V188h1.108v-4.616c0-.915.572-1.589 1.569-1.589.776 0 1.441.411 1.441 1.459V188h1.089v-4.746c0-1.666-.896-2.437-2.16-2.437-1.016 0-1.759.466-2.124 1.2h-.074c-.351-.757-.969-1.2-1.902-1.2-.923 0-1.606.443-1.902 1.2h-.092v-1.108h-1.053V188zm14.422.148c1.44 0 2.493-.72 2.825-1.791l-1.052-.296c-.277.739-.919 1.108-1.773 1.108-1.279 0-2.16-.826-2.211-2.345h5.147v-.462c0-2.64-1.569-3.545-3.047-3.545-1.92 0-3.194 1.514-3.194 3.693 0 2.179 1.255 3.638 3.305 3.638zm-2.211-4.266c.074-1.103.854-2.087 2.1-2.087 1.182 0 1.939.887 1.939 2.087h-4.039zm8.044-.148c0-1.237.766-1.939 1.81-1.939 1.011 0 1.625.661 1.625 1.773V188h1.089v-4.506c0-1.809-.965-2.677-2.4-2.677-1.071 0-1.736.48-2.069 1.2h-.092v-1.108h-1.053V188h1.09v-4.266zm9.749-2.825h-1.514v-1.699h-1.09v1.699h-1.071v.923h1.071v4.432c0 1.237.997 1.828 1.921 1.828.406 0 .664-.074.812-.129l-.222-.979c-.092.019-.24.056-.48.056-.48 0-.941-.148-.941-1.071v-4.137h1.514v-.923zm4.685 7.239c1.441 0 2.493-.72 2.826-1.791l-1.053-.296c-.277.739-.918 1.108-1.773 1.108-1.278 0-2.16-.826-2.211-2.345h5.148v-.462c0-2.64-1.57-3.545-3.047-3.545-1.921 0-3.195 1.514-3.195 3.693 0 2.179 1.256 3.638 3.305 3.638zm-2.211-4.266c.074-1.103.854-2.087 2.101-2.087 1.181 0 1.939.887 1.939 2.087h-4.04zm6.955 4.118h1.089v-4.487c0-.96.757-1.662 1.792-1.662.29 0 .59.055.664.074v-1.108a10.657 10.657 0 0 0-.572-.019c-.85 0-1.588.48-1.847 1.182h-.074v-1.071h-1.052V188z" fill="#65676E"/><path d="M139 125h-1 1zm40 57.113h221v-2H179v2zm260 39V239h2v-17.887h-2zm-299-80V125h-2v16.113h2zM439 239v2.5h2V239h-2zM140 125v-3.5h-2v3.5h2zm260 57.113c21.539 0 39 17.461 39 39h2c0-22.643-18.356-41-41-41v2zm-221-2c-21.539 0-39-17.46-39-39h-2c0 22.644 18.356 41 41 41v-2z" fill="#96989D"/><path d="M247 174c0-5.523 4.477-10 10-10h54c5.523 0 10 4.477 10 10v16c0 5.523-4.477 10-10 10h-54c-5.523 0-10-4.477-10-10v-16z" fill="#EFF0F2"/><path d="M272.586 182.273c0-2.992-1.754-4.857-4.173-4.857s-4.174 1.865-4.174 4.857c0 2.991 1.755 4.856 4.174 4.856 2.419 0 4.173-1.865 4.173-4.856zm-1.108 0c0 2.456-1.348 3.785-3.065 3.785-1.718 0-3.066-1.329-3.066-3.785 0-2.456 1.348-3.786 3.066-3.786 1.717 0 3.065 1.33 3.065 3.786zM276.12 187h1.071l1.551-5.447h.111l1.551 5.447h1.071l2.16-7.091h-1.145l-1.532 5.411h-.074l-1.496-5.411h-1.163l-1.514 5.429h-.074l-1.533-5.429h-1.145L276.12 187zm10.195-4.266c0-1.237.766-1.939 1.81-1.939 1.011 0 1.625.661 1.625 1.773V187h1.089v-4.506c0-1.809-.965-2.677-2.4-2.677-1.071 0-1.736.48-2.068 1.2h-.093v-1.108h-1.052V187h1.089v-4.266zm9.638 4.414c1.441 0 2.493-.72 2.825-1.791l-1.052-.296c-.277.739-.919 1.108-1.773 1.108-1.279 0-2.16-.826-2.211-2.345h5.147v-.462c0-2.64-1.569-3.545-3.047-3.545-1.92 0-3.194 1.514-3.194 3.693 0 2.179 1.255 3.638 3.305 3.638zm-2.211-4.266c.074-1.103.854-2.087 2.1-2.087 1.182 0 1.939.887 1.939 2.087h-4.039zm6.955 4.118h1.089v-4.487c0-.96.757-1.662 1.791-1.662.291 0 .591.055.665.074v-1.108a10.693 10.693 0 0 0-.572-.019c-.85 0-1.588.48-1.847 1.182h-.074v-1.071h-1.052V187z" fill="#65676E"/><path d="M432 235l8.056 8.056 8.057-8.056" stroke="#96989D" stroke-width="2"/></svg>