<svg width="940" height="542" viewBox="0 0 940 542" fill="none" xmlns="http://www.w3.org/2000/svg"><path fill="#fff" d="M0 0h940v542H0z"/><rect x="396" y="436" width="147.678" height="89.308" rx="15" fill="#DEF7F1"/><rect x="451.839" y="447.839" width="36" height="36" rx="6.42" fill="#31CEA8"/><path d="M476.816 460.926v12.913a1.996 1.996 0 0 1-1.996 1.996h-9.985a1.995 1.995 0 0 1-1.996-1.996v-15.991c0-1.102.893-1.996 1.996-1.996h6.993l4.988 5.074z" fill="#DEF7F1"/><path d="M476.825 460.894h-3.376c-.912 0-1.65-.738-1.65-1.649v-3.406l5.026 5.055z" fill="#13A688"/><path d="M472.832 464.839h-5.986c-.555 0-1.007.447-1.007 1 0 .552.45 1 1.007 1h5.986c.555 0 1.007-.447 1.007-1 0-.553-.451-1-1.007-1zm-1.943 3h-4.1c-.524 0-.95.447-.95 1 0 .552.425 1 .95 1h4.1c.524 0 .95-.447.95-1 0-.553-.426-1-.95-1z" fill="#31CEA8"/><path d="M408.175 507.576c1.053 0 1.528-.626 1.756-1.073h.087v.966h1.421v-8.171h-1.449v3.056h-.059c-.22-.443-.671-1.093-1.752-1.093-1.416 0-2.529 1.109-2.529 3.152 0 2.018 1.081 3.163 2.525 3.163zm.403-1.184c-.953 0-1.456-.838-1.456-1.987 0-1.141.495-1.959 1.456-1.959.93 0 1.44.77 1.44 1.959s-.518 1.987-1.44 1.987zm7.073 1.196c1.795 0 2.936-1.264 2.936-3.159 0-1.899-1.141-3.168-2.936-3.168-1.796 0-2.937 1.269-2.937 3.168 0 1.895 1.141 3.159 2.937 3.159zm.008-1.157c-.994 0-1.481-.885-1.481-2.006 0-1.121.487-2.019 1.481-2.019.977 0 1.464.898 1.464 2.019s-.487 2.006-1.464 2.006zm6.826 1.157c1.54 0 2.522-.913 2.626-2.214h-1.381c-.123.658-.598 1.037-1.233 1.037-.901 0-1.484-.754-1.484-2.006 0-1.237.595-1.979 1.484-1.979.695 0 1.121.447 1.233 1.037h1.381c-.1-1.328-1.137-2.202-2.634-2.202-1.795 0-2.928 1.297-2.928 3.168 0 1.855 1.105 3.159 2.936 3.159zm7.717-2.697c0 .934-.666 1.397-1.304 1.397-.695 0-1.157-.491-1.157-1.269v-3.678h-1.445v3.902c0 1.472.838 2.305 2.043 2.305.918 0 1.564-.482 1.843-1.168h.064v1.089h1.4v-6.128h-1.444v3.55zm2.929 2.578h1.445v-3.726c0-.755.502-1.265 1.125-1.265.61 0 1.029.411 1.029 1.041v3.95h1.416v-3.822c0-.69.411-1.169 1.109-1.169.583 0 1.045.343 1.045 1.101v3.89h1.449v-4.113c0-1.369-.79-2.095-1.915-2.095-.89 0-1.568.439-1.84 1.121h-.063c-.236-.694-.83-1.121-1.656-1.121-.822 0-1.436.423-1.691 1.121h-.072v-1.041h-1.381v6.128zm12.796.119c1.428 0 2.409-.698 2.665-1.763l-1.349-.152c-.195.519-.674.79-1.297.79-.933 0-1.551-.614-1.563-1.663h4.268v-.443c0-2.15-1.292-3.096-2.8-3.096-1.756 0-2.901 1.289-2.901 3.18 0 1.923 1.129 3.147 2.977 3.147zm-1.54-3.762c.043-.782.622-1.44 1.484-1.44.829 0 1.388.606 1.396 1.44h-2.88zm6.93.052c0-.886.535-1.396 1.297-1.396.746 0 1.193.491 1.193 1.308v3.679h1.444v-3.902c.004-1.468-.834-2.306-2.099-2.306-.917 0-1.547.439-1.827 1.121h-.072v-1.041h-1.38v6.128h1.444v-3.591zm8.462-2.537h-1.209v-1.468h-1.444v1.468h-.87v1.117h.87v3.407c-.008 1.153.83 1.719 1.915 1.687.411-.012.694-.091.85-.143l-.244-1.129c-.079.02-.243.056-.423.056-.363 0-.654-.128-.654-.71v-3.168h1.209v-1.117zm2.097 6.215a.888.888 0 0 0 .878-.877.887.887 0 0 0-.878-.87.87.87 0 0 0-.877.87.872.872 0 0 0 .877.877zm0-4.376a.888.888 0 0 0 .878-.878.887.887 0 0 0-.878-.869.87.87 0 0 0-.877.869.873.873 0 0 0 .877.878zm2.353 4.289h5.601v-1.237h-3.558v-.056l1.408-1.432c1.588-1.524 2.027-2.266 2.027-3.188 0-1.368-1.113-2.369-2.757-2.369-1.62 0-2.769 1.005-2.769 2.557h1.409c0-.834.526-1.357 1.34-1.357.778 0 1.356.475 1.356 1.245 0 .682-.414 1.169-1.22 1.987l-2.837 2.78v1.07zm9.998.155c1.971.004 3.147-1.552 3.147-4.233 0-2.665-1.184-4.204-3.147-4.204-1.963 0-3.144 1.535-3.148 4.204 0 2.677 1.177 4.233 3.148 4.233zm0-1.248c-1.018 0-1.656-1.022-1.652-2.985.004-1.946.638-2.972 1.652-2.972 1.017 0 1.651 1.026 1.655 2.972 0 1.963-.634 2.985-1.655 2.985zm4.473 1.093h5.601v-1.237h-3.558v-.056l1.408-1.432c1.588-1.524 2.026-2.266 2.026-3.188 0-1.368-1.113-2.369-2.756-2.369-1.62 0-2.769 1.005-2.769 2.557h1.408c0-.834.527-1.357 1.341-1.357.778 0 1.356.475 1.356 1.245 0 .682-.415 1.169-1.221 1.987l-2.836 2.78v1.07zm10.301-8.171h-1.409l-2.03 1.305v1.356l1.911-1.221h.048v6.731h1.48v-8.171zm5.804 4.173h-3.678v1.189h3.678v-1.189zm1.583 3.998h1.42v-.966h.084c.228.447.702 1.073 1.756 1.073 1.444 0 2.525-1.145 2.525-3.163 0-2.043-1.113-3.152-2.529-3.152-1.082 0-1.532.65-1.752 1.093h-.06v-3.056h-1.444v8.171zm1.416-3.064c0-1.189.511-1.959 1.441-1.959.961 0 1.456.818 1.456 1.959 0 1.149-.503 1.987-1.456 1.987-.922 0-1.441-.798-1.441-1.987zm9.502.486c0 .934-.666 1.397-1.304 1.397-.694 0-1.157-.491-1.157-1.269v-3.678h-1.444v3.902c0 1.472.837 2.305 2.042 2.305.918 0 1.564-.482 1.843-1.168h.064v1.089h1.401v-6.128h-1.445v3.55zm5.204 2.685c1.053 0 1.528-.626 1.755-1.073h.088v.966h1.42v-8.171h-1.448v3.056h-.06c-.219-.443-.67-1.093-1.751-1.093-1.417 0-2.53 1.109-2.53 3.152 0 2.018 1.081 3.163 2.526 3.163zm.403-1.184c-.954 0-1.457-.838-1.457-1.987 0-1.141.495-1.959 1.457-1.959.929 0 1.44.77 1.44 1.959s-.519 1.987-1.44 1.987zm7.064 3.478c1.656 0 2.876-.758 2.876-2.302v-6.227h-1.424v1.013h-.08c-.219-.443-.678-1.093-1.759-1.093-1.416 0-2.529 1.109-2.529 3.124 0 1.999 1.113 2.996 2.525 2.996 1.049 0 1.54-.563 1.763-1.013h.072v1.161c0 .877-.598 1.248-1.42 1.248-.87 0-1.253-.411-1.428-.746l-1.301.315c.263.834 1.145 1.524 2.705 1.524zm.012-3.622c-.954 0-1.456-.742-1.456-1.871 0-1.113.494-1.931 1.456-1.931.929 0 1.44.77 1.44 1.931 0 1.169-.519 1.871-1.44 1.871zm7.057 1.34c1.428 0 2.41-.698 2.665-1.763l-1.348-.152c-.196.519-.674.79-1.297.79-.933 0-1.552-.614-1.564-1.663h4.269v-.443c0-2.15-1.293-3.096-2.801-3.096-1.755 0-2.9 1.289-2.9 3.18 0 1.923 1.129 3.147 2.976 3.147zm-1.54-3.762c.044-.782.623-1.44 1.484-1.44.83 0 1.389.606 1.397 1.44h-2.881zm8.547-2.485h-1.209v-1.468H531.4v1.468h-.87v1.117h.87v3.407c-.008 1.153.83 1.719 1.915 1.687.411-.012.694-.091.849-.143l-.243-1.129c-.08.02-.243.056-.423.056-.363 0-.654-.128-.654-.71v-3.168h1.209v-1.117z" fill="#1E212A"/><rect x="396" y="436" width="147.678" height="89.308" rx="15" stroke="#96989D" stroke-width="2" stroke-dasharray="5 5"/><rect x="781.839" y="33.839" width="36" height="36" rx="6.42" fill="#EFF0F2"/><path d="M794.862 46.84a5 5 0 1 1 10 0 5 5 0 0 1-10 0z" fill="#65676E"/><path d="M791.304 55.309a4.995 4.995 0 0 1 3.532-1.463h10.027a4.997 4.997 0 0 1 4.995 4.996v.995a2.002 2.002 0 0 1-2.002 2.002h-16.013a2.002 2.002 0 0 1-2.002-2.002v-.996c0-1.324.526-2.595 1.463-3.532z" fill="#C4C4C4"/><path d="M787.979 93.469h3.307c1.871 0 2.789-.954 2.789-2.226 0-1.237-.878-1.963-1.748-2.007v-.08c.798-.188 1.428-.746 1.428-1.74 0-1.216-.877-2.118-2.649-2.118h-3.127v8.17zm1.48-1.237v-2.394h1.631c.914 0 1.481.559 1.481 1.289 0 .65-.447 1.105-1.52 1.105h-1.592zm0-3.459v-2.254h1.496c.87 0 1.32.459 1.32 1.09 0 .717-.582 1.164-1.352 1.164h-1.464zm8.552 4.815c1.428 0 2.41-.698 2.665-1.763l-1.348-.152c-.196.519-.675.79-1.297.79-.933 0-1.552-.614-1.564-1.663h4.269v-.443c0-2.15-1.293-3.096-2.801-3.096-1.755 0-2.9 1.289-2.9 3.18 0 1.922 1.129 3.147 2.976 3.147zm-1.54-3.762c.044-.782.623-1.44 1.484-1.44.83 0 1.389.607 1.397 1.44h-2.881zm8.547-2.485h-1.209v-1.468h-1.444v1.468h-.87v1.117h.87v3.407c-.008 1.153.83 1.72 1.915 1.687.411-.012.694-.091.849-.143l-.243-1.13c-.08.02-.243.057-.423.057-.363 0-.654-.128-.654-.71v-3.168h1.209V87.34zm2.783 2.537c0-.885.551-1.396 1.325-1.396.758 0 1.205.483 1.205 1.308v3.679h1.444v-3.902c0-1.48-.838-2.306-2.111-2.306-.941 0-1.54.427-1.823 1.121h-.072v-3.084h-1.412v8.17h1.444v-3.59z" fill="#1E212A"/><rect x="726" y="22" width="147.678" height="89.308" rx="15" stroke="#96989D" stroke-width="2" stroke-dasharray="5 5"/><rect x="123.839" y="33.839" width="36" height="36" rx="6.42" fill="#EFF0F2"/><path d="M136.862 46.84a5 5 0 1 1 10 0 5 5 0 0 1-10 0z" fill="#65676E"/><path d="M133.304 55.309a4.995 4.995 0 0 1 3.532-1.463h10.027a4.997 4.997 0 0 1 4.995 4.996v.995a2.002 2.002 0 0 1-2.002 2.002h-16.013a2.002 2.002 0 0 1-2.002-2.002v-.996c0-1.324.526-2.595 1.463-3.532z" fill="#C4C4C4"/><path d="M129.454 93.469l.674-2.015h3.072l.678 2.015h1.58l-2.881-8.17h-1.827l-2.876 8.17h1.58zm1.073-3.204l1.105-3.291h.064l1.105 3.291h-2.274zm7.387-.387c0-.885.535-1.396 1.297-1.396.746 0 1.193.49 1.193 1.308v3.679h1.444v-3.902c.004-1.468-.834-2.306-2.099-2.306-.917 0-1.548.439-1.827 1.121h-.072v-1.041h-1.38v6.128h1.444v-3.59zm6.846 0c0-.885.535-1.396 1.297-1.396.746 0 1.193.49 1.193 1.308v3.679h1.444v-3.902c.004-1.468-.834-2.306-2.099-2.306-.917 0-1.548.439-1.827 1.121h-.072v-1.041h-1.38v6.128h1.444v-3.59zm8.115 3.71c1.428 0 2.409-.698 2.665-1.763l-1.349-.152c-.195.519-.674.79-1.296.79-.934 0-1.552-.614-1.564-1.663h4.269v-.443c0-2.15-1.293-3.096-2.801-3.096-1.755 0-2.9 1.289-2.9 3.18 0 1.922 1.129 3.147 2.976 3.147zm-1.54-3.762c.044-.782.622-1.44 1.484-1.44.83 0 1.388.607 1.396 1.44h-2.88z" fill="#1E212A"/><rect x="68" y="22" width="147.678" height="89.308" rx="15" stroke="#96989D" stroke-width="2" stroke-dasharray="5 5"/><path d="M802 308h1-1zm-40 57.114H541v-2h221v2zm-260 39V422h-2v-17.886h2zm299-80V308h2v16.114h-2zM502 422v2.5h-2V422h2zm299-114V121.5h2V308h-2zm-260 57.114c-21.539 0-39 17.461-39 39h-2c0-22.644 18.356-41 41-41v2zm221-2c21.539 0 39-17.461 39-39h2c0 22.643-18.356 41-41 41v-2z" fill="#96989D"/><path d="M493 419l8.056 8.056 8.057-8.056" stroke="#96989D" stroke-width="2"/><path d="M593 357c0-5.523 4.477-10 10-10h86c5.523 0 10 4.477 10 10v16c0 5.523-4.477 10-10 10h-86c-5.523 0-10-4.477-10-10v-16z" fill="#EFF0F2"/><path d="M618.136 363.5c-.351-1.939-1.902-3.084-3.804-3.084-2.419 0-4.173 1.865-4.173 4.857 0 2.991 1.754 4.856 4.173 4.856 1.902 0 3.453-1.145 3.804-3.084h-1.145c-.277 1.312-1.403 2.013-2.659 2.013-1.717 0-3.065-1.329-3.065-3.785 0-2.456 1.348-3.786 3.065-3.786 1.256 0 2.382.702 2.659 2.013h1.145zm4.733 6.648c1.921 0 3.213-1.459 3.213-3.657 0-2.215-1.292-3.674-3.213-3.674-1.92 0-3.213 1.459-3.213 3.674 0 2.198 1.293 3.657 3.213 3.657zm0-.979c-1.459 0-2.123-1.256-2.123-2.678 0-1.421.664-2.696 2.123-2.696s2.124 1.275 2.124 2.696c0 1.422-.665 2.678-2.124 2.678zm5.026.831h1.09v-4.432c0-1.039.757-1.773 1.606-1.773.827 0 1.404.541 1.404 1.348V370h1.108v-4.616c0-.915.572-1.589 1.569-1.589.776 0 1.441.411 1.441 1.459V370h1.089v-4.746c0-1.666-.895-2.437-2.16-2.437-1.016 0-1.759.466-2.124 1.2h-.074c-.351-.757-.969-1.2-1.902-1.2-.923 0-1.606.443-1.902 1.2h-.092v-1.108h-1.053V370zm11.449 0h1.09v-4.432c0-1.039.757-1.773 1.606-1.773.827 0 1.404.541 1.404 1.348V370h1.108v-4.616c0-.915.572-1.589 1.569-1.589.776 0 1.441.411 1.441 1.459V370h1.089v-4.746c0-1.666-.896-2.437-2.16-2.437-1.016 0-1.759.466-2.124 1.2h-.074c-.351-.757-.969-1.2-1.902-1.2-.923 0-1.606.443-1.902 1.2h-.092v-1.108h-1.053V370zm14.422.148c1.44 0 2.493-.72 2.825-1.791l-1.052-.296c-.277.739-.919 1.108-1.773 1.108-1.279 0-2.16-.826-2.211-2.345h5.147v-.462c0-2.64-1.569-3.545-3.047-3.545-1.92 0-3.194 1.514-3.194 3.693 0 2.179 1.255 3.638 3.305 3.638zm-2.211-4.266c.074-1.103.854-2.087 2.1-2.087 1.182 0 1.939.887 1.939 2.087h-4.039zm8.044-.148c0-1.237.766-1.939 1.81-1.939 1.011 0 1.625.661 1.625 1.773V370h1.089v-4.506c0-1.809-.965-2.677-2.4-2.677-1.071 0-1.736.48-2.069 1.2h-.092v-1.108h-1.053V370h1.09v-4.266zm9.749-2.825h-1.514v-1.699h-1.09v1.699h-1.071v.923h1.071v4.432c0 1.237.997 1.828 1.921 1.828.406 0 .664-.074.812-.129l-.222-.979c-.092.019-.24.056-.48.056-.48 0-.941-.148-.941-1.071v-4.137h1.514v-.923zm4.685 7.239c1.441 0 2.493-.72 2.826-1.791l-1.053-.296c-.277.739-.918 1.108-1.773 1.108-1.278 0-2.16-.826-2.211-2.345h5.148v-.462c0-2.64-1.57-3.545-3.047-3.545-1.921 0-3.195 1.514-3.195 3.693 0 2.179 1.256 3.638 3.305 3.638zm-2.211-4.266c.074-1.103.854-2.087 2.101-2.087 1.181 0 1.939.887 1.939 2.087h-4.04zm6.955 4.118h1.089v-4.487c0-.96.757-1.662 1.792-1.662.29 0 .59.055.664.074v-1.108a10.657 10.657 0 0 0-.572-.019c-.85 0-1.588.48-1.847 1.182h-.074v-1.071h-1.052V370z" fill="#65676E"/><path d="M145 310h-1 1zm40 57.113h221v-2H185v2zm260 39V424h2v-17.887h-2zm-299-80V310h-2v16.113h2zM445 424v2.5h2V424h-2zM146 310V121h-2v189h2zm260 57.113c21.539 0 39 17.461 39 39h2c0-22.643-18.356-41-41-41v2zm-221-2c-21.539 0-39-17.46-39-39h-2c0 22.644 18.356 41 41 41v-2z" fill="#96989D"/><path d="M260 359c0-5.523 4.477-10 10-10h54c5.523 0 10 4.477 10 10v16c0 5.523-4.477 10-10 10h-54c-5.523 0-10-4.477-10-10v-16z" fill="#EFF0F2"/><path d="M285.586 367.273c0-2.992-1.754-4.857-4.173-4.857s-4.174 1.865-4.174 4.857c0 2.991 1.755 4.856 4.174 4.856 2.419 0 4.173-1.865 4.173-4.856zm-1.108 0c0 2.456-1.348 3.785-3.065 3.785-1.718 0-3.066-1.329-3.066-3.785 0-2.456 1.348-3.786 3.066-3.786 1.717 0 3.065 1.33 3.065 3.786zM289.12 372h1.071l1.551-5.447h.111l1.551 5.447h1.071l2.16-7.091h-1.145l-1.532 5.411h-.074l-1.496-5.411h-1.163l-1.514 5.429h-.074l-1.533-5.429h-1.145L289.12 372zm10.195-4.266c0-1.237.766-1.939 1.81-1.939 1.011 0 1.625.661 1.625 1.773V372h1.089v-4.506c0-1.809-.965-2.677-2.4-2.677-1.071 0-1.736.48-2.068 1.2h-.093v-1.108h-1.052V372h1.089v-4.266zm9.638 4.414c1.441 0 2.493-.72 2.825-1.791l-1.052-.296c-.277.739-.919 1.108-1.773 1.108-1.279 0-2.16-.826-2.211-2.345h5.147v-.462c0-2.64-1.569-3.545-3.047-3.545-1.92 0-3.194 1.514-3.194 3.693 0 2.179 1.255 3.638 3.305 3.638zm-2.211-4.266c.074-1.103.854-2.087 2.1-2.087 1.182 0 1.939.887 1.939 2.087h-4.039zm6.955 4.118h1.089v-4.487c0-.96.757-1.662 1.791-1.662.291 0 .591.055.665.074v-1.108a10.693 10.693 0 0 0-.572-.019c-.85 0-1.588.48-1.847 1.182h-.074v-1.071h-1.052V372z" fill="#65676E"/><path d="M438 419l8.056 8.056 8.057-8.056" stroke="#96989D" stroke-width="2"/><rect x="451.839" y="36.839" width="36" height="36" rx="6.42" fill="#EFF0F2"/><path d="M464.862 49.84a5 5 0 1 1 10 0 5 5 0 0 1-10 0z" fill="#65676E"/><path d="M461.304 58.309a4.995 4.995 0 0 1 3.532-1.463h10.027a4.997 4.997 0 0 1 4.995 4.996v.995a2.002 2.002 0 0 1-2.002 2.002h-16.013a2.002 2.002 0 0 1-2.002-2.002v-.996c0-1.324.526-2.595 1.463-3.532z" fill="#C4C4C4"/><path d="M456.689 91.055c-.251-1.815-1.648-2.869-3.459-2.869-2.134 0-3.742 1.556-3.742 4.197 0 2.638 1.588 4.197 3.742 4.197 1.943 0 3.232-1.256 3.459-2.816l-1.492-.008c-.187.957-.969 1.496-1.947 1.496-1.324 0-2.274-.993-2.274-2.869 0-1.843.942-2.868 2.278-2.868.994 0 1.772.563 1.943 1.54h1.492zm2.736 1.823c0-.885.55-1.396 1.324-1.396.758 0 1.205.483 1.205 1.308v3.679h1.444v-3.902c0-1.48-.837-2.306-2.11-2.306-.942 0-1.54.427-1.823 1.121h-.072v-3.084h-1.412v8.17h1.444v-3.59zm7.209 3.714c.961 0 1.536-.45 1.799-.965h.048v.842h1.388v-4.101c0-1.62-1.32-2.107-2.489-2.107-1.289 0-2.278.575-2.597 1.692l1.348.191c.144-.419.551-.778 1.257-.778.67 0 1.037.343 1.037.946v.023c0 .416-.435.435-1.516.551-1.189.128-2.326.483-2.326 1.863 0 1.205.882 1.843 2.051 1.843zm.375-1.06c-.603 0-1.033-.276-1.033-.807 0-.554.482-.786 1.129-.877.379-.052 1.137-.148 1.324-.3v.722c0 .683-.55 1.261-1.42 1.261zm4.312.937h1.445v-3.603c0-.778.586-1.328 1.38-1.328.243 0 .547.044.67.083v-1.328a3.463 3.463 0 0 0-.518-.04c-.703 0-1.289.399-1.512 1.11h-.064V90.34h-1.401v6.128zm5.899-8.17h-1.444v8.17h1.444v-8.17zm4.198 8.29c1.428 0 2.409-.699 2.665-1.764l-1.349-.152c-.195.519-.674.79-1.296.79-.934 0-1.552-.614-1.564-1.663h4.269v-.443c0-2.15-1.293-3.096-2.801-3.096-1.755 0-2.9 1.289-2.9 3.18 0 1.922 1.129 3.147 2.976 3.147zm-1.54-3.763c.044-.782.622-1.44 1.484-1.44.83 0 1.388.607 1.396 1.44h-2.88zm10.33-.865c-.2-1.038-1.03-1.7-2.466-1.7-1.476 0-2.481.726-2.477 1.86-.004.893.546 1.483 1.723 1.727l1.045.219c.563.124.826.351.826.698 0 .419-.455.734-1.141.734-.662 0-1.093-.287-1.217-.838l-1.408.136c.18 1.125 1.125 1.791 2.629 1.791 1.532 0 2.613-.794 2.617-1.954-.004-.874-.566-1.409-1.723-1.66l-1.045-.224c-.623-.14-.87-.355-.866-.71-.004-.415.455-.702 1.057-.702.666 0 1.017.363 1.129.766l1.317-.144z" fill="#1E212A"/><rect x="396" y="25" width="147.678" height="89.308" rx="15" stroke="#96989D" stroke-width="2" stroke-dasharray="5 5"/><rect x="398" y="238" width="147.678" height="89.308" rx="15" fill="#DDEBFD"/><rect x="453.839" y="249.839" width="36" height="36" rx="6.42" fill="#549AF6"/><path d="M471.839 278.839c6.075 0 11-4.925 11-11s-4.925-11-11-11-11 4.925-11 11 4.925 11 11 11z" fill="#DDEBFD"/><path d="M468.869 271.876l2.951 2.146 2.953-2.146-2.953-2.144-2.951 2.144zm-1.824-5.616a5.025 5.025 0 0 0 1.823 5.616v-.001l1.128-3.47-2.951-2.145 3.648.002 1.127-3.47v-.001h-3.648l-1.127 3.469zm9.555 0l-1.129-3.469h-3.649v.001l1.127 3.47h3.648l-2.951 2.143 1.128 3.47a5.025 5.025 0 0 0 1.826-5.615z" fill="#1071F2"/><path d="M437.082 309.576c1.053 0 1.528-.626 1.755-1.073h.088v.966h1.42v-8.171h-1.448v3.056h-.06c-.219-.443-.67-1.093-1.751-1.093-1.417 0-2.53 1.109-2.53 3.152 0 2.018 1.082 3.163 2.526 3.163zm.403-1.185c-.954 0-1.457-.837-1.457-1.986 0-1.141.495-1.959 1.457-1.959.929 0 1.44.77 1.44 1.959s-.519 1.986-1.44 1.986zm7.072 1.197c1.795 0 2.936-1.264 2.936-3.159 0-1.899-1.141-3.168-2.936-3.168s-2.936 1.269-2.936 3.168c0 1.895 1.141 3.159 2.936 3.159zm.008-1.157c-.993 0-1.48-.885-1.48-2.006 0-1.121.487-2.019 1.48-2.019.977 0 1.464.898 1.464 2.019s-.487 2.006-1.464 2.006zm4.154 1.038h1.444v-3.727c0-.754.503-1.264 1.125-1.264.611 0 1.029.411 1.029 1.041v3.95h1.417v-3.822c0-.69.411-1.169 1.109-1.169.582 0 1.045.343 1.045 1.101v3.89h1.448v-4.114c0-1.368-.79-2.094-1.915-2.094-.889 0-1.568.439-1.839 1.121h-.064c-.235-.694-.83-1.121-1.655-1.121-.822 0-1.437.423-1.692 1.121h-.072v-1.041h-1.38v6.128zm11.846.123c.961 0 1.536-.451 1.799-.965h.048v.842h1.388v-4.102c0-1.619-1.32-2.106-2.489-2.106-1.289 0-2.278.575-2.597 1.692l1.348.191c.144-.419.551-.778 1.257-.778.67 0 1.037.343 1.037.946v.024c0 .414-.435.434-1.516.55-1.189.128-2.326.483-2.326 1.863 0 1.205.882 1.843 2.051 1.843zm.375-1.061c-.603 0-1.034-.275-1.034-.806 0-.554.483-.786 1.129-.877.379-.052 1.137-.148 1.325-.3v.722c0 .683-.551 1.261-1.42 1.261zm4.312.938h1.444v-6.128h-1.444v6.128zm.726-6.998c.459 0 .834-.351.834-.782 0-.435-.375-.786-.834-.786-.462 0-.837.351-.837.786 0 .431.375.782.837.782zm3.648 3.407c0-.886.534-1.396 1.296-1.396.746 0 1.193.491 1.193 1.308v3.679h1.444v-3.902c.004-1.468-.833-2.306-2.098-2.306-.918 0-1.548.439-1.827 1.121h-.072v-1.041h-1.38v6.128h1.444v-3.591zm6.291 3.678a.888.888 0 0 0 .878-.877.887.887 0 0 0-.878-.87.871.871 0 0 0-.878.87.873.873 0 0 0 .878.877zm0-4.376a.888.888 0 0 0 .878-.878.887.887 0 0 0-.878-.869.87.87 0 0 0-.878.869.873.873 0 0 0 .878.878zm4.132 4.412c.962 0 1.536-.451 1.799-.965h.048v.842h1.389v-4.102c0-1.619-1.321-2.106-2.49-2.106-1.288 0-2.278.575-2.597 1.692l1.349.191c.143-.419.55-.778 1.256-.778.67 0 1.037.343 1.037.946v.024c0 .414-.434.434-1.516.55-1.188.128-2.325.483-2.325 1.863 0 1.205.881 1.843 2.05 1.843zm.375-1.061c-.602 0-1.033-.275-1.033-.806 0-.554.483-.786 1.129-.877.379-.052 1.137-.148 1.324-.3v.722c0 .683-.55 1.261-1.42 1.261zm8.218-1.64c0 .934-.666 1.397-1.304 1.397-.694 0-1.157-.491-1.157-1.269v-3.678h-1.444v3.902c0 1.472.838 2.305 2.042 2.305.918 0 1.564-.482 1.844-1.168h.063v1.089h1.401v-6.128h-1.445v3.55zm5.99-3.55h-1.209v-1.468h-1.444v1.468h-.87v1.117h.87v3.407c-.008 1.153.829 1.719 1.915 1.687.411-.012.694-.091.849-.143l-.243-1.129c-.08.02-.243.056-.423.056-.363 0-.654-.128-.654-.711v-3.167h1.209v-1.117zm2.783 2.537c0-.886.551-1.396 1.325-1.396.758 0 1.205.483 1.205 1.308v3.679h1.444v-3.902c0-1.48-.838-2.306-2.111-2.306-.941 0-1.54.427-1.823 1.121h-.072v-3.084h-1.412v8.171h1.444v-3.591zm8.45 3.746c1.971.004 3.148-1.552 3.148-4.233 0-2.665-1.185-4.204-3.148-4.204s-3.144 1.535-3.148 4.204c0 2.677 1.177 4.233 3.148 4.233zm0-1.248c-1.017 0-1.656-1.022-1.652-2.985.004-1.946.639-2.972 1.652-2.972 1.017 0 1.652 1.026 1.656 2.972 0 1.963-.635 2.985-1.656 2.985z" fill="#1E212A"/><rect x="398" y="238" width="147.678" height="89.308" rx="15" stroke="#96989D" stroke-width="2" stroke-dasharray="5 5"/><path d="M802 126h1-1zm-282.307 56.113v-1 1zm242.307 0v1-1zm41-59.613v.875h-2v-.875h2zm0 2.625V126h-2v-.875h2zm0 .875v2.014h-2V126h2zm0 6.042v4.029h-2v-4.029h2zm0 8.057v2.014h-2v-2.014h2zm0 2.014c0 .902-.029 1.796-.086 2.684l-1.996-.129c.054-.845.082-1.696.082-2.555h2zm-.78 8.001a40.737 40.737 0 0 1-1.386 5.183l-1.894-.643a38.744 38.744 0 0 0 1.318-4.928l1.962.388zm-3.441 10.138a40.901 40.901 0 0 1-2.685 4.642l-1.662-1.112a39.037 39.037 0 0 0 2.554-4.416l1.793.886zm-5.953 8.895a41.375 41.375 0 0 1-3.792 3.792l-1.32-1.503a39.39 39.39 0 0 0 3.609-3.608l1.503 1.319zm-8.045 7.06a40.985 40.985 0 0 1-4.643 2.686l-.886-1.793a38.956 38.956 0 0 0 4.416-2.555l1.113 1.662zm-9.597 4.741a40.779 40.779 0 0 1-5.183 1.385l-.389-1.962a38.756 38.756 0 0 0 4.929-1.317l.643 1.894zm-10.501 2.079c-.887.057-1.782.086-2.683.086v-2c.858 0 1.71-.027 2.554-.082l.129 1.996zm-2.683.086h-2.524v-2H762v2zm-7.572 0h-5.048v-2h5.048v2zm-10.096 0h-5.048v-2h5.048v2zm-10.096 0h-5.048v-2h5.048v2zm-10.096 0h-5.049v-2h5.049v2zm-10.097 0h-5.048v-2h5.048v2zm-10.096 0h-5.048v-2h5.048v2zm-10.096 0h-5.048v-2h5.048v2zm-10.096 0h-5.048v-2h5.048v2zm-10.096 0h-5.048v-2h5.048v2zm-10.096 0h-5.048v-2h5.048v2zm-10.096 0h-5.048v-2h5.048v2zm-10.096 0h-5.048v-2h5.048v2zm-10.096 0h-5.049v-2h5.049v2zm-10.097 0h-5.048v-2h5.048v2zm-10.096 0h-5.048v-2h5.048v2zm-10.096 0h-5.048v-2h5.048v2zm-10.096 0h-5.048v-2h5.048v2zm-10.096 0h-5.048v-2h5.048v2zm-10.096 0h-5.048v-2h5.048v2zm-10.096 0h-5.048v-2h5.048v2zm-10.096 0h-5.048v-2h5.048v2zm-10.096 0h-5.048v-2h5.048v2zm-10.096 0h-5.049v-2h5.049v2zm-10.097 0h-2.524v-2h2.524v2zm-2.524 0c-.784 0-1.556.051-2.312.15l-.259-1.983c.842-.11 1.7-.167 2.571-.167v2zm-6.772 1.343a17.698 17.698 0 0 0-3.999 2.312l-1.218-1.585a19.633 19.633 0 0 1 4.451-2.575l.766 1.848zm-7.266 5.58a17.658 17.658 0 0 0-2.313 3.998l-1.847-.766a19.688 19.688 0 0 1 2.574-4.451l1.586 1.219zm-3.505 8.459c-.099.756-.15 1.528-.15 2.312h-2c0-.871.057-1.729.166-2.571l1.984.259zm-.15 2.312v2.336h-2v-2.336h2zm0 7.01v4.673h-2v-4.673h2zm0 9.346v2.337h-2v-2.337h2z" fill="#96989D"/><path d="M493 212l8.056 8.056 8.057-8.056" stroke="#96989D" stroke-width="2"/><path d="M604 175c0-5.523 4.477-10 10-10h64c5.523 0 10 4.477 10 10v16c0 5.523-4.477 10-10 10h-64c-5.523 0-10-4.477-10-10v-16z" fill="#EFF0F2"/><path d="M621.316 178.545V188h1.071v-7.183h.092l2.955 7.183h1.034l2.954-7.183h.093V188h1.071v-9.455h-1.367l-3.213 7.848h-.111l-3.213-7.848h-1.366zm14.54 9.603c1.441 0 2.493-.72 2.826-1.791l-1.053-.296c-.277.739-.918 1.108-1.773 1.108-1.278 0-2.16-.826-2.211-2.345h5.148v-.462c0-2.64-1.57-3.545-3.047-3.545-1.921 0-3.195 1.514-3.195 3.693 0 2.179 1.256 3.638 3.305 3.638zm-2.211-4.266c.074-1.103.854-2.087 2.101-2.087 1.182 0 1.939.887 1.939 2.087h-4.04zM640.6 188h1.089v-4.432c0-1.039.757-1.773 1.607-1.773.826 0 1.403.541 1.403 1.348V188h1.108v-4.616c0-.915.573-1.589 1.57-1.589.775 0 1.44.411 1.44 1.459V188h1.09v-4.746c0-1.666-.896-2.437-2.161-2.437-1.015 0-1.759.466-2.123 1.2h-.074c-.351-.757-.97-1.2-1.902-1.2-.924 0-1.607.443-1.902 1.2h-.093v-1.108H640.6V188zm11.596 0h1.053v-1.089h.129c.24.387.702 1.237 2.068 1.237 1.773 0 3.01-1.422 3.01-3.675 0-2.234-1.237-3.656-3.028-3.656-1.385 0-1.81.849-2.05 1.219h-.092v-3.491h-1.09V188zm1.071-3.545c0-1.589.702-2.66 2.032-2.66 1.385 0 2.068 1.164 2.068 2.66 0 1.514-.702 2.714-2.068 2.714-1.311 0-2.032-1.108-2.032-2.714zm9.979 3.693c1.44 0 2.493-.72 2.825-1.791l-1.052-.296c-.277.739-.919 1.108-1.773 1.108-1.279 0-2.161-.826-2.211-2.345h5.147v-.462c0-2.64-1.57-3.545-3.047-3.545-1.92 0-3.194 1.514-3.194 3.693 0 2.179 1.255 3.638 3.305 3.638zm-2.211-4.266c.074-1.103.854-2.087 2.1-2.087 1.182 0 1.939.887 1.939 2.087h-4.039zm6.954 4.118h1.09v-4.487c0-.96.757-1.662 1.791-1.662.291 0 .591.055.665.074v-1.108a10.696 10.696 0 0 0-.573-.019c-.849 0-1.588.48-1.846 1.182h-.074v-1.071h-1.053V188z" fill="#65676E"/><path d="M145 126h-1 1zm282.307 56.113v-1 1zm-242.307 0v1-1zM144 122.5v.875h2v-.875h-2zm0 2.625V126h2v-.875h-2zm0 .875v2.014h2V126h-2zm0 6.042v4.029h2v-4.029h-2zm0 8.057v2.014h2v-2.014h-2zm0 2.014c0 .902.029 1.796.086 2.684l1.996-.129a40.035 40.035 0 0 1-.082-2.555h-2zm.78 8.001a40.737 40.737 0 0 0 1.386 5.183l1.894-.643a38.744 38.744 0 0 1-1.318-4.928l-1.962.388zm3.441 10.138a40.901 40.901 0 0 0 2.685 4.642l1.662-1.112a39.037 39.037 0 0 1-2.554-4.416l-1.793.886zm5.953 8.895a41.375 41.375 0 0 0 3.792 3.792l1.32-1.503a39.39 39.39 0 0 1-3.609-3.608l-1.503 1.319zm8.045 7.06a40.985 40.985 0 0 0 4.643 2.686l.886-1.793a38.956 38.956 0 0 1-4.416-2.555l-1.113 1.662zm9.597 4.741a40.779 40.779 0 0 0 5.183 1.385l.389-1.962a38.756 38.756 0 0 1-4.929-1.317l-.643 1.894zm10.501 2.079c.887.057 1.782.086 2.683.086v-2c-.858 0-1.71-.027-2.554-.082l-.129 1.996zm2.683.086h2.524v-2H185v2zm7.572 0h5.048v-2h-5.048v2zm10.096 0h5.048v-2h-5.048v2zm10.096 0h5.048v-2h-5.048v2zm10.096 0h5.049v-2h-5.049v2zm10.097 0h5.048v-2h-5.048v2zm10.096 0h5.048v-2h-5.048v2zm10.096 0h5.048v-2h-5.048v2zm10.096 0h5.048v-2h-5.048v2zm10.096 0h5.048v-2h-5.048v2zm10.096 0h5.048v-2h-5.048v2zm10.096 0h5.048v-2h-5.048v2zm10.096 0h5.048v-2h-5.048v2zm10.096 0h5.049v-2h-5.049v2zm10.097 0h5.048v-2h-5.048v2zm10.096 0h5.048v-2h-5.048v2zm10.096 0h5.048v-2h-5.048v2zm10.096 0h5.048v-2h-5.048v2zm10.096 0h5.048v-2h-5.048v2zm10.096 0h5.048v-2h-5.048v2zm10.096 0h5.048v-2h-5.048v2zm10.096 0h5.048v-2h-5.048v2zm10.096 0h5.048v-2h-5.048v2zm10.096 0h5.049v-2h-5.049v2zm10.097 0h2.524v-2h-2.524v2zm2.524 0c.784 0 1.556.051 2.312.15l.259-1.983c-.842-.11-1.7-.167-2.571-.167v2zm6.772 1.343a17.698 17.698 0 0 1 3.999 2.312l1.218-1.585a19.633 19.633 0 0 0-4.451-2.575l-.766 1.848zm7.266 5.58a17.658 17.658 0 0 1 2.313 3.998l1.847-.766a19.688 19.688 0 0 0-2.574-4.451l-1.586 1.219zm3.505 8.459c.099.756.15 1.528.15 2.312h2c0-.871-.057-1.729-.166-2.571l-1.984.259zm.15 2.312v2.336h2v-2.336h-2zm0 7.01v4.673h2v-4.673h-2zm0 9.346v2.337h2v-2.337h-2z" fill="#96989D"/><path d="M454 212l-8.056 8.056-8.057-8.056" stroke="#96989D" stroke-width="2"/><path d="M259 175c0-5.523 4.477-10 10-10h64c5.523 0 10 4.477 10 10v16c0 5.523-4.477 10-10 10h-64c-5.523 0-10-4.477-10-10v-16z" fill="#EFF0F2"/><path d="M276.316 178.545V188h1.071v-7.183h.092l2.955 7.183h1.034l2.954-7.183h.093V188h1.071v-9.455h-1.367l-3.213 7.848h-.111l-3.213-7.848h-1.366zm14.54 9.603c1.441 0 2.493-.72 2.826-1.791l-1.053-.296c-.277.739-.918 1.108-1.773 1.108-1.278 0-2.16-.826-2.211-2.345h5.148v-.462c0-2.64-1.57-3.545-3.047-3.545-1.921 0-3.195 1.514-3.195 3.693 0 2.179 1.256 3.638 3.305 3.638zm-2.211-4.266c.074-1.103.854-2.087 2.101-2.087 1.182 0 1.939.887 1.939 2.087h-4.04zM295.6 188h1.089v-4.432c0-1.039.757-1.773 1.607-1.773.826 0 1.403.541 1.403 1.348V188h1.108v-4.616c0-.915.573-1.589 1.57-1.589.775 0 1.44.411 1.44 1.459V188h1.09v-4.746c0-1.666-.896-2.437-2.161-2.437-1.015 0-1.759.466-2.123 1.2h-.074c-.351-.757-.97-1.2-1.902-1.2-.924 0-1.607.443-1.902 1.2h-.093v-1.108H295.6V188zm11.596 0h1.053v-1.089h.129c.24.387.702 1.237 2.068 1.237 1.773 0 3.01-1.422 3.01-3.675 0-2.234-1.237-3.656-3.028-3.656-1.385 0-1.81.849-2.05 1.219h-.092v-3.491h-1.09V188zm1.071-3.545c0-1.589.702-2.66 2.032-2.66 1.385 0 2.068 1.164 2.068 2.66 0 1.514-.702 2.714-2.068 2.714-1.311 0-2.032-1.108-2.032-2.714zm9.979 3.693c1.44 0 2.493-.72 2.825-1.791l-1.052-.296c-.277.739-.919 1.108-1.773 1.108-1.279 0-2.161-.826-2.211-2.345h5.147v-.462c0-2.64-1.57-3.545-3.047-3.545-1.92 0-3.194 1.514-3.194 3.693 0 2.179 1.255 3.638 3.305 3.638zm-2.211-4.266c.074-1.103.854-2.087 2.1-2.087 1.182 0 1.939.887 1.939 2.087h-4.039zm6.954 4.118h1.09v-4.487c0-.96.757-1.662 1.791-1.662.291 0 .591.055.665.074v-1.108a10.696 10.696 0 0 0-.573-.019c-.849 0-1.588.48-1.846 1.182h-.074v-1.071h-1.053V188z" fill="#65676E"/><path d="M470 121v99" stroke="#96989D" stroke-width="2" stroke-miterlimit="16" stroke-dasharray="5 5"/><path d="M428 145c0-5.523 4.477-10 10-10h64c5.523 0 10 4.477 10 10v16c0 5.523-4.477 10-10 10h-64c-5.523 0-10-4.477-10-10v-16z" fill="#EFF0F2"/><path d="M445.316 148.545V158h1.071v-7.183h.092l2.955 7.183h1.034l2.954-7.183h.093V158h1.071v-9.455h-1.367l-3.213 7.848h-.111l-3.213-7.848h-1.366zm14.54 9.603c1.441 0 2.493-.72 2.826-1.791l-1.053-.296c-.277.739-.918 1.108-1.773 1.108-1.278 0-2.16-.826-2.211-2.345h5.148v-.462c0-2.64-1.57-3.545-3.047-3.545-1.921 0-3.195 1.514-3.195 3.693 0 2.179 1.256 3.638 3.305 3.638zm-2.211-4.266c.074-1.103.854-2.087 2.101-2.087 1.182 0 1.939.887 1.939 2.087h-4.04zM464.6 158h1.089v-4.432c0-1.039.757-1.773 1.607-1.773.826 0 1.403.541 1.403 1.348V158h1.108v-4.616c0-.915.573-1.589 1.57-1.589.775 0 1.44.411 1.44 1.459V158h1.09v-4.746c0-1.666-.896-2.437-2.161-2.437-1.015 0-1.759.466-2.123 1.2h-.074c-.351-.757-.97-1.2-1.902-1.2-.924 0-1.607.443-1.902 1.2h-.093v-1.108H464.6V158zm11.596 0h1.053v-1.089h.129c.24.387.702 1.237 2.068 1.237 1.773 0 3.01-1.422 3.01-3.675 0-2.234-1.237-3.656-3.028-3.656-1.385 0-1.81.849-2.05 1.219h-.092v-3.491h-1.09V158zm1.071-3.545c0-1.589.702-2.66 2.032-2.66 1.385 0 2.068 1.164 2.068 2.66 0 1.514-.702 2.714-2.068 2.714-1.311 0-2.032-1.108-2.032-2.714zm9.979 3.693c1.44 0 2.493-.72 2.825-1.791l-1.052-.296c-.277.739-.919 1.108-1.773 1.108-1.279 0-2.161-.826-2.211-2.345h5.147v-.462c0-2.64-1.57-3.545-3.047-3.545-1.92 0-3.194 1.514-3.194 3.693 0 2.179 1.255 3.638 3.305 3.638zm-2.211-4.266c.074-1.103.854-2.087 2.1-2.087 1.182 0 1.939.887 1.939 2.087h-4.039zm6.954 4.118h1.09v-4.487c0-.96.757-1.662 1.791-1.662.291 0 .591.055.665.074v-1.108a10.696 10.696 0 0 0-.573-.019c-.849 0-1.588.48-1.846 1.182h-.074v-1.071h-1.053V158z" fill="#65676E"/><path d="M478 212l-8.056 8.057-8.057-8.057" stroke="#96989D" stroke-width="2"/><path d="M472 328v99" stroke="#96989D" stroke-width="2" stroke-miterlimit="16"/><path d="M434.5 352c0-5.523 4.477-10 10-10h55c5.523 0 10 4.477 10 10v16c0 5.523-4.477 10-10 10h-55c-5.523 0-10-4.477-10-10v-16z" fill="#EFF0F2"/><path d="M452.077 355.545h-1.2l3.471 9.455h1.182l3.472-9.455h-1.2l-2.807 7.959h-.111l-2.807-7.959zm8.4 9.455h1.089v-7.091h-1.089V365zm.554-8.273c.424 0 .775-.332.775-.738 0-.407-.351-.739-.775-.739-.425 0-.776.332-.776.739 0 .406.351.738.776.738zm5.654 8.421c1.44 0 2.493-.72 2.825-1.791l-1.053-.296c-.277.739-.918 1.108-1.772 1.108-1.279 0-2.161-.826-2.212-2.345h5.148v-.462c0-2.64-1.57-3.545-3.047-3.545-1.921 0-3.195 1.514-3.195 3.693 0 2.179 1.256 3.638 3.306 3.638zm-2.212-4.266c.074-1.103.854-2.087 2.101-2.087 1.182 0 1.939.887 1.939 2.087h-4.04zm8.562 4.118h1.071l1.551-5.447h.111l1.551 5.447h1.071l2.16-7.091h-1.145l-1.532 5.411h-.074l-1.496-5.411h-1.163l-1.514 5.429h-.074l-1.533-5.429h-1.145l2.161 7.091zm11.837.148c1.441 0 2.493-.72 2.826-1.791l-1.053-.296c-.277.739-.919 1.108-1.773 1.108-1.278 0-2.16-.826-2.211-2.345h5.147v-.462c0-2.64-1.569-3.545-3.046-3.545-1.921 0-3.195 1.514-3.195 3.693 0 2.179 1.256 3.638 3.305 3.638zm-2.211-4.266c.074-1.103.854-2.087 2.101-2.087 1.181 0 1.939.887 1.939 2.087h-4.04zm6.955 4.118h1.089v-4.487c0-.96.757-1.662 1.791-1.662.291 0 .591.055.665.074v-1.108a10.657 10.657 0 0 0-.572-.019c-.85 0-1.588.48-1.847 1.182h-.074v-1.071h-1.052V365z" fill="#65676E"/><path d="M480 419l-8.056 8.057-8.057-8.057" stroke="#96989D" stroke-width="2"/></svg>