<svg width="512" height="512" viewBox="0 0 512 512" fill="none" xmlns="http://www.w3.org/2000/svg">
<style>
  path {
    fill: #000;
  }
  @media (prefers-color-scheme: dark) {
    path {
      fill: #FFF;
    }
  }
</style>
<path d="M328.508 62.1892C328.517 71.7231 332.321 80.8639 339.085 87.6053C345.849 94.3468 355.02 98.1382 364.586 98.1474C374.151 98.1382 383.322 94.3468 390.086 87.6053C396.85 80.8639 400.654 71.7231 400.663 62.1892C400.654 52.6553 396.85 43.5145 390.086 36.773C383.322 30.0315 374.151 26.2401 364.586 26.231C355.02 26.2401 345.849 30.0315 339.085 36.773C332.321 43.5145 328.517 52.6553 328.508 62.1892V62.1892Z"/>
<path d="M111.337 448.888C111.346 458.422 115.15 467.563 121.914 474.305C128.678 481.046 137.849 484.837 147.414 484.847C156.98 484.837 166.151 481.046 172.915 474.305C179.679 467.563 183.482 458.422 183.492 448.888C183.482 439.354 179.679 430.214 172.915 423.472C166.151 416.731 156.98 412.939 147.414 412.93C137.849 412.939 128.678 416.731 121.914 423.472C115.15 430.214 111.346 439.354 111.337 448.888V448.888Z"/>
<path d="M325.848 255.541C325.857 265.075 329.661 274.216 336.425 280.957C343.189 287.699 352.36 291.49 361.926 291.499C371.491 291.49 380.662 287.699 387.426 280.957C394.19 274.216 397.994 265.075 398.003 255.541C397.994 246.007 394.19 236.867 387.426 230.125C380.662 223.384 371.491 219.592 361.926 219.583C352.36 219.592 343.189 223.384 336.425 230.125C329.661 236.867 325.857 246.007 325.848 255.541V255.541Z"/>
<path d="M-0.000640869 255.541C0.00855234 265.075 3.8125 274.216 10.5764 280.957C17.3402 287.699 26.5113 291.49 36.0768 291.499C45.6423 291.49 54.8135 287.699 61.5773 280.957C68.3412 274.216 72.1451 265.075 72.1543 255.541C72.1451 246.007 68.3412 236.867 61.5773 230.125C54.8135 223.384 45.6423 219.592 36.0768 219.583C26.5113 219.592 17.3402 223.384 10.5764 230.125C3.8125 236.867 0.00855234 246.007 -0.000640869 255.541V255.541Z"/>
<path d="M177.437 82.3737C178.927 80.0227 180.972 78.0712 183.393 76.6896C185.814 75.3081 188.538 74.5386 191.326 74.4483H212.473C215.262 74.5326 217.989 75.2996 220.411 76.6817C222.833 78.0638 224.877 80.0185 226.362 82.3737C229.672 87.1966 234.112 91.1421 239.297 93.8681C244.483 96.594 250.257 98.018 256.12 98.0167C261.485 98.0262 266.783 96.8374 271.627 94.5376C276.47 92.2378 280.734 88.8855 284.107 84.727C287.525 80.5284 289.951 75.6174 291.208 70.3577C292.464 65.0979 292.517 59.624 291.364 54.3408C289.902 47.4573 286.434 41.1575 281.393 36.2318C276.352 31.3062 269.964 27.9742 263.03 26.654C255.942 25.2899 248.606 26.0704 241.966 28.8951C235.327 31.7198 229.687 36.4595 225.772 42.5047C224.216 44.7175 222.131 46.5091 219.706 47.7176C217.281 48.9261 214.592 49.5133 211.882 49.4264H191.708C189.001 49.4979 186.317 48.9038 183.895 47.6966C181.473 46.4895 179.386 44.7063 177.819 42.5047C173.863 36.5254 168.209 31.8568 161.579 29.0951C154.949 26.3335 147.644 25.6041 140.596 27.0001C133.665 28.3288 127.282 31.6636 122.242 36.5878C117.203 41.5121 113.731 47.8073 112.261 54.6869C111.126 59.9708 111.188 65.4408 112.444 70.6977C113.699 75.9546 116.116 80.8658 119.519 85.0731C122.901 89.2286 127.173 92.5784 132.021 94.8776C136.869 97.1769 142.171 98.3676 147.54 98.3628C153.458 98.3484 159.28 96.8823 164.494 94.0937C169.708 91.3052 174.153 87.28 177.437 82.3737Z"/>
<path d="M231.732 179.275C233.222 176.924 235.267 174.972 237.688 173.591C240.109 172.209 242.833 171.44 245.621 171.349H266.768C269.558 171.434 272.284 172.201 274.706 173.583C277.128 174.965 279.172 176.92 280.657 179.275C283.967 184.098 288.407 188.043 293.592 190.769C298.778 193.495 304.552 194.919 310.415 194.918C315.78 194.927 321.078 193.739 325.922 191.439C330.765 189.139 335.03 185.787 338.402 181.628C341.82 177.429 344.246 172.519 345.503 167.259C346.759 161.999 346.812 156.525 345.659 151.242C344.198 144.358 340.729 138.059 335.688 133.133C330.647 128.207 324.259 124.875 317.325 123.555C310.237 122.191 302.901 122.971 296.261 125.796C289.622 128.621 283.982 133.361 280.067 139.406C278.511 141.619 276.426 143.41 274.001 144.619C271.576 145.827 268.887 146.414 266.178 146.327H246.003C243.296 146.399 240.613 145.805 238.19 144.598C235.768 143.391 233.681 141.607 232.114 139.406C228.158 133.426 222.504 128.758 215.874 125.996C209.244 123.235 201.939 122.505 194.891 123.901C187.96 125.23 181.577 128.565 176.537 133.489C171.498 138.413 168.026 144.708 166.556 151.588C165.421 156.872 165.483 162.342 166.739 167.599C167.994 172.856 170.411 177.767 173.814 181.974C177.196 186.13 181.468 189.479 186.316 191.779C191.164 194.078 196.466 195.269 201.835 195.264C207.753 195.25 213.575 193.783 218.789 190.995C224.003 188.206 228.448 184.181 231.732 179.275Z"/>
<path d="M128.985 366.947C126.564 368.328 124.519 370.28 123.029 372.631C119.745 377.537 115.3 381.562 110.086 384.351C104.872 387.139 99.0494 388.605 93.1321 388.62C87.7632 388.625 82.4608 387.434 77.6127 385.135C72.7646 382.835 68.4932 379.485 65.1104 375.33C61.7081 371.123 59.2909 366.211 58.0354 360.955C56.7799 355.698 56.7177 350.228 57.8533 344.944C59.3233 338.064 62.7949 331.769 67.8343 326.845C72.8737 321.92 79.2573 318.586 86.1875 317.257C93.2355 315.861 100.541 316.59 107.171 319.352C113.801 322.114 119.455 326.782 123.411 332.762C124.978 334.963 127.065 336.746 129.487 337.954C131.909 339.161 134.593 339.755 137.3 339.683H157.474C160.184 339.77 162.873 339.183 165.298 337.974C167.723 336.766 169.808 334.974 171.364 332.762C175.279 326.716 180.919 321.977 187.558 319.152C194.198 316.327 201.534 315.547 208.622 316.911C215.556 318.231 221.944 321.563 226.985 326.489C229.141 328.596 231.009 330.954 232.556 333.502C234.047 335.364 235.929 336.885 238.074 337.954C240.496 339.161 243.179 339.755 245.887 339.683H266.061C268.771 339.77 271.46 339.183 273.885 337.974C276.31 336.766 278.394 334.974 279.95 332.762C283.865 326.716 289.505 321.977 296.145 319.152C302.785 316.327 310.12 315.547 317.208 316.911C324.142 318.231 330.53 321.563 335.571 326.489C340.612 331.414 344.081 337.714 345.543 344.598C346.696 349.881 346.642 355.355 345.386 360.615C344.13 365.874 341.703 370.785 338.285 374.984C334.913 379.142 330.648 382.495 325.805 384.795C320.962 387.094 315.663 388.283 310.298 388.274C304.436 388.275 298.661 386.851 293.476 384.125C288.29 381.399 283.85 377.453 280.541 372.631C279.055 370.275 277.011 368.321 274.589 366.939C272.167 365.556 269.441 364.789 266.651 364.705H245.505C242.716 364.795 239.992 365.565 237.571 366.947C235.15 368.328 233.105 370.28 231.615 372.631C228.332 377.537 223.887 381.562 218.673 384.351C213.459 387.139 207.636 388.605 201.719 388.62C196.35 388.625 191.047 387.434 186.199 385.135C181.351 382.835 177.08 379.485 173.697 375.33C172.492 373.84 171.411 372.263 170.462 370.612C169.201 369.148 167.694 367.904 166.003 366.939C163.58 365.556 160.854 364.789 158.065 364.705H136.918C134.13 364.795 131.406 365.565 128.985 366.947Z"/>
<path d="M291.979 463.625C289.558 465.007 287.513 466.958 286.023 469.309C282.74 474.216 278.295 478.241 273.081 481.029C267.867 483.818 262.044 485.284 256.127 485.298C250.758 485.303 245.455 484.112 240.607 481.813C235.759 479.514 231.488 476.164 228.105 472.009C224.703 467.801 222.285 462.89 221.03 457.633C219.774 452.376 219.712 446.906 220.848 441.622C222.318 434.743 225.789 428.448 230.829 423.523C235.868 418.599 242.252 415.264 249.182 413.936C256.23 412.54 263.535 413.269 270.166 416.031C276.796 418.792 282.45 423.461 286.405 429.44C287.972 431.642 290.059 433.425 292.481 434.632C294.904 435.839 297.587 436.434 300.295 436.362H320.469C323.179 436.449 325.867 435.862 328.292 434.653C330.717 433.445 332.802 431.653 334.358 429.44C338.273 423.395 343.913 418.655 350.553 415.831C357.192 413.006 364.528 412.225 371.616 413.59C378.55 414.91 384.938 418.242 389.979 423.167C395.02 428.093 398.489 434.393 399.95 441.276C401.104 446.56 401.05 452.034 399.794 457.293C398.538 462.553 396.111 467.464 392.693 471.663C389.321 475.821 385.056 479.173 380.213 481.473C375.37 483.773 370.071 484.962 364.706 484.952C358.844 484.954 353.069 483.53 347.884 480.804C342.698 478.078 338.258 474.132 334.948 469.309C333.463 466.954 331.419 464.999 328.997 463.617C326.575 462.235 323.849 461.468 321.059 461.384H299.913C297.124 461.474 294.4 462.244 291.979 463.625Z"/>
<path d="M439.846 255.537C439.855 265.071 443.659 274.212 450.423 280.953C457.187 287.695 466.358 291.486 475.923 291.495C485.489 291.486 494.66 287.695 501.424 280.953C508.188 274.212 511.992 265.071 512.001 255.537C511.992 246.003 508.188 236.862 501.424 230.121C494.66 223.38 485.489 219.588 475.923 219.579C466.358 219.588 457.187 223.38 450.423 230.121C443.659 236.862 439.855 246.003 439.846 255.537Z"/>
<path d="M119.253 280.953C112.489 274.212 108.685 265.071 108.676 255.537C108.685 246.003 112.489 236.862 119.253 230.121C126.016 223.38 135.188 219.588 144.753 219.579C154.319 219.588 163.49 223.38 170.254 230.121C177.017 236.862 180.821 246.003 180.831 255.537C180.821 265.071 177.017 274.212 170.254 280.953C163.49 287.695 154.319 291.486 144.753 291.495C135.188 291.486 126.016 287.695 119.253 280.953Z"/>
<path d="M177.437 82.3737C178.927 80.0227 180.972 78.0712 183.393 76.6896C185.814 75.3081 188.538 74.5386 191.326 74.4483H212.473C215.262 74.5326 217.989 75.2996 220.411 76.6817C222.833 78.0638 224.877 80.0185 226.362 82.3737C229.672 87.1966 234.112 91.1421 239.297 93.8681C244.483 96.594 250.257 98.018 256.12 98.0167C261.485 98.0262 266.783 96.8374 271.627 94.5376C276.47 92.2378 280.734 88.8855 284.107 84.727C287.525 80.5284 289.951 75.6174 291.208 70.3577C292.464 65.0979 292.517 59.624 291.364 54.3408C289.902 47.4573 286.434 41.1575 281.393 36.2318C276.352 31.3062 269.964 27.9742 263.03 26.654C255.942 25.2899 248.606 26.0704 241.966 28.8951C235.327 31.7198 229.687 36.4595 225.772 42.5047C224.216 44.7175 222.131 46.5091 219.706 47.7176C217.281 48.9261 214.592 49.5133 211.882 49.4264H191.708C189.001 49.4979 186.317 48.9038 183.895 47.6966C181.473 46.4895 179.386 44.7063 177.819 42.5047C173.863 36.5254 168.209 31.8568 161.579 29.0951C154.949 26.3335 147.644 25.6041 140.596 27.0001C133.665 28.3288 127.282 31.6636 122.242 36.5878C117.203 41.5121 113.731 47.8073 112.261 54.6869C111.126 59.9708 111.188 65.4408 112.444 70.6977C113.699 75.9546 116.116 80.8658 119.519 85.0731C122.901 89.2286 127.173 92.5784 132.021 94.8776C136.869 97.1769 142.171 98.3676 147.54 98.3628C153.458 98.3484 159.28 96.8823 164.494 94.0937C169.708 91.3052 174.153 87.28 177.437 82.3737Z"/>
<path d="M231.732 179.275C233.222 176.924 235.267 174.972 237.688 173.591C240.109 172.209 242.833 171.44 245.621 171.349H266.768C269.558 171.434 272.284 172.201 274.706 173.583C277.128 174.965 279.172 176.92 280.657 179.275C283.967 184.098 288.407 188.043 293.592 190.769C298.778 193.495 304.552 194.919 310.415 194.918C315.78 194.927 321.078 193.739 325.922 191.439C330.765 189.139 335.03 185.787 338.402 181.628C341.82 177.429 344.246 172.519 345.503 167.259C346.759 161.999 346.812 156.525 345.659 151.242C344.198 144.358 340.729 138.059 335.688 133.133C330.647 128.207 324.259 124.875 317.325 123.555C310.237 122.191 302.901 122.971 296.261 125.796C289.622 128.621 283.982 133.361 280.067 139.406C278.511 141.619 276.426 143.41 274.001 144.619C271.576 145.827 268.887 146.414 266.178 146.327H246.003C243.296 146.399 240.613 145.805 238.19 144.598C235.768 143.391 233.681 141.607 232.114 139.406C228.158 133.426 222.504 128.758 215.874 125.996C209.244 123.235 201.939 122.505 194.891 123.901C187.96 125.23 181.577 128.565 176.537 133.489C171.498 138.413 168.026 144.708 166.556 151.588C165.421 156.872 165.483 162.342 166.739 167.599C167.994 172.856 170.411 177.767 173.814 181.974C177.196 186.13 181.468 189.479 186.316 191.779C191.164 194.078 196.466 195.269 201.835 195.264C207.753 195.25 213.575 193.783 218.789 190.995C224.003 188.206 228.448 184.181 231.732 179.275Z"/>
<path d="M128.985 366.947C126.564 368.328 124.519 370.28 123.029 372.631C119.745 377.537 115.3 381.562 110.086 384.351C104.872 387.139 99.0494 388.605 93.1321 388.62C87.7632 388.625 82.4608 387.434 77.6127 385.135C72.7646 382.835 68.4932 379.485 65.1104 375.33C61.7081 371.123 59.2909 366.211 58.0354 360.955C56.7799 355.698 56.7177 350.228 57.8533 344.944C59.3233 338.064 62.7949 331.769 67.8343 326.845C72.8737 321.92 79.2573 318.586 86.1875 317.257C93.2355 315.861 100.541 316.59 107.171 319.352C113.801 322.114 119.455 326.782 123.411 332.762C124.978 334.963 127.065 336.746 129.487 337.954C131.909 339.161 134.593 339.755 137.3 339.683H157.474C160.184 339.77 162.873 339.183 165.298 337.974C167.723 336.766 169.808 334.974 171.364 332.762C175.279 326.716 180.919 321.977 187.558 319.152C194.198 316.327 201.534 315.547 208.622 316.911C215.556 318.231 221.944 321.563 226.985 326.489C229.141 328.596 231.009 330.954 232.556 333.502C234.047 335.364 235.929 336.885 238.074 337.954C240.496 339.161 243.179 339.755 245.887 339.683H266.061C268.771 339.77 271.46 339.183 273.885 337.974C276.31 336.766 278.394 334.974 279.95 332.762C283.865 326.716 289.505 321.977 296.145 319.152C302.785 316.327 310.12 315.547 317.208 316.911C324.142 318.231 330.53 321.563 335.571 326.489C340.612 331.414 344.081 337.714 345.543 344.598C346.696 349.881 346.642 355.355 345.386 360.615C344.13 365.874 341.703 370.785 338.285 374.984C334.913 379.142 330.648 382.495 325.805 384.795C320.962 387.094 315.663 388.283 310.298 388.274C304.436 388.275 298.661 386.851 293.476 384.125C288.29 381.399 283.85 377.453 280.541 372.631C279.055 370.275 277.011 368.321 274.589 366.939C272.167 365.556 269.441 364.789 266.651 364.705H245.505C242.716 364.795 239.992 365.565 237.571 366.947C235.15 368.328 233.105 370.28 231.615 372.631C228.332 377.537 223.887 381.562 218.673 384.351C213.459 387.139 207.636 388.605 201.719 388.62C196.35 388.625 191.047 387.434 186.199 385.135C181.351 382.835 177.08 379.485 173.697 375.33C172.492 373.84 171.411 372.263 170.462 370.612C169.201 369.148 167.694 367.904 166.003 366.939C163.58 365.556 160.854 364.789 158.065 364.705H136.918C134.13 364.795 131.406 365.565 128.985 366.947Z"/>
<path d="M291.979 463.625C289.558 465.007 287.513 466.958 286.023 469.309C282.74 474.216 278.295 478.241 273.081 481.029C267.867 483.818 262.044 485.284 256.127 485.298C250.758 485.303 245.455 484.112 240.607 481.813C235.759 479.514 231.488 476.164 228.105 472.009C224.703 467.801 222.285 462.89 221.03 457.633C219.774 452.376 219.712 446.906 220.848 441.622C222.318 434.743 225.789 428.448 230.829 423.523C235.868 418.599 242.252 415.264 249.182 413.936C256.23 412.54 263.535 413.269 270.166 416.031C276.796 418.792 282.45 423.461 286.405 429.44C287.972 431.642 290.059 433.425 292.481 434.632C294.904 435.839 297.587 436.434 300.295 436.362H320.469C323.179 436.449 325.867 435.862 328.292 434.653C330.717 433.445 332.802 431.653 334.358 429.44C338.273 423.395 343.913 418.655 350.553 415.831C357.192 413.006 364.528 412.225 371.616 413.59C378.55 414.91 384.938 418.242 389.979 423.167C395.02 428.093 398.489 434.393 399.95 441.276C401.104 446.56 401.05 452.034 399.794 457.293C398.538 462.553 396.111 467.464 392.693 471.663C389.321 475.821 385.056 479.173 380.213 481.473C375.37 483.773 370.071 484.962 364.706 484.952C358.844 484.954 353.069 483.53 347.884 480.804C342.698 478.078 338.258 474.132 334.948 469.309C333.463 466.954 331.419 464.999 328.997 463.617C326.575 462.235 323.849 461.468 321.059 461.384H299.913C297.124 461.474 294.4 462.244 291.979 463.625Z"/>
<path d="M439.846 255.537C439.855 265.071 443.659 274.212 450.423 280.953C457.187 287.695 466.358 291.486 475.923 291.495C485.489 291.486 494.66 287.695 501.424 280.953C508.188 274.212 511.992 265.071 512.001 255.537C511.992 246.003 508.188 236.862 501.424 230.121C494.66 223.38 485.489 219.588 475.923 219.579C466.358 219.588 457.187 223.38 450.423 230.121C443.659 236.862 439.855 246.003 439.846 255.537Z"/>
<path d="M119.253 280.953C112.489 274.212 108.685 265.071 108.676 255.537C108.685 246.003 112.489 236.862 119.253 230.121C126.016 223.38 135.188 219.588 144.753 219.579C154.319 219.588 163.49 223.38 170.254 230.121C177.017 236.862 180.821 246.003 180.831 255.537C180.821 265.071 177.017 274.212 170.254 280.953C163.49 287.695 154.319 291.486 144.753 291.495C135.188 291.486 126.016 287.695 119.253 280.953Z"/>
<path d="M382.685 158.852C382.694 168.386 386.498 177.526 393.262 184.268C400.026 191.009 409.197 194.801 418.762 194.81C428.328 194.801 437.499 191.009 444.263 184.268C451.027 177.526 454.83 168.386 454.84 158.852C454.83 149.318 451.027 140.177 444.263 133.436C437.499 126.694 428.328 122.903 418.762 122.894C409.197 122.903 400.026 126.694 393.262 133.436C386.498 140.177 382.694 149.318 382.685 158.852V158.852Z"/>
<path d="M57.1552 158.852C57.1643 168.386 60.9683 177.526 67.7321 184.268C74.496 191.009 83.6671 194.801 93.2326 194.81C102.798 194.801 111.969 191.009 118.733 184.268C125.497 177.526 129.301 168.386 129.31 158.852C129.301 149.318 125.497 140.177 118.733 133.436C111.969 126.694 102.798 122.903 93.2326 122.894C83.6671 122.903 74.496 126.694 67.7321 133.436C60.9683 140.177 57.1643 149.318 57.1552 158.852V158.852Z"/>
<path d="M382.685 352.225C382.694 361.759 386.498 370.9 393.262 377.641C400.026 384.383 409.197 388.174 418.762 388.183C428.328 388.174 437.499 384.383 444.263 377.641C451.027 370.9 454.83 361.759 454.84 352.225C454.83 342.691 451.027 333.551 444.263 326.809C437.499 320.068 428.328 316.276 418.762 316.267C409.197 316.276 400.026 320.068 393.262 326.809C386.498 333.551 382.694 342.691 382.685 352.225V352.225Z"/>
</svg>
