<svg width="105" height="24" viewBox="0 0 105 24" fill="none" xmlns="http://www.w3.org/2000/svg">
<path d="M31.7517 10.3873V13.0502C31.7517 15.9537 33.5323 17.5578 36.3075 17.5578C39.0827 17.5578 40.8472 15.9537 40.8472 13.0502V10.3873C40.8472 7.4838 39.0827 5.87966 36.3075 5.87966C33.5323 5.87966 31.7517 7.4838 31.7517 10.3873ZM33.6125 10.3231C33.6125 8.62275 34.6071 7.53193 36.3075 7.53193C37.9919 7.53193 38.9864 8.62275 38.9864 10.3231V13.1144C38.9864 14.8147 37.9919 15.9056 36.3075 15.9056C34.6071 15.9056 33.6125 14.8147 33.6125 13.1144V10.3231ZM42.4293 20.5415H44.1778V16.2104H44.3383C44.7874 16.9001 45.5895 17.5578 47.0493 17.5578C48.9903 17.5578 50.6746 15.9537 50.6746 13.371C50.6746 10.8044 48.9903 9.20024 47.0493 9.20024C45.5895 9.20024 44.7874 9.85794 44.3062 10.5798H44.1458V9.42482H42.4293V20.5415ZM46.5359 16.0339C45.1724 16.0339 44.1618 15.0393 44.1618 13.371C44.1618 11.7027 45.1724 10.7081 46.5359 10.7081C47.9155 10.7081 48.9101 11.7027 48.9101 13.371C48.9101 15.0554 47.9155 16.0339 46.5359 16.0339ZM51.676 13.3389C51.676 15.8254 53.3122 17.5578 55.7184 17.5578C57.9 17.5578 58.8305 16.3066 59.2957 15.4724L57.8359 14.6864C57.5151 15.3762 56.9536 16.0339 55.7505 16.0339C54.4832 16.0339 53.5528 15.1516 53.4886 13.9325H59.4881V13.2106C59.4881 10.7883 57.9482 9.1842 55.6542 9.1842C53.3282 9.1842 51.676 10.8685 51.676 13.3389ZM53.5047 12.5689C53.6491 11.4621 54.4191 10.7081 55.6382 10.7081C56.8092 10.7081 57.5953 11.43 57.6915 12.5689H53.5047ZM60.9146 9.42482V17.3333H62.6631V13.2748C62.6631 11.6385 63.5133 10.7242 64.8287 10.7242C65.9997 10.7242 66.6895 11.3498 66.6895 12.6812V17.3333H68.4541V12.585C68.4541 10.5638 67.1708 9.28045 65.3581 9.28045C63.8502 9.28045 63.1443 9.95419 62.7914 10.644H62.631V9.42482H60.9146ZM70.3612 6.10424V17.3333H72.2221V12.5369H77.1147V10.8685H72.2221V7.78859H77.4355V6.10424H70.3612ZM78.4035 13.0181C78.4035 15.9216 80.1841 17.5578 82.9914 17.5578C85.7345 17.5578 87.3226 15.9697 87.3226 13.355V11.7669H82.5583V13.355H85.4938V13.5635C85.4938 14.9912 84.6597 15.9056 82.9914 15.9056C81.307 15.9056 80.2643 14.8147 80.2643 13.0341V10.4033C80.2643 8.62275 81.307 7.53193 82.9914 7.53193C84.6276 7.53193 85.3976 8.49441 85.3976 9.82585V10.0344H87.2584V9.85794C87.2584 7.46776 85.7665 5.87966 82.9914 5.87966C80.2002 5.87966 78.4035 7.51589 78.4035 10.4354V13.0181ZM91.08 6.10424L87.7755 17.3333H89.6844L90.4384 14.7185H94.6091L95.3631 17.3333H97.256L93.9514 6.10424H91.08ZM90.8875 13.0341L92.4435 7.66026H92.604L94.1439 13.0341H90.8875Z" fill="white"/>
<path d="M96.3885 6.42408V6.74851H97.0651V8.58691H97.4205V6.74851H98.0971V6.42408H96.3885ZM98.3264 6.42408V8.58691H98.6724V6.79485H98.7033L99.2348 8.58691H99.7384L100.267 6.79485H100.298V8.58691H100.647V6.42408H100.032L99.5005 8.22541H99.4696L98.9412 6.42408H98.3264Z" fill="white"/>
<path d="M19.1717 0H4.82834C2.16172 0 0 2.16172 0 4.82834V19.1717C0 21.8383 2.16172 24 4.82834 24H19.1717C21.8383 24 24 21.8383 24 19.1717V4.82834C24 2.16172 21.8383 0 19.1717 0Z" fill="white"/>
<path d="M14.2646 5.95774C14.2649 6.2555 14.3837 6.54098 14.595 6.75152C14.8062 6.96207 15.0927 7.08048 15.3914 7.08077C15.6901 7.08048 15.9766 6.96207 16.1878 6.75152C16.3991 6.54098 16.5179 6.2555 16.5181 5.95774C16.5179 5.65998 16.3991 5.3745 16.1878 5.16396C15.9766 4.95341 15.6901 4.835 15.3914 4.83472C15.0927 4.835 14.8062 4.95341 14.595 5.16396C14.3837 5.3745 14.2649 5.65998 14.2646 5.95774Z" fill="#272B33"/>
<path d="M7.48145 18.0353C7.48173 18.333 7.60054 18.6185 7.81178 18.829C8.02302 19.0396 8.30945 19.158 8.60819 19.1583C8.90694 19.158 9.19337 19.0396 9.40461 18.829C9.61586 18.6185 9.73466 18.333 9.73495 18.0353C9.73466 17.7375 9.61586 17.452 9.40461 17.2415C9.19337 17.0309 8.90694 16.9125 8.60819 16.9122C8.30945 16.9125 8.02302 17.0309 7.81178 17.2415C7.60054 17.452 7.48173 17.7375 7.48145 18.0353Z" fill="#272B33"/>
<path d="M14.1816 11.9966C14.1819 12.2943 14.3007 12.5798 14.512 12.7903C14.7232 13.0009 15.0096 13.1193 15.3084 13.1196C15.6071 13.1193 15.8936 13.0009 16.1048 12.7903C16.3161 12.5798 16.4349 12.2943 16.4351 11.9966C16.4349 11.6988 16.3161 11.4133 16.1048 11.2028C15.8936 10.9922 15.6071 10.8738 15.3084 10.8735C15.0096 10.8738 14.7232 10.9922 14.512 11.2028C14.3007 11.4133 14.1819 11.6988 14.1816 11.9966Z" fill="#272B33"/>
<path d="M4.00488 11.9966C4.00517 12.2943 4.12397 12.5798 4.33522 12.7903C4.54646 13.0009 4.83289 13.1193 5.13163 13.1196C5.43038 13.1193 5.7168 13.0009 5.92805 12.7903C6.13929 12.5798 6.2581 12.2943 6.25838 11.9966C6.2581 11.6988 6.13929 11.4133 5.92805 11.2028C5.7168 10.9922 5.43038 10.8738 5.13163 10.8735C4.83289 10.8738 4.54646 10.9922 4.33522 11.2028C4.12397 11.4133 4.00517 11.6988 4.00488 11.9966Z" fill="#272B33"/>
<path d="M9.54613 6.58839C9.59266 6.51496 9.65652 6.45401 9.73214 6.41087C9.80776 6.36772 9.89283 6.34369 9.97991 6.34087H10.6403C10.7275 6.3435 10.8126 6.36745 10.8883 6.41062C10.9639 6.45378 11.0277 6.51483 11.0741 6.58839C11.1775 6.73901 11.3162 6.86224 11.4781 6.94737C11.6401 7.03251 11.8204 7.07698 12.0035 7.07694C12.1711 7.07724 12.3365 7.04011 12.4878 6.96828C12.6391 6.89646 12.7723 6.79176 12.8776 6.66189C12.9843 6.53076 13.0601 6.37738 13.0993 6.21311C13.1386 6.04884 13.1402 5.87788 13.1042 5.71288C13.0586 5.4979 12.9502 5.30115 12.7928 5.14731C12.6354 4.99348 12.4359 4.88942 12.2193 4.84818C11.9979 4.80558 11.7688 4.82996 11.5615 4.91818C11.3541 5.00639 11.178 5.15442 11.0557 5.34322C11.0071 5.41233 10.942 5.46829 10.8663 5.50603C10.7905 5.54377 10.7065 5.56211 10.6219 5.5594H9.99184C9.90729 5.56163 9.82348 5.54308 9.74783 5.50538C9.67217 5.46767 9.607 5.41198 9.55806 5.34322C9.43452 5.15648 9.25794 5.01067 9.05087 4.92442C8.8438 4.83817 8.61564 4.81539 8.39552 4.85899C8.17908 4.90049 7.97971 5.00464 7.82233 5.15843C7.66494 5.31222 7.55652 5.50883 7.51061 5.72369C7.47514 5.88871 7.47708 6.05955 7.51629 6.22373C7.55551 6.38791 7.631 6.54129 7.73726 6.67269C7.84291 6.80248 7.97631 6.90709 8.12772 6.9789C8.27913 7.05071 8.44473 7.0879 8.61241 7.08775C8.79722 7.0873 8.97907 7.04151 9.14191 6.95442C9.30475 6.86733 9.44358 6.74162 9.54613 6.58839Z" fill="#272B33"/>
<path d="M11.2418 9.61474C11.2884 9.54132 11.3522 9.48037 11.4279 9.43722C11.5035 9.39408 11.5885 9.37004 11.6756 9.36722H12.3361C12.4232 9.36985 12.5083 9.39381 12.584 9.43697C12.6596 9.48014 12.7235 9.54119 12.7698 9.61474C12.8732 9.76537 13.0119 9.88859 13.1738 9.97373C13.3358 10.0589 13.5161 10.1033 13.6992 10.1033C13.8668 10.1036 14.0323 10.0665 14.1835 9.99464C14.3348 9.92281 14.468 9.81812 14.5733 9.68824C14.68 9.55711 14.7558 9.40374 14.7951 9.23947C14.8343 9.0752 14.836 8.90424 14.7999 8.73924C14.7543 8.52426 14.646 8.3275 14.4885 8.17367C14.3311 8.01983 14.1316 7.91577 13.915 7.87454C13.6937 7.83194 13.4646 7.85631 13.2572 7.94453C13.0498 8.03275 12.8737 8.18078 12.7514 8.36958C12.7028 8.43869 12.6377 8.49464 12.562 8.53239C12.4862 8.57013 12.4023 8.58847 12.3176 8.58575H11.6876C11.603 8.58799 11.5192 8.56943 11.4435 8.53173C11.3679 8.49403 11.3027 8.43834 11.2538 8.36958C11.1302 8.18284 10.9537 8.03703 10.7466 7.95078C10.5395 7.86453 10.3114 7.84175 10.0912 7.88535C9.87479 7.92685 9.67542 8.031 9.51804 8.18479C9.36065 8.33858 9.25223 8.53519 9.20632 8.75005C9.17085 8.91507 9.17279 9.0859 9.212 9.25008C9.25122 9.41427 9.32671 9.56765 9.43297 9.69905C9.53862 9.82883 9.67202 9.93345 9.82343 10.0053C9.97484 10.0771 10.1404 10.1143 10.3081 10.1141C10.4929 10.1137 10.6748 10.0679 10.8376 9.98078C11.0005 9.89369 11.1393 9.76798 11.2418 9.61474Z" fill="#272B33"/>
<path d="M8.0329 15.476C7.95728 15.5191 7.89342 15.5801 7.84689 15.6535C7.74434 15.8067 7.60551 15.9325 7.44267 16.0195C7.27983 16.1066 7.09798 16.1524 6.91317 16.1529C6.74549 16.153 6.57989 16.1158 6.42848 16.044C6.27707 15.9722 6.14366 15.8676 6.03802 15.7378C5.93176 15.6064 5.85627 15.453 5.81705 15.2889C5.77784 15.1247 5.7759 14.9538 5.81137 14.7888C5.85728 14.574 5.9657 14.3773 6.12309 14.2236C6.28047 14.0698 6.47984 13.9656 6.69628 13.9241C6.9164 13.8805 7.14456 13.9033 7.35163 13.9896C7.5587 14.0758 7.73528 14.2216 7.85882 14.4084C7.90776 14.4771 7.97293 14.5328 8.04859 14.5705C8.12424 14.6082 8.20805 14.6268 8.2926 14.6245H8.92267C9.0073 14.6272 9.09128 14.6089 9.16701 14.5712C9.24275 14.5334 9.30786 14.4775 9.35646 14.4084C9.47873 14.2195 9.65487 14.0715 9.86224 13.9833C10.0696 13.8951 10.2987 13.8707 10.5201 13.9133C10.7366 13.9545 10.9361 14.0586 11.0936 14.2124C11.1609 14.2782 11.2193 14.3519 11.2676 14.4315C11.3141 14.4896 11.3729 14.5371 11.4399 14.5705C11.5156 14.6082 11.5994 14.6268 11.6839 14.6245H12.314C12.3986 14.6272 12.4826 14.6089 12.5583 14.5712C12.6341 14.5334 12.6992 14.4775 12.7478 14.4084C12.87 14.2195 13.0462 14.0715 13.2535 13.9833C13.4609 13.8951 13.69 13.8707 13.9114 13.9133C14.1279 13.9545 14.3275 14.0586 14.4849 14.2124C14.6423 14.3663 14.7507 14.563 14.7963 14.778C14.8323 14.943 14.8306 15.114 14.7914 15.2782C14.7522 15.4425 14.6764 15.5959 14.5697 15.727C14.4643 15.8569 14.3311 15.9616 14.1799 16.0334C14.0286 16.1052 13.8631 16.1424 13.6956 16.1421C13.5125 16.1421 13.3321 16.0976 13.1702 16.0125C13.0082 15.9274 12.8696 15.8041 12.7662 15.6535C12.7198 15.58 12.656 15.5189 12.5803 15.4757C12.5047 15.4326 12.4195 15.4086 12.3324 15.406H11.672C11.5849 15.4088 11.4998 15.4328 11.4242 15.476C11.3486 15.5191 11.2847 15.5801 11.2382 15.6535C11.1357 15.8067 10.9968 15.9325 10.834 16.0195C10.6711 16.1066 10.4893 16.1524 10.3045 16.1529C10.1368 16.153 9.9712 16.1158 9.81979 16.044C9.66838 15.9722 9.53498 15.8676 9.42933 15.7378C9.39171 15.6913 9.35794 15.642 9.32828 15.5905C9.2889 15.5447 9.24184 15.5059 9.18902 15.4757C9.11337 15.4326 9.02823 15.4086 8.94111 15.406H8.28067C8.19359 15.4088 8.10852 15.4328 8.0329 15.476Z" fill="#272B33"/>
<path d="M13.1234 18.4954C13.0478 18.5386 12.984 18.5995 12.9374 18.6729C12.8349 18.8262 12.6961 18.9519 12.5332 19.039C12.3704 19.126 12.1885 19.1718 12.0037 19.1723C11.836 19.1724 11.6704 19.1353 11.519 19.0634C11.3676 18.9916 11.2342 18.887 11.1286 18.7572C11.0223 18.6258 10.9468 18.4724 10.9076 18.3083C10.8684 18.1441 10.8664 17.9733 10.9019 17.8082C10.9478 17.5934 11.0562 17.3968 11.2136 17.243C11.371 17.0892 11.5704 16.985 11.7868 16.9435C12.0069 16.8999 12.2351 16.9227 12.4422 17.009C12.6492 17.0952 12.8258 17.241 12.9494 17.4278C12.9983 17.4965 13.0635 17.5522 13.1391 17.5899C13.2148 17.6276 13.2986 17.6462 13.3831 17.6439H14.0132C14.0978 17.6467 14.1818 17.6283 14.2576 17.5906C14.3333 17.5528 14.3984 17.4969 14.447 17.4278C14.5693 17.239 14.7454 17.0909 14.9528 17.0027C15.1601 16.9145 15.3892 16.8901 15.6106 16.9327C15.8272 16.974 16.0267 17.078 16.1841 17.2319C16.3416 17.3857 16.4499 17.5824 16.4955 17.7974C16.5316 17.9624 16.5299 18.1334 16.4906 18.2976C16.4514 18.4619 16.3756 18.6153 16.2689 18.7464C16.1636 18.8763 16.0304 18.981 15.8791 19.0528C15.7278 19.1246 15.5624 19.1618 15.3948 19.1615C15.2117 19.1615 15.0314 19.117 14.8694 19.0319C14.7075 18.9468 14.5688 18.8236 14.4654 18.6729C14.419 18.5994 14.3552 18.5383 14.2796 18.4952C14.2039 18.452 14.1188 18.428 14.0317 18.4254H13.3712C13.2841 18.4282 13.1991 18.4523 13.1234 18.4954Z" fill="#272B33"/>
<path d="M17.7415 11.9965C17.7418 12.2943 17.8606 12.5798 18.0719 12.7903C18.2831 13.0009 18.5695 13.1193 18.8683 13.1196C19.167 13.1193 19.4534 13.0009 19.6647 12.7903C19.8759 12.5798 19.9947 12.2943 19.995 11.9965C19.9947 11.6988 19.8759 11.4133 19.6647 11.2027C19.4534 10.9922 19.167 10.8738 18.8683 10.8735C18.5695 10.8738 18.2831 10.9922 18.0719 11.2027C17.8606 11.4133 17.7418 11.6988 17.7415 11.9965Z" fill="#272B33"/>
<path d="M7.72895 12.7903C7.51771 12.5798 7.39891 12.2943 7.39862 11.9965C7.39891 11.6988 7.51771 11.4133 7.72895 11.2027C7.9402 10.9922 8.22662 10.8738 8.52537 10.8735C8.82411 10.8738 9.11054 10.9922 9.32178 11.2027C9.53303 11.4133 9.65183 11.6988 9.65212 11.9965C9.65183 12.2943 9.53303 12.5798 9.32178 12.7903C9.11054 13.0009 8.82411 13.1193 8.52537 13.1196C8.22662 13.1193 7.9402 13.0009 7.72895 12.7903Z" fill="#272B33"/>
<path d="M15.957 8.97715C15.9573 9.27491 16.0761 9.56039 16.2874 9.77093C16.4986 9.98148 16.785 10.0999 17.0838 10.1002C17.3825 10.0999 17.669 9.98148 17.8802 9.77093C18.0914 9.56039 18.2102 9.27491 18.2105 8.97715C18.2102 8.67939 18.0914 8.39391 17.8802 8.18337C17.669 7.97282 17.3825 7.85441 17.0838 7.85413C16.785 7.85441 16.4986 7.97282 16.2874 8.18337C16.0761 8.39391 15.9573 8.67939 15.957 8.97715Z" fill="#272B33"/>
<path d="M5.79004 8.97715C5.79033 9.27491 5.90913 9.56039 6.12037 9.77093C6.33162 9.98148 6.61804 10.0999 6.91679 10.1002C7.21553 10.0999 7.50196 9.98148 7.71321 9.77093C7.92445 9.56039 8.04325 9.27491 8.04354 8.97715C8.04325 8.67939 7.92445 8.39391 7.71321 8.18337C7.50196 7.97282 7.21553 7.85441 6.91679 7.85413C6.61804 7.85441 6.33162 7.97282 6.12037 8.18337C5.90913 8.39391 5.79033 8.67939 5.79004 8.97715Z" fill="#272B33"/>
<path d="M15.957 15.0158C15.9573 15.3136 16.0761 15.5991 16.2874 15.8096C16.4986 16.0202 16.785 16.1386 17.0838 16.1389C17.3825 16.1386 17.669 16.0202 17.8802 15.8096C18.0914 15.5991 18.2102 15.3136 18.2105 15.0158C18.2102 14.7181 18.0914 14.4326 17.8802 14.2221C17.669 14.0115 17.3825 13.8931 17.0838 13.8928C16.785 13.8931 16.4986 14.0115 16.2874 14.2221C16.0761 14.4326 15.9573 14.7181 15.957 15.0158Z" fill="#272B33"/>
</svg>
