<svg width="62" height="62" viewBox="0 0 62 62" fill="none" xmlns="http://www.w3.org/2000/svg">
<mask id="mask0_1036_88991" style="mask-type:alpha" maskUnits="userSpaceOnUse" x="0" y="0" width="62" height="62">
<rect width="62" height="62" fill="#C4C4C4"/>
</mask>
<g mask="url(#mask0_1036_88991)">
<path d="M55.7086 10.8711H6.10585C5.31387 10.8711 4.67188 11.5148 4.67188 12.3089V48.7126C4.67188 49.5067 5.31387 50.1504 6.10585 50.1504H55.7086C56.5006 50.1504 57.1426 49.5067 57.1426 48.7126V12.3089C57.1426 11.5148 56.5006 10.8711 55.7086 10.8711Z" fill="#343333"/>
<path d="M23 12L23 49" stroke="#282828" stroke-width="2" stroke-linecap="square"/>
<path d="M6 30H23" stroke="#282828" stroke-width="2" stroke-linecap="square"/>
<path d="M23 47H56" stroke="#282828" stroke-width="2" stroke-linecap="square"/>
<path d="M12.8875 33.5723H0.409846C0.183494 33.5723 0 33.7562 0 33.9832V36.8691C0 37.0963 0.183494 37.2802 0.409846 37.2802H12.8875C13.1139 37.2802 13.2974 37.0963 13.2974 36.8691V33.9832C13.2974 33.7562 13.1139 33.5723 12.8875 33.5723Z" fill="#939696"/>
<path d="M12.7216 38.6836H0.57586C0.349509 38.6836 0.166016 38.8675 0.166016 39.0944V41.6476C0.166016 41.8745 0.349509 42.0584 0.57586 42.0584H12.7216C12.9479 42.0584 13.1314 41.8745 13.1314 41.6476V39.0944C13.1314 38.8675 12.9479 38.6836 12.7216 38.6836Z" fill="#939696" stroke="#939696" stroke-width="0.923719"/>
<path d="M12.8875 43.4609H0.409846C0.183494 43.4609 0 43.6449 0 43.8718V46.7578C0 46.9847 0.183494 47.1687 0.409846 47.1687H12.8875C13.1139 47.1687 13.2974 46.9847 13.2974 46.7578V43.8718C13.2974 43.6449 13.1139 43.4609 12.8875 43.4609Z" fill="#939696"/>
<path opacity="0.762835" d="M8.79513 35.0156H2.04759C1.82067 35.0156 1.63672 35.1998 1.63672 35.4276C1.63672 35.6551 1.82067 35.8396 2.04759 35.8396H8.79513C9.02204 35.8396 9.20601 35.6551 9.20601 35.4276C9.20601 35.1998 9.02204 35.0156 8.79513 35.0156Z" fill="#D8D8D8"/>
<path opacity="0.762835" d="M7.77227 44.9023H2.04759C1.82067 44.9023 1.63672 45.0868 1.63672 45.3143C1.63672 45.5418 1.82067 45.7263 2.04759 45.7263H7.77227C7.99918 45.7263 8.18313 45.5418 8.18313 45.3143C8.18313 45.0868 7.99918 44.9023 7.77227 44.9023Z" fill="#D8D8D8"/>
<path opacity="0.762835" d="M10.4317 39.959H2.04759C1.82067 39.959 1.63672 40.1435 1.63672 40.371C1.63672 40.5984 1.82067 40.7829 2.04759 40.7829H10.4317C10.6586 40.7829 10.8426 40.5984 10.8426 40.371C10.8426 40.1435 10.6586 39.959 10.4317 39.959Z" fill="#D8D8D8"/>
<g style="mix-blend-mode:luminosity">
<g style="mix-blend-mode:luminosity">
<path d="M20.7079 15.5547H6.42165C6.05071 15.5547 5.75 15.8562 5.75 16.2282V24.9713C5.75 25.3433 6.05071 25.6448 6.42165 25.6448H20.7079C21.0789 25.6448 21.3796 25.3433 21.3796 24.9713V16.2282C21.3796 15.8562 21.0789 15.5547 20.7079 15.5547Z" fill="#343333"/>
</g>
<g style="mix-blend-mode:luminosity">
<path d="M7.66918 19.9688H7.66017C7.48649 19.9688 7.3457 20.1099 7.3457 20.2841C7.3457 20.4582 7.48649 20.5994 7.66017 20.5994H7.66918C7.84285 20.5994 7.98365 20.4582 7.98365 20.2841C7.98365 20.1099 7.84285 19.9688 7.66918 19.9688Z" fill="white"/>
</g>
<g style="mix-blend-mode:luminosity">
<path d="M7.66918 18.3926H7.66017C7.48649 18.3926 7.3457 18.5337 7.3457 18.7079C7.3457 18.882 7.48649 19.0232 7.66017 19.0232H7.66918C7.84285 19.0232 7.98365 18.882 7.98365 18.7079C7.98365 18.5337 7.84285 18.3926 7.66918 18.3926Z" fill="white"/>
</g>
<g style="mix-blend-mode:luminosity">
<path d="M7.66918 16.8164H7.66017C7.48649 16.8164 7.3457 16.9576 7.3457 17.1317C7.3457 17.3059 7.48649 17.447 7.66017 17.447H7.66918C7.84285 17.447 7.98365 17.3059 7.98365 17.1317C7.98365 16.9576 7.84285 16.8164 7.66918 16.8164Z" fill="white"/>
</g>
<g style="mix-blend-mode:luminosity">
<path d="M12.7717 16.8164H10.2109C10.0373 16.8164 9.89648 16.9576 9.89648 17.1317C9.89648 17.3059 10.0373 17.447 10.2109 17.447H12.7717C12.9454 17.447 13.0862 17.3059 13.0862 17.1317C13.0862 16.9576 12.9454 16.8164 12.7717 16.8164Z" fill="white"/>
</g>
<g style="mix-blend-mode:luminosity">
<path d="M7.66918 21.5449H7.66017C7.48649 21.5449 7.3457 21.6861 7.3457 21.8602C7.3457 22.0344 7.48649 22.1756 7.66017 22.1756H7.66918C7.84285 22.1756 7.98365 22.0344 7.98365 21.8602C7.98365 21.6861 7.84285 21.5449 7.66918 21.5449Z" fill="white"/>
</g>
<g style="mix-blend-mode:luminosity">
<path d="M7.66918 23.1211H7.66017C7.48649 23.1211 7.3457 23.2623 7.3457 23.4364C7.3457 23.6106 7.48649 23.7517 7.66017 23.7517H7.66918C7.84285 23.7517 7.98365 23.6106 7.98365 23.4364C7.98365 23.2623 7.84285 23.1211 7.66918 23.1211Z" fill="white"/>
</g>
<g style="mix-blend-mode:luminosity">
<path d="M10.22 23.1211H10.2109C10.0373 23.1211 9.89648 23.2623 9.89648 23.4364C9.89648 23.6106 10.0373 23.7517 10.2109 23.7517H10.22C10.3936 23.7517 10.5344 23.6106 10.5344 23.4364C10.5344 23.2623 10.3936 23.1211 10.22 23.1211Z" fill="white"/>
</g>
<g style="mix-blend-mode:luminosity">
<path d="M12.7727 19.9688H12.7637C12.59 19.9688 12.4492 20.1099 12.4492 20.2841C12.4492 20.4582 12.59 20.5994 12.7637 20.5994H12.7727C12.9464 20.5994 13.0872 20.4582 13.0872 20.2841C13.0872 20.1099 12.9464 19.9688 12.7727 19.9688Z" fill="white"/>
</g>
<g style="mix-blend-mode:luminosity">
<path d="M19.47 19.9688H19.461C19.2873 19.9688 19.1465 20.1099 19.1465 20.2841C19.1465 20.4582 19.2873 20.5994 19.461 20.5994H19.47C19.6436 20.5994 19.7844 20.4582 19.7844 20.2841C19.7844 20.1099 19.6436 19.9688 19.47 19.9688Z" fill="white"/>
</g>
<g style="mix-blend-mode:luminosity">
<path d="M17.8754 19.9688H16.2715C16.0978 19.9688 15.957 20.1099 15.957 20.2841C15.957 20.4582 16.0978 20.5994 16.2715 20.5994H17.8754C18.049 20.5994 18.1898 20.4582 18.1898 20.2841C18.1898 20.1099 18.049 19.9688 17.8754 19.9688Z" fill="#0080FF"/>
</g>
<g style="mix-blend-mode:luminosity">
<path d="M11.4958 19.9688H10.2109C10.0373 19.9688 9.89648 20.1099 9.89648 20.2841C9.89648 20.4582 10.0373 20.5994 10.2109 20.5994H11.4958C11.6695 20.5994 11.8103 20.4582 11.8103 20.2841C11.8103 20.1099 11.6695 19.9688 11.4958 19.9688Z" fill="#BB6BD9"/>
</g>
<g style="mix-blend-mode:luminosity">
<path d="M14.686 19.9688H14.0391C13.8654 19.9688 13.7246 20.1099 13.7246 20.2841C13.7246 20.4582 13.8654 20.5994 14.0391 20.5994H14.686C14.8597 20.5994 15.0005 20.4582 15.0005 20.2841C15.0005 20.1099 14.8597 19.9688 14.686 19.9688Z" fill="#0080FF"/>
</g>
<g style="mix-blend-mode:luminosity">
<path d="M15.9618 21.5449H13.082C12.9084 21.5449 12.7676 21.6861 12.7676 21.8602C12.7676 22.0344 12.9084 22.1756 13.082 22.1756H15.9618C16.1355 22.1756 16.2763 22.0344 16.2763 21.8602C16.2763 21.6861 16.1355 21.5449 15.9618 21.5449Z" fill="#E5AF44"/>
</g>
<g style="mix-blend-mode:luminosity">
<path d="M11.8148 21.5449H10.2109C10.0373 21.5449 9.89648 21.6861 9.89648 21.8602C9.89648 22.0344 10.0373 22.1756 10.2109 22.1756H11.8148C11.9885 22.1756 12.1293 22.0344 12.1293 21.8602C12.1293 21.6861 11.9885 21.5449 11.8148 21.5449Z" fill="#E5AF44"/>
</g>
</g>
<path d="M39.0312 30.3456L45.9647 27.1855" stroke="#949494" stroke-width="0.435714"/>
<path d="M45.3945 33.5098L49.8068 36.3539" stroke="#949494" stroke-width="0.435714"/>
<path d="M34.0664 35.4258L36.2724 38.9017" stroke="#949494" stroke-width="0.435714"/>
<path d="M33.4338 35.1797L31.543 37.7076" stroke="#949494" stroke-width="0.435714"/>
<path d="M35.5867 23.1949L31.8047 22.8789" stroke="#949494" stroke-width="0.435714"/>
<path d="M34.0637 19.3789L31.8574 22.223" stroke="#949494" stroke-width="0.435714"/>
<path d="M39.1022 20.6504L36.2656 23.4945" stroke="#949494" stroke-width="0.435714"/>
<path d="M35.0215 19.9668L35.3366 23.1269" stroke="#949494" stroke-width="0.435714"/>
<path d="M39.0762 31.6055L44.1185 33.1855" stroke="#949494" stroke-width="0.435714"/>
<path d="M37.211 31.3945L33.7441 34.8707" stroke="#949494" stroke-width="0.435714"/>
<path d="M37.4224 29.4733L35.5312 23.7852" stroke="#949494" stroke-width="0.435714"/>
<path d="M47.2363 26.55L49.7575 25.918" stroke="#949494" stroke-width="0.435714"/>
<path d="M38.1109 31.9824C38.9812 31.9824 39.6867 31.2749 39.6867 30.4023C39.6867 29.5297 38.9812 28.8223 38.1109 28.8223C37.2407 28.8223 36.5352 29.5297 36.5352 30.4023C36.5352 31.2749 37.2407 31.9824 38.1109 31.9824Z" fill="#686767"/>
<path d="M31.4943 38.9332C32.0165 38.9332 32.4398 38.5087 32.4398 37.9851C32.4398 37.4616 32.0165 37.0371 31.4943 37.0371C30.9721 37.0371 30.5488 37.4616 30.5488 37.9851C30.5488 38.5087 30.9721 38.9332 31.4943 38.9332Z" fill="white"/>
<path d="M36.2209 40.1968C36.743 40.1968 37.1663 39.7724 37.1663 39.2488C37.1663 38.7252 36.743 38.3008 36.2209 38.3008C35.6987 38.3008 35.2754 38.7252 35.2754 39.2488C35.2754 39.7724 35.6987 40.1968 36.2209 40.1968Z" fill="white"/>
<path d="M49.7736 37.6695C50.2958 37.6695 50.7191 37.245 50.7191 36.7215C50.7191 36.1979 50.2958 35.7734 49.7736 35.7734C49.2514 35.7734 48.8281 36.1979 48.8281 36.7215C48.8281 37.245 49.2514 37.6695 49.7736 37.6695Z" fill="white"/>
<path d="M50.088 26.2945C50.6102 26.2945 51.0335 25.87 51.0335 25.3465C51.0335 24.8229 50.6102 24.3984 50.088 24.3984C49.5659 24.3984 49.1426 24.8229 49.1426 25.3465C49.1426 25.87 49.5659 26.2945 50.088 26.2945Z" fill="white"/>
<path d="M39.6877 20.9214C40.2098 20.9214 40.6331 20.497 40.6331 19.9734C40.6331 19.4498 40.2098 19.0254 39.6877 19.0254C39.1655 19.0254 38.7422 19.4498 38.7422 19.9734C38.7422 20.497 39.1655 20.9214 39.6877 20.9214Z" fill="white"/>
<path d="M34.6447 19.9742C35.1669 19.9742 35.5901 19.5497 35.5901 19.0261C35.5901 18.5026 35.1669 18.0781 34.6447 18.0781C34.1225 18.0781 33.6992 18.5026 33.6992 19.0261C33.6992 19.5497 34.1225 19.9742 34.6447 19.9742Z" fill="white"/>
<path d="M31.8087 23.4507C32.3309 23.4507 32.7542 23.0263 32.7542 22.5027C32.7542 21.9791 32.3309 21.5547 31.8087 21.5547C31.2866 21.5547 30.8633 21.9791 30.8633 22.5027C30.8633 23.0263 31.2866 23.4507 31.8087 23.4507Z" fill="white"/>
<path d="M33.6994 36.0894C34.2215 36.0894 34.6448 35.665 34.6448 35.1414C34.6448 34.6178 34.2215 34.1934 33.6994 34.1934C33.1772 34.1934 32.7539 34.6178 32.7539 35.1414C32.7539 35.665 33.1772 36.0894 33.6994 36.0894Z" fill="#B4B3B3"/>
<path d="M45.0451 34.1949C45.5672 34.1949 45.9906 33.7704 45.9906 33.2469C45.9906 32.7233 45.5672 32.2988 45.0451 32.2988C44.5229 32.2988 44.0996 32.7233 44.0996 33.2469C44.0996 33.7704 44.5229 34.1949 45.0451 34.1949Z" fill="#B4B3B3"/>
<path d="M46.3068 27.8746C46.829 27.8746 47.2523 27.4501 47.2523 26.9265C47.2523 26.403 46.829 25.9785 46.3068 25.9785C45.7846 25.9785 45.3613 26.403 45.3613 26.9265C45.3613 27.4501 45.7846 27.8746 46.3068 27.8746Z" fill="#B4B3B3"/>
<path d="M35.59 24.398C36.1122 24.398 36.5355 23.9736 36.5355 23.45C36.5355 22.9264 36.1122 22.502 35.59 22.502C35.0678 22.502 34.6445 22.9264 34.6445 23.45C34.6445 23.9736 35.0678 24.398 35.59 24.398Z" fill="#B4B3B3"/>
</g>
</svg>
