<svg width="1161" height="278" viewBox="0 0 1161 278" fill="none" xmlns="http://www.w3.org/2000/svg">
<path d="M366.187 121.382V152.092C366.187 185.577 386.722 204.077 418.727 204.077C450.732 204.077 471.082 185.577 471.082 152.092V121.382C471.082 87.8975 450.732 69.3975 418.727 69.3975C386.722 69.3975 366.187 87.8975 366.187 121.382ZM387.647 120.642C387.647 101.032 399.117 88.4525 418.727 88.4525C438.152 88.4525 449.622 101.032 449.622 120.642V152.832C449.622 172.442 438.152 185.022 418.727 185.022C399.117 185.022 387.647 172.442 387.647 152.832V120.642Z" fill="white"/>
<path d="M489.327 238.487H509.492V188.537H511.342C516.522 196.492 525.772 204.077 542.607 204.077C564.992 204.077 584.417 185.577 584.417 155.792C584.417 126.192 564.992 107.692 542.607 107.692C525.772 107.692 516.522 115.277 510.972 123.602H509.122V110.282H489.327V238.487ZM536.687 186.502C520.962 186.502 509.307 175.032 509.307 155.792C509.307 136.552 520.962 125.082 536.687 125.082C552.597 125.082 564.067 136.552 564.067 155.792C564.067 175.217 552.597 186.502 536.687 186.502Z" fill="white"/>
<path d="M595.965 155.422C595.965 184.097 614.835 204.077 642.585 204.077C667.745 204.077 678.475 189.647 683.84 180.027L667.005 170.962C663.305 178.917 656.83 186.502 642.955 186.502C628.34 186.502 617.61 176.327 616.87 162.267H686.06V153.942C686.06 126.007 668.3 107.507 641.845 107.507C615.02 107.507 595.965 126.932 595.965 155.422ZM617.055 146.542C618.72 133.777 627.6 125.082 641.66 125.082C655.165 125.082 664.23 133.407 665.34 146.542H617.055Z" fill="white"/>
<path d="M702.511 110.282V201.487H722.676V154.682C722.676 135.812 732.481 125.267 747.651 125.267C761.156 125.267 769.111 132.482 769.111 147.837V201.487H789.461V146.727C789.461 123.417 774.661 108.617 753.756 108.617C736.366 108.617 728.226 116.387 724.156 124.342H722.306V110.282H702.511Z" fill="white"/>
<path d="M811.456 71.9875V201.487H832.915V146.172H889.341V126.932H832.915V91.4125H893.041V71.9875H811.456Z" fill="white"/>
<path d="M904.204 151.722C904.204 185.207 924.739 204.077 957.114 204.077C988.749 204.077 1007.06 185.762 1007.06 155.607V137.292H952.119V155.607H985.974V158.012C985.974 174.477 976.354 185.022 957.114 185.022C937.689 185.022 925.664 172.442 925.664 151.907V121.567C925.664 101.032 937.689 88.4525 957.114 88.4525C975.984 88.4525 984.864 99.5525 984.864 114.907V117.312H1006.32V115.277C1006.32 87.7125 989.119 69.3975 957.114 69.3975C924.924 69.3975 904.204 88.2675 904.204 121.937V151.722Z" fill="white"/>
<path d="M1050.4 71.9875L1012.29 201.487H1034.3L1043 171.332H1091.1L1099.79 201.487H1121.62L1083.51 71.9875H1050.4ZM1048.18 151.907L1066.12 89.9325H1067.97L1085.73 151.907H1048.18Z" fill="white"/>
<path d="M1111.62 71.5371V75.2786H1119.43V96.4802H1123.52V75.2786H1131.33V71.5371H1111.62Z" fill="white"/>
<path d="M1133.97 71.5371V96.4802H1137.96V75.8131H1138.32L1144.45 96.4802H1150.25L1156.35 75.8131H1156.7V96.4802H1160.73V71.5371H1153.64L1147.51 92.3112H1147.15L1141.06 71.5371H1133.97Z" fill="white"/>
<path d="M221.106 0.746094H55.6898C24.9367 0.746094 0.00634766 25.6764 0.00634766 56.4296V221.846C0.00634766 252.599 24.9367 277.529 55.6898 277.529H221.106C251.859 277.529 276.789 252.599 276.789 221.846V56.4296C276.789 25.6764 251.859 0.746094 221.106 0.746094Z" fill="black"/>
<path d="M164.514 69.4544C164.517 72.8883 165.887 76.1806 168.324 78.6087C170.76 81.0369 174.063 82.4025 177.508 82.4058C180.954 82.4025 184.257 81.0369 186.693 78.6087C189.129 76.1806 190.499 72.8883 190.503 69.4544C190.499 66.0204 189.129 62.7281 186.693 60.3C184.257 57.8718 180.954 56.5062 177.508 56.5029C174.063 56.5062 170.76 57.8718 168.324 60.3C165.887 62.7281 164.517 66.0204 164.514 69.4544Z" fill="white"/>
<path d="M86.293 208.74C86.2963 212.173 87.6664 215.466 90.1026 217.894C92.5388 220.322 95.842 221.688 99.2873 221.691C102.733 221.688 106.036 220.322 108.472 217.894C110.908 215.466 112.278 212.173 112.282 208.74C112.278 205.306 110.908 202.013 108.472 199.585C106.036 197.157 102.733 195.791 99.2873 195.788C95.842 195.791 92.5388 197.157 90.1026 199.585C87.6664 202.013 86.2963 205.306 86.293 208.74Z" fill="white"/>
<path d="M163.555 139.097C163.558 142.531 164.928 145.823 167.364 148.251C169.801 150.679 173.104 152.045 176.549 152.048C179.994 152.045 183.298 150.679 185.734 148.251C188.17 145.823 189.54 142.531 189.543 139.097C189.54 135.663 188.17 132.371 185.734 129.943C183.298 127.514 179.994 126.149 176.549 126.146C173.104 126.149 169.801 127.514 167.364 129.943C164.928 132.371 163.558 135.663 163.555 139.097Z" fill="white"/>
<path d="M46.1914 139.097C46.1947 142.531 47.5648 145.823 50.001 148.251C52.4372 150.679 55.7405 152.045 59.1858 152.048C62.6311 152.045 65.9344 150.679 68.3706 148.251C70.8068 145.823 72.1769 142.531 72.1802 139.097C72.1769 135.663 70.8068 132.371 68.3706 129.943C65.9344 127.514 62.6311 126.149 59.1858 126.146C55.7405 126.149 52.4372 127.514 50.001 129.943C47.5648 132.371 46.1947 135.663 46.1914 139.097Z" fill="white"/>
<path d="M110.1 76.7265C110.637 75.8798 111.373 75.1769 112.245 74.6793C113.117 74.1817 114.099 73.9045 115.103 73.872H122.719C123.724 73.9023 124.706 74.1786 125.578 74.6764C126.451 75.1742 127.187 75.8783 127.722 76.7265C128.914 78.4637 130.513 79.8848 132.381 80.8666C134.249 81.8484 136.329 82.3613 138.44 82.3608C140.373 82.3643 142.281 81.9361 144.025 81.1078C145.77 80.2794 147.306 79.072 148.521 77.5742C149.752 76.0619 150.626 74.2931 151.078 72.3986C151.531 70.5042 151.55 68.5325 151.134 66.6297C150.608 64.1504 149.359 61.8813 147.543 60.1072C145.727 58.3331 143.426 57.1329 140.929 56.6574C138.376 56.1661 135.734 56.4472 133.342 57.4646C130.951 58.482 128.92 60.1892 127.509 62.3665C126.949 63.1636 126.198 63.8088 125.325 64.2441C124.451 64.6794 123.483 64.8909 122.507 64.8596H115.24C114.265 64.8854 113.299 64.6714 112.426 64.2366C111.554 63.8018 110.802 63.1595 110.238 62.3665C108.813 60.2129 106.777 58.5314 104.389 57.5367C102.001 56.542 99.3692 56.2793 96.8307 56.7821C94.3346 57.2607 92.0353 58.4618 90.2202 60.2354C88.4051 62.009 87.1547 64.2764 86.6252 66.7543C86.2162 68.6575 86.2386 70.6276 86.6909 72.5211C87.1431 74.4145 88.0137 76.1834 89.2391 77.6988C90.4575 79.1956 91.996 80.4021 93.7422 81.2302C95.4884 82.0584 97.3982 82.4872 99.332 82.4855C101.463 82.4803 103.56 81.9522 105.438 80.9479C107.316 79.9435 108.918 78.4937 110.1 76.7265Z" fill="url(#paint0_linear_144_5750)"/>
<path d="M129.656 111.628C130.193 110.782 130.929 110.079 131.801 109.581C132.673 109.083 133.654 108.806 134.659 108.774H142.275C143.28 108.804 144.262 109.08 145.134 109.578C146.007 110.076 146.743 110.78 147.278 111.628C148.47 113.365 150.069 114.787 151.937 115.768C153.805 116.75 155.885 117.263 157.996 117.263C159.928 117.266 161.837 116.838 163.581 116.01C165.326 115.181 166.862 113.974 168.077 112.476C169.308 110.964 170.182 109.195 170.634 107.3C171.087 105.406 171.106 103.434 170.69 101.531C170.164 99.0522 168.915 96.7831 167.099 95.009C165.283 93.2349 162.982 92.0348 160.485 91.5593C157.932 91.0679 155.29 91.3491 152.898 92.3665C150.507 93.3838 148.476 95.091 147.065 97.2684C146.505 98.0654 145.754 98.7107 144.881 99.1459C144.007 99.5812 143.039 99.7927 142.063 99.7614H134.796C133.821 99.7872 132.855 99.5732 131.982 99.1384C131.11 98.7036 130.358 98.0613 129.794 97.2684C128.369 95.1147 126.333 93.4332 123.945 92.4385C121.557 91.4438 118.925 91.1811 116.387 91.6839C113.891 92.1625 111.591 93.3636 109.776 95.1372C107.961 96.9108 106.711 99.1782 106.181 101.656C105.772 103.559 105.795 105.529 106.247 107.423C106.699 109.316 107.57 111.085 108.795 112.601C110.014 114.097 111.552 115.304 113.298 116.132C115.044 116.96 116.954 117.389 118.888 117.387C121.019 117.382 123.116 116.854 124.994 115.85C126.872 114.845 128.473 113.396 129.656 111.628Z" fill="url(#paint1_linear_144_5750)"/>
<path d="M92.6487 179.224C91.7766 179.722 91.0401 180.424 90.5035 181.271C89.3208 183.038 87.7198 184.488 85.8418 185.493C83.9638 186.497 81.8666 187.025 79.7353 187.03C77.8015 187.032 75.8917 186.603 74.1455 185.775C72.3993 184.947 70.8608 183.74 69.6424 182.244C68.417 180.728 67.5464 178.959 67.0942 177.066C66.6419 175.172 66.6195 173.202 67.0285 171.299C67.558 168.821 68.8084 166.554 70.6235 164.78C72.4386 163.006 74.7379 161.805 77.234 161.327C79.7725 160.824 82.4038 161.087 84.7919 162.081C87.1799 163.076 89.2163 164.758 90.641 166.911C91.2054 167.704 91.9571 168.346 92.8296 168.781C93.7021 169.216 94.6686 169.43 95.6437 169.404H102.91C103.886 169.436 104.855 169.224 105.728 168.789C106.601 168.354 107.352 167.708 107.913 166.911C109.323 164.734 111.354 163.027 113.746 162.009C116.137 160.992 118.779 160.711 121.332 161.202C123.83 161.678 126.131 162.878 127.946 164.652C128.723 165.411 129.396 166.26 129.953 167.178C130.49 167.849 131.168 168.396 131.94 168.781C132.813 169.216 133.779 169.43 134.754 169.404H142.021C142.997 169.436 143.965 169.224 144.839 168.789C145.712 168.354 146.463 167.708 147.023 166.911C148.434 164.734 150.465 163.027 152.856 162.009C155.248 160.992 157.89 160.711 160.443 161.202C162.94 161.678 165.241 162.878 167.057 164.652C168.873 166.426 170.122 168.695 170.648 171.174C171.064 173.077 171.045 175.049 170.592 176.943C170.14 178.838 169.266 180.607 168.035 182.119C166.82 183.617 165.284 184.824 163.539 185.652C161.795 186.481 159.887 186.909 157.954 186.906C155.843 186.906 153.763 186.393 151.895 185.411C150.027 184.429 148.428 183.008 147.236 181.271C146.701 180.423 145.965 179.719 145.092 179.221C144.22 178.723 143.238 178.447 142.233 178.417H134.617C133.613 178.449 132.631 178.726 131.759 179.224C130.887 179.722 130.151 180.424 129.614 181.271C128.432 183.038 126.83 184.488 124.952 185.493C123.074 186.497 120.977 187.025 118.846 187.03C116.912 187.032 115.002 186.603 113.256 185.775C111.51 184.947 109.972 183.74 108.753 182.244C108.319 181.707 107.93 181.139 107.588 180.544C107.134 180.017 106.591 179.569 105.982 179.221C105.109 178.723 104.127 178.447 103.123 178.417H95.5061C94.5018 178.449 93.5207 178.726 92.6487 179.224Z" fill="url(#paint2_linear_144_5750)"/>
<path d="M151.356 214.046C150.484 214.543 149.747 215.246 149.211 216.093C148.028 217.86 146.427 219.31 144.549 220.314C142.671 221.319 140.574 221.847 138.443 221.852C136.509 221.854 134.599 221.425 132.853 220.597C131.107 219.768 129.568 218.562 128.35 217.065C127.124 215.55 126.254 213.781 125.801 211.887C125.349 209.994 125.327 208.024 125.736 206.121C126.265 203.643 127.516 201.375 129.331 199.602C131.146 197.828 133.445 196.627 135.941 196.149C138.48 195.646 141.111 195.908 143.499 196.903C145.887 197.898 147.924 199.579 149.348 201.733C149.913 202.526 150.664 203.168 151.537 203.603C152.409 204.038 153.376 204.252 154.351 204.226H161.617C162.593 204.257 163.562 204.046 164.435 203.611C165.309 203.175 166.06 202.53 166.62 201.733C168.03 199.556 170.062 197.848 172.453 196.831C174.844 195.814 177.487 195.533 180.04 196.024C182.537 196.499 184.838 197.699 186.654 199.474C188.469 201.248 189.719 203.517 190.245 205.996C190.66 207.899 190.641 209.871 190.189 211.765C189.736 213.66 188.862 215.428 187.631 216.941C186.417 218.438 184.88 219.646 183.136 220.474C181.392 221.303 179.483 221.731 177.551 221.727C175.439 221.728 173.359 221.215 171.492 220.233C169.624 219.251 168.025 217.83 166.833 216.093C166.298 215.245 165.562 214.541 164.689 214.043C163.817 213.545 162.835 213.269 161.83 213.238H154.213C153.209 213.271 152.228 213.548 151.356 214.046Z" fill="url(#paint3_linear_144_5750)"/>
<path d="M204.615 139.097C204.618 142.53 205.988 145.823 208.424 148.251C210.86 150.679 214.164 152.045 217.609 152.048C221.054 152.045 224.358 150.679 226.794 148.251C229.23 145.823 230.6 142.53 230.603 139.097C230.6 135.663 229.23 132.37 226.794 129.942C224.358 127.514 221.054 126.148 217.609 126.145C214.164 126.148 210.86 127.514 208.424 129.942C205.988 132.37 204.618 135.663 204.615 139.097Z" fill="url(#paint4_linear_144_5750)"/>
<path d="M89.1434 148.251C86.7072 145.823 85.337 142.53 85.3337 139.097C85.337 135.663 86.7072 132.37 89.1434 129.942C91.5796 127.514 94.8828 126.148 98.3281 126.145C101.773 126.148 105.077 127.514 107.513 129.942C109.949 132.37 111.319 135.663 111.323 139.097C111.319 142.53 109.949 145.823 107.513 148.251C105.077 150.679 101.773 152.045 98.3281 152.048C94.8828 152.045 91.5796 150.679 89.1434 148.251Z" fill="url(#paint5_linear_144_5750)"/>
<path d="M184.028 104.275C184.031 107.709 185.401 111.001 187.837 113.429C190.274 115.857 193.577 117.223 197.022 117.226C200.468 117.223 203.771 115.857 206.207 113.429C208.643 111.001 210.013 107.709 210.017 104.275C210.013 100.841 208.643 97.5484 206.207 95.1203C203.771 92.6921 200.468 91.3265 197.022 91.3232C193.577 91.3265 190.274 92.6921 187.837 95.1203C185.401 97.5484 184.031 100.841 184.028 104.275Z" fill="white"/>
<path d="M66.7781 104.275C66.7814 107.709 68.1515 111.001 70.5877 113.429C73.0239 115.857 76.3271 117.223 79.7724 117.226C83.2178 117.223 86.521 115.857 88.9572 113.429C91.3934 111.001 92.7635 107.709 92.7668 104.275C92.7635 100.841 91.3934 97.5484 88.9572 95.1203C86.521 92.6921 83.2178 91.3265 79.7724 91.3232C76.3271 91.3265 73.0239 92.6921 70.5877 95.1203C68.1515 97.5484 66.7814 100.841 66.7781 104.275Z" fill="white"/>
<path d="M184.028 173.918C184.031 177.352 185.401 180.644 187.837 183.073C190.274 185.501 193.577 186.866 197.022 186.87C200.468 186.866 203.771 185.501 206.207 183.073C208.643 180.644 210.013 177.352 210.017 173.918C210.013 170.484 208.643 167.192 206.207 164.764C203.771 162.336 200.468 160.97 197.022 160.967C193.577 160.97 190.274 162.336 187.837 164.764C185.401 167.192 184.031 170.484 184.028 173.918Z" fill="white"/>
<defs>
<linearGradient id="paint0_linear_144_5750" x1="66.7376" y1="49.0992" x2="200.848" y2="231.126" gradientUnits="userSpaceOnUse">
<stop stop-color="#00FAFF"/>
<stop offset="1" stop-color="#8BFF95"/>
</linearGradient>
<linearGradient id="paint1_linear_144_5750" x1="66.7376" y1="49.0992" x2="200.848" y2="231.126" gradientUnits="userSpaceOnUse">
<stop stop-color="#00FAFF"/>
<stop offset="1" stop-color="#8BFF95"/>
</linearGradient>
<linearGradient id="paint2_linear_144_5750" x1="66.7376" y1="49.0992" x2="200.848" y2="231.126" gradientUnits="userSpaceOnUse">
<stop stop-color="#00FAFF"/>
<stop offset="1" stop-color="#8BFF95"/>
</linearGradient>
<linearGradient id="paint3_linear_144_5750" x1="66.7376" y1="49.0992" x2="200.848" y2="231.126" gradientUnits="userSpaceOnUse">
<stop stop-color="#00FAFF"/>
<stop offset="1" stop-color="#8BFF95"/>
</linearGradient>
<linearGradient id="paint4_linear_144_5750" x1="66.7376" y1="49.0992" x2="200.848" y2="231.126" gradientUnits="userSpaceOnUse">
<stop stop-color="#00FAFF"/>
<stop offset="1" stop-color="#8BFF95"/>
</linearGradient>
<linearGradient id="paint5_linear_144_5750" x1="66.7376" y1="49.0992" x2="200.848" y2="231.126" gradientUnits="userSpaceOnUse">
<stop stop-color="#00FAFF"/>
<stop offset="1" stop-color="#8BFF95"/>
</linearGradient>
</defs>
</svg>
