<svg width="36" height="36" viewBox="0 0 36 36" fill="none" xmlns="http://www.w3.org/2000/svg">
<rect width="36" height="36" rx="6.41961" fill="#EFF0F2"/>
<path d="M24.977 13.0869V26C24.977 27.1026 24.0834 27.9962 22.9808 27.9962H12.9962C11.8936 27.9962 11 27.1026 11 26V10.0092C11 8.90654 11.8936 8.01294 12.9962 8.01294H19.9888L24.977 13.0869Z" fill="#C4C4C4"/>
<path d="M24.9852 13.0551H21.6093C20.6981 13.0551 19.9595 12.3165 19.9595 11.4053V8L24.9852 13.0551Z" fill="#65676E"/>
<path d="M20.9928 17H15.0072C14.4517 17 14 17.4472 14 18C14 18.5515 14.4504 19 15.0072 19H20.9928C21.5483 19 22 18.5528 22 18C22 17.4472 21.5496 17 20.9928 17Z" fill="#9B9D9F"/>
<path d="M19.0502 20H14.9498C14.4259 20 14 20.4472 14 21C14 21.5515 14.4247 22 14.9498 22H19.0502C19.5741 22 20 21.5528 20 21C20 20.4472 19.5741 20 19.0502 20Z" fill="#9B9D9F"/>
</svg>
