<svg xmlns="http://www.w3.org/2000/svg" viewBox="0 0 101 32" width="101" height="32">
	<path fill="#ffffff" fill-rule="evenodd" d="m41 23.8h-6.4v-18h6.5q2.7 0 4.6 1.1 2 1.1 3.1 3.1 1 2 1 4.8 0 2.8-1 4.8-1.1 2.1-3.1 3.1-1.9 1.1-4.7 1.1zm-2.6-3.2h2.5q1.6 0 2.8-0.6 1.2-0.6 1.7-1.9 0.6-1.3 0.6-3.3 0-2-0.6-3.3-0.5-1.2-1.7-1.8-1.1-0.6-2.8-0.6h-2.5z"/>
	<path fill="#ffffff" d="m51.3 23.8v-13.5h3.8v13.5zm1.9-15.2q-0.9 0-1.5-0.6-0.6-0.5-0.6-1.3 0-0.8 0.6-1.4 0.6-0.5 1.5-0.5 0.8 0 1.4 0.5 0.6 0.6 0.6 1.4 0 0.8-0.6 1.3-0.6 0.6-1.4 0.6z"/>
	<path fill="#ffffff" d="m68.1 14.2l-3.4 0.2q-0.1-0.5-0.4-0.8-0.3-0.4-0.8-0.6-0.5-0.2-1.1-0.2-0.9 0-1.5 0.4-0.6 0.3-0.6 0.9 0 0.5 0.4 0.8 0.4 0.4 1.3 0.6l2.5 0.5q2 0.4 2.9 1.3 1 0.9 1 2.3 0 1.4-0.8 2.4-0.8 1-2.1 1.5-1.4 0.6-3.1 0.6-2.7 0-4.3-1.1-1.6-1.2-1.9-3.1l3.7-0.2q0.2 0.8 0.8 1.3 0.7 0.4 1.7 0.4 1 0 1.6-0.4 0.6-0.4 0.6-1 0-0.5-0.4-0.8-0.5-0.4-1.3-0.5l-2.4-0.5q-2-0.4-2.9-1.4-1-0.9-1-2.5 0-1.3 0.7-2.2 0.7-0.9 2-1.5 1.3-0.5 3-0.5 2.6 0 4.1 1.1 1.4 1.1 1.7 3z"/>
	<path fill="#ffffff" d="m76.8 10.3l1 2.8h-9.2v-2.8zm-6.5-3.2h3.8v12.6q0 0.5 0.1 0.8 0.2 0.3 0.5 0.4 0.3 0.1 0.7 0.1 0.2 0 0.5-0.1 0.2 0 0.4 0l0.6 2.8q-0.3 0-0.8 0.2-0.5 0.1-1.3 0.1-1.3 0.1-2.3-0.4-1-0.4-1.6-1.2-0.6-0.9-0.6-2.2z"/>
	<path fill="#ffffff" d="m80.2 28.9q-0.7 0-1.3-0.1-0.6-0.1-1-0.3l0.8-2.8q0.7 0.2 1.2 0.2 0.5 0 0.9-0.2 0.4-0.3 0.7-0.9l0.2-0.6-4.9-13.9h4l2.8 9.9h0.1l2.8-9.9h4l-5.3 15q-0.3 1.1-1 1.9-0.6 0.8-1.6 1.2-1 0.5-2.4 0.5z"/>
	<path fill="#ffffff" d="m94.9 5.8v18h-3.7v-18z"/>
	<path fill="#ffffff" d="m14.8 9.6h7.4l-3.7 6.2 2.2 3.6 8-13.4h-16z"/>
	<path fill="#ffffff" d="m6 6l11.3 19.1 2.2-3.6-9.2-15.5z"/>
</svg>
