<svg xmlns="http://www.w3.org/2000/svg" fill="none" viewBox="0 0 147 33" aria-hidden="true">
  <path fill="#FFFFFF" d="M27.142 19.978H16.62L27.83 8.746a.758.758 0 00-.534-1.293H9.488V0h19.534a7.573 7.573 0 014.065 1.125 7.591 7.591 0 012.836 3.126 7.402 7.402 0 01-1.461 8.398l-7.32 7.328z"/>
  <path fill="#FFFFFF" d="M9.489 11.042h10.524l-11.19 11.21a.772.772 0 00.543 1.316h17.759v7.452H7.61a7.574 7.574 0 01-4.065-1.125A7.593 7.593 0 01.71 26.768a7.403 7.403 0 011.462-8.397l7.318-7.329zM82.786 16.77c0 2.657-1.034 4.283-3.46 4.244-2.227-.04-3.38-1.666-3.38-4.283V6.696h-5.488v10.43c0 5.038 3.142 8.607 8.868 8.647 5.25.04 8.948-3.807 8.948-8.606V6.697h-5.488V16.77zM136.092 6.258c-5.925 0-10.098 4.204-10.098 9.757 0 5.552 4.175 9.756 10.098 9.756 5.923 0 10.099-4.204 10.099-9.756 0-5.553-4.173-9.757-10.099-9.757zm0 14.794c-2.744 0-4.69-2.063-4.69-5.037 0-2.975 1.948-5.038 4.69-5.038 2.743 0 4.691 2.063 4.691 5.038 0 2.974-1.947 5.037-4.691 5.037zM101.966 6.258c-5.926 0-10.099 4.204-10.099 9.757 0 .073.009.144.01.22h-.01v15.772h5.408V24.75a10.911 10.911 0 004.691 1.02c5.926 0 10.099-4.204 10.099-9.756 0-5.553-4.173-9.756-10.099-9.756zm0 14.794c-2.744 0-4.69-2.063-4.69-5.037 0-2.975 1.948-5.038 4.69-5.038 2.742 0 4.691 2.063 4.691 5.038 0 2.974-1.947 5.037-4.691 5.037zM49.868 11.41h10.814l-10.814 8.452v5.473h17.514v-4.716h-10.84l10.84-8.473V6.694H49.868v4.717zM124.369 25.335h-1.831a7.462 7.462 0 01-5.262-2.177 7.421 7.421 0 01-2.183-5.248V.005h5.518V17.91a1.927 1.927 0 001.927 1.921h1.831v5.504z"/>
</svg>
